<?xml version="1.0" encoding="utf-8"?>
<!-- Generator: Adobe Illustrator 24.1.3, SVG Export Plug-In . SVG Version: 6.00 Build 0)  -->
<svg version="1.1" id="Layer_1" xmlns="http://www.w3.org/2000/svg" xmlns:xlink="http://www.w3.org/1999/xlink" x="0px" y="0px"
	 viewBox="0 0 854.8 215.5" style="enable-background:new 0 0 854.8 215.5;" xml:space="preserve">
<style type="text/css">
	.st0{fill:none;stroke:#000000;stroke-width:2;stroke-miterlimit:10;}
	.st1{fill:#00AEEF;stroke:#231F20;stroke-width:2;stroke-miterlimit:10;}
	.st2{enable-background:new    ;}
	.st3{fill:none;stroke:#6D6E71;stroke-width:2;stroke-miterlimit:10;}
	.st4{fill:none;stroke:#6D6E71;stroke-width:2;stroke-miterlimit:10;stroke-dasharray:11.9,11.9;}
	.st5{fill:none;stroke:#6D6E71;stroke-width:2;stroke-miterlimit:10;stroke-dasharray:9.6,9.6;}
	.st6{fill:none;stroke:#231F20;stroke-width:3;stroke-miterlimit:10;}
	.st7{fill:#231F20;}
	.st8{fill:#FFFFFF;stroke:#6D6E71;stroke-width:2;stroke-miterlimit:10;}
	.st9{fill:#FFFFFF;stroke:#009900;stroke-width:2;stroke-miterlimit:10;}
</style>
<path class="st0" d="M321,28.6c2.3,0.1,13.1,6.1,19.3,18c5.3,10.1,6.4,26,6.4,28.7"/>
<g>
	<path d="M339.2,82.8c0,4.2,3.4,7.5,7.5,7.5s7.5-3.4,7.5-7.5c0-4.2-3.4-7.5-7.5-7.5S339.2,78.6,339.2,82.8z"/>
</g>
<g>
	<rect x="157" y="144.5" class="st1" width="180" height="60"/>
	<g>
		<path d="M189.1,179.9l-5.5-14.3h2.1l3.7,10.4c0.3,0.8,0.5,1.6,0.8,2.3c0.2-0.8,0.5-1.6,0.8-2.3l3.9-10.4h1.9l-5.6,14.3H189.1z"/>
		<path d="M204.1,176.5l1.8,0.2c-0.3,1.1-0.8,1.9-1.6,2.5s-1.8,0.9-3,0.9c-1.5,0-2.7-0.5-3.6-1.4c-0.9-0.9-1.3-2.2-1.3-3.9
			s0.4-3.1,1.3-4.1c0.9-1,2.1-1.4,3.5-1.4s2.5,0.5,3.4,1.4s1.3,2.3,1.3,4c0,0.1,0,0.3,0,0.5h-7.7c0.1,1.1,0.4,2,1,2.6
			s1.3,0.9,2.2,0.9c0.6,0,1.2-0.2,1.7-0.5C203.5,177.8,203.9,177.3,204.1,176.5z M198.4,173.7h5.8c-0.1-0.9-0.3-1.5-0.7-2
			c-0.6-0.7-1.3-1-2.2-1c-0.8,0-1.5,0.3-2,0.8C198.7,172.1,198.4,172.8,198.4,173.7z"/>
		<path d="M208.1,179.9v-10.4h1.6v1.6c0.4-0.7,0.8-1.2,1.1-1.5s0.7-0.4,1.1-0.4c0.6,0,1.2,0.2,1.8,0.6l-0.6,1.6
			c-0.4-0.3-0.9-0.4-1.3-0.4c-0.4,0-0.7,0.1-1,0.3s-0.5,0.6-0.7,1c-0.2,0.6-0.3,1.3-0.3,2.1v5.4L208.1,179.9L208.1,179.9z"/>
		<path d="M218.7,178.3l0.3,1.6c-0.5,0.1-0.9,0.2-1.3,0.2c-0.6,0-1.1-0.1-1.5-0.3s-0.6-0.5-0.7-0.8c-0.1-0.3-0.2-1-0.2-2.1v-6H214
			v-1.4h1.3v-2.6l1.7-1.1v3.6h1.8v1.4H217v6.1c0,0.5,0,0.8,0.1,1c0.1,0.1,0.2,0.3,0.3,0.3c0.1,0.1,0.3,0.1,0.6,0.1
			C218.1,178.4,218.3,178.3,218.7,178.3z"/>
		<path d="M227.5,176.5l1.8,0.2c-0.3,1.1-0.8,1.9-1.6,2.5s-1.8,0.9-3,0.9c-1.5,0-2.7-0.5-3.6-1.4c-0.9-0.9-1.3-2.2-1.3-3.9
			s0.4-3.1,1.3-4.1c0.9-1,2.1-1.4,3.5-1.4s2.5,0.5,3.4,1.4s1.3,2.3,1.3,4c0,0.1,0,0.3,0,0.5h-7.7c0.1,1.1,0.4,2,1,2.6
			s1.3,0.9,2.2,0.9c0.6,0,1.2-0.2,1.7-0.5C226.9,177.8,227.2,177.3,227.5,176.5z M221.7,173.7h5.8c-0.1-0.9-0.3-1.5-0.7-2
			c-0.6-0.7-1.3-1-2.2-1c-0.8,0-1.5,0.3-2,0.8C222.1,172.1,221.8,172.8,221.7,173.7z"/>
		<path d="M230.3,179.9l3.8-5.4l-3.5-5h2.2l1.6,2.4c0.3,0.5,0.5,0.8,0.7,1.2c0.3-0.4,0.5-0.8,0.8-1.1l1.7-2.5h2.1l-3.6,4.9l3.9,5.5
			h-2.2l-2.1-3.2l-0.6-0.9l-2.7,4.1H230.3z"/>
		<path d="M246.6,175.3l1.8-0.2c0.1,0.7,0.3,1.3,0.6,1.8s0.8,0.8,1.4,1.1c0.7,0.3,1.4,0.4,2.2,0.4c0.7,0,1.4-0.1,1.9-0.3
			c0.6-0.2,1-0.5,1.2-0.9c0.3-0.4,0.4-0.8,0.4-1.2s-0.1-0.8-0.4-1.2c-0.3-0.3-0.7-0.6-1.3-0.8c-0.4-0.1-1.2-0.4-2.5-0.7
			s-2.2-0.6-2.8-0.9c-0.7-0.4-1.2-0.8-1.5-1.3s-0.5-1.1-0.5-1.8s0.2-1.4,0.6-2c0.4-0.6,1-1.1,1.8-1.4s1.7-0.5,2.6-0.5
			c1.1,0,2,0.2,2.8,0.5s1.4,0.8,1.9,1.5c0.4,0.7,0.7,1.4,0.7,2.3l-1.8,0.1c-0.1-0.9-0.4-1.6-1-2.1s-1.4-0.7-2.5-0.7s-2,0.2-2.5,0.6
			c-0.5,0.4-0.8,0.9-0.8,1.5c0,0.5,0.2,0.9,0.6,1.3c0.4,0.3,1.3,0.7,2.9,1c1.5,0.3,2.6,0.7,3.2,0.9c0.8,0.4,1.4,0.9,1.8,1.5
			s0.6,1.3,0.6,2c0,0.8-0.2,1.5-0.7,2.2c-0.4,0.7-1.1,1.2-1.9,1.6c-0.8,0.4-1.7,0.6-2.8,0.6c-1.3,0-2.4-0.2-3.3-0.6
			c-0.9-0.4-1.6-0.9-2.1-1.7C246.7,177.1,246.7,176.2,246.6,175.3z"/>
		<path d="M260.4,179.9v-14.4h1.8v5.1c0.8-1,1.9-1.4,3.1-1.4c0.8,0,1.4,0.2,2,0.5s1,0.7,1.2,1.3c0.2,0.5,0.4,1.3,0.4,2.3v6.6h-1.8
			v-6.6c0-0.9-0.2-1.5-0.6-1.9s-0.9-0.6-1.6-0.6c-0.5,0-1,0.1-1.5,0.4s-0.8,0.6-1,1.1s-0.3,1.1-0.3,1.9v5.7L260.4,179.9L260.4,179.9
			z"/>
		<path d="M278.3,178.6c-0.7,0.6-1.3,0.9-1.9,1.2c-0.6,0.2-1.2,0.3-1.9,0.3c-1.1,0-2-0.3-2.6-0.8c-0.6-0.6-0.9-1.3-0.9-2.1
			c0-0.5,0.1-1,0.3-1.4c0.2-0.4,0.5-0.8,0.9-1c0.4-0.3,0.8-0.4,1.3-0.6c0.3-0.1,0.9-0.2,1.6-0.3c1.4-0.2,2.5-0.4,3.1-0.6
			c0-0.2,0-0.4,0-0.5c0-0.7-0.2-1.2-0.5-1.5c-0.4-0.4-1.1-0.6-2-0.6c-0.8,0-1.4,0.1-1.8,0.4c-0.4,0.3-0.7,0.8-0.9,1.5l-1.7-0.2
			c0.2-0.7,0.4-1.3,0.8-1.8s0.9-0.8,1.6-1s1.5-0.4,2.4-0.4s1.6,0.1,2.2,0.3s1,0.5,1.2,0.8c0.3,0.3,0.4,0.7,0.5,1.2
			c0.1,0.3,0.1,0.8,0.1,1.6v2.3c0,1.6,0,2.7,0.1,3.1c0.1,0.4,0.2,0.8,0.4,1.2h-1.8C278.5,179.5,278.3,179.1,278.3,178.6z
			 M278.1,174.7c-0.6,0.3-1.6,0.5-2.9,0.7c-0.7,0.1-1.2,0.2-1.5,0.4c-0.3,0.1-0.5,0.3-0.7,0.6s-0.2,0.5-0.2,0.8
			c0,0.5,0.2,0.9,0.5,1.2c0.4,0.3,0.9,0.5,1.6,0.5s1.3-0.1,1.8-0.4s0.9-0.7,1.2-1.2c0.2-0.4,0.3-1,0.3-1.8L278.1,174.7L278.1,174.7z
			"/>
		<path d="M289.4,179.9v-1.3c-0.7,1-1.6,1.5-2.9,1.5c-0.8,0-1.6-0.2-2.3-0.7s-1.2-1.1-1.6-1.9s-0.6-1.8-0.6-2.8s0.2-2,0.5-2.8
			s0.9-1.5,1.6-1.9s1.5-0.7,2.3-0.7c0.6,0,1.2,0.1,1.7,0.4s0.9,0.6,1.2,1v-5.1h1.7v14.3C291,179.9,289.4,179.9,289.4,179.9z
			 M283.8,174.7c0,1.3,0.3,2.3,0.8,3c0.6,0.7,1.2,1,2,1s1.4-0.3,2-0.9c0.6-0.6,0.8-1.6,0.8-2.9c0-1.4-0.3-2.5-0.8-3.1
			c-0.5-0.7-1.2-1-2-1s-1.4,0.3-2,1C284.1,172.3,283.8,173.3,283.8,174.7z"/>
		<path d="M300.9,176.5l1.8,0.2c-0.3,1.1-0.8,1.9-1.6,2.5c-0.8,0.6-1.8,0.9-3,0.9c-1.5,0-2.7-0.5-3.6-1.4s-1.3-2.2-1.3-3.9
			s0.4-3.1,1.3-4.1s2.1-1.4,3.5-1.4s2.5,0.5,3.4,1.4s1.3,2.3,1.3,4c0,0.1,0,0.3,0,0.5H295c0.1,1.1,0.4,2,1,2.6s1.3,0.9,2.2,0.9
			c0.6,0,1.2-0.2,1.7-0.5C300.2,177.8,300.6,177.3,300.9,176.5z M295.1,173.7h5.8c-0.1-0.9-0.3-1.5-0.7-2c-0.6-0.7-1.3-1-2.2-1
			c-0.8,0-1.5,0.3-2,0.8C295.5,172.1,295.2,172.8,295.1,173.7z"/>
		<path d="M304.9,179.9v-10.4h1.6v1.6c0.4-0.7,0.8-1.2,1.1-1.5c0.3-0.3,0.7-0.4,1.1-0.4c0.6,0,1.2,0.2,1.8,0.6l-0.6,1.6
			c-0.4-0.3-0.9-0.4-1.3-0.4s-0.7,0.1-1,0.3s-0.5,0.6-0.7,1c-0.2,0.6-0.3,1.3-0.3,2.1v5.4L304.9,179.9L304.9,179.9z"/>
	</g>
</g>
<rect x="518.1" y="144.5" class="st1" width="180" height="60"/>
<g class="st2">
	<path d="M531.8,179.9v-14.3h9.7v1.7h-7.8v4.4h6.7v1.7h-6.7v6.5L531.8,179.9L531.8,179.9z"/>
	<path d="M543.7,179.9v-10.4h1.6v1.6c0.4-0.7,0.8-1.2,1.1-1.5s0.7-0.4,1.1-0.4c0.6,0,1.2,0.2,1.8,0.6l-0.6,1.6
		c-0.4-0.3-0.9-0.4-1.3-0.4c-0.4,0-0.7,0.1-1,0.3s-0.5,0.6-0.7,1c-0.2,0.6-0.3,1.3-0.3,2.1v5.4L543.7,179.9L543.7,179.9z"/>
	<path d="M557.1,178.6c-0.7,0.6-1.3,0.9-1.9,1.2c-0.6,0.2-1.2,0.3-1.9,0.3c-1.1,0-2-0.3-2.6-0.8c-0.6-0.6-0.9-1.3-0.9-2.1
		c0-0.5,0.1-1,0.3-1.4s0.5-0.8,0.9-1c0.4-0.3,0.8-0.4,1.3-0.6c0.3-0.1,0.9-0.2,1.6-0.3c1.4-0.2,2.5-0.4,3.1-0.6c0-0.2,0-0.4,0-0.5
		c0-0.7-0.2-1.2-0.5-1.5c-0.4-0.4-1.1-0.6-2-0.6c-0.8,0-1.4,0.1-1.8,0.4c-0.4,0.3-0.7,0.8-0.9,1.5l-1.7-0.2c0.2-0.7,0.4-1.3,0.8-1.8
		c0.4-0.5,0.9-0.8,1.6-1c0.7-0.2,1.5-0.4,2.4-0.4s1.6,0.1,2.2,0.3c0.6,0.2,1,0.5,1.2,0.8c0.3,0.3,0.4,0.7,0.5,1.2
		c0.1,0.3,0.1,0.8,0.1,1.6v2.3c0,1.6,0,2.7,0.1,3.1c0.1,0.4,0.2,0.8,0.4,1.2h-1.8C557.3,179.5,557.2,179.1,557.1,178.6z M557,174.6
		c-0.6,0.3-1.6,0.5-2.9,0.7c-0.7,0.1-1.2,0.2-1.5,0.4c-0.3,0.1-0.5,0.3-0.7,0.6s-0.2,0.5-0.2,0.8c0,0.5,0.2,0.9,0.5,1.2
		c0.4,0.3,0.9,0.5,1.6,0.5c0.7,0,1.3-0.1,1.8-0.4s0.9-0.7,1.2-1.2c0.2-0.4,0.3-1,0.3-1.8L557,174.6L557,174.6z"/>
	<path d="M561.1,180.7l1.7,0.3c0.1,0.5,0.3,0.9,0.6,1.2c0.4,0.3,1,0.5,1.8,0.5s1.4-0.2,1.9-0.5c0.4-0.3,0.7-0.8,0.9-1.4
		c0.1-0.4,0.1-1.1,0.1-2.3c-0.8,0.9-1.7,1.4-2.9,1.4c-1.4,0-2.5-0.5-3.3-1.5s-1.2-2.3-1.2-3.7c0-1,0.2-1.9,0.5-2.7
		c0.4-0.8,0.9-1.5,1.6-1.9c0.7-0.5,1.5-0.7,2.4-0.7c1.2,0,2.2,0.5,3,1.5v-1.3h1.6v9c0,1.6-0.2,2.8-0.5,3.4c-0.3,0.7-0.8,1.2-1.6,1.6
		s-1.6,0.6-2.6,0.6c-1.2,0-2.2-0.3-3-0.8S561.1,181.8,561.1,180.7z M562.6,174.5c0,1.4,0.3,2.4,0.8,3s1.2,0.9,2,0.9s1.5-0.3,2-0.9
		s0.8-1.6,0.8-2.9c0-1.3-0.3-2.2-0.8-2.9c-0.6-0.6-1.2-1-2-1s-1.4,0.3-2,1S562.6,173.2,562.6,174.5z"/>
	<path d="M572.6,179.9v-10.4h1.6v1.5c0.3-0.5,0.8-0.9,1.3-1.2s1.2-0.5,1.8-0.5c0.8,0,1.4,0.2,1.9,0.5s0.8,0.8,1,1.3
		c0.8-1.2,1.9-1.8,3.2-1.8c1,0,1.8,0.3,2.4,0.9c0.6,0.6,0.8,1.4,0.8,2.6v7.1h-1.7v-6.5c0-0.7-0.1-1.2-0.2-1.5
		c-0.1-0.3-0.3-0.6-0.6-0.7c-0.3-0.2-0.7-0.3-1.1-0.3c-0.7,0-1.3,0.2-1.8,0.7s-0.7,1.3-0.7,2.3v6h-1.8v-6.7c0-0.8-0.1-1.4-0.4-1.8
		c-0.3-0.4-0.8-0.6-1.4-0.6c-0.5,0-1,0.1-1.4,0.4s-0.7,0.6-0.9,1.1s-0.3,1.2-0.3,2.2v5.4H572.6z"/>
	<path d="M596.4,176.5l1.8,0.2c-0.3,1.1-0.8,1.9-1.6,2.5s-1.8,0.9-3,0.9c-1.5,0-2.7-0.5-3.6-1.4s-1.3-2.2-1.3-3.9s0.4-3.1,1.3-4.1
		s2.1-1.4,3.5-1.4s2.5,0.5,3.4,1.4s1.3,2.3,1.3,4c0,0.1,0,0.3,0,0.5h-7.7c0.1,1.1,0.4,2,1,2.6s1.3,0.9,2.2,0.9
		c0.6,0,1.2-0.2,1.7-0.5C595.7,177.8,596.1,177.3,596.4,176.5z M590.6,173.7h5.8c-0.1-0.9-0.3-1.5-0.7-2c-0.6-0.7-1.3-1-2.2-1
		c-0.8,0-1.5,0.3-2,0.8C590.9,172,590.6,172.8,590.6,173.7z"/>
	<path d="M600.4,179.9v-10.4h1.6v1.5c0.8-1.1,1.9-1.7,3.3-1.7c0.6,0,1.2,0.1,1.7,0.3s0.9,0.5,1.2,0.9s0.4,0.8,0.5,1.3
		c0.1,0.3,0.1,0.9,0.1,1.7v6.4H607v-6.3c0-0.7-0.1-1.3-0.2-1.6s-0.4-0.6-0.7-0.8s-0.8-0.3-1.2-0.3c-0.7,0-1.4,0.2-1.9,0.7
		s-0.8,1.4-0.8,2.7v5.7L600.4,179.9L600.4,179.9z"/>
	<path d="M615.3,178.3l0.3,1.6c-0.5,0.1-0.9,0.2-1.3,0.2c-0.6,0-1.1-0.1-1.5-0.3s-0.6-0.5-0.7-0.8c-0.1-0.3-0.2-1-0.2-2.1v-6h-1.3
		v-1.4h1.3v-2.6l1.7-1.1v3.6h1.8v1.4h-1.8v6.1c0,0.5,0,0.8,0.1,1c0.1,0.1,0.2,0.3,0.3,0.3c0.1,0.1,0.3,0.1,0.6,0.1
		C614.8,178.4,615,178.3,615.3,178.3z"/>
	<path d="M622.2,175.3l1.8-0.2c0.1,0.7,0.3,1.3,0.6,1.8s0.8,0.8,1.4,1.1c0.7,0.3,1.4,0.4,2.2,0.4c0.7,0,1.4-0.1,1.9-0.3
		c0.6-0.2,1-0.5,1.2-0.9c0.3-0.4,0.4-0.8,0.4-1.2s-0.1-0.8-0.4-1.2c-0.3-0.3-0.7-0.6-1.3-0.8c-0.4-0.1-1.2-0.4-2.5-0.7
		s-2.2-0.6-2.8-0.9c-0.7-0.4-1.2-0.8-1.5-1.3s-0.5-1.1-0.5-1.8s0.2-1.4,0.6-2s1-1.1,1.8-1.4c0.8-0.3,1.7-0.5,2.6-0.5
		c1.1,0,2,0.2,2.8,0.5s1.4,0.8,1.9,1.5c0.4,0.7,0.7,1.4,0.7,2.3l-1.8,0.1c-0.1-0.9-0.4-1.6-1-2.1s-1.4-0.7-2.5-0.7s-2,0.2-2.5,0.6
		c-0.5,0.4-0.8,0.9-0.8,1.5c0,0.5,0.2,0.9,0.6,1.3c0.4,0.3,1.3,0.7,2.9,1c1.5,0.3,2.6,0.7,3.2,0.9c0.8,0.4,1.4,0.9,1.8,1.5
		c0.4,0.6,0.6,1.3,0.6,2c0,0.8-0.2,1.5-0.7,2.2c-0.4,0.7-1.1,1.2-1.9,1.6c-0.8,0.4-1.7,0.6-2.8,0.6c-1.3,0-2.4-0.2-3.3-0.6
		c-0.9-0.4-1.6-0.9-2.1-1.7S622.2,176.2,622.2,175.3z"/>
	<path d="M636,179.9v-14.3h1.8v5.1c0.8-1,1.9-1.4,3.1-1.4c0.8,0,1.4,0.2,2,0.5s1,0.7,1.2,1.3s0.4,1.3,0.4,2.3v6.6h-1.8v-6.6
		c0-0.9-0.2-1.5-0.6-1.9s-0.9-0.6-1.6-0.6c-0.5,0-1,0.1-1.5,0.4s-0.8,0.6-1,1.1s-0.3,1.1-0.3,1.9v5.7H636V179.9z"/>
	<path d="M653.8,178.6c-0.7,0.6-1.3,0.9-1.9,1.2c-0.6,0.2-1.2,0.3-1.9,0.3c-1.1,0-2-0.3-2.6-0.8c-0.6-0.6-0.9-1.3-0.9-2.1
		c0-0.5,0.1-1,0.3-1.4s0.5-0.8,0.9-1c0.4-0.3,0.8-0.4,1.3-0.6c0.3-0.1,0.9-0.2,1.6-0.3c1.4-0.2,2.5-0.4,3.1-0.6c0-0.2,0-0.4,0-0.5
		c0-0.7-0.2-1.2-0.5-1.5c-0.4-0.4-1.1-0.6-2-0.6c-0.8,0-1.4,0.1-1.8,0.4c-0.4,0.3-0.7,0.8-0.9,1.5l-1.7-0.2c0.2-0.7,0.4-1.3,0.8-1.8
		c0.4-0.5,0.9-0.8,1.6-1c0.7-0.2,1.5-0.4,2.4-0.4s1.6,0.1,2.2,0.3c0.6,0.2,1,0.5,1.2,0.8c0.3,0.3,0.4,0.7,0.5,1.2
		c0.1,0.3,0.1,0.8,0.1,1.6v2.3c0,1.6,0,2.7,0.1,3.1c0.1,0.4,0.2,0.8,0.4,1.2h-1.8C654,179.5,653.9,179.1,653.8,178.6z M653.7,174.6
		c-0.6,0.3-1.6,0.5-2.9,0.7c-0.7,0.1-1.2,0.2-1.5,0.4c-0.3,0.1-0.5,0.3-0.7,0.6s-0.2,0.5-0.2,0.8c0,0.5,0.2,0.9,0.5,1.2
		c0.4,0.3,0.9,0.5,1.6,0.5c0.7,0,1.3-0.1,1.8-0.4s0.9-0.7,1.2-1.2c0.2-0.4,0.3-1,0.3-1.8L653.7,174.6L653.7,174.6z"/>
	<path d="M664.9,179.9v-1.3c-0.7,1-1.6,1.5-2.9,1.5c-0.8,0-1.6-0.2-2.3-0.7s-1.2-1.1-1.6-1.9s-0.6-1.8-0.6-2.8s0.2-2,0.5-2.8
		s0.9-1.5,1.6-1.9c0.7-0.4,1.5-0.7,2.3-0.7c0.6,0,1.2,0.1,1.7,0.4s0.9,0.6,1.2,1v-5.1h1.7v14.3H664.9z M659.4,174.7
		c0,1.3,0.3,2.3,0.8,3c0.6,0.7,1.2,1,2,1s1.4-0.3,2-0.9s0.8-1.6,0.8-2.9c0-1.4-0.3-2.5-0.8-3.1s-1.2-1-2-1s-1.4,0.3-2,1
		C659.6,172.3,659.4,173.3,659.4,174.7z"/>
	<path d="M676.4,176.5l1.8,0.2c-0.3,1.1-0.8,1.9-1.6,2.5s-1.8,0.9-3,0.9c-1.5,0-2.7-0.5-3.6-1.4s-1.3-2.2-1.3-3.9s0.4-3.1,1.3-4.1
		s2.1-1.4,3.5-1.4s2.5,0.5,3.4,1.4s1.3,2.3,1.3,4c0,0.1,0,0.3,0,0.5h-7.7c0.1,1.1,0.4,2,1,2.6s1.3,0.9,2.2,0.9
		c0.6,0,1.2-0.2,1.7-0.5C675.8,177.8,676.2,177.3,676.4,176.5z M670.7,173.7h5.8c-0.1-0.9-0.3-1.5-0.7-2c-0.6-0.7-1.3-1-2.2-1
		c-0.8,0-1.5,0.3-2,0.8C671,172,670.7,172.8,670.7,173.7z"/>
	<path d="M680.4,179.9v-10.4h1.6v1.6c0.4-0.7,0.8-1.2,1.1-1.5s0.7-0.4,1.1-0.4c0.6,0,1.2,0.2,1.8,0.6l-0.6,1.6
		c-0.4-0.3-0.9-0.4-1.3-0.4c-0.4,0-0.7,0.1-1,0.3s-0.5,0.6-0.7,1c-0.2,0.6-0.3,1.3-0.3,2.1v5.4L680.4,179.9L680.4,179.9z"/>
</g>
<g>
	<polyline class="st3" points="126.5,198.5 126.5,204.5 122.1,204.5 	"/>
	<line class="st4" x1="113.6" y1="204.5" x2="15.1" y2="204.5"/>
	<polyline class="st3" points="10.8,204.5 6.5,204.5 6.5,198.5 	"/>
	<line class="st5" x1="6.5" y1="188.9" x2="6.5" y2="155.3"/>
	<polyline class="st3" points="6.5,150.5 6.5,144.5 10.8,144.5 	"/>
	<line class="st4" x1="19.4" y1="144.5" x2="117.8" y2="144.5"/>
	<polyline class="st3" points="122.1,144.5 126.5,144.5 126.5,150.5 	"/>
	<line class="st5" x1="126.5" y1="160.1" x2="126.5" y2="193.7"/>
</g>
<g>
	<line class="st6" x1="110.7" y1="158.5" x2="151.7" y2="158.5"/>
	<path class="st7" d="M169.8,158.5c-8.5,3.2-19.1,8.6-25.6,14.3l5.1-14.3l-5.2-14.3C150.7,149.9,161.2,155.3,169.8,158.5z"/>
</g>
<rect x="316" y="82.6" class="st8" width="61.4" height="29.8"/>
<rect x="471.6" y="82.6" class="st8" width="61.4" height="29.8"/>
<g>
	<circle cx="551.9" cy="97.5" r="2.5"/>
	<circle cx="560.7" cy="97.5" r="2.5"/>
	<circle cx="569.5" cy="97.5" r="2.5"/>
</g>
<g>
	<polyline class="st3" points="487.6,198.5 487.6,204.5 483.2,204.5 	"/>
	<line class="st4" x1="474.7" y1="204.5" x2="376.2" y2="204.5"/>
	<polyline class="st3" points="371.9,204.5 367.6,204.5 367.6,198.5 	"/>
	<line class="st5" x1="367.6" y1="188.9" x2="367.6" y2="155.3"/>
	<polyline class="st3" points="367.6,150.5 367.6,144.5 371.9,144.5 	"/>
	<line class="st4" x1="380.4" y1="144.5" x2="478.9" y2="144.5"/>
	<polyline class="st3" points="483.2,144.5 487.6,144.5 487.6,150.5 	"/>
	<line class="st5" x1="487.6" y1="160.1" x2="487.6" y2="193.7"/>
</g>
<g>
	<line class="st6" x1="477.1" y1="158.5" x2="518.1" y2="158.5"/>
	<path class="st7" d="M536.2,158.5c-8.5,3.2-19.1,8.6-25.6,14.3l5.1-14.3l-5.2-14.3C517.1,149.9,527.6,155.3,536.2,158.5z"/>
</g>
<g>
	<line class="st6" x1="319.3" y1="158.5" x2="360.3" y2="158.5"/>
	<path class="st7" d="M378.3,158.5c-8.5,3.2-19.1,8.6-25.6,14.3l5.1-14.3l-5.2-14.3C359.3,149.9,369.8,155.3,378.3,158.5z"/>
</g>
<g>
	<polyline class="st3" points="848.7,198.5 848.7,204.5 844.3,204.5 	"/>
	<line class="st4" x1="835.8" y1="204.5" x2="737.3" y2="204.5"/>
	<polyline class="st3" points="733,204.5 728.7,204.5 728.7,198.5 	"/>
	<line class="st5" x1="728.7" y1="188.9" x2="728.7" y2="155.3"/>
	<polyline class="st3" points="728.7,150.5 728.7,144.5 733,144.5 	"/>
	<line class="st4" x1="741.5" y1="144.5" x2="840" y2="144.5"/>
	<polyline class="st3" points="844.3,144.5 848.7,144.5 848.7,150.5 	"/>
	<line class="st5" x1="848.7" y1="160.1" x2="848.7" y2="193.7"/>
</g>
<g>
	<line class="st6" x1="680.7" y1="158.5" x2="721.7" y2="158.5"/>
	<path class="st7" d="M739.8,158.5c-8.5,3.2-19.1,8.6-25.6,14.3l5.1-14.3l-5.2-14.3C720.7,149.9,731.2,155.3,739.8,158.5z"/>
</g>
<g class="st2">
	<path d="M152.4,102.9V88.6h5.4c1.1,0,2,0.1,2.6,0.4s1.2,0.7,1.6,1.3s0.6,1.2,0.6,1.9c0,0.6-0.2,1.2-0.5,1.7s-0.8,1-1.5,1.3
		c0.9,0.3,1.5,0.7,2,1.3s0.7,1.3,0.7,2.2c0,0.7-0.1,1.3-0.4,1.9s-0.6,1-1,1.3s-0.9,0.5-1.6,0.7s-1.4,0.2-2.3,0.2L152.4,102.9
		L152.4,102.9z M154.3,94.6h3.1c0.8,0,1.4-0.1,1.8-0.2c0.5-0.1,0.8-0.4,1.1-0.7s0.4-0.7,0.4-1.3c0-0.5-0.1-0.9-0.3-1.3
		s-0.6-0.6-1-0.7s-1.1-0.2-2.2-0.2h-2.9L154.3,94.6L154.3,94.6z M154.3,101.2h3.6c0.6,0,1,0,1.3-0.1c0.4-0.1,0.8-0.2,1.1-0.4
		s0.5-0.4,0.7-0.8s0.3-0.8,0.3-1.2c0-0.5-0.1-1-0.4-1.4s-0.7-0.7-1.1-0.8s-1.2-0.2-2.1-0.2h-3.3v4.9H154.3z"/>
	<path d="M165.6,90.6v-2h1.8v2H165.6z M165.6,102.9V92.5h1.8v10.4H165.6z"/>
	<path d="M170,102.9V92.5h1.6V94c0.8-1.1,1.9-1.7,3.3-1.7c0.6,0,1.2,0.1,1.7,0.3s0.9,0.5,1.2,0.9s0.4,0.8,0.5,1.3
		c0.1,0.3,0.1,0.9,0.1,1.7v6.4h-1.8v-6.3c0-0.7-0.1-1.3-0.2-1.6s-0.4-0.6-0.7-0.8s-0.8-0.3-1.2-0.3c-0.7,0-1.4,0.2-1.9,0.7
		s-0.8,1.4-0.8,2.7v5.7L170,102.9L170,102.9z"/>
	<path d="M187.9,102.9v-1.3c-0.7,1-1.6,1.5-2.9,1.5c-0.8,0-1.6-0.2-2.3-0.7s-1.2-1.1-1.6-1.9s-0.6-1.8-0.6-2.8s0.2-2,0.5-2.8
		s0.9-1.5,1.6-1.9s1.5-0.7,2.3-0.7c0.6,0,1.2,0.1,1.7,0.4s0.9,0.6,1.2,1v-5.1h1.7v14.3H187.9z M182.3,97.7c0,1.3,0.3,2.3,0.8,3
		s1.2,1,2,1s1.4-0.3,2-0.9s0.8-1.6,0.8-2.9c0-1.4-0.3-2.5-0.8-3.1s-1.2-1-2-1s-1.4,0.3-2,1S182.3,96.3,182.3,97.7z"/>
	<path d="M204.8,97.3v-1.7h6.1v5.3c-0.9,0.7-1.9,1.3-2.9,1.7s-2,0.6-3,0.6c-1.4,0-2.7-0.3-3.8-0.9s-2-1.5-2.6-2.6s-0.9-2.4-0.9-3.8
		s0.3-2.7,0.9-3.9s1.4-2.1,2.5-2.7s2.4-0.9,3.8-0.9c1,0,2,0.2,2.8,0.5s1.5,0.8,2,1.4s0.8,1.4,1.1,2.3l-1.7,0.5
		c-0.2-0.7-0.5-1.3-0.8-1.7s-0.8-0.8-1.4-1s-1.3-0.4-2-0.4c-0.9,0-1.6,0.1-2.2,0.4s-1.1,0.6-1.5,1s-0.7,0.9-0.9,1.4
		c-0.4,0.9-0.5,1.8-0.5,2.9c0,1.3,0.2,2.3,0.7,3.2s1.1,1.5,1.9,1.9s1.7,0.6,2.7,0.6c0.8,0,1.6-0.2,2.4-0.5s1.4-0.7,1.8-1v-2.7
		L204.8,97.3L204.8,97.3z"/>
	<path d="M213.4,102.9V92.5h1.6v1.6c0.4-0.7,0.8-1.2,1.1-1.5s0.7-0.4,1.1-0.4c0.6,0,1.2,0.2,1.8,0.6l-0.6,1.6
		c-0.4-0.3-0.9-0.4-1.3-0.4c-0.4,0-0.7,0.1-1,0.3s-0.5,0.6-0.7,1c-0.2,0.6-0.3,1.3-0.3,2.1v5.4h-1.7V102.9z"/>
	<path d="M219.4,97.7c0-1.9,0.5-3.3,1.6-4.3c0.9-0.8,2-1.2,3.3-1.2c1.4,0,2.6,0.5,3.5,1.4s1.4,2.2,1.4,3.9c0,1.3-0.2,2.4-0.6,3.1
		s-1,1.4-1.7,1.8s-1.6,0.6-2.5,0.6c-1.5,0-2.6-0.5-3.5-1.4S219.4,99.4,219.4,97.7z M221.2,97.7c0,1.3,0.3,2.3,0.9,3s1.3,1,2.2,1
		s1.6-0.3,2.2-1s0.9-1.7,0.9-3s-0.3-2.3-0.9-2.9s-1.3-1-2.2-1s-1.6,0.3-2.2,1S221.2,96.4,221.2,97.7z"/>
	<path d="M238,102.9v-1.5c-0.8,1.2-1.9,1.8-3.3,1.8c-0.6,0-1.2-0.1-1.7-0.4s-0.9-0.5-1.2-0.9s-0.4-0.8-0.5-1.3
		c-0.1-0.3-0.1-0.9-0.1-1.6v-6.4h1.8v5.8c0,0.9,0,1.5,0.1,1.9c0.1,0.5,0.3,0.8,0.7,1.1s0.8,0.4,1.3,0.4s1-0.1,1.5-0.4s0.8-0.6,1-1.1
		s0.3-1.1,0.3-2v-5.6h1.8v10.4H238V102.9z"/>
	<path d="M242.3,106.8V92.5h1.6v1.3c0.4-0.5,0.8-0.9,1.3-1.2s1.1-0.4,1.7-0.4c0.9,0,1.7,0.2,2.3,0.7s1.2,1.1,1.5,1.9
		s0.5,1.7,0.5,2.7c0,1.1-0.2,2-0.6,2.9s-0.9,1.5-1.7,2s-1.5,0.7-2.3,0.7c-0.6,0-1.1-0.1-1.6-0.4s-0.8-0.6-1.1-0.9v5
		C243.9,106.8,242.3,106.8,242.3,106.8z M243.9,97.7c0,1.3,0.3,2.3,0.8,3s1.2,1,2,1s1.5-0.3,2-1s0.8-1.7,0.8-3.1
		c0-1.3-0.3-2.3-0.8-3s-1.2-1-1.9-1s-1.4,0.3-2,1S243.9,96.4,243.9,97.7z"/>
	<path d="M258.6,98.3l1.8-0.2c0.1,0.7,0.3,1.3,0.6,1.8s0.8,0.8,1.4,1.1s1.4,0.4,2.2,0.4c0.7,0,1.4-0.1,1.9-0.3s1-0.5,1.2-0.9
		s0.4-0.8,0.4-1.2c0-0.4-0.1-0.8-0.4-1.2s-0.7-0.6-1.3-0.8c-0.4-0.1-1.2-0.4-2.5-0.7s-2.2-0.6-2.8-0.9c-0.7-0.4-1.2-0.8-1.5-1.3
		s-0.5-1.1-0.5-1.8c0-0.7,0.2-1.4,0.6-2s1-1.1,1.8-1.4s1.7-0.5,2.6-0.5c1.1,0,2,0.2,2.8,0.5s1.4,0.8,1.9,1.5s0.7,1.4,0.7,2.3
		l-1.8,0.1c-0.1-0.9-0.4-1.6-1-2.1s-1.4-0.7-2.5-0.7s-2,0.2-2.5,0.6s-0.8,0.9-0.8,1.5c0,0.5,0.2,0.9,0.6,1.3c0.4,0.3,1.3,0.7,2.9,1
		s2.6,0.7,3.2,0.9c0.8,0.4,1.4,0.9,1.8,1.5s0.6,1.3,0.6,2c0,0.8-0.2,1.5-0.7,2.2s-1.1,1.2-1.9,1.6s-1.7,0.6-2.8,0.6
		c-1.3,0-2.4-0.2-3.3-0.6s-1.6-0.9-2.1-1.7S258.6,99.2,258.6,98.3z"/>
	<path d="M272.3,102.9V88.6h1.8v14.3H272.3z"/>
	<path d="M276.1,97.7c0-1.9,0.5-3.3,1.6-4.3c0.9-0.8,2-1.2,3.3-1.2c1.4,0,2.6,0.5,3.5,1.4s1.4,2.2,1.4,3.9c0,1.3-0.2,2.4-0.6,3.1
		s-1,1.4-1.7,1.8s-1.6,0.6-2.5,0.6c-1.5,0-2.6-0.5-3.5-1.4S276.1,99.4,276.1,97.7z M277.9,97.7c0,1.3,0.3,2.3,0.9,3s1.3,1,2.2,1
		c0.9,0,1.6-0.3,2.2-1s0.9-1.7,0.9-3s-0.3-2.3-0.9-2.9s-1.3-1-2.2-1c-0.9,0-1.6,0.3-2.2,1S277.9,96.4,277.9,97.7z"/>
	<path d="M291.7,101.3l0.3,1.6c-0.5,0.1-0.9,0.2-1.3,0.2c-0.6,0-1.1-0.1-1.5-0.3s-0.6-0.5-0.7-0.8s-0.2-1-0.2-2.1v-6H287v-1.4h1.3
		v-2.6l1.7-1.1v3.6h1.8v1.4H290v6.1c0,0.5,0,0.8,0.1,1s0.2,0.3,0.3,0.3s0.3,0.1,0.6,0.1C291.1,101.4,291.4,101.3,291.7,101.3z"/>
	<path d="M292.7,99.8l1.7-0.3c0.1,0.7,0.4,1.2,0.8,1.6s1.1,0.6,1.9,0.6s1.4-0.2,1.8-0.5s0.6-0.7,0.6-1.2c0-0.4-0.2-0.7-0.5-0.9
		c-0.2-0.2-0.8-0.4-1.8-0.6c-1.3-0.3-2.2-0.6-2.7-0.8s-0.9-0.6-1.1-1s-0.4-0.9-0.4-1.4s0.1-0.9,0.3-1.3s0.5-0.7,0.9-1
		c0.3-0.2,0.6-0.4,1.1-0.5s1-0.2,1.5-0.2c0.8,0,1.5,0.1,2.1,0.4s1.1,0.6,1.4,1s0.5,0.9,0.6,1.6l-1.7,0.2c-0.1-0.5-0.3-1-0.7-1.3
		s-0.9-0.4-1.6-0.4c-0.8,0-1.4,0.1-1.7,0.4s-0.5,0.6-0.5,0.9c0,0.2,0.1,0.4,0.2,0.6s0.4,0.3,0.7,0.5c0.2,0.1,0.7,0.2,1.6,0.4
		c1.2,0.3,2.1,0.6,2.6,0.8s0.9,0.5,1.2,0.9s0.4,0.9,0.4,1.5s-0.2,1.1-0.5,1.7s-0.8,0.9-1.5,1.2s-1.4,0.4-2.2,0.4
		c-1.3,0-2.4-0.3-3.1-0.8S292.9,100.9,292.7,99.8z"/>
</g>
<g>
	<path d="M433.8,125.9h-18.4c-0.2-1-1.7-1.8-4.7-2.4s-7.1-1-12.2-1.2c-5.2-0.2-14-0.3-26.6-0.3s-20.8-0.1-24.8-0.1
		c-6.4-0.1-11.5-0.3-15.3-0.6c-3.8-0.3-6.8-0.7-9.1-1.1c-2.3-0.5-4-1-5.2-1.7c-0.8-0.5-1.2-1.3-1.2-2.3V115H334v0.6
		c0,1.3,1.4,2.2,4.2,2.6c2.8,0.4,9.2,0.6,19,0.6c18.8,0,30.7,0.1,35.8,0.2c8.4,0.2,15,0.6,20,1.2s8.9,1.5,11.7,2.6
		c4.1-1.4,9.6-2.5,16.4-3.1s18.3-0.9,34.5-0.9c14.7,0,23.4,0,26.3-0.1c5-0.1,8.6-0.3,10.6-0.7c2-0.4,3-1.2,3-2.4V115H533v1.1
		c0,1.2-0.6,2.1-1.8,2.7c-1.7,0.8-4.4,1.5-8.4,2c-3.9,0.5-8.8,0.9-14.8,1c-5.9,0.2-15.7,0.2-29.2,0.3c-13.5,0-22.9,0.1-28.1,0.3
		c-5.2,0.2-9.2,0.6-12.2,1.2C435.5,124.1,433.9,124.9,433.8,125.9z"/>
</g>
<g>
	<g>
		<path class="st0" d="M424.5,125.9c-22.2,1.3-123.2,1.5-137.9,2c-14,0.4-29.1,4-36.7,11.5"/>
		<g>
			<path d="M245.1,150.5c0.5-6,0.3-13.9-1.2-19.5l7.1,7.2l10.1,1C255.7,141.5,249.5,146.3,245.1,150.5z"/>
		</g>
	</g>
</g>
<g>
	<g>
		<path class="st0" d="M424.5,125.9c22.2,1.3,123.2,1.5,137.9,2c14,0.4,29.1,4,36.7,11.5"/>
		<g>
			<path d="M603.9,150.5c-4.3-4.2-10.6-9-15.9-11.3l10.1-1l7.1-7.2C603.5,136.6,603.3,144.5,603.9,150.5z"/>
		</g>
	</g>
</g>
<path class="st0" d="M147.4-8.1"/>
<path class="st9" d="M305.5,50.1H162.9c-8.5,0-15.5-6.7-15.5-14.9V22.1c0-8.2,7-14.9,15.5-14.9h142.5c8.5,0,15.5,6.7,15.5,14.9v13.2
	C321,43.4,314,50.1,305.5,50.1z"/>
<g class="st2">
	<path d="M157,25.5V12.6h4.8c1,0,1.8,0.1,2.4,0.4c0.6,0.3,1.1,0.7,1.4,1.2s0.5,1.1,0.5,1.7c0,0.6-0.1,1.1-0.4,1.6s-0.8,0.9-1.4,1.2
		c0.8,0.2,1.4,0.6,1.8,1.2s0.6,1.2,0.6,2c0,0.6-0.1,1.2-0.4,1.7c-0.3,0.5-0.6,0.9-0.9,1.2s-0.8,0.5-1.4,0.6s-1.3,0.2-2.1,0.2H157
		V25.5z M158.8,18h2.8c0.8,0,1.3,0,1.6-0.1c0.4-0.1,0.8-0.3,1-0.6s0.3-0.7,0.3-1.1s-0.1-0.8-0.3-1.1s-0.5-0.5-0.9-0.7s-1-0.2-2-0.2
		h-2.6L158.8,18L158.8,18z M158.8,23.9h3.2c0.6,0,0.9,0,1.2-0.1c0.4-0.1,0.7-0.2,1-0.4s0.5-0.4,0.7-0.7c0.2-0.3,0.3-0.7,0.3-1.1
		c0-0.5-0.1-0.9-0.4-1.3c-0.2-0.4-0.6-0.6-1-0.7s-1.1-0.2-1.9-0.2h-3v4.5H158.8z"/>
	<path d="M168.9,14.4v-1.8h1.6v1.8H168.9z M168.9,25.5v-9.3h1.6v9.3H168.9z"/>
	<path d="M172.9,25.5v-9.3h1.4v1.3c0.7-1,1.7-1.5,3-1.5c0.6,0,1.1,0.1,1.6,0.3c0.5,0.2,0.8,0.5,1.1,0.8s0.4,0.7,0.5,1.2
		c0.1,0.3,0.1,0.8,0.1,1.5v5.7H179v-5.7c0-0.6-0.1-1.1-0.2-1.4s-0.3-0.6-0.7-0.8c-0.3-0.2-0.7-0.3-1.1-0.3c-0.7,0-1.3,0.2-1.7,0.6
		s-0.7,1.2-0.7,2.4v5.1L172.9,25.5L172.9,25.5z"/>
	<path d="M189,25.5v-1.2c-0.6,0.9-1.5,1.4-2.6,1.4c-0.7,0-1.4-0.2-2.1-0.6s-1.1-1-1.5-1.7c-0.3-0.7-0.5-1.6-0.5-2.5s0.2-1.8,0.5-2.5
		s0.8-1.3,1.4-1.7s1.3-0.6,2.1-0.6c0.6,0,1.1,0.1,1.5,0.4c0.4,0.2,0.8,0.5,1.1,0.9v-4.6h1.6v12.9H189V25.5z M184,20.8
		c0,1.2,0.3,2.1,0.8,2.7s1.1,0.9,1.8,0.9s1.3-0.3,1.8-0.8s0.7-1.4,0.7-2.6c0-1.3-0.2-2.2-0.7-2.8s-1.1-0.9-1.8-0.9s-1.3,0.3-1.8,0.9
		S184,19.6,184,20.8z"/>
	<path d="M204.2,20.4v-1.5h5.5v4.8c-0.8,0.7-1.7,1.2-2.6,1.5c-0.9,0.3-1.8,0.5-2.7,0.5c-1.3,0-2.4-0.3-3.4-0.8s-1.8-1.3-2.3-2.4
		s-0.8-2.2-0.8-3.4c0-1.3,0.3-2.4,0.8-3.5s1.3-1.9,2.3-2.4s2.1-0.8,3.4-0.8c0.9,0,1.8,0.2,2.5,0.5c0.8,0.3,1.3,0.7,1.8,1.3
		s0.8,1.2,1,2.1l-1.5,0.4c-0.2-0.7-0.4-1.2-0.7-1.5s-0.7-0.7-1.2-0.9s-1.1-0.3-1.8-0.3c-0.8,0-1.5,0.1-2,0.4c-0.6,0.2-1,0.5-1.4,0.9
		s-0.6,0.8-0.8,1.3c-0.3,0.8-0.5,1.7-0.5,2.6c0,1.1,0.2,2.1,0.6,2.9s1,1.3,1.7,1.7s1.6,0.6,2.4,0.6c0.7,0,1.5-0.1,2.2-0.4
		s1.2-0.6,1.6-0.9v-2.4h-4.1V20.4z"/>
	<path d="M211.9,25.5v-9.3h1.4v1.4c0.4-0.7,0.7-1.1,1-1.3s0.6-0.3,1-0.3c0.5,0,1.1,0.2,1.6,0.5l-0.5,1.5c-0.4-0.2-0.8-0.3-1.2-0.3
		c-0.3,0-0.7,0.1-0.9,0.3s-0.5,0.5-0.6,0.9c-0.2,0.6-0.3,1.2-0.3,1.8v4.9h-1.5V25.5z"/>
	<path d="M217.3,20.8c0-1.7,0.5-3,1.4-3.8c0.8-0.7,1.8-1,2.9-1c1.3,0,2.3,0.4,3.1,1.3s1.2,2,1.2,3.5c0,1.2-0.2,2.1-0.5,2.8
		c-0.4,0.7-0.9,1.2-1.6,1.6s-1.4,0.6-2.3,0.6c-1.3,0-2.4-0.4-3.2-1.3S217.3,22.4,217.3,20.8z M219,20.8c0,1.2,0.3,2.1,0.8,2.7
		s1.2,0.9,2,0.9s1.4-0.3,2-0.9s0.8-1.5,0.8-2.7s-0.3-2-0.8-2.6s-1.2-0.9-2-0.9s-1.4,0.3-2,0.9S219,19.6,219,20.8z"/>
	<path d="M234.1,25.5v-1.4c-0.7,1.1-1.7,1.6-3,1.6c-0.6,0-1.1-0.1-1.5-0.3s-0.8-0.5-1.1-0.8s-0.4-0.7-0.5-1.2
		c-0.1-0.3-0.1-0.8-0.1-1.5v-5.8h1.6v5.2c0,0.8,0,1.4,0.1,1.7c0.1,0.4,0.3,0.7,0.6,1c0.3,0.2,0.7,0.4,1.2,0.4s0.9-0.1,1.3-0.4
		s0.7-0.6,0.9-1s0.3-1,0.3-1.8v-5h1.6v9.3C235.5,25.5,234.1,25.5,234.1,25.5z"/>
	<path d="M238,29V16.1h1.4v1.2c0.3-0.5,0.7-0.8,1.2-1.1c0.4-0.2,0.9-0.4,1.6-0.4c0.8,0,1.5,0.2,2.1,0.6s1.1,1,1.4,1.7
		c0.3,0.7,0.5,1.6,0.5,2.5c0,1-0.2,1.8-0.5,2.6c-0.3,0.8-0.8,1.4-1.5,1.8s-1.3,0.6-2.1,0.6c-0.5,0-1-0.1-1.4-0.3s-0.8-0.5-1-0.8V29
		H238z M239.4,20.9c0,1.2,0.2,2.1,0.7,2.7s1.1,0.9,1.8,0.9s1.3-0.3,1.8-0.9s0.8-1.5,0.8-2.8c0-1.2-0.2-2.1-0.7-2.7s-1.1-0.9-1.8-0.9
		s-1.3,0.3-1.8,0.9C239.6,18.7,239.4,19.7,239.4,20.9z"/>
</g>
<g class="st2">
	<path d="M156.7,44.5v-10h7.2v1.2H158v3.1h5.5V40H158v3.4h6.2v1.2h-7.5V44.5z"/>
	<path d="M165.9,44.5v-7.3h1.1v1c0.5-0.8,1.3-1.2,2.3-1.2c0.4,0,0.8,0.1,1.2,0.2c0.4,0.2,0.6,0.4,0.8,0.6s0.3,0.6,0.4,0.9
		c0,0.2,0.1,0.6,0.1,1.2v4.5h-1.2V40c0-0.5,0-0.9-0.1-1.1c-0.1-0.2-0.3-0.4-0.5-0.6c-0.2-0.1-0.5-0.2-0.9-0.2c-0.5,0-1,0.2-1.4,0.5
		s-0.6,1-0.6,1.9v4C167.1,44.5,165.9,44.5,165.9,44.5z"/>
	<path d="M176.3,43.4l0.2,1.1c-0.3,0.1-0.7,0.1-0.9,0.1c-0.4,0-0.8-0.1-1-0.2s-0.4-0.3-0.5-0.6c-0.1-0.2-0.2-0.7-0.2-1.5v-4.2H173
		v-1h0.9v-1.8l1.2-0.7v2.5h1.2v1h-1.2v4.2c0,0.4,0,0.6,0.1,0.7s0.1,0.2,0.2,0.2s0.2,0.1,0.4,0.1C175.9,43.4,176.1,43.4,176.3,43.4z"
		/>
	<path d="M177.5,44.5v-7.3h1.1v1.1c0.3-0.5,0.5-0.9,0.8-1s0.5-0.2,0.8-0.2c0.4,0,0.8,0.1,1.3,0.4l-0.4,1.1c-0.3-0.2-0.6-0.3-0.9-0.3
		c-0.3,0-0.5,0.1-0.7,0.2c-0.2,0.2-0.4,0.4-0.5,0.7c-0.1,0.4-0.2,0.9-0.2,1.4v3.8L177.5,44.5L177.5,44.5z"/>
	<path d="M182.1,47.3l-0.1-1.2c0.3,0.1,0.5,0.1,0.7,0.1c0.3,0,0.5,0,0.7-0.1s0.3-0.2,0.4-0.4c0.1-0.1,0.2-0.4,0.4-0.9
		c0-0.1,0.1-0.2,0.1-0.3l-2.8-7.3h1.3l1.5,4.2c0.2,0.5,0.4,1.1,0.5,1.7c0.1-0.6,0.3-1.1,0.5-1.7l1.6-4.2h1.2l-2.8,7.4
		c-0.3,0.8-0.5,1.3-0.7,1.6c-0.2,0.4-0.5,0.7-0.8,0.9s-0.6,0.3-1,0.3C182.7,47.4,182.4,47.4,182.1,47.3z"/>
	<path d="M192.7,39.5c0-1.2,0.1-2.1,0.4-2.9c0.2-0.7,0.6-1.3,1.1-1.7s1.1-0.6,1.8-0.6c0.5,0,1,0.1,1.4,0.3s0.7,0.5,1,0.9
		s0.5,0.9,0.6,1.5c0.2,0.6,0.2,1.4,0.2,2.4c0,1.2-0.1,2.1-0.4,2.8c-0.2,0.7-0.6,1.3-1.1,1.7s-1.1,0.6-1.8,0.6c-1,0-1.7-0.3-2.3-1
		C193.1,42.8,192.7,41.4,192.7,39.5z M194,39.5c0,1.6,0.2,2.7,0.6,3.3c0.4,0.5,0.9,0.8,1.4,0.8s1-0.3,1.4-0.8s0.6-1.6,0.6-3.3
		c0-1.6-0.2-2.7-0.6-3.3s-0.9-0.8-1.4-0.8c-0.6,0-1,0.2-1.4,0.7C194.2,36.8,194,37.9,194,39.5z"/>
	<path d="M201.2,38.6v-1.4h1.4v1.4H201.2z M201.2,44.5v-1.4h1.4v1.4H201.2z"/>
	<path d="M215.4,34.5h1.3v5.8c0,1-0.1,1.8-0.3,2.4s-0.6,1.1-1.2,1.4c-0.6,0.4-1.4,0.6-2.3,0.6c-0.9,0-1.7-0.2-2.3-0.5
		s-1-0.8-1.3-1.4c-0.3-0.6-0.4-1.5-0.4-2.5v-5.8h1.3v5.8c0,0.9,0.1,1.5,0.2,1.9c0.2,0.4,0.4,0.7,0.8,1s0.9,0.3,1.4,0.3
		c1,0,1.7-0.2,2.1-0.7s0.6-1.3,0.6-2.5L215.4,34.5L215.4,34.5z"/>
	<path d="M218.8,44.5v-7.3h1.1v1c0.5-0.8,1.3-1.2,2.3-1.2c0.4,0,0.8,0.1,1.2,0.2c0.4,0.2,0.6,0.4,0.8,0.6s0.3,0.6,0.4,0.9
		c0,0.2,0.1,0.6,0.1,1.2v4.5h-1.2V40c0-0.5,0-0.9-0.1-1.1c-0.1-0.2-0.3-0.4-0.5-0.6c-0.2-0.1-0.5-0.2-0.9-0.2c-0.5,0-1,0.2-1.4,0.5
		s-0.6,1-0.6,1.9v4C220,44.5,218.8,44.5,218.8,44.5z"/>
	<path d="M226.6,35.9v-1.4h1.2v1.4H226.6z M226.6,44.5v-7.3h1.2v7.3H226.6z"/>
	<path d="M230,44.5v-6.3h-1.1v-1h1.1v-0.8c0-0.5,0-0.8,0.1-1.1s0.3-0.6,0.6-0.8s0.7-0.3,1.3-0.3c0.3,0,0.7,0,1.1,0.1l-0.2,1.1
		c-0.3,0-0.5-0.1-0.7-0.1c-0.4,0-0.6,0.1-0.8,0.2s-0.2,0.5-0.2,0.9v0.7h1.4v1h-1.4v6.3L230,44.5L230,44.5z"/>
	<path d="M233.1,40.9c0-1.3,0.4-2.3,1.1-3c0.6-0.5,1.4-0.8,2.3-0.8c1,0,1.8,0.3,2.4,1c0.6,0.7,1,1.6,1,2.7c0,0.9-0.1,1.7-0.4,2.2
		c-0.3,0.5-0.7,1-1.2,1.2s-1.1,0.4-1.8,0.4c-1,0-1.8-0.3-2.5-1S233.1,42.1,233.1,40.9z M234.4,40.9c0,0.9,0.2,1.6,0.6,2.1
		c0.4,0.5,0.9,0.7,1.5,0.7s1.1-0.2,1.5-0.7s0.6-1.2,0.6-2.1c0-0.9-0.2-1.6-0.6-2c-0.4-0.5-0.9-0.7-1.5-0.7s-1.1,0.2-1.5,0.7
		S234.4,39.9,234.4,40.9z"/>
	<path d="M241.3,44.5v-7.3h1.1v1.1c0.3-0.5,0.5-0.9,0.8-1s0.5-0.2,0.8-0.2c0.4,0,0.8,0.1,1.3,0.4l-0.4,1.1c-0.3-0.2-0.6-0.3-0.9-0.3
		c-0.3,0-0.5,0.1-0.7,0.2c-0.2,0.2-0.4,0.4-0.5,0.7c-0.1,0.4-0.2,0.9-0.2,1.4v3.8L241.3,44.5L241.3,44.5z"/>
	<path d="M246,44.5v-7.3h1.1v1c0.2-0.4,0.5-0.6,0.9-0.9c0.4-0.2,0.8-0.3,1.3-0.3s1,0.1,1.3,0.3s0.6,0.5,0.7,0.9
		c0.6-0.8,1.3-1.3,2.2-1.3c0.7,0,1.3,0.2,1.7,0.6c0.4,0.4,0.6,1,0.6,1.8v5h-1.2v-4.6c0-0.5,0-0.8-0.1-1.1c-0.1-0.2-0.2-0.4-0.4-0.5
		s-0.5-0.2-0.7-0.2c-0.5,0-0.9,0.2-1.3,0.5c-0.3,0.3-0.5,0.9-0.5,1.6v4.2h-1.2v-4.7c0-0.5-0.1-1-0.3-1.2s-0.5-0.4-1-0.4
		c-0.3,0-0.7,0.1-1,0.3s-0.5,0.4-0.6,0.8s-0.2,0.9-0.2,1.5v3.8H246V44.5z"/>
	<path d="M261.7,44.5v-10h3.8c0.8,0,1.4,0.1,1.8,0.3c0.5,0.2,0.8,0.5,1.1,0.9c0.3,0.4,0.4,0.9,0.4,1.3c0,0.4-0.1,0.8-0.3,1.2
		s-0.6,0.7-1.1,0.9c0.6,0.2,1.1,0.5,1.4,0.9s0.5,0.9,0.5,1.5c0,0.5-0.1,0.9-0.3,1.3c-0.2,0.4-0.4,0.7-0.7,0.9s-0.7,0.4-1.1,0.5
		s-1,0.2-1.6,0.2L261.7,44.5L261.7,44.5z M263,38.7h2.2c0.6,0,1,0,1.3-0.1s0.6-0.3,0.8-0.5s0.3-0.5,0.3-0.9c0-0.3-0.1-0.6-0.2-0.9
		c-0.2-0.3-0.4-0.4-0.7-0.5c-0.3-0.1-0.8-0.1-1.5-0.1h-2v3H263z M263,43.3h2.5c0.4,0,0.7,0,0.9,0c0.3-0.1,0.6-0.1,0.8-0.3
		s0.4-0.3,0.5-0.6c0.1-0.2,0.2-0.5,0.2-0.8c0-0.4-0.1-0.7-0.3-1c-0.2-0.3-0.5-0.5-0.8-0.6s-0.8-0.2-1.5-0.2H263V43.3z"/>
	<path d="M275.6,44.5v-1.1c-0.6,0.8-1.3,1.2-2.3,1.2c-0.4,0-0.8-0.1-1.2-0.2s-0.6-0.4-0.8-0.6c-0.2-0.2-0.3-0.6-0.4-0.9
		c-0.1-0.2-0.1-0.6-0.1-1.1v-4.5h1.2v4c0,0.6,0,1.1,0.1,1.3c0.1,0.3,0.2,0.6,0.5,0.8s0.6,0.3,0.9,0.3s0.7-0.1,1-0.3s0.6-0.4,0.7-0.8
		c0.1-0.3,0.2-0.8,0.2-1.4v-3.9h1.2v7.3L275.6,44.5L275.6,44.5z"/>
	<path d="M279,44.5v-6.3h-1.1v-1h1.1v-0.8c0-0.5,0-0.8,0.1-1.1s0.3-0.6,0.6-0.8c0.3-0.2,0.7-0.3,1.3-0.3c0.3,0,0.7,0,1.1,0.1
		l-0.2,1.1c-0.3,0-0.5-0.1-0.7-0.1c-0.4,0-0.6,0.1-0.8,0.2s-0.2,0.5-0.2,0.9v0.7h1.4v1h-1.4v6.3L279,44.5L279,44.5z"/>
	<path d="M282.6,44.5v-6.3h-1.1v-1h1.1v-0.8c0-0.5,0-0.8,0.1-1.1s0.3-0.6,0.6-0.8c0.3-0.2,0.7-0.3,1.3-0.3c0.3,0,0.7,0,1.1,0.1
		l-0.2,1.1c-0.3,0-0.5-0.1-0.7-0.1c-0.4,0-0.6,0.1-0.8,0.2s-0.2,0.5-0.2,0.9v0.7h1.4v1h-1.4v6.3L282.6,44.5L282.6,44.5z"/>
	<path d="M291.2,42.1l1.3,0.2c-0.2,0.7-0.6,1.3-1.1,1.7s-1.2,0.6-2.1,0.6c-1.1,0-1.9-0.3-2.5-1s-0.9-1.6-0.9-2.8s0.3-2.2,0.9-2.8
		s1.4-1,2.4-1s1.8,0.3,2.4,1s0.9,1.6,0.9,2.8c0,0.1,0,0.2,0,0.3h-5.4c0,0.8,0.3,1.4,0.7,1.8s0.9,0.6,1.5,0.6c0.5,0,0.8-0.1,1.2-0.4
		S291,42.7,291.2,42.1z M287.1,40.2h4.1c-0.1-0.6-0.2-1.1-0.5-1.4c-0.4-0.5-0.9-0.7-1.5-0.7s-1,0.2-1.4,0.6S287.2,39.5,287.1,40.2z"
		/>
	<path d="M294,44.5v-7.3h1.1v1.1c0.3-0.5,0.5-0.9,0.8-1s0.5-0.2,0.8-0.2c0.4,0,0.8,0.1,1.3,0.4l-0.4,1.1c-0.3-0.2-0.6-0.3-0.9-0.3
		s-0.5,0.1-0.7,0.2c-0.2,0.2-0.4,0.4-0.5,0.7c-0.1,0.4-0.2,0.9-0.2,1.4v3.8L294,44.5L294,44.5z"/>
</g>
<rect x="393.8" y="82.6" class="st8" width="61.4" height="29.8"/>
<g>
	<path d="M326.5,98.1l1.6-0.1c0.1,0.6,0.3,1.2,0.5,1.6s0.7,0.7,1.3,1s1.2,0.4,2,0.4c0.7,0,1.2-0.1,1.7-0.3s0.9-0.5,1.1-0.8
		s0.4-0.7,0.4-1.1c0-0.4-0.1-0.8-0.4-1.1s-0.6-0.6-1.2-0.8c-0.3-0.1-1.1-0.3-2.3-0.6s-2-0.6-2.5-0.8c-0.6-0.3-1.1-0.7-1.4-1.2
		s-0.5-1-0.5-1.6c0-0.7,0.2-1.3,0.6-1.8s0.9-1,1.6-1.3s1.5-0.4,2.4-0.4c1,0,1.8,0.2,2.5,0.5s1.3,0.8,1.7,1.4s0.6,1.3,0.6,2l-1.6,0.1
		c-0.1-0.8-0.4-1.4-0.9-1.8s-1.3-0.6-2.2-0.6c-1,0-1.8,0.2-2.3,0.6s-0.7,0.8-0.7,1.4c0,0.5,0.2,0.8,0.5,1.1c0.3,0.3,1.2,0.6,2.6,0.9
		s2.3,0.6,2.9,0.8c0.8,0.3,1.3,0.8,1.7,1.3s0.5,1.1,0.5,1.8c0,0.7-0.2,1.3-0.6,1.9s-1,1.1-1.7,1.4s-1.6,0.5-2.5,0.5
		c-1.2,0-2.1-0.2-2.9-0.5s-1.4-0.9-1.9-1.5S326.5,98.9,326.5,98.1z"/>
	<path d="M345.3,99.2l1.6,0.2c-0.3,1-0.7,1.7-1.4,2.2s-1.6,0.8-2.7,0.8c-1.4,0-2.4-0.4-3.2-1.3s-1.2-2-1.2-3.5
		c0-1.6,0.4-2.8,1.2-3.7s1.9-1.3,3.1-1.3c1.2,0,2.3,0.4,3.1,1.3s1.2,2,1.2,3.6c0,0.1,0,0.2,0,0.4h-7c0.1,1,0.3,1.8,0.9,2.4
		s1.2,0.8,2,0.8c0.6,0,1.1-0.2,1.5-0.5S345,99.9,345.3,99.2z M340.1,96.6h5.2c-0.1-0.8-0.3-1.4-0.6-1.8c-0.5-0.6-1.2-0.9-2-0.9
		c-0.7,0-1.3,0.2-1.8,0.7S340.1,95.8,340.1,96.6z"/>
	<path d="M352.3,100.8l0.2,1.4c-0.4,0.1-0.8,0.1-1.2,0.1c-0.6,0-1-0.1-1.3-0.3s-0.5-0.4-0.7-0.7s-0.2-0.9-0.2-1.9v-5.4H348v-1.2h1.2
		v-2.3l1.6-0.9v3.3h1.6v1.2h-1.6v5.5c0,0.5,0,0.7,0.1,0.9s0.1,0.2,0.3,0.3s0.3,0.1,0.5,0.1C351.8,100.8,352.1,100.8,352.3,100.8z"/>
	<path d="M358.5,95.8c0-1.5,0.2-2.7,0.5-3.7s0.8-1.6,1.4-2.1s1.4-0.8,2.3-0.8c0.7,0,1.3,0.1,1.8,0.4s1,0.7,1.3,1.2s0.6,1.2,0.8,1.9
		s0.3,1.8,0.3,3c0,1.5-0.2,2.7-0.5,3.7s-0.8,1.6-1.4,2.2s-1.4,0.8-2.3,0.8c-1.2,0-2.2-0.4-2.9-1.3C358.9,100,358.5,98.3,358.5,95.8z
		 M360.1,95.8c0,2.1,0.2,3.5,0.7,4.2s1.1,1.1,1.8,1.1s1.3-0.4,1.8-1.1s0.7-2.1,0.7-4.2c0-2.1-0.2-3.5-0.7-4.2s-1.1-1-1.9-1
		c-0.7,0-1.3,0.3-1.7,0.9C360.3,92.3,360.1,93.7,360.1,95.8z"/>
</g>
<g>
	<path d="M326.5,98.2l1.6-0.1c0.1,0.6,0.3,1.2,0.5,1.6s0.7,0.7,1.3,1s1.2,0.4,2,0.4c0.7,0,1.2-0.1,1.7-0.3s0.9-0.5,1.1-0.8
		s0.4-0.7,0.4-1.1c0-0.4-0.1-0.8-0.4-1.1s-0.6-0.6-1.2-0.8c-0.3-0.1-1.1-0.3-2.3-0.6s-2-0.6-2.5-0.8c-0.6-0.3-1.1-0.7-1.4-1.2
		s-0.5-1-0.5-1.6c0-0.7,0.2-1.3,0.6-1.8s0.9-1,1.6-1.3s1.5-0.4,2.4-0.4c1,0,1.8,0.2,2.5,0.5s1.3,0.8,1.7,1.4s0.6,1.3,0.6,2l-1.6,0.1
		c-0.1-0.8-0.4-1.4-0.9-1.8s-1.3-0.6-2.2-0.6c-1,0-1.8,0.2-2.3,0.6s-0.7,0.8-0.7,1.4c0,0.5,0.2,0.8,0.5,1.1c0.3,0.3,1.2,0.6,2.6,0.9
		s2.3,0.6,2.9,0.8c0.8,0.3,1.3,0.8,1.7,1.3s0.5,1.1,0.5,1.8c0,0.7-0.2,1.3-0.6,1.9s-1,1.1-1.7,1.4s-1.6,0.5-2.5,0.5
		c-1.2,0-2.1-0.2-2.9-0.5s-1.4-0.9-1.9-1.5S326.5,99,326.5,98.2z"/>
	<path d="M345.3,99.3l1.6,0.2c-0.3,1-0.7,1.7-1.4,2.2s-1.6,0.8-2.7,0.8c-1.4,0-2.4-0.4-3.2-1.3s-1.2-2-1.2-3.5
		c0-1.6,0.4-2.8,1.2-3.7s1.9-1.3,3.1-1.3c1.2,0,2.3,0.4,3.1,1.3s1.2,2,1.2,3.6c0,0.1,0,0.2,0,0.4h-7c0.1,1,0.3,1.8,0.9,2.4
		s1.2,0.8,2,0.8c0.6,0,1.1-0.2,1.5-0.5S345,100,345.3,99.3z M340.1,96.7h5.2c-0.1-0.8-0.3-1.4-0.6-1.8c-0.5-0.6-1.2-0.9-2-0.9
		c-0.7,0-1.3,0.2-1.8,0.7S340.1,95.9,340.1,96.7z"/>
	<path d="M352.3,100.9l0.2,1.4c-0.4,0.1-0.8,0.1-1.2,0.1c-0.6,0-1-0.1-1.3-0.3s-0.5-0.4-0.7-0.7s-0.2-0.9-0.2-1.9v-5.4H348V93h1.2
		v-2.3l1.6-0.9V93h1.6v1.2h-1.6v5.5c0,0.5,0,0.7,0.1,0.9s0.1,0.2,0.3,0.3s0.3,0.1,0.5,0.1C351.8,100.9,352.1,100.9,352.3,100.9z"/>
	<path d="M358.5,95.9c0-1.5,0.2-2.7,0.5-3.7s0.8-1.6,1.4-2.1s1.4-0.8,2.3-0.8c0.7,0,1.3,0.1,1.8,0.4s1,0.7,1.3,1.2s0.6,1.2,0.8,1.9
		s0.3,1.8,0.3,3c0,1.5-0.2,2.7-0.5,3.7s-0.8,1.6-1.4,2.2s-1.4,0.8-2.3,0.8c-1.2,0-2.2-0.4-2.9-1.3
		C358.9,100.1,358.5,98.4,358.5,95.9z M360.1,95.9c0,2.1,0.2,3.5,0.7,4.2s1.1,1.1,1.8,1.1s1.3-0.4,1.8-1.1s0.7-2.1,0.7-4.2
		c0-2.1-0.2-3.5-0.7-4.2s-1.1-1-1.9-1c-0.7,0-1.3,0.3-1.7,0.9C360.3,92.4,360.1,93.8,360.1,95.9z"/>
</g>
<g>
	<path d="M404.3,98.2l1.6-0.1c0.1,0.6,0.3,1.2,0.5,1.6s0.7,0.7,1.3,1s1.2,0.4,2,0.4c0.7,0,1.2-0.1,1.7-0.3s0.9-0.5,1.1-0.8
		s0.4-0.7,0.4-1.1c0-0.4-0.1-0.8-0.4-1.1s-0.6-0.6-1.2-0.8c-0.3-0.1-1.1-0.3-2.3-0.6s-2-0.6-2.5-0.8c-0.6-0.3-1.1-0.7-1.4-1.2
		s-0.5-1-0.5-1.6c0-0.7,0.2-1.3,0.6-1.8s0.9-1,1.6-1.3s1.5-0.4,2.4-0.4c1,0,1.8,0.2,2.5,0.5s1.3,0.8,1.7,1.4s0.6,1.3,0.6,2l-1.6,0.1
		c-0.1-0.8-0.4-1.4-0.9-1.8s-1.3-0.6-2.2-0.6c-1,0-1.8,0.2-2.3,0.6s-0.7,0.8-0.7,1.4c0,0.5,0.2,0.8,0.5,1.1c0.3,0.3,1.2,0.6,2.6,0.9
		s2.3,0.6,2.9,0.8c0.8,0.3,1.3,0.8,1.7,1.3s0.5,1.1,0.5,1.8c0,0.7-0.2,1.3-0.6,1.9s-1,1.1-1.7,1.4s-1.6,0.5-2.5,0.5
		c-1.2,0-2.1-0.2-2.9-0.5s-1.4-0.9-1.9-1.5S404.3,99,404.3,98.2z"/>
	<path d="M423.1,99.3l1.6,0.2c-0.3,1-0.7,1.7-1.4,2.2s-1.6,0.8-2.7,0.8c-1.4,0-2.4-0.4-3.2-1.3s-1.2-2-1.2-3.5
		c0-1.6,0.4-2.8,1.2-3.7s1.9-1.3,3.1-1.3c1.2,0,2.3,0.4,3.1,1.3s1.2,2,1.2,3.6c0,0.1,0,0.2,0,0.4h-7c0.1,1,0.3,1.8,0.9,2.4
		s1.2,0.8,2,0.8c0.6,0,1.1-0.2,1.5-0.5S422.8,100,423.1,99.3z M417.9,96.7h5.2c-0.1-0.8-0.3-1.4-0.6-1.8c-0.5-0.6-1.2-0.9-2-0.9
		c-0.7,0-1.3,0.2-1.8,0.7S417.9,95.9,417.9,96.7z"/>
	<path d="M430.1,100.9l0.2,1.4c-0.4,0.1-0.8,0.1-1.2,0.1c-0.6,0-1-0.1-1.3-0.3s-0.5-0.4-0.7-0.7s-0.2-0.9-0.2-1.9v-5.4h-1.2V93h1.2
		v-2.3l1.6-0.9V93h1.6v1.2h-1.6v5.5c0,0.5,0,0.7,0.1,0.9s0.1,0.2,0.3,0.3s0.3,0.1,0.5,0.1C429.6,100.9,429.9,100.9,430.1,100.9z"/>
	<path d="M442.2,102.3h-1.6V92.2c-0.4,0.4-0.9,0.7-1.5,1.1s-1.2,0.6-1.7,0.8v-1.5c0.9-0.4,1.7-0.9,2.3-1.5s1.1-1.2,1.4-1.7h1V102.3z
		"/>
</g>
<g>
	<path d="M482.1,98.2l1.6-0.1c0.1,0.6,0.3,1.2,0.5,1.6s0.7,0.7,1.3,1s1.2,0.4,2,0.4c0.7,0,1.2-0.1,1.7-0.3s0.9-0.5,1.1-0.8
		s0.4-0.7,0.4-1.1c0-0.4-0.1-0.8-0.4-1.1s-0.6-0.6-1.2-0.8c-0.3-0.1-1.1-0.3-2.3-0.6s-2-0.6-2.5-0.8c-0.6-0.3-1.1-0.7-1.4-1.2
		s-0.5-1-0.5-1.6c0-0.7,0.2-1.3,0.6-1.8s0.9-1,1.6-1.3s1.5-0.4,2.4-0.4c1,0,1.8,0.2,2.5,0.5s1.3,0.8,1.7,1.4s0.6,1.3,0.6,2l-1.6,0.1
		c-0.1-0.8-0.4-1.4-0.9-1.8s-1.3-0.6-2.2-0.6c-1,0-1.8,0.2-2.3,0.6s-0.7,0.8-0.7,1.4c0,0.5,0.2,0.8,0.5,1.1c0.3,0.3,1.2,0.6,2.6,0.9
		s2.3,0.6,2.9,0.8c0.8,0.3,1.3,0.8,1.7,1.3s0.5,1.1,0.5,1.8c0,0.7-0.2,1.3-0.6,1.9s-1,1.1-1.7,1.4s-1.6,0.5-2.5,0.5
		c-1.2,0-2.1-0.2-2.9-0.5s-1.4-0.9-1.9-1.5S482.1,99,482.1,98.2z"/>
	<path d="M500.9,99.3l1.6,0.2c-0.3,1-0.7,1.7-1.4,2.2s-1.6,0.8-2.7,0.8c-1.4,0-2.4-0.4-3.2-1.3s-1.2-2-1.2-3.5
		c0-1.6,0.4-2.8,1.2-3.7s1.9-1.3,3.1-1.3c1.2,0,2.3,0.4,3.1,1.3s1.2,2,1.2,3.6c0,0.1,0,0.2,0,0.4h-7c0.1,1,0.3,1.8,0.9,2.4
		s1.2,0.8,2,0.8c0.6,0,1.1-0.2,1.5-0.5S500.6,100,500.9,99.3z M495.7,96.7h5.2c-0.1-0.8-0.3-1.4-0.6-1.8c-0.5-0.6-1.2-0.9-2-0.9
		c-0.7,0-1.3,0.2-1.8,0.7S495.7,95.9,495.7,96.7z"/>
	<path d="M507.9,100.9l0.2,1.4c-0.4,0.1-0.8,0.1-1.2,0.1c-0.6,0-1-0.1-1.3-0.3s-0.5-0.4-0.7-0.7s-0.2-0.9-0.2-1.9v-5.4h-1.2V93h1.2
		v-2.3l1.6-0.9V93h1.6v1.2h-1.6v5.5c0,0.5,0,0.7,0.1,0.9s0.1,0.2,0.3,0.3s0.3,0.1,0.5,0.1C507.4,100.9,507.7,100.9,507.9,100.9z"/>
	<path d="M522.4,100.8v1.5h-8.5c0-0.4,0-0.7,0.2-1.1c0.2-0.6,0.6-1.2,1-1.7s1.2-1.2,2.1-2c1.4-1.1,2.3-2.1,2.8-2.7s0.7-1.3,0.7-1.9
		c0-0.6-0.2-1.2-0.7-1.6s-1-0.6-1.8-0.6c-0.8,0-1.4,0.2-1.8,0.7s-0.7,1.1-0.7,1.9l-1.6-0.2c0.1-1.2,0.5-2.1,1.3-2.8s1.7-1,2.9-1
		c1.2,0,2.2,0.3,2.9,1s1.1,1.5,1.1,2.5c0,0.5-0.1,1-0.3,1.5s-0.6,1-1,1.6s-1.3,1.3-2.4,2.3c-0.9,0.8-1.6,1.3-1.8,1.6
		s-0.5,0.6-0.7,0.9H522.4z"/>
</g>
</svg>
