<?xml version="1.0" encoding="utf-8"?>
<!-- Generator: Adobe Illustrator 24.1.3, SVG Export Plug-In . SVG Version: 6.00 Build 0)  -->
<svg version="1.1" id="Layer_1" xmlns="http://www.w3.org/2000/svg" xmlns:xlink="http://www.w3.org/1999/xlink" x="0px" y="0px"
	 viewBox="0 0 854.8 245.7" style="enable-background:new 0 0 854.8 245.7;" xml:space="preserve">
<style type="text/css">
	.st0{fill:#FFFFFF;stroke:#6D6E71;stroke-width:2;stroke-miterlimit:10;}
	.st1{fill:none;stroke:#000000;stroke-width:2;stroke-miterlimit:10;}
	.st2{fill:#00AEEF;stroke:#231F20;stroke-width:2;stroke-miterlimit:10;}
	.st3{enable-background:new    ;}
	.st4{fill:none;stroke:#6D6E71;stroke-width:2;stroke-miterlimit:10;}
	.st5{fill:none;stroke:#6D6E71;stroke-width:2;stroke-miterlimit:10;stroke-dasharray:11.9,11.9;}
	.st6{fill:none;stroke:#6D6E71;stroke-width:2;stroke-miterlimit:10;stroke-dasharray:9.6,9.6;}
	.st7{fill:none;stroke:#231F20;stroke-width:3;stroke-miterlimit:10;}
	.st8{fill:#231F20;}
	.st9{fill:#FFFFFF;stroke:#009900;stroke-width:2;stroke-miterlimit:10;}
</style>
<g>
	<path d="M339.2,112.9c0,4.2,3.4,7.5,7.5,7.5s7.5-3.4,7.5-7.5c0-4.2-3.4-7.5-7.5-7.5S339.2,108.7,339.2,112.9z"/>
</g>
<g>
	<path d="M417,112.9c0,4.2,3.4,7.5,7.5,7.5s7.5-3.4,7.5-7.5c0-4.2-3.4-7.5-7.5-7.5S417,108.7,417,112.9z"/>
</g>
<rect x="316" y="113" class="st0" width="61.4" height="29.8"/>
<rect x="471.6" y="113" class="st0" width="61.4" height="29.8"/>
<rect x="393.8" y="113" class="st0" width="61.4" height="29.8"/>
<g>
	<path d="M326.5,128.4l1.6-0.1c0.1,0.6,0.3,1.2,0.5,1.6s0.7,0.7,1.3,1s1.2,0.4,2,0.4c0.7,0,1.2-0.1,1.7-0.3s0.9-0.5,1.1-0.8
		s0.4-0.7,0.4-1.1c0-0.4-0.1-0.8-0.4-1.1s-0.6-0.6-1.2-0.8c-0.3-0.1-1.1-0.3-2.3-0.6s-2-0.6-2.5-0.8c-0.6-0.3-1.1-0.7-1.4-1.2
		s-0.5-1-0.5-1.6c0-0.7,0.2-1.3,0.6-1.8s0.9-1,1.6-1.3s1.5-0.4,2.4-0.4c1,0,1.8,0.2,2.5,0.5s1.3,0.8,1.7,1.4s0.6,1.3,0.6,2l-1.6,0.1
		c-0.1-0.8-0.4-1.4-0.9-1.8s-1.3-0.6-2.2-0.6c-1,0-1.8,0.2-2.3,0.6s-0.7,0.8-0.7,1.4c0,0.5,0.2,0.8,0.5,1.1c0.3,0.3,1.2,0.6,2.6,0.9
		s2.3,0.6,2.9,0.8c0.8,0.3,1.3,0.8,1.7,1.3s0.5,1.1,0.5,1.8c0,0.7-0.2,1.3-0.6,1.9s-1,1.1-1.7,1.4s-1.6,0.5-2.5,0.5
		c-1.2,0-2.1-0.2-2.9-0.5s-1.4-0.9-1.9-1.5S326.5,129.3,326.5,128.4z"/>
	<path d="M345.2,129.6l1.6,0.2c-0.3,1-0.7,1.7-1.4,2.2s-1.6,0.8-2.7,0.8c-1.4,0-2.4-0.4-3.2-1.3s-1.2-2-1.2-3.5
		c0-1.6,0.4-2.8,1.2-3.7c0.8-0.9,1.9-1.3,3.1-1.3c1.2,0,2.3,0.4,3.1,1.3c0.8,0.8,1.2,2,1.2,3.6c0,0.1,0,0.2,0,0.4h-7
		c0.1,1,0.3,1.8,0.9,2.4s1.2,0.8,2,0.8c0.6,0,1.1-0.2,1.5-0.5S345,130.2,345.2,129.6z M340,127h5.2c-0.1-0.8-0.3-1.4-0.6-1.8
		c-0.5-0.6-1.2-0.9-2-0.9c-0.7,0-1.3,0.2-1.8,0.7S340.1,126.2,340,127z"/>
	<path d="M352.3,131.2l0.2,1.4c-0.4,0.1-0.8,0.1-1.2,0.1c-0.6,0-1-0.1-1.3-0.3s-0.5-0.4-0.7-0.7s-0.2-0.9-0.2-1.9v-5.4H348v-1.2h1.2
		v-2.3l1.6-0.9v3.3h1.6v1.2h-1.6v5.5c0,0.5,0,0.7,0.1,0.9s0.1,0.2,0.3,0.3s0.3,0.1,0.5,0.1C351.8,131.2,352,131.2,352.3,131.2z"/>
	<path d="M358.4,126.2c0-1.5,0.2-2.7,0.5-3.7s0.8-1.6,1.4-2.1s1.4-0.8,2.3-0.8c0.7,0,1.3,0.1,1.8,0.4s1,0.7,1.3,1.2s0.6,1.2,0.8,1.9
		s0.3,1.8,0.3,3c0,1.5-0.2,2.7-0.5,3.7s-0.8,1.6-1.4,2.2s-1.4,0.8-2.3,0.8c-1.2,0-2.2-0.4-2.9-1.3
		C358.8,130.4,358.4,128.6,358.4,126.2z M360,126.2c0,2.1,0.2,3.5,0.7,4.2s1.1,1,1.8,1s1.3-0.4,1.8-1.1s0.7-2.1,0.7-4.2
		c0-2.1-0.2-3.5-0.7-4.2s-1.1-1-1.9-1c-0.7,0-1.3,0.3-1.7,0.9C360.3,122.7,360,124.1,360,126.2z"/>
</g>
<g>
	<path d="M326.5,128.5l1.6-0.1c0.1,0.6,0.3,1.2,0.5,1.6s0.7,0.7,1.3,1s1.2,0.4,2,0.4c0.7,0,1.2-0.1,1.7-0.3s0.9-0.5,1.1-0.8
		s0.4-0.7,0.4-1.1c0-0.4-0.1-0.8-0.4-1.1s-0.6-0.6-1.2-0.8c-0.3-0.1-1.1-0.3-2.3-0.6s-2-0.6-2.5-0.8c-0.6-0.3-1.1-0.7-1.4-1.2
		s-0.5-1-0.5-1.6c0-0.7,0.2-1.3,0.6-1.8s0.9-1,1.6-1.3s1.5-0.4,2.4-0.4c1,0,1.8,0.2,2.5,0.5s1.3,0.8,1.7,1.4s0.6,1.3,0.6,2l-1.6,0.1
		c-0.1-0.8-0.4-1.4-0.9-1.8s-1.3-0.6-2.2-0.6c-1,0-1.8,0.2-2.3,0.6s-0.7,0.8-0.7,1.4c0,0.5,0.2,0.8,0.5,1.1c0.3,0.3,1.2,0.6,2.6,0.9
		s2.3,0.6,2.9,0.8c0.8,0.3,1.3,0.8,1.7,1.3s0.5,1.1,0.5,1.8c0,0.7-0.2,1.3-0.6,1.9s-1,1.1-1.7,1.4s-1.6,0.5-2.5,0.5
		c-1.2,0-2.1-0.2-2.9-0.5s-1.4-0.9-1.9-1.5S326.5,129.4,326.5,128.5z"/>
	<path d="M345.2,129.7l1.6,0.2c-0.3,1-0.7,1.7-1.4,2.2s-1.6,0.8-2.7,0.8c-1.4,0-2.4-0.4-3.2-1.3s-1.2-2-1.2-3.5
		c0-1.6,0.4-2.8,1.2-3.7c0.8-0.9,1.9-1.3,3.1-1.3c1.2,0,2.3,0.4,3.1,1.3c0.8,0.8,1.2,2,1.2,3.6c0,0.1,0,0.2,0,0.4h-7
		c0.1,1,0.3,1.8,0.9,2.4s1.2,0.8,2,0.8c0.6,0,1.1-0.2,1.5-0.5S345,130.3,345.2,129.7z M340,127.1h5.2c-0.1-0.8-0.3-1.4-0.6-1.8
		c-0.5-0.6-1.2-0.9-2-0.9c-0.7,0-1.3,0.2-1.8,0.7S340.1,126.3,340,127.1z"/>
	<path d="M352.3,131.3l0.2,1.4c-0.4,0.1-0.8,0.1-1.2,0.1c-0.6,0-1-0.1-1.3-0.3s-0.5-0.4-0.7-0.7s-0.2-0.9-0.2-1.9v-5.4H348v-1.2h1.2
		V121l1.6-0.9v3.3h1.6v1.2h-1.6v5.5c0,0.5,0,0.7,0.1,0.9s0.1,0.2,0.3,0.3s0.3,0.1,0.5,0.1C351.8,131.3,352,131.3,352.3,131.3z"/>
	<path d="M358.4,126.3c0-1.5,0.2-2.8,0.5-3.7s0.8-1.6,1.4-2.1s1.4-0.8,2.3-0.8c0.7,0,1.3,0.1,1.8,0.4s1,0.7,1.3,1.2s0.6,1.2,0.8,1.9
		s0.3,1.8,0.3,3c0,1.5-0.2,2.7-0.5,3.7s-0.8,1.6-1.4,2.2s-1.4,0.8-2.3,0.8c-1.2,0-2.2-0.4-2.9-1.3
		C358.8,130.5,358.4,128.8,358.4,126.3z M360,126.3c0,2.1,0.2,3.5,0.7,4.2s1.1,1.1,1.8,1.1s1.3-0.4,1.8-1.1s0.7-2.1,0.7-4.2
		c0-2.1-0.2-3.5-0.7-4.2s-1.1-1-1.9-1c-0.7,0-1.3,0.3-1.7,0.9C360.3,122.8,360,124.2,360,126.3z"/>
</g>
<g>
	<path d="M404.3,128.5l1.6-0.1c0.1,0.6,0.3,1.2,0.5,1.6s0.7,0.7,1.3,1s1.2,0.4,2,0.4c0.7,0,1.2-0.1,1.7-0.3s0.9-0.5,1.1-0.8
		s0.4-0.7,0.4-1.1c0-0.4-0.1-0.8-0.4-1.1s-0.6-0.6-1.2-0.8c-0.3-0.1-1.1-0.3-2.3-0.6s-2-0.6-2.5-0.8c-0.6-0.3-1.1-0.7-1.4-1.2
		s-0.5-1-0.5-1.6c0-0.7,0.2-1.3,0.6-1.8s0.9-1,1.6-1.3s1.5-0.4,2.4-0.4c1,0,1.8,0.2,2.5,0.5s1.3,0.8,1.7,1.4s0.6,1.3,0.6,2l-1.6,0.1
		c-0.1-0.8-0.4-1.4-0.9-1.8s-1.3-0.6-2.2-0.6c-1,0-1.8,0.2-2.3,0.6s-0.7,0.8-0.7,1.4c0,0.5,0.2,0.8,0.5,1.1c0.3,0.3,1.2,0.6,2.6,0.9
		s2.3,0.6,2.9,0.8c0.8,0.3,1.3,0.8,1.7,1.3s0.5,1.1,0.5,1.8c0,0.7-0.2,1.3-0.6,1.9s-1,1.1-1.7,1.4s-1.6,0.5-2.5,0.5
		c-1.2,0-2.1-0.2-2.9-0.5s-1.4-0.9-1.9-1.5S404.3,129.4,404.3,128.5z"/>
	<path d="M423,129.7l1.6,0.2c-0.3,1-0.7,1.7-1.4,2.2s-1.6,0.8-2.7,0.8c-1.4,0-2.4-0.4-3.2-1.3s-1.2-2-1.2-3.5c0-1.6,0.4-2.8,1.2-3.7
		s1.9-1.3,3.1-1.3c1.2,0,2.3,0.4,3.1,1.3s1.2,2,1.2,3.6c0,0.1,0,0.2,0,0.4h-7c0.1,1,0.3,1.8,0.9,2.4s1.2,0.8,2,0.8
		c0.6,0,1.1-0.2,1.5-0.5S422.8,130.3,423,129.7z M417.8,127.1h5.2c-0.1-0.8-0.3-1.4-0.6-1.8c-0.5-0.6-1.2-0.9-2-0.9
		c-0.7,0-1.3,0.2-1.8,0.7S417.9,126.3,417.8,127.1z"/>
	<path d="M430.1,131.3l0.2,1.4c-0.4,0.1-0.8,0.1-1.2,0.1c-0.6,0-1-0.1-1.3-0.3s-0.5-0.4-0.7-0.7s-0.2-0.9-0.2-1.9v-5.4h-1.2v-1.2
		h1.2V121l1.6-0.9v3.3h1.6v1.2h-1.6v5.5c0,0.5,0,0.7,0.1,0.9s0.1,0.2,0.3,0.3s0.3,0.1,0.5,0.1C429.6,131.3,429.8,131.3,430.1,131.3z
		"/>
	<path d="M442.2,132.7h-1.6v-10.1c-0.4,0.4-0.9,0.7-1.5,1.1s-1.2,0.6-1.7,0.8V123c0.9-0.4,1.7-0.9,2.3-1.5s1.1-1.2,1.4-1.7h1V132.7z
		"/>
</g>
<g>
	<path d="M482.1,128.5l1.6-0.1c0.1,0.6,0.3,1.2,0.5,1.6s0.7,0.7,1.3,1s1.2,0.4,2,0.4c0.7,0,1.2-0.1,1.7-0.3s0.9-0.5,1.1-0.8
		s0.4-0.7,0.4-1.1c0-0.4-0.1-0.8-0.4-1.1s-0.6-0.6-1.2-0.8c-0.3-0.1-1.1-0.3-2.3-0.6s-2-0.6-2.5-0.8c-0.6-0.3-1.1-0.7-1.4-1.2
		s-0.5-1-0.5-1.6c0-0.7,0.2-1.3,0.6-1.8s0.9-1,1.6-1.3s1.5-0.4,2.4-0.4c1,0,1.8,0.2,2.5,0.5s1.3,0.8,1.7,1.4s0.6,1.3,0.6,2l-1.6,0.1
		c-0.1-0.8-0.4-1.4-0.9-1.8s-1.3-0.6-2.2-0.6c-1,0-1.8,0.2-2.3,0.6s-0.7,0.8-0.7,1.4c0,0.5,0.2,0.8,0.5,1.1c0.3,0.3,1.2,0.6,2.6,0.9
		s2.3,0.6,2.9,0.8c0.8,0.3,1.3,0.8,1.7,1.3s0.5,1.1,0.5,1.8c0,0.7-0.2,1.3-0.6,1.9s-1,1.1-1.7,1.4s-1.6,0.5-2.5,0.5
		c-1.2,0-2.1-0.2-2.9-0.5s-1.4-0.9-1.9-1.5S482.1,129.4,482.1,128.5z"/>
	<path d="M500.8,129.7l1.6,0.2c-0.3,1-0.7,1.7-1.4,2.2s-1.6,0.8-2.7,0.8c-1.4,0-2.4-0.4-3.2-1.3s-1.2-2-1.2-3.5
		c0-1.6,0.4-2.8,1.2-3.7s1.9-1.3,3.1-1.3c1.2,0,2.3,0.4,3.1,1.3s1.2,2,1.2,3.6c0,0.1,0,0.2,0,0.4h-7c0.1,1,0.3,1.8,0.9,2.4
		s1.2,0.8,2,0.8c0.6,0,1.1-0.2,1.5-0.5S500.6,130.3,500.8,129.7z M495.6,127.1h5.2c-0.1-0.8-0.3-1.4-0.6-1.8c-0.5-0.6-1.2-0.9-2-0.9
		c-0.7,0-1.3,0.2-1.8,0.7S495.7,126.3,495.6,127.1z"/>
	<path d="M507.9,131.3l0.2,1.4c-0.4,0.1-0.8,0.1-1.2,0.1c-0.6,0-1-0.1-1.3-0.3s-0.5-0.4-0.7-0.7s-0.2-0.9-0.2-1.9v-5.4h-1.2v-1.2
		h1.2V121l1.6-0.9v3.3h1.6v1.2h-1.6v5.5c0,0.5,0,0.7,0.1,0.9s0.1,0.2,0.3,0.3s0.3,0.1,0.5,0.1C507.4,131.3,507.6,131.3,507.9,131.3z
		"/>
	<path d="M522.3,131.2v1.5h-8.5c0-0.4,0-0.7,0.2-1.1c0.2-0.6,0.6-1.2,1-1.7s1.2-1.2,2.1-2c1.4-1.1,2.3-2.1,2.8-2.7s0.7-1.3,0.7-1.9
		c0-0.6-0.2-1.2-0.7-1.6s-1-0.6-1.8-0.6c-0.8,0-1.4,0.2-1.8,0.7s-0.7,1.1-0.7,1.9l-1.6-0.2c0.1-1.2,0.5-2.1,1.3-2.8s1.7-1,2.9-1
		c1.2,0,2.2,0.3,2.9,1s1.1,1.5,1.1,2.5c0,0.5-0.1,1-0.3,1.5s-0.6,1-1.1,1.6s-1.3,1.3-2.4,2.3c-0.9,0.8-1.6,1.3-1.8,1.6
		s-0.5,0.6-0.7,0.9H522.3z"/>
</g>
<path class="st1" d="M433.2,29.4c-7.9,0.1-8.9,67.3-8.7,76"/>
<path class="st1" d="M321,39.1c4.2,0.1,12.3,18.2,18.2,35.9c4.2,12.5,7.4,24.8,7.5,30.5"/>
<g>
	<rect x="157" y="174.7" class="st2" width="180" height="60"/>
	<g>
		<path d="M189.1,210.1l-5.5-14.3h2.1l3.7,10.4c0.3,0.8,0.5,1.6,0.8,2.3c0.2-0.8,0.5-1.6,0.8-2.3l3.9-10.4h1.9l-5.6,14.3H189.1z"/>
		<path d="M204.1,206.7l1.8,0.2c-0.3,1.1-0.8,1.9-1.6,2.5s-1.8,0.9-3,0.9c-1.5,0-2.7-0.5-3.6-1.4c-0.9-0.9-1.3-2.2-1.3-3.9
			s0.4-3.1,1.3-4.1c0.9-1,2.1-1.4,3.5-1.4s2.5,0.5,3.4,1.4s1.3,2.3,1.3,4c0,0.1,0,0.3,0,0.5h-7.7c0.1,1.1,0.4,2,1,2.6
			s1.3,0.9,2.2,0.9c0.6,0,1.2-0.2,1.7-0.5C203.5,208,203.9,207.5,204.1,206.7z M198.4,203.9h5.8c-0.1-0.9-0.3-1.5-0.7-2
			c-0.6-0.7-1.3-1-2.2-1c-0.8,0-1.5,0.3-2,0.8C198.7,202.3,198.4,203,198.4,203.9z"/>
		<path d="M208.1,210.1v-10.4h1.6v1.6c0.4-0.7,0.8-1.2,1.1-1.5s0.7-0.4,1.1-0.4c0.6,0,1.2,0.2,1.8,0.6l-0.6,1.6
			c-0.4-0.3-0.9-0.4-1.3-0.4c-0.4,0-0.7,0.1-1,0.3s-0.5,0.6-0.7,1c-0.2,0.6-0.3,1.3-0.3,2.1v5.4L208.1,210.1L208.1,210.1z"/>
		<path d="M218.7,208.5l0.3,1.6c-0.5,0.1-0.9,0.2-1.3,0.2c-0.6,0-1.1-0.1-1.5-0.3s-0.6-0.5-0.7-0.8c-0.1-0.3-0.2-1-0.2-2.1v-6H214
			v-1.4h1.3v-2.6l1.7-1.1v3.6h1.8v1.4H217v6.1c0,0.5,0,0.8,0.1,1c0.1,0.1,0.2,0.3,0.3,0.3c0.1,0.1,0.3,0.1,0.6,0.1
			C218.1,208.6,218.3,208.5,218.7,208.5z"/>
		<path d="M227.5,206.7l1.8,0.2c-0.3,1.1-0.8,1.9-1.6,2.5s-1.8,0.9-3,0.9c-1.5,0-2.7-0.5-3.6-1.4c-0.9-0.9-1.3-2.2-1.3-3.9
			s0.4-3.1,1.3-4.1c0.9-1,2.1-1.4,3.5-1.4s2.5,0.5,3.4,1.4s1.3,2.3,1.3,4c0,0.1,0,0.3,0,0.5h-7.7c0.1,1.1,0.4,2,1,2.6
			s1.3,0.9,2.2,0.9c0.6,0,1.2-0.2,1.7-0.5C226.9,208,227.2,207.5,227.5,206.7z M221.7,203.9h5.8c-0.1-0.9-0.3-1.5-0.7-2
			c-0.6-0.7-1.3-1-2.2-1c-0.8,0-1.5,0.3-2,0.8C222.1,202.3,221.8,203,221.7,203.9z"/>
		<path d="M230.3,210.1l3.8-5.4l-3.5-5h2.2l1.6,2.4c0.3,0.5,0.5,0.8,0.7,1.2c0.3-0.4,0.5-0.8,0.8-1.1l1.7-2.5h2.1l-3.6,4.9l3.9,5.5
			h-2.2l-2.1-3.2l-0.6-0.9l-2.7,4.1H230.3z"/>
		<path d="M246.6,205.5l1.8-0.2c0.1,0.7,0.3,1.3,0.6,1.8s0.8,0.8,1.4,1.1c0.7,0.3,1.4,0.4,2.2,0.4c0.7,0,1.4-0.1,1.9-0.3
			c0.6-0.2,1-0.5,1.2-0.9c0.3-0.4,0.4-0.8,0.4-1.2s-0.1-0.8-0.4-1.2c-0.3-0.3-0.7-0.6-1.3-0.8c-0.4-0.1-1.2-0.4-2.5-0.7
			s-2.2-0.6-2.8-0.9c-0.7-0.4-1.2-0.8-1.5-1.3s-0.5-1.1-0.5-1.8s0.2-1.4,0.6-2c0.4-0.6,1-1.1,1.8-1.4s1.7-0.5,2.6-0.5
			c1.1,0,2,0.2,2.8,0.5s1.4,0.8,1.9,1.5c0.4,0.7,0.7,1.4,0.7,2.3l-1.8,0.1c-0.1-0.9-0.4-1.6-1-2.1s-1.4-0.7-2.5-0.7s-2,0.2-2.5,0.6
			c-0.5,0.4-0.8,0.9-0.8,1.5c0,0.5,0.2,0.9,0.6,1.3c0.4,0.3,1.3,0.7,2.9,1c1.5,0.3,2.6,0.7,3.2,0.9c0.8,0.4,1.4,0.9,1.8,1.5
			s0.6,1.3,0.6,2c0,0.8-0.2,1.5-0.7,2.2c-0.4,0.7-1.1,1.2-1.9,1.6c-0.8,0.4-1.7,0.6-2.8,0.6c-1.3,0-2.4-0.2-3.3-0.6
			c-0.9-0.4-1.6-0.9-2.1-1.7C246.7,207.3,246.7,206.4,246.6,205.5z"/>
		<path d="M260.4,210.1v-14.4h1.8v5.1c0.8-1,1.9-1.4,3.1-1.4c0.8,0,1.4,0.2,2,0.5s1,0.7,1.2,1.3c0.2,0.5,0.4,1.3,0.4,2.3v6.6h-1.8
			v-6.6c0-0.9-0.2-1.5-0.6-1.9s-0.9-0.6-1.6-0.6c-0.5,0-1,0.1-1.5,0.4s-0.8,0.6-1,1.1s-0.3,1.1-0.3,1.9v5.7L260.4,210.1L260.4,210.1
			z"/>
		<path d="M278.3,208.8c-0.7,0.6-1.3,0.9-1.9,1.2c-0.6,0.2-1.2,0.3-1.9,0.3c-1.1,0-2-0.3-2.6-0.8c-0.6-0.6-0.9-1.3-0.9-2.1
			c0-0.5,0.1-1,0.3-1.4c0.2-0.4,0.5-0.8,0.9-1c0.4-0.3,0.8-0.4,1.3-0.6c0.3-0.1,0.9-0.2,1.6-0.3c1.4-0.2,2.5-0.4,3.1-0.6
			c0-0.2,0-0.4,0-0.5c0-0.7-0.2-1.2-0.5-1.5c-0.4-0.4-1.1-0.6-2-0.6c-0.8,0-1.4,0.1-1.8,0.4c-0.4,0.3-0.7,0.8-0.9,1.5l-1.7-0.2
			c0.2-0.7,0.4-1.3,0.8-1.8s0.9-0.8,1.6-1s1.5-0.4,2.4-0.4s1.6,0.1,2.2,0.3s1,0.5,1.2,0.8c0.3,0.3,0.4,0.7,0.5,1.2
			c0.1,0.3,0.1,0.8,0.1,1.6v2.3c0,1.6,0,2.7,0.1,3.1c0.1,0.4,0.2,0.8,0.4,1.2h-1.8C278.5,209.7,278.3,209.3,278.3,208.8z
			 M278.1,204.9c-0.6,0.3-1.6,0.5-2.9,0.7c-0.7,0.1-1.2,0.2-1.5,0.4c-0.3,0.1-0.5,0.3-0.7,0.6s-0.2,0.5-0.2,0.8
			c0,0.5,0.2,0.9,0.5,1.2c0.4,0.3,0.9,0.5,1.6,0.5s1.3-0.1,1.8-0.4s0.9-0.7,1.2-1.2c0.2-0.4,0.3-1,0.3-1.8L278.1,204.9L278.1,204.9z
			"/>
		<path d="M289.4,210.1v-1.3c-0.7,1-1.6,1.5-2.9,1.5c-0.8,0-1.6-0.2-2.3-0.7s-1.2-1.1-1.6-1.9s-0.6-1.8-0.6-2.8s0.2-2,0.5-2.8
			s0.9-1.5,1.6-1.9s1.5-0.7,2.3-0.7c0.6,0,1.2,0.1,1.7,0.4s0.9,0.6,1.2,1v-5.1h1.7v14.3C291,210.1,289.4,210.1,289.4,210.1z
			 M283.8,204.9c0,1.3,0.3,2.3,0.8,3c0.6,0.7,1.2,1,2,1s1.4-0.3,2-0.9c0.6-0.6,0.8-1.6,0.8-2.9c0-1.4-0.3-2.5-0.8-3.1
			c-0.5-0.7-1.2-1-2-1s-1.4,0.3-2,1C284.1,202.5,283.8,203.5,283.8,204.9z"/>
		<path d="M300.9,206.7l1.8,0.2c-0.3,1.1-0.8,1.9-1.6,2.5c-0.8,0.6-1.8,0.9-3,0.9c-1.5,0-2.7-0.5-3.6-1.4s-1.3-2.2-1.3-3.9
			s0.4-3.1,1.3-4.1s2.1-1.4,3.5-1.4s2.5,0.5,3.4,1.4s1.3,2.3,1.3,4c0,0.1,0,0.3,0,0.5H295c0.1,1.1,0.4,2,1,2.6s1.3,0.9,2.2,0.9
			c0.6,0,1.2-0.2,1.7-0.5C300.2,208,300.6,207.5,300.9,206.7z M295.1,203.9h5.8c-0.1-0.9-0.3-1.5-0.7-2c-0.6-0.7-1.3-1-2.2-1
			c-0.8,0-1.5,0.3-2,0.8C295.5,202.3,295.2,203,295.1,203.9z"/>
		<path d="M304.9,210.1v-10.4h1.6v1.6c0.4-0.7,0.8-1.2,1.1-1.5c0.3-0.3,0.7-0.4,1.1-0.4c0.6,0,1.2,0.2,1.8,0.6l-0.6,1.6
			c-0.4-0.3-0.9-0.4-1.3-0.4s-0.7,0.1-1,0.3s-0.5,0.6-0.7,1c-0.2,0.6-0.3,1.3-0.3,2.1v5.4L304.9,210.1L304.9,210.1z"/>
	</g>
</g>
<rect x="518.1" y="174.7" class="st2" width="180" height="60"/>
<g class="st3">
	<path d="M531.8,210v-14.3h9.7v1.7h-7.8v4.4h6.7v1.7h-6.7v6.5L531.8,210L531.8,210z"/>
	<path d="M543.7,210v-10.4h1.6v1.6c0.4-0.7,0.8-1.2,1.1-1.5s0.7-0.4,1.1-0.4c0.6,0,1.2,0.2,1.8,0.6l-0.6,1.6
		c-0.4-0.3-0.9-0.4-1.3-0.4c-0.4,0-0.7,0.1-1,0.3s-0.5,0.6-0.7,1c-0.2,0.6-0.3,1.3-0.3,2.1v5.4L543.7,210L543.7,210z"/>
	<path d="M557.1,208.8c-0.7,0.6-1.3,0.9-1.9,1.2c-0.6,0.2-1.2,0.3-1.9,0.3c-1.1,0-2-0.3-2.6-0.8c-0.6-0.6-0.9-1.3-0.9-2.1
		c0-0.5,0.1-1,0.3-1.4s0.5-0.8,0.9-1c0.4-0.3,0.8-0.4,1.3-0.6c0.3-0.1,0.9-0.2,1.6-0.3c1.4-0.2,2.5-0.4,3.1-0.6c0-0.2,0-0.4,0-0.5
		c0-0.7-0.2-1.2-0.5-1.5c-0.4-0.4-1.1-0.6-2-0.6c-0.8,0-1.4,0.1-1.8,0.4c-0.4,0.3-0.7,0.8-0.9,1.5l-1.7-0.2c0.2-0.7,0.4-1.3,0.8-1.8
		c0.4-0.5,0.9-0.8,1.6-1c0.7-0.2,1.5-0.4,2.4-0.4s1.6,0.1,2.2,0.3c0.6,0.2,1,0.5,1.2,0.8c0.3,0.3,0.4,0.7,0.5,1.2
		c0.1,0.3,0.1,0.8,0.1,1.6v2.3c0,1.6,0,2.7,0.1,3.1c0.1,0.4,0.2,0.8,0.4,1.2h-1.8C557.3,209.7,557.2,209.2,557.1,208.8z M557,204.8
		c-0.6,0.3-1.6,0.5-2.9,0.7c-0.7,0.1-1.2,0.2-1.5,0.4c-0.3,0.1-0.5,0.3-0.7,0.6s-0.2,0.5-0.2,0.8c0,0.5,0.2,0.9,0.5,1.2
		c0.4,0.3,0.9,0.5,1.6,0.5c0.7,0,1.3-0.1,1.8-0.4s0.9-0.7,1.2-1.2c0.2-0.4,0.3-1,0.3-1.8L557,204.8L557,204.8z"/>
	<path d="M561.1,210.9l1.7,0.3c0.1,0.5,0.3,0.9,0.6,1.2c0.4,0.3,1,0.5,1.8,0.5s1.4-0.2,1.9-0.5c0.4-0.3,0.7-0.8,0.9-1.4
		c0.1-0.4,0.1-1.1,0.1-2.3c-0.8,0.9-1.7,1.4-2.9,1.4c-1.4,0-2.5-0.5-3.3-1.5s-1.2-2.3-1.2-3.7c0-1,0.2-1.9,0.5-2.7
		c0.4-0.8,0.9-1.5,1.6-1.9c0.7-0.5,1.5-0.7,2.4-0.7c1.2,0,2.2,0.5,3,1.5v-1.3h1.6v9c0,1.6-0.2,2.8-0.5,3.4c-0.3,0.7-0.8,1.2-1.6,1.6
		s-1.6,0.6-2.6,0.6c-1.2,0-2.2-0.3-3-0.8S561.1,212,561.1,210.9z M562.6,204.7c0,1.4,0.3,2.4,0.8,3s1.2,0.9,2,0.9s1.5-0.3,2-0.9
		s0.8-1.6,0.8-2.9c0-1.3-0.3-2.2-0.8-2.9c-0.6-0.6-1.2-1-2-1s-1.4,0.3-2,1S562.6,203.4,562.6,204.7z"/>
	<path d="M572.6,210v-10.4h1.6v1.5c0.3-0.5,0.8-0.9,1.3-1.2s1.2-0.5,1.8-0.5c0.8,0,1.4,0.2,1.9,0.5s0.8,0.8,1,1.3
		c0.8-1.2,1.9-1.8,3.2-1.8c1,0,1.8,0.3,2.4,0.9c0.6,0.6,0.8,1.4,0.8,2.6v7.1h-1.7v-6.5c0-0.7-0.1-1.2-0.2-1.5
		c-0.1-0.3-0.3-0.6-0.6-0.7c-0.3-0.2-0.7-0.3-1.1-0.3c-0.7,0-1.3,0.2-1.8,0.7s-0.7,1.3-0.7,2.3v6h-1.8v-6.7c0-0.8-0.1-1.4-0.4-1.8
		c-0.3-0.4-0.8-0.6-1.4-0.6c-0.5,0-1,0.1-1.4,0.4s-0.7,0.6-0.9,1.1s-0.3,1.2-0.3,2.2v5.4H572.6z"/>
	<path d="M596.4,206.7l1.8,0.2c-0.3,1.1-0.8,1.9-1.6,2.5s-1.8,0.9-3,0.9c-1.5,0-2.7-0.5-3.6-1.4s-1.3-2.2-1.3-3.9s0.4-3.1,1.3-4.1
		s2.1-1.4,3.5-1.4s2.5,0.5,3.4,1.4s1.3,2.3,1.3,4c0,0.1,0,0.3,0,0.5h-7.7c0.1,1.1,0.4,2,1,2.6s1.3,0.9,2.2,0.9
		c0.6,0,1.2-0.2,1.7-0.5C595.7,208,596.1,207.4,596.4,206.7z M590.6,203.9h5.8c-0.1-0.9-0.3-1.5-0.7-2c-0.6-0.7-1.3-1-2.2-1
		c-0.8,0-1.5,0.3-2,0.8C590.9,202.2,590.6,203,590.6,203.9z"/>
	<path d="M600.4,210v-10.4h1.6v1.5c0.8-1.1,1.9-1.7,3.3-1.7c0.6,0,1.2,0.1,1.7,0.3s0.9,0.5,1.2,0.9s0.4,0.8,0.5,1.3
		c0.1,0.3,0.1,0.9,0.1,1.7v6.4H607v-6.3c0-0.7-0.1-1.3-0.2-1.6s-0.4-0.6-0.7-0.8s-0.8-0.3-1.2-0.3c-0.7,0-1.4,0.2-1.9,0.7
		s-0.8,1.4-0.8,2.7v5.7L600.4,210L600.4,210z"/>
	<path d="M615.3,208.5l0.3,1.6c-0.5,0.1-0.9,0.2-1.3,0.2c-0.6,0-1.1-0.1-1.5-0.3s-0.6-0.5-0.7-0.8c-0.1-0.3-0.2-1-0.2-2.1v-6h-1.3
		v-1.4h1.3v-2.6l1.7-1.1v3.6h1.8v1.4h-1.8v6.1c0,0.5,0,0.8,0.1,1c0.1,0.1,0.2,0.3,0.3,0.3c0.1,0.1,0.3,0.1,0.6,0.1
		C614.8,208.5,615,208.5,615.3,208.5z"/>
	<path d="M622.2,205.4l1.8-0.2c0.1,0.7,0.3,1.3,0.6,1.8s0.8,0.8,1.4,1.1c0.7,0.3,1.4,0.4,2.2,0.4c0.7,0,1.4-0.1,1.9-0.3
		c0.6-0.2,1-0.5,1.2-0.9c0.3-0.4,0.4-0.8,0.4-1.2s-0.1-0.8-0.4-1.2c-0.3-0.3-0.7-0.6-1.3-0.8c-0.4-0.1-1.2-0.4-2.5-0.7
		s-2.2-0.6-2.8-0.9c-0.7-0.4-1.2-0.8-1.5-1.3s-0.5-1.1-0.5-1.8s0.2-1.4,0.6-2s1-1.1,1.8-1.4c0.8-0.3,1.7-0.5,2.6-0.5
		c1.1,0,2,0.2,2.8,0.5s1.4,0.8,1.9,1.5c0.4,0.7,0.7,1.4,0.7,2.3l-1.8,0.1c-0.1-0.9-0.4-1.6-1-2.1s-1.4-0.7-2.5-0.7s-2,0.2-2.5,0.6
		c-0.5,0.4-0.8,0.9-0.8,1.5c0,0.5,0.2,0.9,0.6,1.3c0.4,0.3,1.3,0.7,2.9,1c1.5,0.3,2.6,0.7,3.2,0.9c0.8,0.4,1.4,0.9,1.8,1.5
		c0.4,0.6,0.6,1.3,0.6,2c0,0.8-0.2,1.5-0.7,2.2c-0.4,0.7-1.1,1.2-1.9,1.6c-0.8,0.4-1.7,0.6-2.8,0.6c-1.3,0-2.4-0.2-3.3-0.6
		c-0.9-0.4-1.6-0.9-2.1-1.7S622.2,206.4,622.2,205.4z"/>
	<path d="M636,210v-14.3h1.8v5.1c0.8-1,1.9-1.4,3.1-1.4c0.8,0,1.4,0.2,2,0.5s1,0.7,1.2,1.3s0.4,1.3,0.4,2.3v6.6h-1.8v-6.6
		c0-0.9-0.2-1.5-0.6-1.9s-0.9-0.6-1.6-0.6c-0.5,0-1,0.1-1.5,0.4s-0.8,0.6-1,1.1s-0.3,1.1-0.3,1.9v5.7H636V210z"/>
	<path d="M653.8,208.8c-0.7,0.6-1.3,0.9-1.9,1.2c-0.6,0.2-1.2,0.3-1.9,0.3c-1.1,0-2-0.3-2.6-0.8c-0.6-0.6-0.9-1.3-0.9-2.1
		c0-0.5,0.1-1,0.3-1.4s0.5-0.8,0.9-1c0.4-0.3,0.8-0.4,1.3-0.6c0.3-0.1,0.9-0.2,1.6-0.3c1.4-0.2,2.5-0.4,3.1-0.6c0-0.2,0-0.4,0-0.5
		c0-0.7-0.2-1.2-0.5-1.5c-0.4-0.4-1.1-0.6-2-0.6c-0.8,0-1.4,0.1-1.8,0.4c-0.4,0.3-0.7,0.8-0.9,1.5l-1.7-0.2c0.2-0.7,0.4-1.3,0.8-1.8
		c0.4-0.5,0.9-0.8,1.6-1c0.7-0.2,1.5-0.4,2.4-0.4s1.6,0.1,2.2,0.3c0.6,0.2,1,0.5,1.2,0.8c0.3,0.3,0.4,0.7,0.5,1.2
		c0.1,0.3,0.1,0.8,0.1,1.6v2.3c0,1.6,0,2.7,0.1,3.1c0.1,0.4,0.2,0.8,0.4,1.2h-1.8C654,209.7,653.9,209.2,653.8,208.8z M653.7,204.8
		c-0.6,0.3-1.6,0.5-2.9,0.7c-0.7,0.1-1.2,0.2-1.5,0.4c-0.3,0.1-0.5,0.3-0.7,0.6s-0.2,0.5-0.2,0.8c0,0.5,0.2,0.9,0.5,1.2
		c0.4,0.3,0.9,0.5,1.6,0.5c0.7,0,1.3-0.1,1.8-0.4s0.9-0.7,1.2-1.2c0.2-0.4,0.3-1,0.3-1.8L653.7,204.8L653.7,204.8z"/>
	<path d="M664.9,210v-1.3c-0.7,1-1.6,1.5-2.9,1.5c-0.8,0-1.6-0.2-2.3-0.7s-1.2-1.1-1.6-1.9s-0.6-1.8-0.6-2.8s0.2-2,0.5-2.8
		s0.9-1.5,1.6-1.9c0.7-0.4,1.5-0.7,2.3-0.7c0.6,0,1.2,0.1,1.7,0.4s0.9,0.6,1.2,1v-5.1h1.7V210H664.9z M659.4,204.9
		c0,1.3,0.3,2.3,0.8,3c0.6,0.7,1.2,1,2,1s1.4-0.3,2-0.9s0.8-1.6,0.8-2.9c0-1.4-0.3-2.5-0.8-3.1s-1.2-1-2-1s-1.4,0.3-2,1
		C659.6,202.5,659.4,203.5,659.4,204.9z"/>
	<path d="M676.4,206.7l1.8,0.2c-0.3,1.1-0.8,1.9-1.6,2.5s-1.8,0.9-3,0.9c-1.5,0-2.7-0.5-3.6-1.4s-1.3-2.2-1.3-3.9s0.4-3.1,1.3-4.1
		s2.1-1.4,3.5-1.4s2.5,0.5,3.4,1.4s1.3,2.3,1.3,4c0,0.1,0,0.3,0,0.5h-7.7c0.1,1.1,0.4,2,1,2.6s1.3,0.9,2.2,0.9
		c0.6,0,1.2-0.2,1.7-0.5C675.8,208,676.2,207.4,676.4,206.7z M670.7,203.9h5.8c-0.1-0.9-0.3-1.5-0.7-2c-0.6-0.7-1.3-1-2.2-1
		c-0.8,0-1.5,0.3-2,0.8C671,202.2,670.7,203,670.7,203.9z"/>
	<path d="M680.4,210v-10.4h1.6v1.6c0.4-0.7,0.8-1.2,1.1-1.5s0.7-0.4,1.1-0.4c0.6,0,1.2,0.2,1.8,0.6l-0.6,1.6
		c-0.4-0.3-0.9-0.4-1.3-0.4c-0.4,0-0.7,0.1-1,0.3s-0.5,0.6-0.7,1c-0.2,0.6-0.3,1.3-0.3,2.1v5.4L680.4,210L680.4,210z"/>
</g>
<g>
	<polyline class="st4" points="126.5,228.7 126.5,234.7 122.1,234.7 	"/>
	<line class="st5" x1="113.6" y1="234.7" x2="15.1" y2="234.7"/>
	<polyline class="st4" points="10.8,234.7 6.5,234.7 6.5,228.7 	"/>
	<line class="st6" x1="6.5" y1="219.1" x2="6.5" y2="185.5"/>
	<polyline class="st4" points="6.5,180.7 6.5,174.7 10.8,174.7 	"/>
	<line class="st5" x1="19.4" y1="174.7" x2="117.8" y2="174.7"/>
	<polyline class="st4" points="122.1,174.7 126.5,174.7 126.5,180.7 	"/>
	<line class="st6" x1="126.5" y1="190.3" x2="126.5" y2="223.9"/>
</g>
<g>
	<line class="st7" x1="110.7" y1="188.7" x2="151.7" y2="188.7"/>
	<path class="st8" d="M169.8,188.7c-8.5,3.2-19.1,8.6-25.6,14.3l5.1-14.3l-5.2-14.3C150.7,180.1,161.2,185.5,169.8,188.7z"/>
</g>
<g>
	<circle cx="551.9" cy="127.7" r="2.5"/>
	<circle cx="560.7" cy="127.7" r="2.5"/>
	<circle cx="569.5" cy="127.7" r="2.5"/>
</g>
<g>
	<polyline class="st4" points="487.6,228.7 487.6,234.7 483.2,234.7 	"/>
	<line class="st5" x1="474.7" y1="234.7" x2="376.2" y2="234.7"/>
	<polyline class="st4" points="371.9,234.7 367.6,234.7 367.6,228.7 	"/>
	<line class="st6" x1="367.6" y1="219.1" x2="367.6" y2="185.5"/>
	<polyline class="st4" points="367.6,180.7 367.6,174.7 371.9,174.7 	"/>
	<line class="st5" x1="380.4" y1="174.7" x2="478.9" y2="174.7"/>
	<polyline class="st4" points="483.2,174.7 487.6,174.7 487.6,180.7 	"/>
	<line class="st6" x1="487.6" y1="190.3" x2="487.6" y2="223.9"/>
</g>
<g>
	<line class="st7" x1="477.1" y1="188.7" x2="518.1" y2="188.7"/>
	<path class="st8" d="M536.2,188.7c-8.5,3.2-19.1,8.6-25.6,14.3l5.1-14.3l-5.2-14.3C517.1,180.1,527.6,185.5,536.2,188.7z"/>
</g>
<g>
	<line class="st7" x1="319.3" y1="188.7" x2="360.3" y2="188.7"/>
	<path class="st8" d="M378.3,188.7c-8.5,3.2-19.1,8.6-25.6,14.3l5.1-14.3l-5.2-14.3C359.3,180.1,369.8,185.5,378.3,188.7z"/>
</g>
<g>
	<polyline class="st4" points="848.7,228.7 848.7,234.7 844.3,234.7 	"/>
	<line class="st5" x1="835.8" y1="234.7" x2="737.3" y2="234.7"/>
	<polyline class="st4" points="733,234.7 728.7,234.7 728.7,228.7 	"/>
	<line class="st6" x1="728.7" y1="219.1" x2="728.7" y2="185.5"/>
	<polyline class="st4" points="728.7,180.7 728.7,174.7 733,174.7 	"/>
	<line class="st5" x1="741.5" y1="174.7" x2="840" y2="174.7"/>
	<polyline class="st4" points="844.3,174.7 848.7,174.7 848.7,180.7 	"/>
	<line class="st6" x1="848.7" y1="190.3" x2="848.7" y2="223.9"/>
</g>
<g>
	<line class="st7" x1="680.7" y1="188.7" x2="721.7" y2="188.7"/>
	<path class="st8" d="M739.8,188.7c-8.5,3.2-19.1,8.6-25.6,14.3l5.1-14.3l-5.2-14.3C720.7,180.1,731.2,185.5,739.8,188.7z"/>
</g>
<g class="st3">
	<path d="M152.4,133.1v-14.3h5.4c1.1,0,2,0.1,2.6,0.4s1.2,0.7,1.6,1.3s0.6,1.2,0.6,1.9c0,0.6-0.2,1.2-0.5,1.7s-0.8,1-1.5,1.3
		c0.9,0.3,1.5,0.7,2,1.3c0.5,0.6,0.7,1.3,0.7,2.2c0,0.7-0.1,1.3-0.4,1.9s-0.6,1-1,1.3s-0.9,0.5-1.6,0.7c-0.6,0.2-1.4,0.2-2.3,0.2
		h-5.6V133.1z M154.3,124.8h3.1c0.8,0,1.4-0.1,1.8-0.2c0.5-0.1,0.8-0.4,1.1-0.7c0.2-0.3,0.4-0.7,0.4-1.3c0-0.5-0.1-0.9-0.3-1.3
		s-0.6-0.6-1-0.7s-1.1-0.2-2.2-0.2h-2.9L154.3,124.8L154.3,124.8z M154.3,131.4h3.6c0.6,0,1,0,1.3-0.1c0.4-0.1,0.8-0.2,1.1-0.4
		s0.5-0.4,0.7-0.8c0.2-0.3,0.3-0.8,0.3-1.2c0-0.5-0.1-1-0.4-1.4c-0.3-0.4-0.7-0.7-1.1-0.8c-0.5-0.2-1.2-0.2-2.1-0.2h-3.3v4.9H154.3z
		"/>
	<path d="M165.6,120.8v-2h1.8v2H165.6z M165.6,133.1v-10.4h1.8v10.4H165.6z"/>
	<path d="M170,133.1v-10.4h1.6v1.5c0.8-1.1,1.9-1.7,3.3-1.7c0.6,0,1.2,0.1,1.7,0.3s0.9,0.5,1.2,0.9s0.4,0.8,0.5,1.3
		c0.1,0.3,0.1,0.9,0.1,1.7v6.4h-1.8v-6.3c0-0.7-0.1-1.3-0.2-1.6c-0.1-0.4-0.4-0.6-0.7-0.8c-0.3-0.2-0.8-0.3-1.2-0.3
		c-0.7,0-1.4,0.2-1.9,0.7s-0.8,1.4-0.8,2.7v5.7L170,133.1L170,133.1z"/>
	<path d="M187.9,133.1v-1.3c-0.7,1-1.6,1.5-2.9,1.5c-0.8,0-1.6-0.2-2.3-0.7s-1.2-1.1-1.6-1.9c-0.4-0.8-0.6-1.8-0.6-2.8
		s0.2-2,0.5-2.8s0.9-1.5,1.6-1.9s1.5-0.7,2.3-0.7c0.6,0,1.2,0.1,1.7,0.4s0.9,0.6,1.2,1v-5.1h1.7v14.3H187.9z M182.3,127.9
		c0,1.3,0.3,2.3,0.8,3c0.6,0.7,1.2,1,2,1s1.4-0.3,2-0.9c0.5-0.6,0.8-1.6,0.8-2.9c0-1.4-0.3-2.5-0.8-3.1s-1.2-1-2-1s-1.4,0.3-2,1
		C182.6,125.5,182.3,126.5,182.3,127.9z"/>
	<path d="M204.8,127.4v-1.7h6.1v5.3c-0.9,0.7-1.9,1.3-2.9,1.7s-2,0.6-3,0.6c-1.4,0-2.7-0.3-3.8-0.9c-1.1-0.6-2-1.5-2.6-2.6
		s-0.9-2.4-0.9-3.8s0.3-2.7,0.9-3.9s1.4-2.1,2.5-2.7s2.4-0.9,3.8-0.9c1,0,2,0.2,2.8,0.5s1.5,0.8,2,1.4s0.8,1.4,1.1,2.3l-1.7,0.5
		c-0.2-0.7-0.5-1.3-0.8-1.7s-0.8-0.8-1.4-1s-1.3-0.4-2-0.4c-0.9,0-1.6,0.1-2.2,0.4s-1.1,0.6-1.5,1s-0.7,0.9-0.9,1.4
		c-0.4,0.9-0.5,1.8-0.5,2.9c0,1.3,0.2,2.3,0.7,3.2s1.1,1.5,1.9,1.9c0.8,0.4,1.7,0.6,2.7,0.6c0.8,0,1.6-0.2,2.4-0.5
		c0.8-0.3,1.4-0.7,1.8-1v-2.7L204.8,127.4L204.8,127.4z"/>
	<path d="M213.4,133.1v-10.4h1.6v1.6c0.4-0.7,0.8-1.2,1.1-1.5s0.7-0.4,1.1-0.4c0.6,0,1.2,0.2,1.8,0.6l-0.6,1.6
		c-0.4-0.3-0.9-0.4-1.3-0.4c-0.4,0-0.7,0.1-1,0.3c-0.3,0.2-0.5,0.6-0.7,1c-0.2,0.6-0.3,1.3-0.3,2.1v5.4h-1.7V133.1z"/>
	<path d="M219.4,127.9c0-1.9,0.5-3.3,1.6-4.3c0.9-0.8,2-1.2,3.3-1.2c1.4,0,2.6,0.5,3.5,1.4s1.4,2.2,1.4,3.9c0,1.3-0.2,2.4-0.6,3.2
		c-0.4,0.8-1,1.4-1.7,1.8c-0.8,0.4-1.6,0.6-2.5,0.6c-1.5,0-2.6-0.5-3.5-1.4C219.8,131,219.4,129.6,219.4,127.9z M221.2,127.9
		c0,1.3,0.3,2.3,0.9,3c0.6,0.7,1.3,1,2.2,1s1.6-0.3,2.2-1s0.9-1.7,0.9-3s-0.3-2.3-0.9-2.9c-0.6-0.7-1.3-1-2.2-1s-1.6,0.3-2.2,1
		C221.5,125.5,221.2,126.5,221.2,127.9z"/>
	<path d="M238,133.1v-1.5c-0.8,1.2-1.9,1.8-3.3,1.8c-0.6,0-1.2-0.1-1.7-0.4s-0.9-0.5-1.2-0.9s-0.4-0.8-0.5-1.3
		c-0.1-0.3-0.1-0.9-0.1-1.6v-6.4h1.8v5.8c0,0.9,0,1.5,0.1,1.9c0.1,0.5,0.3,0.8,0.7,1.1s0.8,0.4,1.3,0.4s1-0.1,1.5-0.4
		c0.5-0.3,0.8-0.6,1-1.1s0.3-1.1,0.3-2v-5.6h1.8v10.4H238V133.1z"/>
	<path d="M242.3,137v-14.3h1.6v1.3c0.4-0.5,0.8-0.9,1.3-1.2s1.1-0.4,1.7-0.4c0.9,0,1.7,0.2,2.3,0.7s1.2,1.1,1.5,1.9s0.5,1.7,0.5,2.7
		c0,1.1-0.2,2-0.6,2.9s-0.9,1.5-1.7,2c-0.7,0.5-1.5,0.7-2.3,0.7c-0.6,0-1.1-0.1-1.6-0.4c-0.5-0.2-0.8-0.6-1.1-0.9v5H242.3z
		 M243.9,127.9c0,1.3,0.3,2.3,0.8,3c0.5,0.6,1.2,1,2,1s1.5-0.3,2-1c0.6-0.7,0.8-1.7,0.8-3.1c0-1.3-0.3-2.3-0.8-3s-1.2-1-1.9-1
		s-1.4,0.3-2,1.1C244.2,125.6,243.9,126.6,243.9,127.9z"/>
	<path d="M258.6,128.5l1.8-0.2c0.1,0.7,0.3,1.3,0.6,1.8s0.8,0.8,1.4,1.1s1.4,0.4,2.2,0.4c0.7,0,1.4-0.1,1.9-0.3s1-0.5,1.2-0.9
		c0.3-0.4,0.4-0.8,0.4-1.2s-0.1-0.8-0.4-1.2c-0.3-0.3-0.7-0.6-1.3-0.8c-0.4-0.1-1.2-0.4-2.5-0.7c-1.3-0.3-2.2-0.6-2.8-0.9
		c-0.7-0.4-1.2-0.8-1.5-1.3s-0.5-1.1-0.5-1.8c0-0.7,0.2-1.4,0.6-2s1-1.1,1.8-1.4s1.7-0.5,2.6-0.5c1.1,0,2,0.2,2.8,0.5
		s1.4,0.8,1.9,1.5s0.7,1.4,0.7,2.3l-1.8,0.1c-0.1-0.9-0.4-1.6-1-2.1s-1.4-0.7-2.5-0.7s-2,0.2-2.5,0.6s-0.8,0.9-0.8,1.5
		c0,0.5,0.2,0.9,0.6,1.3c0.4,0.3,1.3,0.7,2.9,1c1.5,0.3,2.6,0.7,3.2,0.9c0.8,0.4,1.4,0.9,1.8,1.5s0.6,1.3,0.6,2
		c0,0.8-0.2,1.5-0.7,2.2s-1.1,1.2-1.9,1.6c-0.8,0.4-1.7,0.6-2.8,0.6c-1.3,0-2.4-0.2-3.3-0.6c-0.9-0.4-1.6-0.9-2.1-1.7
		C258.9,130.3,258.6,129.4,258.6,128.5z"/>
	<path d="M272.3,133.1v-14.3h1.8v14.3H272.3z"/>
	<path d="M276.1,127.9c0-1.9,0.5-3.3,1.6-4.3c0.9-0.8,2-1.2,3.3-1.2c1.4,0,2.6,0.5,3.5,1.4s1.4,2.2,1.4,3.9c0,1.3-0.2,2.4-0.6,3.2
		s-1,1.4-1.7,1.8c-0.8,0.4-1.6,0.6-2.5,0.6c-1.5,0-2.6-0.5-3.5-1.4C276.6,131,276.1,129.6,276.1,127.9z M277.9,127.9
		c0,1.3,0.3,2.3,0.9,3s1.3,1,2.2,1c0.9,0,1.6-0.3,2.2-1s0.9-1.7,0.9-3s-0.3-2.3-0.9-2.9c-0.6-0.7-1.3-1-2.2-1c-0.9,0-1.6,0.3-2.2,1
		C278.2,125.5,277.9,126.5,277.9,127.9z"/>
	<path d="M291.7,131.5l0.3,1.6c-0.5,0.1-0.9,0.2-1.3,0.2c-0.6,0-1.1-0.1-1.5-0.3s-0.6-0.5-0.7-0.8s-0.2-1-0.2-2.1v-6H287v-1.4h1.3
		v-2.6l1.7-1.1v3.6h1.8v1.4H290v6.1c0,0.5,0,0.8,0.1,1c0.1,0.1,0.2,0.3,0.3,0.3c0.1,0.1,0.3,0.1,0.6,0.1
		C291.1,131.5,291.4,131.5,291.7,131.5z"/>
	<path d="M292.7,130l1.7-0.3c0.1,0.7,0.4,1.2,0.8,1.6s1.1,0.6,1.9,0.6s1.4-0.2,1.8-0.5s0.6-0.7,0.6-1.2c0-0.4-0.2-0.7-0.5-0.9
		c-0.2-0.2-0.8-0.4-1.8-0.6c-1.3-0.3-2.2-0.6-2.7-0.8s-0.9-0.6-1.1-1s-0.4-0.9-0.4-1.4s0.1-0.9,0.3-1.3c0.2-0.4,0.5-0.7,0.9-1
		c0.3-0.2,0.6-0.4,1.1-0.5s1-0.2,1.5-0.2c0.8,0,1.5,0.1,2.1,0.4s1.1,0.6,1.4,1s0.5,0.9,0.6,1.6l-1.7,0.2c-0.1-0.5-0.3-0.9-0.7-1.3
		c-0.4-0.3-0.9-0.4-1.6-0.4c-0.8,0-1.4,0.1-1.7,0.4c-0.3,0.3-0.5,0.6-0.5,0.9c0,0.2,0.1,0.4,0.2,0.6s0.4,0.3,0.7,0.5
		c0.2,0.1,0.7,0.2,1.6,0.4c1.2,0.3,2.1,0.6,2.6,0.8c0.5,0.2,0.9,0.5,1.2,0.9c0.3,0.4,0.4,0.9,0.4,1.5s-0.2,1.1-0.5,1.7
		s-0.8,0.9-1.5,1.2s-1.4,0.4-2.2,0.4c-1.3,0-2.4-0.3-3.1-0.8C293.4,131.9,292.9,131.1,292.7,130z"/>
</g>
<g>
	<path d="M433.8,156.1h-18.4c-0.2-1-1.7-1.8-4.7-2.4c-3-0.6-7.1-1-12.2-1.2c-5.2-0.2-14-0.3-26.6-0.3s-20.8-0.1-24.8-0.1
		c-6.4-0.1-11.5-0.3-15.3-0.6s-6.8-0.7-9.1-1.1c-2.3-0.5-4-1-5.2-1.7c-0.8-0.5-1.2-1.3-1.2-2.3v-1.1H334v0.6c0,1.3,1.4,2.2,4.2,2.6
		c2.8,0.4,9.2,0.6,19,0.6c18.8,0,30.7,0.1,35.8,0.2c8.4,0.2,15,0.6,20,1.2c5,0.6,8.9,1.5,11.7,2.6c4.1-1.4,9.6-2.5,16.4-3.1
		s18.3-0.9,34.5-0.9c14.7,0,23.4,0,26.3-0.1c5-0.1,8.6-0.3,10.6-0.7s3-1.2,3-2.4v-0.6H533v1.1c0,1.2-0.6,2.1-1.8,2.7
		c-1.7,0.8-4.4,1.5-8.4,2c-3.9,0.5-8.8,0.9-14.8,1c-5.9,0.2-15.7,0.2-29.2,0.3c-13.5,0-22.9,0.1-28.1,0.3s-9.2,0.6-12.2,1.2
		C435.5,154.3,433.9,155.1,433.8,156.1z"/>
</g>
<g>
	<g>
		<path class="st1" d="M424.5,156.1c-22.2,1.3-123.2,1.5-137.9,2c-14,0.4-29.1,4-36.7,11.5"/>
		<g>
			<path d="M245.1,180.7c0.5-6,0.3-13.9-1.2-19.5l7.1,7.2l10.1,1C255.7,171.7,249.5,176.5,245.1,180.7z"/>
		</g>
	</g>
</g>
<g>
	<g>
		<path class="st1" d="M424.5,156.1c22.2,1.3,123.2,1.5,137.9,2c14,0.4,29.1,4,36.7,11.5"/>
		<g>
			<path d="M603.9,180.7c-4.3-4.2-10.6-9-15.9-11.3l10.1-1l7.1-7.2C603.5,166.7,603.3,174.7,603.9,180.7z"/>
		</g>
	</g>
</g>
<g>
	<path class="st1" d="M147.4,22.1"/>
	<g>
		<path class="st9" d="M305.5,70.8H162.9c-8.5,0-15.5-9.9-15.5-22V29.4c0-12.1,7-22,15.5-22h142.5c8.5,0,15.5,9.9,15.5,22v19.4
			C321,60.9,314,70.8,305.5,70.8z"/>
		<g class="st3">
			<path d="M157,25.7V12.8h4.8c1,0,1.8,0.1,2.4,0.4c0.6,0.3,1.1,0.7,1.4,1.2s0.5,1.1,0.5,1.7s-0.1,1.1-0.4,1.6s-0.8,0.9-1.4,1.2
				c0.8,0.2,1.4,0.6,1.8,1.2s0.6,1.2,0.6,2c0,0.6-0.1,1.2-0.4,1.7c-0.3,0.5-0.6,0.9-0.9,1.2s-0.8,0.5-1.4,0.6s-1.3,0.2-2.1,0.2H157
				V25.7z M158.8,18.2h2.8c0.8,0,1.3,0,1.6-0.1c0.4-0.1,0.8-0.3,1-0.6s0.3-0.7,0.3-1.1s-0.1-0.8-0.3-1.1s-0.5-0.5-0.9-0.7
				s-1-0.2-2-0.2h-2.6L158.8,18.2L158.8,18.2z M158.8,24.1h3.2c0.6,0,0.9,0,1.2-0.1c0.4-0.1,0.7-0.2,1-0.4s0.5-0.4,0.7-0.7
				c0.2-0.3,0.3-0.7,0.3-1.1c0-0.5-0.1-0.9-0.4-1.3c-0.2-0.4-0.6-0.6-1-0.7s-1.1-0.2-1.9-0.2h-3v4.5H158.8z"/>
			<path d="M168.9,14.6v-1.8h1.6v1.8H168.9z M168.9,25.7v-9.3h1.6v9.3H168.9z"/>
			<path d="M172.9,25.7v-9.3h1.4v1.3c0.7-1,1.7-1.5,3-1.5c0.6,0,1.1,0.1,1.6,0.3c0.5,0.2,0.8,0.5,1.1,0.8s0.4,0.7,0.5,1.2
				c0.1,0.3,0.1,0.8,0.1,1.5v5.7H179V20c0-0.6-0.1-1.1-0.2-1.4s-0.3-0.6-0.7-0.8c-0.3-0.2-0.7-0.3-1.1-0.3c-0.7,0-1.3,0.2-1.7,0.6
				s-0.7,1.2-0.7,2.4v5.1L172.9,25.7L172.9,25.7z"/>
			<path d="M189,25.7v-1.2c-0.6,0.9-1.5,1.4-2.6,1.4c-0.7,0-1.4-0.2-2.1-0.6s-1.1-1-1.5-1.7c-0.3-0.7-0.5-1.6-0.5-2.5
				s0.2-1.8,0.5-2.5s0.8-1.3,1.4-1.7s1.3-0.6,2.1-0.6c0.6,0,1.1,0.1,1.5,0.4c0.4,0.2,0.8,0.5,1.1,0.9V13h1.6v12.9H189V25.7z M184,21
				c0,1.2,0.3,2.1,0.8,2.7s1.1,0.9,1.8,0.9s1.3-0.3,1.8-0.8s0.7-1.4,0.7-2.6c0-1.3-0.2-2.2-0.7-2.8s-1.1-0.9-1.8-0.9
				s-1.3,0.3-1.8,0.9S184,19.8,184,21z"/>
			<path d="M204.2,20.6v-1.5h5.5v4.8c-0.8,0.7-1.7,1.2-2.6,1.5c-0.9,0.3-1.8,0.5-2.7,0.5c-1.3,0-2.4-0.3-3.4-0.8s-1.8-1.3-2.3-2.4
				s-0.8-2.2-0.8-3.4c0-1.3,0.3-2.4,0.8-3.5s1.3-1.9,2.3-2.4s2.1-0.8,3.4-0.8c0.9,0,1.8,0.2,2.5,0.5c0.8,0.3,1.3,0.7,1.8,1.3
				s0.8,1.2,1,2.1l-1.5,0.4c-0.2-0.7-0.4-1.2-0.7-1.5s-0.7-0.7-1.2-0.9s-1.1-0.3-1.8-0.3c-0.8,0-1.5,0.1-2,0.4
				c-0.6,0.2-1,0.5-1.4,0.9s-0.6,0.8-0.8,1.3c-0.3,0.8-0.5,1.7-0.5,2.6c0,1.1,0.2,2.1,0.6,2.9s1,1.3,1.7,1.7s1.6,0.6,2.4,0.6
				c0.7,0,1.5-0.1,2.2-0.4s1.2-0.6,1.6-0.9v-2.4h-4.1V20.6z"/>
			<path d="M211.9,25.7v-9.3h1.4v1.4c0.4-0.7,0.7-1.1,1-1.3s0.6-0.3,1-0.3c0.5,0,1.1,0.2,1.6,0.5l-0.5,1.5c-0.4-0.2-0.8-0.3-1.2-0.3
				c-0.3,0-0.7,0.1-0.9,0.3s-0.5,0.5-0.6,0.9c-0.2,0.6-0.3,1.2-0.3,1.8v4.9h-1.5V25.7z"/>
			<path d="M217.3,21c0-1.7,0.5-3,1.4-3.8c0.8-0.7,1.8-1,2.9-1c1.3,0,2.3,0.4,3.1,1.3s1.2,2,1.2,3.5c0,1.2-0.2,2.1-0.5,2.8
				c-0.4,0.7-0.9,1.2-1.6,1.6s-1.4,0.6-2.3,0.6c-1.3,0-2.4-0.4-3.2-1.3S217.3,22.6,217.3,21z M219,21c0,1.2,0.3,2.1,0.8,2.7
				s1.2,0.9,2,0.9s1.4-0.3,2-0.9s0.8-1.5,0.8-2.7s-0.3-2-0.8-2.6s-1.2-0.9-2-0.9s-1.4,0.3-2,0.9S219,19.8,219,21z"/>
			<path d="M234.1,25.7v-1.4c-0.7,1.1-1.7,1.6-3,1.6c-0.6,0-1.1-0.1-1.5-0.3s-0.8-0.5-1.1-0.8s-0.4-0.7-0.5-1.2
				c-0.1-0.3-0.1-0.8-0.1-1.5v-5.8h1.6v5.2c0,0.8,0,1.4,0.1,1.7c0.1,0.4,0.3,0.7,0.6,1c0.3,0.2,0.7,0.4,1.2,0.4s0.9-0.1,1.3-0.4
				s0.7-0.6,0.9-1s0.3-1,0.3-1.8v-5h1.6v9.3C235.5,25.7,234.1,25.7,234.1,25.7z"/>
			<path d="M238,29.2V16.3h1.4v1.2c0.3-0.5,0.7-0.8,1.2-1.1c0.4-0.2,0.9-0.4,1.6-0.4c0.8,0,1.5,0.2,2.1,0.6s1.1,1,1.4,1.7
				c0.3,0.7,0.5,1.6,0.5,2.5c0,1-0.2,1.8-0.5,2.6c-0.3,0.8-0.8,1.4-1.5,1.8s-1.3,0.6-2.1,0.6c-0.5,0-1-0.1-1.4-0.3s-0.8-0.5-1-0.8
				v4.5C239.7,29.2,238,29.2,238,29.2z M239.4,21c0,1.2,0.2,2.1,0.7,2.7s1.1,0.9,1.8,0.9s1.3-0.3,1.8-0.9s0.8-1.5,0.8-2.8
				c0-1.2-0.2-2.1-0.7-2.7s-1.1-0.9-1.8-0.9s-1.3,0.3-1.8,0.9C239.6,18.9,239.4,19.8,239.4,21z"/>
		</g>
		<g class="st3">
			<path d="M156.7,44.7v-10h7.2v1.2H158V39h5.5v1.2H158v3.4h6.2v1.2h-7.5V44.7z"/>
			<path d="M165.9,44.7v-7.3h1.1v1c0.5-0.8,1.3-1.2,2.3-1.2c0.4,0,0.8,0.1,1.2,0.2c0.4,0.2,0.6,0.4,0.8,0.6s0.3,0.6,0.4,0.9
				c0,0.2,0.1,0.6,0.1,1.2v4.5h-1.2v-4.4c0-0.5,0-0.9-0.1-1.1c-0.1-0.2-0.3-0.4-0.5-0.6c-0.2-0.1-0.5-0.2-0.9-0.2
				c-0.5,0-1,0.2-1.4,0.5s-0.6,1-0.6,1.9v4C167.1,44.7,165.9,44.7,165.9,44.7z"/>
			<path d="M176.3,43.6l0.2,1.1c-0.3,0.1-0.7,0.1-0.9,0.1c-0.4,0-0.8-0.1-1-0.2s-0.4-0.3-0.5-0.6c-0.1-0.2-0.2-0.7-0.2-1.5v-4.2H173
				v-1h0.9v-1.8l1.2-0.7v2.5h1.2v1h-1.2v4.2c0,0.4,0,0.6,0.1,0.7s0.1,0.2,0.2,0.2s0.2,0.1,0.4,0.1C175.9,43.6,176.1,43.6,176.3,43.6
				z"/>
			<path d="M177.5,44.7v-7.3h1.1v1.1c0.3-0.5,0.5-0.9,0.8-1s0.5-0.2,0.8-0.2c0.4,0,0.8,0.1,1.3,0.4l-0.4,1.1
				c-0.3-0.2-0.6-0.3-0.9-0.3c-0.3,0-0.5,0.1-0.7,0.2c-0.2,0.2-0.4,0.4-0.5,0.7c-0.1,0.4-0.2,0.9-0.2,1.4v3.8L177.5,44.7L177.5,44.7
				z"/>
			<path d="M182.1,47.5l-0.1-1.2c0.3,0.1,0.5,0.1,0.7,0.1c0.3,0,0.5,0,0.7-0.1s0.3-0.2,0.4-0.4c0.1-0.1,0.2-0.4,0.4-0.9
				c0-0.1,0.1-0.2,0.1-0.3l-2.8-7.3h1.3l1.5,4.2c0.2,0.5,0.4,1.1,0.5,1.7c0.1-0.6,0.3-1.1,0.5-1.7l1.6-4.2h1.2l-2.8,7.4
				c-0.3,0.8-0.5,1.3-0.7,1.6c-0.2,0.4-0.5,0.7-0.8,0.9s-0.6,0.3-1,0.3C182.7,47.6,182.4,47.6,182.1,47.5z"/>
			<path d="M192.7,39.7c0-1.2,0.1-2.1,0.4-2.9c0.2-0.7,0.6-1.3,1.1-1.7s1.1-0.6,1.8-0.6c0.5,0,1,0.1,1.4,0.3s0.7,0.5,1,0.9
				s0.5,0.9,0.6,1.5c0.2,0.6,0.2,1.4,0.2,2.4c0,1.2-0.1,2.1-0.4,2.8c-0.2,0.7-0.6,1.3-1.1,1.7s-1.1,0.6-1.8,0.6c-1,0-1.7-0.3-2.3-1
				C193.1,43,192.7,41.6,192.7,39.7z M194,39.7c0,1.6,0.2,2.7,0.6,3.3c0.4,0.5,0.9,0.8,1.4,0.8s1-0.3,1.4-0.8s0.6-1.6,0.6-3.3
				c0-1.6-0.2-2.7-0.6-3.3s-0.9-0.8-1.4-0.8c-0.6,0-1,0.2-1.4,0.7C194.2,37,194,38.1,194,39.7z"/>
			<path d="M201.2,38.8v-1.4h1.4v1.4H201.2z M201.2,44.7v-1.4h1.4v1.4H201.2z"/>
			<path d="M215.4,34.6h1.3v5.8c0,1-0.1,1.8-0.3,2.4s-0.6,1.1-1.2,1.4c-0.6,0.4-1.4,0.6-2.3,0.6c-0.9,0-1.7-0.2-2.3-0.5
				s-1-0.8-1.3-1.4c-0.3-0.6-0.4-1.5-0.4-2.5v-5.8h1.3v5.8c0,0.9,0.1,1.5,0.2,1.9c0.2,0.4,0.4,0.7,0.8,1s0.9,0.3,1.4,0.3
				c1,0,1.7-0.2,2.1-0.7s0.6-1.3,0.6-2.5L215.4,34.6L215.4,34.6z"/>
			<path d="M218.8,44.7v-7.3h1.1v1c0.5-0.8,1.3-1.2,2.3-1.2c0.4,0,0.8,0.1,1.2,0.2c0.4,0.2,0.6,0.4,0.8,0.6s0.3,0.6,0.4,0.9
				c0,0.2,0.1,0.6,0.1,1.2v4.5h-1.2v-4.4c0-0.5,0-0.9-0.1-1.1c-0.1-0.2-0.3-0.4-0.5-0.6c-0.2-0.1-0.5-0.2-0.9-0.2
				c-0.5,0-1,0.2-1.4,0.5s-0.6,1-0.6,1.9v4C220,44.7,218.8,44.7,218.8,44.7z"/>
			<path d="M226.6,36.1v-1.4h1.2v1.4H226.6z M226.6,44.7v-7.3h1.2v7.3H226.6z"/>
			<path d="M230,44.7v-6.3h-1.1v-1h1.1v-0.8c0-0.5,0-0.8,0.1-1.1s0.3-0.6,0.6-0.8s0.7-0.3,1.3-0.3c0.3,0,0.7,0,1.1,0.1l-0.2,1.1
				c-0.3,0-0.5-0.1-0.7-0.1c-0.4,0-0.6,0.1-0.8,0.2s-0.2,0.5-0.2,0.9v0.7h1.4v1h-1.4v6.3L230,44.7L230,44.7z"/>
			<path d="M233.1,41c0-1.3,0.4-2.3,1.1-3c0.6-0.5,1.4-0.8,2.3-0.8c1,0,1.8,0.3,2.4,1c0.6,0.7,1,1.6,1,2.7c0,0.9-0.1,1.7-0.4,2.2
				c-0.3,0.5-0.7,1-1.2,1.2s-1.1,0.4-1.8,0.4c-1,0-1.8-0.3-2.5-1S233.1,42.3,233.1,41z M234.4,41c0,0.9,0.2,1.6,0.6,2.1
				c0.4,0.5,0.9,0.7,1.5,0.7s1.1-0.2,1.5-0.7s0.6-1.2,0.6-2.1c0-0.9-0.2-1.6-0.6-2c-0.4-0.5-0.9-0.7-1.5-0.7s-1.1,0.2-1.5,0.7
				S234.4,40.1,234.4,41z"/>
			<path d="M241.3,44.7v-7.3h1.1v1.1c0.3-0.5,0.5-0.9,0.8-1s0.5-0.2,0.8-0.2c0.4,0,0.8,0.1,1.3,0.4l-0.4,1.1
				c-0.3-0.2-0.6-0.3-0.9-0.3c-0.3,0-0.5,0.1-0.7,0.2c-0.2,0.2-0.4,0.4-0.5,0.7c-0.1,0.4-0.2,0.9-0.2,1.4v3.8L241.3,44.7L241.3,44.7
				z"/>
			<path d="M246,44.7v-7.3h1.1v1c0.2-0.4,0.5-0.6,0.9-0.9c0.4-0.2,0.8-0.3,1.3-0.3s1,0.1,1.3,0.3s0.6,0.5,0.7,0.9
				c0.6-0.8,1.3-1.3,2.2-1.3c0.7,0,1.3,0.2,1.7,0.6c0.4,0.4,0.6,1,0.6,1.8v5h-1.2v-4.6c0-0.5,0-0.8-0.1-1.1
				c-0.1-0.2-0.2-0.4-0.4-0.5s-0.5-0.2-0.7-0.2c-0.5,0-0.9,0.2-1.3,0.5c-0.3,0.3-0.5,0.9-0.5,1.6v4.2h-1.2v-4.7c0-0.5-0.1-1-0.3-1.2
				s-0.5-0.4-1-0.4c-0.3,0-0.7,0.1-1,0.3s-0.5,0.4-0.6,0.8s-0.2,0.9-0.2,1.5v3.8H246V44.7z"/>
			<path d="M261.7,44.7v-10h3.8c0.8,0,1.4,0.1,1.8,0.3c0.5,0.2,0.8,0.5,1.1,0.9c0.3,0.4,0.4,0.9,0.4,1.3c0,0.4-0.1,0.8-0.3,1.2
				s-0.6,0.7-1.1,0.9c0.6,0.2,1.1,0.5,1.4,0.9s0.5,0.9,0.5,1.5c0,0.5-0.1,0.9-0.3,1.3c-0.2,0.4-0.4,0.7-0.7,0.9s-0.7,0.4-1.1,0.5
				s-1,0.2-1.6,0.2L261.7,44.7L261.7,44.7z M263,38.9h2.2c0.6,0,1,0,1.3-0.1s0.6-0.3,0.8-0.5s0.3-0.5,0.3-0.9c0-0.3-0.1-0.6-0.2-0.9
				c-0.2-0.3-0.4-0.4-0.7-0.5c-0.3-0.1-0.8-0.1-1.5-0.1h-2v3H263z M263,43.5h2.5c0.4,0,0.7,0,0.9,0c0.3-0.1,0.6-0.1,0.8-0.3
				s0.4-0.3,0.5-0.6c0.1-0.2,0.2-0.5,0.2-0.8c0-0.4-0.1-0.7-0.3-1c-0.2-0.3-0.5-0.5-0.8-0.6S266,40,265.3,40H263V43.5z"/>
			<path d="M275.6,44.7v-1.1c-0.6,0.8-1.3,1.2-2.3,1.2c-0.4,0-0.8-0.1-1.2-0.2s-0.6-0.4-0.8-0.6c-0.2-0.2-0.3-0.6-0.4-0.9
				c-0.1-0.2-0.1-0.6-0.1-1.1v-4.5h1.2v4c0,0.6,0,1.1,0.1,1.3c0.1,0.3,0.2,0.6,0.5,0.8s0.6,0.3,0.9,0.3s0.7-0.1,1-0.3
				s0.6-0.4,0.7-0.8c0.1-0.3,0.2-0.8,0.2-1.4v-3.9h1.2v7.3L275.6,44.7L275.6,44.7z"/>
			<path d="M279,44.7v-6.3h-1.1v-1h1.1v-0.8c0-0.5,0-0.8,0.1-1.1s0.3-0.6,0.6-0.8c0.3-0.2,0.7-0.3,1.3-0.3c0.3,0,0.7,0,1.1,0.1
				l-0.2,1.1c-0.3,0-0.5-0.1-0.7-0.1c-0.4,0-0.6,0.1-0.8,0.2s-0.2,0.5-0.2,0.9v0.7h1.4v1h-1.4v6.3L279,44.7L279,44.7z"/>
			<path d="M282.6,44.7v-6.3h-1.1v-1h1.1v-0.8c0-0.5,0-0.8,0.1-1.1s0.3-0.6,0.6-0.8c0.3-0.2,0.7-0.3,1.3-0.3c0.3,0,0.7,0,1.1,0.1
				l-0.2,1.1c-0.3,0-0.5-0.1-0.7-0.1c-0.4,0-0.6,0.1-0.8,0.2s-0.2,0.5-0.2,0.9v0.7h1.4v1h-1.4v6.3L282.6,44.7L282.6,44.7z"/>
			<path d="M291.2,42.3l1.3,0.2c-0.2,0.7-0.6,1.3-1.1,1.7s-1.2,0.6-2.1,0.6c-1.1,0-1.9-0.3-2.5-1s-0.9-1.6-0.9-2.8s0.3-2.2,0.9-2.8
				s1.4-1,2.4-1s1.8,0.3,2.4,1s0.9,1.6,0.9,2.8c0,0.1,0,0.2,0,0.3h-5.4c0,0.8,0.3,1.4,0.7,1.8s0.9,0.6,1.5,0.6
				c0.5,0,0.8-0.1,1.2-0.4S291,42.8,291.2,42.3z M287.1,40.3h4.1c-0.1-0.6-0.2-1.1-0.5-1.4c-0.4-0.5-0.9-0.7-1.5-0.7s-1,0.2-1.4,0.6
				S287.2,39.7,287.1,40.3z"/>
			<path d="M294,44.7v-7.3h1.1v1.1c0.3-0.5,0.5-0.9,0.8-1s0.5-0.2,0.8-0.2c0.4,0,0.8,0.1,1.3,0.4l-0.4,1.1c-0.3-0.2-0.6-0.3-0.9-0.3
				s-0.5,0.1-0.7,0.2c-0.2,0.2-0.4,0.4-0.5,0.7c-0.1,0.4-0.2,0.9-0.2,1.4v3.8L294,44.7L294,44.7z"/>
		</g>
		<g class="st3">
			<path d="M155.9,63.2v-10h7.2v1.2h-5.9v3.1h5.5v1.2h-5.5V62h6.2v1.2H155.9z"/>
			<path d="M165.1,63.2v-7.3h1.1v1c0.5-0.8,1.3-1.2,2.3-1.2c0.4,0,0.8,0.1,1.2,0.2c0.4,0.2,0.6,0.4,0.8,0.6s0.3,0.6,0.4,0.9
				c0,0.2,0.1,0.6,0.1,1.2v4.5h-1.2v-4.4c0-0.5,0-0.9-0.1-1.1c-0.1-0.2-0.3-0.4-0.5-0.6c-0.2-0.1-0.5-0.2-0.9-0.2
				c-0.5,0-1,0.2-1.4,0.5s-0.6,1-0.6,1.9v4C166.3,63.2,165.1,63.2,165.1,63.2z"/>
			<path d="M175.6,62.1l0.2,1.1c-0.3,0.1-0.7,0.1-0.9,0.1c-0.4,0-0.8-0.1-1-0.2s-0.4-0.3-0.5-0.6c-0.1-0.2-0.2-0.7-0.2-1.5v-4.2
				h-0.9v-1h0.9V54l1.2-0.7v2.5h1.2v1h-1.2V61c0,0.4,0,0.6,0.1,0.7s0.1,0.2,0.2,0.2s0.2,0.1,0.4,0.1
				C175.2,62.1,175.3,62.1,175.6,62.1z"/>
			<path d="M176.7,63.2v-7.3h1.1V57c0.3-0.5,0.5-0.9,0.8-1s0.5-0.2,0.8-0.2c0.4,0,0.8,0.1,1.3,0.4l-0.4,1.1
				c-0.3-0.2-0.6-0.3-0.9-0.3c-0.3,0-0.5,0.1-0.7,0.2c-0.2,0.2-0.4,0.4-0.5,0.7c-0.1,0.4-0.2,0.9-0.2,1.4v3.8L176.7,63.2L176.7,63.2
				z"/>
			<path d="M181.4,66l-0.1-1.2c0.3,0.1,0.5,0.1,0.7,0.1c0.3,0,0.5,0,0.7-0.1s0.3-0.2,0.4-0.4c0.1-0.1,0.2-0.4,0.4-0.9
				c0-0.1,0.1-0.2,0.1-0.3l-2.8-7.3h1.3l1.5,4.2c0.2,0.5,0.4,1.1,0.5,1.7c0.1-0.6,0.3-1.1,0.5-1.7l1.6-4.2h1.2l-2.8,7.4
				c-0.3,0.8-0.5,1.3-0.7,1.6c-0.2,0.4-0.5,0.7-0.8,0.9c-0.3,0.2-0.6,0.3-1,0.3C181.9,66.1,181.7,66.1,181.4,66z"/>
			<path d="M196.6,63.2h-1.2v-7.8c-0.3,0.3-0.7,0.6-1.2,0.8s-0.9,0.5-1.3,0.6v-1.2c0.7-0.3,1.3-0.7,1.8-1.2s0.9-0.9,1.1-1.3h0.8
				L196.6,63.2L196.6,63.2z"/>
			<path d="M200.4,57.3v-1.4h1.4v1.4H200.4z M200.4,63.2v-1.4h1.4v1.4H200.4z"/>
			<path d="M207.6,60l1.3-0.1c0.1,0.5,0.2,0.9,0.4,1.2s0.6,0.6,1,0.8c0.5,0.2,1,0.3,1.5,0.3s1-0.1,1.3-0.2s0.7-0.4,0.9-0.6
				c0.2-0.3,0.3-0.5,0.3-0.9c0-0.3-0.1-0.6-0.3-0.8s-0.5-0.4-0.9-0.6c-0.3-0.1-0.9-0.3-1.8-0.5c-0.9-0.2-1.6-0.4-1.9-0.6
				c-0.5-0.3-0.8-0.6-1.1-0.9c-0.2-0.4-0.4-0.8-0.4-1.2c0-0.5,0.1-1,0.4-1.4c0.3-0.4,0.7-0.8,1.3-1s1.2-0.3,1.8-0.3
				c0.7,0,1.4,0.1,2,0.4c0.6,0.2,1,0.6,1.3,1.1s0.5,1,0.5,1.6l-1.3,0.1c-0.1-0.6-0.3-1.1-0.7-1.4s-1-0.5-1.7-0.5
				c-0.8,0-1.4,0.1-1.8,0.4c-0.4,0.3-0.6,0.6-0.6,1.1c0,0.4,0.1,0.7,0.4,0.9c0.3,0.2,0.9,0.5,2,0.7s1.8,0.5,2.2,0.6
				c0.6,0.3,1,0.6,1.3,1s0.4,0.9,0.4,1.4s-0.2,1-0.5,1.5s-0.7,0.8-1.3,1.1s-1.2,0.4-1.9,0.4c-0.9,0-1.7-0.1-2.3-0.4
				s-1.1-0.7-1.4-1.2C207.8,61.2,207.6,60.6,207.6,60z"/>
			<path d="M222,62.3c-0.5,0.4-0.9,0.7-1.3,0.8s-0.9,0.2-1.4,0.2c-0.8,0-1.4-0.2-1.8-0.6c-0.4-0.4-0.6-0.9-0.6-1.5
				c0-0.4,0.1-0.7,0.2-1c0.2-0.3,0.4-0.5,0.6-0.7s0.6-0.3,0.9-0.4c0.2-0.1,0.6-0.1,1.1-0.2c1-0.1,1.7-0.3,2.2-0.4c0-0.2,0-0.3,0-0.3
				c0-0.5-0.1-0.9-0.3-1.1c-0.3-0.3-0.8-0.4-1.4-0.4c-0.6,0-1,0.1-1.3,0.3s-0.5,0.6-0.6,1.1L217,58c0.1-0.5,0.3-0.9,0.5-1.2
				c0.3-0.3,0.6-0.6,1.1-0.7c0.5-0.2,1-0.3,1.6-0.3s1.1,0.1,1.5,0.2s0.7,0.3,0.9,0.6c0.2,0.2,0.3,0.5,0.4,0.8c0,0.2,0.1,0.6,0.1,1.1
				v1.6c0,1.1,0,1.9,0.1,2.2s0.2,0.6,0.3,0.9h-1.3C222.1,62.9,222,62.6,222,62.3z M221.9,59.6c-0.4,0.2-1.1,0.3-2,0.5
				c-0.5,0.1-0.9,0.2-1.1,0.2s-0.4,0.2-0.5,0.4s-0.2,0.4-0.2,0.6c0,0.3,0.1,0.6,0.4,0.8s0.6,0.3,1.1,0.3s0.9-0.1,1.3-0.3
				c0.4-0.2,0.6-0.5,0.8-0.9c0.1-0.3,0.2-0.7,0.2-1.2V59.6z"/>
			<path d="M225,63.2v-7.3h1.1v1c0.2-0.4,0.5-0.6,0.9-0.9c0.4-0.2,0.8-0.3,1.3-0.3s1,0.1,1.3,0.3s0.6,0.5,0.7,0.9
				c0.6-0.8,1.3-1.3,2.2-1.3c0.7,0,1.3,0.2,1.7,0.6c0.4,0.4,0.6,1,0.6,1.8v5h-1.2v-4.6c0-0.5,0-0.8-0.1-1.1
				c-0.1-0.2-0.2-0.4-0.4-0.5s-0.5-0.2-0.7-0.2c-0.5,0-0.9,0.2-1.3,0.5c-0.3,0.3-0.5,0.9-0.5,1.6v4.2h-1.2v-4.7c0-0.5-0.1-1-0.3-1.2
				s-0.5-0.4-1-0.4c-0.3,0-0.7,0.1-1,0.3s-0.5,0.4-0.6,0.8s-0.2,0.9-0.2,1.5V63H225V63.2z"/>
			<path d="M236.7,66V56h1.1v0.9c0.3-0.4,0.6-0.6,0.9-0.8c0.3-0.2,0.7-0.3,1.2-0.3c0.6,0,1.2,0.2,1.6,0.5s0.8,0.8,1.1,1.3
				c0.2,0.6,0.4,1.2,0.4,1.9s-0.1,1.4-0.4,2c-0.3,0.6-0.7,1-1.2,1.4c-0.5,0.3-1,0.5-1.6,0.5c-0.4,0-0.8-0.1-1.1-0.3
				s-0.6-0.4-0.8-0.7V66H236.7z M237.8,59.6c0,0.9,0.2,1.6,0.6,2.1s0.8,0.7,1.4,0.7c0.5,0,1-0.2,1.4-0.7s0.6-1.2,0.6-2.2
				c0-0.9-0.2-1.6-0.6-2.1s-0.8-0.7-1.4-0.7c-0.5,0-1,0.2-1.4,0.7C238,58,237.8,58.7,237.8,59.6z"/>
			<path d="M244.4,63.2v-10h1.2v10H244.4z"/>
			<path d="M252.5,60.9l1.3,0.2c-0.2,0.7-0.6,1.3-1.1,1.7s-1.2,0.6-2.1,0.6c-1.1,0-1.9-0.3-2.5-1s-0.9-1.6-0.9-2.8s0.3-2.2,0.9-2.8
				s1.4-1,2.4-1s1.8,0.3,2.4,1s0.9,1.6,0.9,2.8c0,0.1,0,0.2,0,0.3h-5.4c0,0.8,0.3,1.4,0.7,1.8s0.9,0.6,1.5,0.6
				c0.5,0,0.8-0.1,1.2-0.4S252.3,61.4,252.5,60.9z M248.5,58.9h4.1c-0.1-0.6-0.2-1.1-0.5-1.4c-0.4-0.5-0.9-0.7-1.5-0.7
				s-1,0.2-1.4,0.6S248.5,58.2,248.5,58.9z"/>
			<path d="M260.1,63.2v-0.9c-0.5,0.7-1.1,1.1-2,1.1c-0.6,0-1.1-0.2-1.6-0.5s-0.9-0.8-1.1-1.3c-0.3-0.6-0.4-1.2-0.4-2
				c0-0.7,0.1-1.4,0.4-2c0.2-0.6,0.6-1,1.1-1.4s1-0.5,1.6-0.5c0.4,0,0.8,0.1,1.2,0.3c0.3,0.2,0.6,0.4,0.8,0.7v-3.6h1.2v10h-1.2V63.2
				z M256.2,59.6c0,0.9,0.2,1.6,0.6,2.1s0.9,0.7,1.4,0.7s1-0.2,1.4-0.7c0.4-0.4,0.6-1.1,0.6-2c0-1-0.2-1.7-0.6-2.2s-0.9-0.7-1.4-0.7
				s-1,0.2-1.4,0.7S256.2,58.6,256.2,59.6z"/>
			<path d="M269.5,63.2v-8.8h-3.3v-1.2h7.9v1.2h-3.3v8.8H269.5z"/>
			<path d="M278.7,60.9L280,61c-0.2,0.7-0.6,1.3-1.1,1.7s-1.2,0.6-2.1,0.6c-1.1,0-1.9-0.3-2.5-1s-0.9-1.6-0.9-2.8s0.3-2.2,0.9-2.8
				s1.4-1,2.4-1s1.8,0.3,2.4,1s0.9,1.6,0.9,2.8c0,0.1,0,0.2,0,0.3h-5.4c0,0.8,0.3,1.4,0.7,1.8s0.9,0.6,1.5,0.6
				c0.5,0,0.8-0.1,1.2-0.4S278.6,61.4,278.7,60.9z M274.7,58.9h4.1c-0.1-0.6-0.2-1.1-0.5-1.4c-0.4-0.5-0.9-0.7-1.5-0.7
				s-1,0.2-1.4,0.6S274.7,58.2,274.7,58.9z"/>
			<path d="M280.7,63.2l2.7-3.8l-2.5-3.5h1.5l1.1,1.7c0.2,0.3,0.4,0.6,0.5,0.8c0.2-0.3,0.4-0.6,0.6-0.8l1.2-1.7h1.5l-2.5,3.4
				l2.7,3.8H286l-1.5-2.3l-0.4-0.6l-1.9,2.9L280.7,63.2L280.7,63.2z"/>
			<path d="M291.2,62.1l0.2,1.1c-0.3,0.1-0.7,0.1-0.9,0.1c-0.4,0-0.8-0.1-1-0.2s-0.4-0.3-0.5-0.6c-0.1-0.2-0.2-0.7-0.2-1.5v-4.2
				h-0.9v-1h0.9V54l1.2-0.7v2.5h1.2v1H290V61c0,0.4,0,0.6,0.1,0.7s0.1,0.2,0.2,0.2s0.2,0.1,0.4,0.1C290.8,62.1,291,62.1,291.2,62.1z
				"/>
			<path d="M297.2,63.2v-1.1c-0.6,0.8-1.3,1.2-2.3,1.2c-0.4,0-0.8-0.1-1.2-0.2s-0.6-0.4-0.8-0.6c-0.2-0.2-0.3-0.6-0.4-0.9
				c-0.1-0.2-0.1-0.6-0.1-1.1V56h1.2v4c0,0.6,0,1.1,0.1,1.3c0.1,0.3,0.2,0.6,0.5,0.8s0.6,0.3,0.9,0.3s0.7-0.1,1-0.3s0.6-0.4,0.7-0.8
				c0.1-0.3,0.2-0.8,0.2-1.4V56h1.2v7.3L297.2,63.2L297.2,63.2z"/>
			<path d="M300.2,63.2v-7.3h1.1V57c0.3-0.5,0.5-0.9,0.8-1s0.5-0.2,0.8-0.2c0.4,0,0.8,0.1,1.3,0.4l-0.4,1.1
				c-0.3-0.2-0.6-0.3-0.9-0.3s-0.5,0.1-0.7,0.2c-0.2,0.2-0.4,0.4-0.5,0.7c-0.1,0.4-0.2,0.9-0.2,1.4v3.8L300.2,63.2L300.2,63.2z"/>
			<path d="M309.9,60.9l1.3,0.2c-0.2,0.7-0.6,1.3-1.1,1.7s-1.2,0.6-2.1,0.6c-1.1,0-1.9-0.3-2.5-1s-0.9-1.6-0.9-2.8s0.3-2.2,0.9-2.8
				s1.4-1,2.4-1s1.8,0.3,2.4,1s0.9,1.6,0.9,2.8c0,0.1,0,0.2,0,0.3h-5.4c0,0.8,0.3,1.4,0.7,1.8s0.9,0.6,1.5,0.6
				c0.5,0,0.8-0.1,1.2-0.4S309.7,61.4,309.9,60.9z M305.8,58.9h4.1c-0.1-0.6-0.2-1.1-0.5-1.4c-0.4-0.5-0.9-0.7-1.5-0.7
				s-1,0.2-1.4,0.6S305.9,58.2,305.8,58.9z"/>
		</g>
	</g>
</g>
<path class="st1" d="M483.1,7.4"/>
<g>
	<path class="st9" d="M579,51.5H447.5c-7.9,0-14.3-6.9-14.3-15.3V22.7c0-8.4,6.4-15.3,14.3-15.3H579c7.9,0,14.3,6.9,14.3,15.3v13.5
		C593.3,44.6,586.9,51.5,579,51.5z"/>
	<g class="st3">
		<path d="M443.8,26.7V13.8h4.8c1,0,1.8,0.1,2.4,0.4c0.6,0.3,1.1,0.7,1.4,1.2s0.5,1.1,0.5,1.7s-0.1,1.1-0.4,1.6s-0.8,0.9-1.4,1.2
			c0.8,0.2,1.4,0.6,1.8,1.2s0.6,1.2,0.6,2c0,0.6-0.1,1.2-0.4,1.7s-0.6,0.9-0.9,1.2s-0.8,0.5-1.4,0.6s-1.3,0.2-2.1,0.2h-4.9V26.7z
			 M445.5,19.2h2.8c0.8,0,1.3,0,1.6-0.1c0.4-0.1,0.8-0.3,1-0.6s0.3-0.7,0.3-1.1s-0.1-0.8-0.3-1.1c-0.2-0.3-0.5-0.5-0.9-0.7
			s-1-0.2-2-0.2h-2.6v3.8H445.5z M445.5,25.1h3.2c0.6,0,0.9,0,1.2-0.1c0.4-0.1,0.7-0.2,1-0.4s0.5-0.4,0.7-0.7
			c0.2-0.3,0.3-0.7,0.3-1.1c0-0.5-0.1-0.9-0.4-1.3c-0.2-0.4-0.6-0.6-1-0.7s-1.1-0.2-1.9-0.2h-3v4.5H445.5z"/>
		<path d="M455.7,15.6v-1.8h1.6v1.8H455.7z M455.7,26.7v-9.3h1.6v9.3H455.7z"/>
		<path d="M459.7,26.7v-9.3h1.4v1.3c0.7-1,1.7-1.5,3-1.5c0.6,0,1.1,0.1,1.6,0.3c0.5,0.2,0.8,0.5,1.1,0.8s0.4,0.7,0.5,1.2
			c0.1,0.3,0.1,0.8,0.1,1.5v5.7h-1.6V21c0-0.6-0.1-1.1-0.2-1.4s-0.3-0.6-0.7-0.8c-0.3-0.2-0.7-0.3-1.1-0.3c-0.7,0-1.3,0.2-1.7,0.6
			s-0.7,1.2-0.7,2.4v5.1L459.7,26.7L459.7,26.7z"/>
		<path d="M475.8,26.7v-1.2c-0.6,0.9-1.5,1.4-2.6,1.4c-0.7,0-1.4-0.2-2.1-0.6s-1.1-1-1.5-1.7c-0.3-0.7-0.5-1.6-0.5-2.5
			s0.2-1.8,0.5-2.5s0.8-1.3,1.4-1.7s1.3-0.6,2.1-0.6c0.6,0,1.1,0.1,1.5,0.4c0.4,0.2,0.8,0.5,1.1,0.9V14h1.6v12.9h-1.5V26.7z
			 M470.8,22c0,1.2,0.3,2.1,0.8,2.7s1.1,0.9,1.8,0.9c0.7,0,1.3-0.3,1.8-0.8s0.7-1.4,0.7-2.6c0-1.3-0.2-2.2-0.7-2.8s-1.1-0.9-1.8-0.9
			c-0.7,0-1.3,0.3-1.8,0.9S470.8,20.8,470.8,22z"/>
		<path d="M491,21.6v-1.5h5.5v4.8c-0.8,0.7-1.7,1.2-2.6,1.5s-1.8,0.5-2.7,0.5c-1.3,0-2.4-0.3-3.4-0.8s-1.8-1.3-2.3-2.4
			s-0.8-2.2-0.8-3.4c0-1.3,0.3-2.4,0.8-3.5s1.3-1.9,2.3-2.4s2.1-0.8,3.4-0.8c0.9,0,1.8,0.2,2.5,0.5c0.8,0.3,1.3,0.7,1.8,1.3
			s0.8,1.2,1,2.1l-1.5,0.4c-0.2-0.7-0.4-1.2-0.7-1.5s-0.7-0.7-1.2-0.9S491.6,15,491,15c-0.8,0-1.5,0.1-2,0.4c-0.6,0.2-1,0.5-1.4,0.9
			s-0.6,0.8-0.8,1.3c-0.3,0.8-0.5,1.7-0.5,2.6c0,1.1,0.2,2.1,0.6,2.9s1,1.3,1.7,1.7s1.6,0.6,2.4,0.6c0.7,0,1.5-0.1,2.2-0.4
			s1.2-0.6,1.6-0.9v-2.4H491V21.6z"/>
		<path d="M498.7,26.7v-9.3h1.4v1.4c0.4-0.7,0.7-1.1,1-1.3s0.6-0.3,1-0.3c0.5,0,1.1,0.2,1.6,0.5l-0.5,1.5c-0.4-0.2-0.8-0.3-1.2-0.3
			c-0.3,0-0.7,0.1-0.9,0.3s-0.5,0.5-0.6,0.9c-0.2,0.6-0.3,1.2-0.3,1.8v4.9h-1.5V26.7z"/>
		<path d="M504.1,22c0-1.7,0.5-3,1.4-3.8c0.8-0.7,1.8-1,2.9-1c1.3,0,2.3,0.4,3.1,1.3c0.8,0.9,1.2,2,1.2,3.5c0,1.2-0.2,2.1-0.5,2.8
			c-0.4,0.7-0.9,1.2-1.6,1.6s-1.4,0.6-2.3,0.6c-1.3,0-2.4-0.4-3.2-1.3S504.1,23.6,504.1,22z M505.8,22c0,1.2,0.3,2.1,0.8,2.7
			s1.2,0.9,2,0.9s1.4-0.3,2-0.9s0.8-1.5,0.8-2.7s-0.3-2-0.8-2.6s-1.2-0.9-2-0.9s-1.4,0.3-2,0.9S505.8,20.8,505.8,22z"/>
		<path d="M520.8,26.7v-1.4c-0.7,1.1-1.7,1.6-3,1.6c-0.6,0-1.1-0.1-1.5-0.3s-0.8-0.5-1.1-0.8s-0.4-0.7-0.5-1.2
			c-0.1-0.3-0.1-0.8-0.1-1.5v-5.8h1.6v5.2c0,0.8,0,1.4,0.1,1.7c0.1,0.4,0.3,0.7,0.6,1c0.3,0.2,0.7,0.4,1.2,0.4s0.9-0.1,1.3-0.4
			s0.7-0.6,0.9-1s0.3-1,0.3-1.8v-5h1.6v9.3C522.2,26.7,520.8,26.7,520.8,26.7z"/>
		<path d="M524.7,30.2V17.3h1.4v1.2c0.3-0.5,0.7-0.8,1.2-1.1c0.4-0.2,0.9-0.4,1.6-0.4c0.8,0,1.5,0.2,2.1,0.6s1.1,1,1.4,1.7
			c0.3,0.7,0.5,1.6,0.5,2.5c0,1-0.2,1.8-0.5,2.6c-0.3,0.8-0.8,1.4-1.5,1.8s-1.3,0.6-2.1,0.6c-0.5,0-1-0.1-1.4-0.3s-0.8-0.5-1-0.8
			v4.5C526.4,30.2,524.7,30.2,524.7,30.2z M526.2,22c0,1.2,0.2,2.1,0.7,2.7s1.1,0.9,1.8,0.9s1.3-0.3,1.8-0.9s0.8-1.5,0.8-2.8
			c0-1.2-0.2-2.1-0.7-2.7s-1.1-0.9-1.8-0.9s-1.3,0.3-1.8,0.9C526.4,19.9,526.2,20.8,526.2,22z"/>
	</g>
	<g class="st3">
		<path d="M443.5,45.7v-10h7.2v1.2h-5.9V40h5.5v1.2h-5.5v3.4h6.2v1.2h-7.5V45.7z"/>
		<path d="M452.6,45.7v-7.3h1.1v1c0.5-0.8,1.3-1.2,2.3-1.2c0.4,0,0.8,0.1,1.2,0.2c0.4,0.2,0.6,0.4,0.8,0.6c0.2,0.3,0.3,0.6,0.4,0.9
			c0,0.2,0.1,0.6,0.1,1.2v4.5h-1.2v-4.4c0-0.5,0-0.9-0.1-1.1c-0.1-0.2-0.3-0.4-0.5-0.6c-0.2-0.1-0.5-0.2-0.9-0.2
			c-0.5,0-1,0.2-1.4,0.5s-0.6,1-0.6,1.9v4C453.8,45.7,452.6,45.7,452.6,45.7z"/>
		<path d="M463.1,44.6l0.2,1.1c-0.3,0.1-0.7,0.1-0.9,0.1c-0.4,0-0.8-0.1-1-0.2s-0.4-0.3-0.5-0.6c-0.1-0.2-0.2-0.7-0.2-1.5v-4.2h-0.9
			v-1h0.9v-1.8l1.2-0.7v2.5h1.2v1h-1.2v4.2c0,0.4,0,0.6,0.1,0.7c0,0.1,0.1,0.2,0.2,0.2c0.1,0.1,0.2,0.1,0.4,0.1
			C462.7,44.6,462.9,44.6,463.1,44.6z"/>
		<path d="M464.3,45.7v-7.3h1.1v1.1c0.3-0.5,0.5-0.9,0.8-1s0.5-0.2,0.8-0.2c0.4,0,0.8,0.1,1.3,0.4l-0.4,1.1
			c-0.3-0.2-0.6-0.3-0.9-0.3s-0.5,0.1-0.7,0.2c-0.2,0.2-0.4,0.4-0.5,0.7c-0.1,0.4-0.2,0.9-0.2,1.4v3.8L464.3,45.7L464.3,45.7z"/>
		<path d="M468.9,48.5l-0.1-1.2c0.3,0.1,0.5,0.1,0.7,0.1c0.3,0,0.5,0,0.7-0.1s0.3-0.2,0.4-0.4c0.1-0.1,0.2-0.4,0.4-0.9
			c0-0.1,0.1-0.2,0.1-0.3l-2.8-7.3h1.3l1.5,4.2c0.2,0.5,0.4,1.1,0.5,1.7c0.1-0.6,0.3-1.1,0.5-1.7l1.6-4.2h1.2l-2.8,7.4
			c-0.3,0.8-0.5,1.3-0.7,1.6c-0.2,0.4-0.5,0.7-0.8,0.9s-0.6,0.3-1,0.3C469.5,48.6,469.2,48.6,468.9,48.5z"/>
		<path d="M479.5,40.7c0-1.2,0.1-2.1,0.4-2.9c0.2-0.7,0.6-1.3,1.1-1.7s1.1-0.6,1.8-0.6c0.5,0,1,0.1,1.4,0.3s0.7,0.5,1,0.9
			s0.5,0.9,0.6,1.5c0.2,0.6,0.2,1.4,0.2,2.4c0,1.2-0.1,2.1-0.4,2.8c-0.2,0.7-0.6,1.3-1.1,1.7s-1.1,0.6-1.8,0.6c-1,0-1.7-0.3-2.3-1
			C479.8,44,479.5,42.6,479.5,40.7z M480.8,40.7c0,1.6,0.2,2.7,0.6,3.3c0.4,0.5,0.9,0.8,1.4,0.8c0.6,0,1-0.3,1.4-0.8
			s0.6-1.6,0.6-3.3c0-1.6-0.2-2.7-0.6-3.3c-0.4-0.5-0.9-0.8-1.4-0.8c-0.6,0-1,0.2-1.4,0.7C481,38,480.8,39.1,480.8,40.7z"/>
		<path d="M488,39.8v-1.4h1.4v1.4H488z M488,45.7v-1.4h1.4v1.4H488z"/>
		<path d="M495.1,42.4l1.3-0.1c0.1,0.5,0.2,0.9,0.4,1.2c0.2,0.3,0.6,0.6,1,0.8c0.5,0.2,1,0.3,1.5,0.3s1-0.1,1.3-0.2
			c0.4-0.2,0.7-0.4,0.9-0.6c0.2-0.3,0.3-0.5,0.3-0.9c0-0.3-0.1-0.6-0.3-0.8c-0.2-0.2-0.5-0.4-0.9-0.6c-0.3-0.1-0.9-0.3-1.8-0.5
			s-1.6-0.4-1.9-0.6c-0.5-0.3-0.8-0.6-1.1-0.9c-0.2-0.4-0.4-0.8-0.4-1.2c0-0.5,0.1-1,0.4-1.4s0.7-0.8,1.3-1c0.6-0.2,1.2-0.3,1.8-0.3
			c0.7,0,1.4,0.1,2,0.4c0.6,0.2,1,0.6,1.3,1.1s0.5,1,0.5,1.6l-1.3,0.1c-0.1-0.6-0.3-1.1-0.7-1.4c-0.4-0.3-1-0.5-1.7-0.5
			c-0.8,0-1.4,0.1-1.8,0.4c-0.4,0.3-0.5,0.6-0.5,1.1c0,0.4,0.1,0.7,0.4,0.9s0.9,0.5,2,0.7s1.8,0.5,2.2,0.6c0.6,0.3,1,0.6,1.3,1
			s0.4,0.9,0.4,1.4s-0.2,1-0.5,1.5s-0.7,0.8-1.3,1.1c-0.6,0.3-1.2,0.4-1.9,0.4c-0.9,0-1.7-0.1-2.3-0.4c-0.6-0.3-1.1-0.7-1.4-1.2
			C495.3,43.7,495.1,43.1,495.1,42.4z"/>
		<path d="M507.5,44.6l0.2,1.1c-0.3,0.1-0.7,0.1-0.9,0.1c-0.4,0-0.8-0.1-1-0.2s-0.4-0.3-0.5-0.6c-0.1-0.2-0.2-0.7-0.2-1.5v-4.2h-0.9
			v-1h0.9v-1.8l1.2-0.7v2.5h1.2v1h-1.2v4.2c0,0.4,0,0.6,0.1,0.7c0,0.1,0.1,0.2,0.2,0.2c0.1,0.1,0.2,0.1,0.4,0.1
			C507,44.6,507.2,44.6,507.5,44.6z"/>
		<path d="M508.2,42c0-1.3,0.4-2.3,1.1-3c0.6-0.5,1.4-0.8,2.3-0.8c1,0,1.8,0.3,2.4,1s1,1.6,1,2.7c0,0.9-0.1,1.7-0.4,2.2
			c-0.3,0.5-0.7,1-1.2,1.2c-0.5,0.3-1.1,0.4-1.8,0.4c-1,0-1.8-0.3-2.5-1C508.5,44.2,508.2,43.3,508.2,42z M509.5,42
			c0,0.9,0.2,1.6,0.6,2.1s0.9,0.7,1.5,0.7s1.1-0.2,1.5-0.7c0.4-0.5,0.6-1.2,0.6-2.1c0-0.9-0.2-1.6-0.6-2c-0.4-0.5-0.9-0.7-1.5-0.7
			c-0.6,0-1.1,0.2-1.5,0.7C509.7,40.4,509.5,41.1,509.5,42z"/>
		<path d="M516.4,45.7v-7.3h1.1v1.1c0.3-0.5,0.5-0.9,0.8-1s0.5-0.2,0.8-0.2c0.4,0,0.8,0.1,1.3,0.4l-0.4,1.1
			c-0.3-0.2-0.6-0.3-0.9-0.3c-0.3,0-0.5,0.1-0.7,0.2c-0.2,0.2-0.4,0.4-0.5,0.7c-0.1,0.4-0.2,0.9-0.2,1.4v3.8L516.4,45.7L516.4,45.7z
			"/>
		<path d="M525.8,44.8c-0.5,0.4-0.9,0.7-1.3,0.8c-0.4,0.2-0.9,0.2-1.4,0.2c-0.8,0-1.4-0.2-1.8-0.6c-0.4-0.4-0.6-0.9-0.6-1.5
			c0-0.4,0.1-0.7,0.2-1c0.2-0.3,0.4-0.5,0.6-0.7c0.3-0.2,0.6-0.3,0.9-0.4c0.2-0.1,0.6-0.1,1.1-0.2c1-0.1,1.7-0.3,2.2-0.4
			c0-0.2,0-0.3,0-0.3c0-0.5-0.1-0.9-0.3-1.1c-0.3-0.3-0.8-0.4-1.4-0.4c-0.6,0-1,0.1-1.3,0.3s-0.5,0.6-0.6,1.1l-1.2-0.2
			c0.1-0.5,0.3-0.9,0.5-1.2c0.3-0.3,0.6-0.6,1.1-0.7c0.5-0.2,1-0.3,1.6-0.3s1.1,0.1,1.5,0.2c0.4,0.1,0.7,0.3,0.9,0.6
			c0.2,0.2,0.3,0.5,0.4,0.8c0,0.2,0.1,0.6,0.1,1.1v1.6c0,1.1,0,1.9,0.1,2.2s0.2,0.6,0.3,0.9h-1.3C526,45.4,525.9,45.1,525.8,44.8z
			 M525.7,42c-0.4,0.2-1.1,0.3-2,0.5c-0.5,0.1-0.9,0.2-1.1,0.2c-0.2,0.1-0.4,0.2-0.5,0.4s-0.2,0.4-0.2,0.6c0,0.3,0.1,0.6,0.4,0.8
			c0.2,0.2,0.6,0.3,1.1,0.3s0.9-0.1,1.3-0.3c0.4-0.2,0.6-0.5,0.8-0.9c0.1-0.3,0.2-0.7,0.2-1.2V42z"/>
		<path d="M528.7,46.3l1.2,0.2c0,0.4,0.2,0.6,0.4,0.8c0.3,0.2,0.7,0.3,1.3,0.3s1-0.1,1.3-0.3s0.5-0.5,0.6-1c0.1-0.3,0.1-0.8,0.1-1.6
			c-0.5,0.6-1.2,1-2,1c-1,0-1.8-0.4-2.3-1.1s-0.8-1.6-0.8-2.6c0-0.7,0.1-1.3,0.4-1.9c0.3-0.6,0.6-1,1.1-1.4c0.5-0.3,1-0.5,1.7-0.5
			c0.9,0,1.6,0.3,2.1,1v-0.9h1.1v6.3c0,1.1-0.1,1.9-0.3,2.4s-0.6,0.8-1.1,1.1s-1.1,0.4-1.8,0.4c-0.9,0-1.6-0.2-2.1-0.6
			C528.9,47.6,528.6,47.1,528.7,46.3z M529.7,41.9c0,1,0.2,1.6,0.6,2.1c0.4,0.4,0.9,0.7,1.4,0.7c0.6,0,1-0.2,1.4-0.7
			c0.4-0.4,0.6-1.1,0.6-2s-0.2-1.6-0.6-2c-0.4-0.5-0.9-0.7-1.4-0.7s-1,0.2-1.4,0.7C529.9,40.4,529.7,41,529.7,41.9z"/>
		<path d="M541.6,43.3l1.3,0.2c-0.2,0.7-0.6,1.3-1.1,1.7s-1.2,0.6-2.1,0.6c-1.1,0-1.9-0.3-2.5-1s-0.9-1.6-0.9-2.8s0.3-2.2,0.9-2.8
			s1.4-1,2.4-1s1.8,0.3,2.4,1s0.9,1.6,0.9,2.8c0,0.1,0,0.2,0,0.3h-5.4c0,0.8,0.3,1.4,0.7,1.8c0.4,0.4,0.9,0.6,1.5,0.6
			c0.5,0,0.8-0.1,1.2-0.4C541.2,44.2,541.5,43.8,541.6,43.3z M537.6,41.3h4.1c-0.1-0.6-0.2-1.1-0.5-1.4c-0.4-0.5-0.9-0.7-1.5-0.7
			s-1,0.2-1.4,0.6C537.9,40.2,537.6,40.7,537.6,41.3z"/>
		<path d="M548.5,45.7v-10h3.8c0.8,0,1.4,0.1,1.8,0.3c0.5,0.2,0.8,0.5,1.1,0.9s0.4,0.9,0.4,1.3c0,0.4-0.1,0.8-0.3,1.2
			s-0.6,0.7-1.1,0.9c0.6,0.2,1.1,0.5,1.4,0.9c0.3,0.4,0.5,0.9,0.5,1.5c0,0.5-0.1,0.9-0.3,1.3c-0.2,0.4-0.4,0.7-0.7,0.9
			s-0.7,0.4-1.1,0.5c-0.4,0.1-1,0.2-1.6,0.2L548.5,45.7L548.5,45.7z M549.8,39.9h2.2c0.6,0,1,0,1.3-0.1s0.6-0.3,0.8-0.5
			s0.3-0.5,0.3-0.9c0-0.3-0.1-0.6-0.2-0.9c-0.2-0.3-0.4-0.4-0.7-0.5s-0.8-0.1-1.5-0.1h-2v3H549.8z M549.8,44.5h2.5
			c0.4,0,0.7,0,0.9,0c0.3-0.1,0.6-0.1,0.8-0.3s0.4-0.3,0.5-0.6c0.1-0.2,0.2-0.5,0.2-0.8c0-0.4-0.1-0.7-0.3-1s-0.5-0.5-0.8-0.6
			s-0.8-0.2-1.5-0.2h-2.3L549.8,44.5L549.8,44.5z"/>
		<path d="M562.4,45.7v-1.1c-0.6,0.8-1.3,1.2-2.3,1.2c-0.4,0-0.8-0.1-1.2-0.2c-0.4-0.2-0.6-0.4-0.8-0.6c-0.2-0.2-0.3-0.6-0.4-0.9
			c-0.1-0.2-0.1-0.6-0.1-1.1v-4.5h1.2v4c0,0.6,0,1.1,0.1,1.3c0.1,0.3,0.2,0.6,0.5,0.8s0.6,0.3,0.9,0.3s0.7-0.1,1-0.3
			s0.6-0.4,0.7-0.8c0.1-0.3,0.2-0.8,0.2-1.4v-3.9h1.2v7.3L562.4,45.7L562.4,45.7z"/>
		<path d="M565.8,45.7v-6.3h-1.1v-1h1.1v-0.8c0-0.5,0-0.8,0.1-1.1s0.3-0.6,0.6-0.8s0.7-0.3,1.3-0.3c0.3,0,0.7,0,1.1,0.1l-0.2,1.1
			c-0.3,0-0.5-0.1-0.7-0.1c-0.4,0-0.6,0.1-0.8,0.2c-0.2,0.2-0.2,0.5-0.2,0.9v0.7h1.4v1H567v6.3L565.8,45.7L565.8,45.7z"/>
		<path d="M569.4,45.7v-6.3h-1.1v-1h1.1v-0.8c0-0.5,0-0.8,0.1-1.1s0.3-0.6,0.6-0.8s0.7-0.3,1.3-0.3c0.3,0,0.7,0,1.1,0.1l-0.2,1.1
			c-0.3,0-0.5-0.1-0.7-0.1c-0.4,0-0.6,0.1-0.8,0.2c-0.2,0.2-0.2,0.5-0.2,0.9v0.7h1.4v1h-1.4v6.3L569.4,45.7L569.4,45.7z"/>
		<path d="M578,43.3l1.3,0.2c-0.2,0.7-0.6,1.3-1.1,1.7s-1.2,0.6-2.1,0.6c-1.1,0-1.9-0.3-2.5-1s-0.9-1.6-0.9-2.8s0.3-2.2,0.9-2.8
			s1.4-1,2.4-1s1.8,0.3,2.4,1s0.9,1.6,0.9,2.8c0,0.1,0,0.2,0,0.3h-5.4c0,0.8,0.3,1.4,0.7,1.8c0.4,0.4,0.9,0.6,1.5,0.6
			c0.5,0,0.8-0.1,1.2-0.4C577.5,44.2,577.8,43.8,578,43.3z M573.9,41.3h4.1c-0.1-0.6-0.2-1.1-0.5-1.4c-0.4-0.5-0.9-0.7-1.5-0.7
			s-1,0.2-1.4,0.6C574.2,40.2,574,40.7,573.9,41.3z"/>
		<path d="M580.8,45.7v-7.3h1.1v1.1c0.3-0.5,0.5-0.9,0.8-1s0.5-0.2,0.8-0.2c0.4,0,0.8,0.1,1.3,0.4l-0.4,1.1
			c-0.3-0.2-0.6-0.3-0.9-0.3c-0.3,0-0.5,0.1-0.7,0.2c-0.2,0.2-0.4,0.4-0.5,0.7c-0.1,0.4-0.2,0.9-0.2,1.4v3.8L580.8,45.7L580.8,45.7z
			"/>
	</g>
</g>
</svg>
