<svg id="Layer_1" data-name="Layer 1" xmlns="http://www.w3.org/2000/svg" viewBox="0 0 605.19 405.59"><defs><style>.cls-1,.cls-2,.cls-3{fill:#fff;}.cls-1{stroke:#808285;stroke-width:2px;}.cls-1,.cls-2,.cls-4{stroke-miterlimit:10;}.cls-2,.cls-4,.cls-6,.cls-7{stroke:#231f20;}.cls-2,.cls-4{stroke-width:3px;}.cls-4,.cls-6,.cls-7{fill:none;}.cls-10,.cls-5,.cls-8{fill:#231f20;}.cls-6,.cls-7{stroke-linejoin:round;stroke-width:8px;}.cls-7{stroke-dasharray:8.49 59.46;}.cls-8{font-size:32px;font-family:PalatinoLinotype-Roman, Palatino Linotype;}.cls-10,.cls-9{font-family:PalatinoLinotype-Italic, Palatino Linotype;font-style:italic;}.cls-10{font-size:18px;}</style></defs><title>volume-rendering-raymarching</title><rect class="cls-1" x="106.17" y="4.89" width="100" height="100"/><rect class="cls-1" x="205.86" y="4.89" width="100" height="100"/><rect class="cls-1" x="106.17" y="104.5" width="100" height="100"/><rect class="cls-1" x="205.86" y="104.5" width="100" height="100"/><rect class="cls-1" x="305.74" y="4.89" width="100" height="100"/><rect class="cls-1" x="405.43" y="4.89" width="100" height="100"/><rect class="cls-1" x="305.74" y="104.5" width="100" height="100"/><rect class="cls-1" x="405.43" y="104.5" width="100" height="100"/><rect class="cls-1" x="106.17" y="204.97" width="100" height="100"/><rect class="cls-1" x="205.86" y="204.97" width="100" height="100"/><rect class="cls-1" x="106.17" y="304.59" width="100" height="100"/><rect class="cls-1" x="205.86" y="304.59" width="100" height="100"/><rect class="cls-1" x="305.74" y="204.97" width="100" height="100"/><rect class="cls-1" x="405.43" y="204.97" width="100" height="100"/><rect class="cls-1" x="305.74" y="304.59" width="100" height="100"/><rect class="cls-1" x="405.43" y="304.59" width="100" height="100"/><polyline class="cls-2" points="15.89 70.22 1.82 17.28 50.99 1.43"/><ellipse class="cls-2" cx="17.87" cy="26.18" rx="12.99" ry="13.48"/><line class="cls-3" x1="505.78" y1="339.8" x2="605.19" y2="403.48"/><line class="cls-4" x1="505.78" y1="339.8" x2="589.95" y2="393.71"/><path class="cls-5" d="M611.07,413c-8.88-1.94-20.69-3.1-29.29-1.82L593.83,402l3.34-14.8C599.61,395.51,605.6,405.75,611.07,413Z" transform="translate(-5.88 -9.53)"/><line class="cls-3" x1="105.6" y1="83.49" x2="505.78" y2="339.8"/><line class="cls-6" x1="105.6" y1="83.49" x2="108.97" y2="85.65"/><line class="cls-7" x1="159.05" y1="117.72" x2="477.37" y2="321.61"/><line class="cls-6" x1="502.41" y1="337.65" x2="505.78" y2="339.8"/><line class="cls-2" x1="34.58" y1="38" x2="105.6" y2="83.49"/><path class="cls-5" d="M151.86,99.22c-1.66,2.53,1.23,4.94,3.48,6.42,2,1.29,4,2.44,6.07,3.58s4.18,2.35,6.14,3.64c7.33,4.83,8.47,8.79,6.55,11.71l-.49.75-4-2.63.39-.61c1.24-2-.37-4.33-4.44-7-1.74-1.15-3.51-2.11-5.39-3.2s-3.75-2-5.71-3.34c-4.65-3.06-6.46-5.68-6.23-7.78l-.14-.09c-1.9,1-4.88.46-9.53-2.6-2-1.29-3.61-2.58-5.33-3.92s-3.32-2.54-5-3.64c-3.92-2.58-6.67-3.31-8.1-1.3l-.42.65-4-2.63.46-.72c2-3,6.26-3.33,12.94,1.07,2,1.34,3.9,2.77,5.84,4.25s3.88,3,5.91,4.3c2.54,1.67,5.61,3.18,7.27.65Z" transform="translate(-5.88 -9.53)"/><text class="cls-8" transform="matrix(0.86, 0.5, -0.5, 0.86, 129.92, 77.51)">Δ<tspan class="cls-9" x="22.05" y="0">s</tspan></text><text class="cls-10" transform="matrix(0.86, 0.5, -0.5, 0.86, 78.67, 93.77)">Ĉ₀,α₀</text><text class="cls-10" transform="matrix(0.86, 0.5, -0.5, 0.86, 132.67, 129.12)">Ĉ₁,α₁</text><text class="cls-10" transform="matrix(0.86, 0.5, -0.5, 0.86, 208.58, 137.68)">Ĉ₂,α₂</text></svg>