<?xml version="1.0" encoding="utf-8"?>
<!-- Generator: Adobe Illustrator 23.0.3, SVG Export Plug-In . SVG Version: 6.00 Build 0)  -->
<svg version="1.1" id="Layer_1" xmlns="http://www.w3.org/2000/svg" xmlns:xlink="http://www.w3.org/1999/xlink" x="0px" y="0px"
	 viewBox="0 0 711.6 350.5" style="enable-background:new 0 0 711.6 350.5;" xml:space="preserve">
<style type="text/css">
	.st0{fill:#FFFFFF;stroke:#231F20;stroke-width:3;stroke-miterlimit:10;}
	.st1{fill:none;}
	.st2{fill:none;stroke:#231F20;stroke-width:3;stroke-miterlimit:10;}
	.st3{fill:#231F20;}
	.st4{fill:none;stroke:#231F20;stroke-width:8;stroke-miterlimit:10;}
	.st5{fill:none;stroke:#231F20;stroke-width:8;stroke-miterlimit:10;stroke-dasharray:8.08,24.25;}
	.st6{enable-background:new    ;}
</style>
<title>volume-rendering-cloud-labelled</title>
<path class="st0" d="M304.8,73.4c-61.3,11.9-106.5,54.4-106.5,105c0,36,23,68,58.3,87.7"/>
<path class="st0" d="M536,28.4c-25.2-16.7-58.9-26.9-95.9-26.9c-63.8,0-117.6,30.3-135.4,71.9"/>
<path class="st0" d="M409.8,338.6c18.5,6.9,38,10.4,57.7,10.3c29.1,0,56.2-7.4,78.7-20.1"/>
<path class="st0" d="M653.4,176.1c9.1-13.9,14.1-30.1,14.1-46.8c0-55.9-55.8-101.1-124.7-101.1c-2.3,0-4.6,0-6.8,0.2"/>
<path class="st0" d="M546.3,328.9c8.7,1.4,17.5,2.1,26.2,2.1c67,0,121.4-39.7,121.4-88.7c0-26.3-15.7-49.9-40.5-66.1"/>
<path class="st0" d="M256.6,266.1c-0.8,3-1.1,6.1-1.2,9.1c0,36.5,54,66,120.6,66c11.3,0,22.6-0.9,33.8-2.6"/>
<polyline class="st0" points="42.8,250.1 2.1,204.6 45.1,163.5 "/>
<circle class="st0" cx="23.1" cy="205.2" r="15"/>
<path class="st1" d="M544.4-42.5"/>
<path class="st1" d="M511,107.3"/>
<line class="st2" x1="653.5" y1="172.6" x2="693.5" y2="170.5"/>
<path class="st3" d="M711.6,169.5c-8.3,3.6-18.6,9.6-24.8,15.6l4.4-14.5l-5.9-14C692.1,162,702.9,166.8,711.6,169.5z"/>
<line class="st4" x1="201.5" y1="197.1" x2="205.5" y2="196.9"/>
<line class="st5" x1="229.7" y1="195.6" x2="637.3" y2="173.5"/>
<line class="st4" x1="649.5" y1="172.9" x2="653.5" y2="172.6"/>
<line class="st2" x1="50.7" y1="205.2" x2="201.5" y2="197.1"/>
<path class="st3" d="M249.9,182.9c0.1,1.7,2.2,1.8,3.7,1.8c1.3-0.1,2.7-0.2,4-0.4s2.7-0.3,4-0.4c5-0.3,6.8,1.2,6.9,3.1v0.5l-2.7,0.1
	v-0.4c-0.1-1.4-1.6-1.9-4.4-1.7c-1.2,0.1-2.3,0.2-3.5,0.3s-2.4,0.3-3.7,0.4c-3.1,0.1-4.9-0.4-5.4-1.5h-0.1c-0.6,1.1-2.1,1.8-5.2,2
	c-1.3,0.1-2.5,0-3.7,0s-2.4,0-3.5,0c-2.6,0.1-4.1,0.7-4.1,2.1v0.4l-2.7,0.1V189c-0.1-2,1.8-3.6,6.3-3.8c1.4-0.1,2.7,0,4.1,0
	s2.8,0.1,4.1,0c1.7-0.1,3.6-0.4,3.6-2.1L249.9,182.9z"/>
<circle class="st3" cx="200.8" cy="197.9" r="7.5"/>
<circle class="st3" cx="655.3" cy="172.6" r="7.5"/>
<g class="st6">
	<path class="st3" d="M153.6,275.1c0.4-1.6,0.6-3,0.6-4l0.1-0.1h0.5l0.1,0.1v2.5c0.9,0.8,2,1.2,3.1,1.2c0.5,0,1-0.1,1.5-0.3
		c0.5-0.2,0.9-0.4,1.2-0.7c0.3-0.3,0.6-0.7,0.8-1.1c0.2-0.5,0.3-1,0.3-1.4c0-0.3-0.1-0.7-0.2-1c-0.1-0.3-0.3-0.6-0.7-0.8
		c-0.3-0.2-0.9-0.4-1.9-0.5c-0.9-0.2-1.6-0.3-2-0.4c-0.4-0.1-0.8-0.3-1.1-0.6c-0.4-0.3-0.7-0.6-0.9-1.1c-0.2-0.4-0.3-0.9-0.3-1.4
		c0-0.7,0.2-1.3,0.5-1.9c0.3-0.6,0.8-1.1,1.5-1.6c0.6-0.5,1.3-0.9,2-1.3c0.7-0.3,1.5-0.5,2.3-0.5c1.2,0,2.3,0.3,3.1,0.8l0.1,0.2
		c-0.2,0.6-0.3,1.2-0.3,1.6l-0.2,1.8l-0.1,0.1H163l-0.1-0.1c0-0.6,0-1.2,0-1.8c-0.7-0.8-1.7-1.2-3-1.2c-1,0-1.8,0.3-2.4,0.9
		c-0.6,0.6-0.9,1.2-0.9,2c0,0.6,0.2,1.2,0.6,1.5c0.4,0.4,1.1,0.6,2.3,0.8c1,0.1,1.7,0.3,2.1,0.4c0.4,0.1,0.8,0.3,1.2,0.5
		c0.4,0.2,0.6,0.6,0.8,1s0.3,0.8,0.3,1.3c0,0.6-0.1,1.2-0.3,1.7c-0.2,0.6-0.5,1.1-1,1.5c-0.4,0.5-1,1-1.8,1.5c-0.8,0.5-1.4,0.9-2,1
		c-0.6,0.2-1.2,0.3-1.9,0.3c-1.1,0-2.2-0.3-3.3-0.8L153.6,275.1z"/>
	<path class="st3" d="M189.2,264h-15.1v-1.6h15.1V264z M189.2,268.8h-15.1v-1.6h15.1V268.8z"/>
	<path class="st3" d="M199,268.4c0-2.4,0.4-4.8,1.1-7.3c0.7-2.5,1.7-4.4,3.1-5.6c1.3-1.3,2.8-1.9,4.4-1.9c1.1,0,2,0.3,2.8,0.8
		c0.8,0.6,1.5,1.3,1.9,2.4s0.7,2.5,0.7,4.3c0,2.7-0.4,5.2-1.2,7.6c-0.8,2.4-1.8,4.2-3.1,5.5s-2.8,1.9-4.4,1.9s-2.9-0.6-3.9-1.9
		S199,270.9,199,268.4z M201.4,270c0,0.9,0.1,1.8,0.3,2.5c0.2,0.8,0.6,1.4,1.1,1.8s1.1,0.6,1.9,0.6c0.9,0,1.6-0.3,2.3-1
		c0.7-0.6,1.3-1.7,1.9-3.3c0.6-1.5,1-3.4,1.4-5.7c0.3-2.3,0.5-4.2,0.5-5.9c0-1.1-0.1-2-0.4-2.6c-0.2-0.7-0.6-1.2-1.1-1.6
		c-0.5-0.4-1.1-0.6-1.7-0.6c-1.1,0-2,0.5-2.9,1.5c-0.9,1-1.6,3.1-2.2,6.2C201.7,265.3,201.4,267.9,201.4,270z"/>
</g>
<path class="st2" d="M180.6,250.5c0.8-11,18-47,18-47"/>
<g class="st6">
	<path class="st3" d="M606.2,246.9c0.4-1.6,0.6-3,0.6-4l0.1-0.1h0.5l0.1,0.1v2.5c0.9,0.8,2,1.2,3.1,1.2c0.5,0,1-0.1,1.5-0.3
		c0.5-0.2,0.9-0.4,1.2-0.7c0.3-0.3,0.6-0.7,0.8-1.1c0.2-0.5,0.3-1,0.3-1.4c0-0.3-0.1-0.7-0.2-1s-0.3-0.6-0.7-0.8
		c-0.3-0.2-0.9-0.4-1.9-0.5c-0.9-0.2-1.6-0.3-2-0.4s-0.8-0.3-1.1-0.6c-0.4-0.3-0.7-0.6-0.9-1.1s-0.3-0.9-0.3-1.4
		c0-0.7,0.2-1.3,0.5-1.9c0.3-0.6,0.8-1.1,1.5-1.6s1.3-0.9,2-1.3c0.7-0.3,1.5-0.5,2.3-0.5c1.2,0,2.3,0.3,3.1,0.8l0.1,0.2
		c-0.2,0.6-0.3,1.2-0.3,1.6l-0.2,1.8l-0.1,0.1h-0.5l-0.1-0.1c0-0.6,0-1.2,0-1.8c-0.7-0.8-1.7-1.2-3-1.2c-1,0-1.8,0.3-2.4,0.9
		c-0.6,0.6-0.9,1.2-0.9,2c0,0.6,0.2,1.2,0.6,1.5s1.1,0.6,2.3,0.8c1,0.1,1.7,0.3,2.1,0.4c0.4,0.1,0.8,0.3,1.2,0.5
		c0.4,0.2,0.6,0.6,0.8,1s0.3,0.8,0.3,1.3c0,0.6-0.1,1.2-0.3,1.7c-0.2,0.6-0.5,1.1-1,1.5s-1,1-1.8,1.5c-0.8,0.5-1.4,0.9-2,1
		s-1.2,0.3-1.9,0.3c-1.1,0-2.2-0.3-3.3-0.8L606.2,246.9z"/>
	<path class="st3" d="M641.8,235.8h-15.1v-1.6h15.1V235.8z M641.8,240.6h-15.1V239h15.1V240.6z"/>
	<path class="st3" d="M651.1,247.4l-0.1-0.1l0.1-0.7l0.1-0.1c0.6-0.1,0.9-0.2,1-0.2c0.1-0.1,0.2-0.2,0.3-0.3c0.1-0.1,0.2-0.5,0.4-1
		c0.1-0.5,0.5-2.3,1-5.2l1-5.3l0.6-3.4c0.3-2.3,0.5-3.6,0.5-4c0-0.3-0.1-0.5-0.2-0.6c-0.1-0.1-0.3-0.2-0.6-0.2
		c-0.3,0-0.9-0.1-1.7-0.1l-0.1-0.1l0.1-0.7l0.2-0.1c1.3,0.1,2.8,0.1,4.7,0.1c1.4,0,2.5,0,3.2-0.1l0.1,0.1l-0.1,0.7l-0.1,0.1
		c-1.3,0.1-2,0.2-2.1,0.2c-0.1,0-0.2,0.1-0.3,0.2s-0.1,0.2-0.2,0.4c-0.2,0.4-0.5,1.9-0.9,4.4l-1.9,11c-0.3,1.6-0.4,2.8-0.4,3.6
		c1.2,0.1,2.3,0.2,3.3,0.2c1.3,0,2.4,0,3.2-0.1c0.8,0,1.4-0.1,1.9-0.2c0.5-0.1,0.7-0.2,0.9-0.2s0.2-0.2,0.3-0.3
		c0.1-0.1,0.2-0.5,0.4-1.1l0.6-2l0.1-0.1h0.7l0.1,0.1c-0.4,2.4-0.6,4.1-0.7,5.1l-0.1,0.1l-5.5-0.1l-7.2,0
		C652.5,247.3,651.8,247.3,651.1,247.4z"/>
</g>
<path class="st2" d="M633.2,222.3c0.8-11,18-47,18-47"/>
<g class="st6">
	<path class="st3" d="M232.9,177.4l-0.2-0.3c0.6-1.3,2.1-4.7,4.4-10.4s3.9-9.7,4.7-12l0.8,0c0.5,1.4,2.2,5,4.9,10.8
		s4.6,9.5,5.5,10.9l-0.2,0.3c-2.6,0-5.8,0.1-9.7,0.2C238.5,177.1,235.1,177.2,232.9,177.4z M249,175.5c-2.2-5.4-4.7-10.9-7.4-16.6
		l-0.2,0c-1.5,3.8-2.6,6.8-3.4,9.1c-0.8,2.3-1.7,4.9-2.7,8L249,175.5z"/>
</g>
<g class="st6">
	<path class="st3" d="M254.2,176.2c0.3-1.7,0.5-3,0.5-4l0.1-0.1l0.5,0l0.1,0.1l0.1,2.5c1,0.8,2,1.1,3.1,1.1c0.5,0,1-0.1,1.4-0.3
		c0.5-0.2,0.8-0.4,1.1-0.7s0.5-0.7,0.7-1.2c0.2-0.5,0.2-1,0.2-1.5c0-0.3-0.1-0.7-0.2-1c-0.1-0.3-0.4-0.6-0.7-0.7
		c-0.3-0.2-0.9-0.3-1.9-0.5c-0.9-0.1-1.6-0.2-2-0.3c-0.4-0.1-0.8-0.3-1.1-0.5c-0.4-0.3-0.7-0.6-0.9-1s-0.4-0.9-0.4-1.4
		c0-0.7,0.1-1.3,0.4-1.9c0.3-0.6,0.8-1.1,1.4-1.7c0.6-0.5,1.3-1,2-1.3c0.7-0.4,1.4-0.6,2.3-0.6c1.2,0,2.3,0.2,3.1,0.6l0.1,0.2
		c-0.2,0.6-0.3,1.2-0.3,1.7l-0.1,1.8l-0.1,0.1l-0.5,0l-0.1-0.1c0-0.6-0.1-1.2-0.1-1.8c-0.8-0.8-1.8-1.1-3-1.1c-1,0-1.8,0.3-2.3,0.9
		c-0.6,0.6-0.8,1.3-0.8,2.1c0,0.6,0.2,1.1,0.6,1.5c0.4,0.4,1.2,0.6,2.3,0.7c1,0.1,1.7,0.2,2.1,0.3c0.4,0.1,0.8,0.3,1.2,0.5
		c0.4,0.2,0.7,0.5,0.9,0.9c0.2,0.4,0.3,0.8,0.4,1.3c0,0.6-0.1,1.2-0.3,1.7c-0.2,0.6-0.5,1.1-0.9,1.6c-0.4,0.5-1,1-1.7,1.5
		c-0.7,0.5-1.4,0.9-2,1.1c-0.6,0.2-1.2,0.3-1.8,0.3c-1.1,0-2.2-0.2-3.3-0.7L254.2,176.2z"/>
</g>
</svg>
