<svg id="Layer_1" data-name="Layer 1" xmlns="http://www.w3.org/2000/svg" viewBox="0 0 711.62 350.48"><defs><style>.cls-1{fill:#fff;}.cls-1,.cls-3,.cls-5,.cls-6{stroke:#231f20;stroke-miterlimit:10;}.cls-1,.cls-3{stroke-width:3px;}.cls-2,.cls-3,.cls-5,.cls-6{fill:none;}.cls-4,.cls-7,.cls-8{fill:#231f20;}.cls-5,.cls-6{stroke-width:8px;}.cls-6{stroke-dasharray:8.08 24.25;}.cls-7,.cls-8{font-size:32px;}.cls-7,.cls-9{font-family:PalatinoLinotype-Italic, Palatino Linotype;font-style:italic;}.cls-8{font-family:PalatinoLinotype-Roman, Palatino Linotype;}</style></defs><title>volume-rendering-cloud-labelled</title><path class="cls-1" d="M312.25,82.11C251,94,205.74,136.54,205.74,187.15c0,36,23,68,58.33,87.68" transform="translate(-7.46 -8.72)"/><path class="cls-1" d="M543.51,37.13c-25.21-16.71-58.9-26.91-95.9-26.91-63.75,0-117.64,30.27-135.36,71.89" transform="translate(-7.46 -8.72)"/><path class="cls-1" d="M417.27,347.36A163.93,163.93,0,0,0,475,357.7c29.15,0,56.23-7.42,78.74-20.12" transform="translate(-7.46 -8.72)"/><path class="cls-1" d="M660.86,184.87A85.9,85.9,0,0,0,675,138.11C675,82.25,619.16,37,550.33,37c-2.28,0-4.56.05-6.82.15" transform="translate(-7.46 -8.72)"/><path class="cls-1" d="M553.76,337.58A166.38,166.38,0,0,0,580,339.66c67,0,121.41-39.7,121.41-88.66,0-26.28-15.67-49.89-40.55-66.13" transform="translate(-7.46 -8.72)"/><path class="cls-1" d="M264.07,274.83a37.49,37.49,0,0,0-1.15,9.15c0,36.45,54,66,120.57,66a214.85,214.85,0,0,0,33.78-2.63" transform="translate(-7.46 -8.72)"/><polyline class="cls-1" points="42.81 250.14 2.09 204.56 45.13 163.54"/><circle class="cls-1" cx="23.09" cy="205.2" r="15"/><path class="cls-2" d="M551.9-33.81" transform="translate(-7.46 -8.72)"/><path class="cls-2" d="M518.47,116" transform="translate(-7.46 -8.72)"/><line class="cls-3" x1="653.46" y1="172.65" x2="693.54" y2="170.49"/><path class="cls-4" d="M719.08,178.23c-8.33,3.61-18.6,9.57-24.83,15.63l4.38-14.53-5.92-14C699.56,170.72,710.41,175.53,719.08,178.23Z" transform="translate(-7.46 -8.72)"/><line class="cls-5" x1="201.48" y1="197.09" x2="205.47" y2="196.87"/><line class="cls-6" x1="229.69" y1="195.56" x2="637.35" y2="173.52"/><line class="cls-5" x1="649.46" y1="172.87" x2="653.46" y2="172.65"/><line class="cls-3" x1="50.69" y1="205.24" x2="201.48" y2="197.09"/><path class="cls-4" d="M257.39,191.65c.06,1.7,2.19,1.83,3.71,1.76,1.33-.07,2.65-.23,4-.39s2.7-.33,4-.39c5-.25,6.79,1.18,6.87,3.15l0,.5-2.71.13V196c-.1-1.35-1.6-1.85-4.35-1.71-1.18.06-2.31.21-3.54.34s-2.4.31-3.72.38c-3.15.15-4.85-.44-5.43-1.47h-.1c-.55,1.08-2.09,1.83-5.24,2-1.32.07-2.51,0-3.74,0s-2.37,0-3.5,0c-2.65.13-4.15.71-4.15,2.1l0,.44-2.7.13,0-.48c-.08-2,1.78-3.6,6.3-3.82,1.37-.07,2.7,0,4.08,0s2.76.05,4.14,0c1.72-.08,3.63-.42,3.56-2.12Z" transform="translate(-7.46 -8.72)"/><circle class="cls-4" cx="200.8" cy="197.85" r="7.5"/><circle class="cls-4" cx="655.32" cy="172.59" r="7.5"/><text class="cls-7" transform="translate(153.23 275.5)">s = 0</text><path class="cls-3" d="M188.09,259.17c.78-11,18-47,18-47" transform="translate(-7.46 -8.72)"/><text class="cls-7" transform="translate(605.8 247.28)">s = L</text><path class="cls-3" d="M640.65,231c.78-11,18-47,18-47" transform="translate(-7.46 -8.72)"/><text class="cls-8" transform="translate(231.82 177.32) rotate(-2.04)">Δ<tspan class="cls-9" x="22.05" y="0">s</tspan></text></svg>