<svg id="Layer_1" data-name="Layer 1" xmlns="http://www.w3.org/2000/svg" xmlns:xlink="http://www.w3.org/1999/xlink" viewBox="0 0 1249.09 178.12"><defs><style>.cls-1{fill:#00aeef;}.cls-1,.cls-29,.cls-30,.cls-32{stroke:#231f20;}.cls-1,.cls-13,.cls-14,.cls-15,.cls-21,.cls-26,.cls-29,.cls-30,.cls-32,.cls-33,.cls-34,.cls-35,.cls-36,.cls-37,.cls-38,.cls-39,.cls-40,.cls-41,.cls-42,.cls-43,.cls-44,.cls-45,.cls-46,.cls-47,.cls-48,.cls-49,.cls-50,.cls-51,.cls-52,.cls-53,.cls-54,.cls-55,.cls-56,.cls-57,.cls-58,.cls-59,.cls-60,.cls-61,.cls-62,.cls-63,.cls-64,.cls-65,.cls-66,.cls-67,.cls-68,.cls-69,.cls-70,.cls-71,.cls-72,.cls-73,.cls-74,.cls-75,.cls-76,.cls-77,.cls-78,.cls-79,.cls-80,.cls-81,.cls-82,.cls-83,.cls-84,.cls-85,.cls-86,.cls-87,.cls-88,.cls-89,.cls-90,.cls-91,.cls-92,.cls-94,.cls-95{stroke-miterlimit:10;}.cls-1,.cls-13,.cls-14,.cls-15,.cls-21,.cls-26,.cls-29,.cls-32{stroke-width:2px;}.cls-2{font-size:24px;}.cls-16,.cls-2,.cls-29,.cls-31,.cls-87{fill:#231f20;}.cls-16,.cls-2{font-family:MyriadPro-Regular, Myriad Pro;}.cls-3{letter-spacing:-0.03em;}.cls-4{letter-spacing:0.02em;}.cls-5{letter-spacing:-0.01em;}.cls-6{letter-spacing:0em;}.cls-7{letter-spacing:-0.03em;}.cls-8{letter-spacing:0em;}.cls-9{letter-spacing:-0.01em;}.cls-10{letter-spacing:0em;}.cls-11{letter-spacing:0em;}.cls-12{fill:#fff;}.cls-13,.cls-14,.cls-15,.cls-21,.cls-26,.cls-30,.cls-32,.cls-33{fill:none;}.cls-13,.cls-14,.cls-15,.cls-21,.cls-26{stroke:#6d6e71;}.cls-14{stroke-dasharray:11.9 11.9;}.cls-15{stroke-dasharray:9.6 9.6;}.cls-16{font-size:20px;}.cls-17{letter-spacing:-0.02em;}.cls-18{letter-spacing:0em;}.cls-19{letter-spacing:0em;}.cls-20{letter-spacing:-0.01em;}.cls-21{stroke-dasharray:11.7 11.7;}.cls-22{letter-spacing:0.01em;}.cls-23{letter-spacing:0em;}.cls-24{letter-spacing:0em;}.cls-25{letter-spacing:0em;}.cls-26{stroke-dasharray:10.91 10.91;}.cls-27{letter-spacing:-0.03em;}.cls-28{letter-spacing:-0.01em;}.cls-30{stroke-width:3px;}.cls-33,.cls-34,.cls-35,.cls-36,.cls-37,.cls-38,.cls-39,.cls-40,.cls-41,.cls-42,.cls-43,.cls-44,.cls-45,.cls-46,.cls-47,.cls-48,.cls-49,.cls-50,.cls-51,.cls-52,.cls-53,.cls-54,.cls-55,.cls-56,.cls-57,.cls-58,.cls-59,.cls-60,.cls-61,.cls-62,.cls-63,.cls-64,.cls-65,.cls-66,.cls-67,.cls-68,.cls-69,.cls-70,.cls-71,.cls-72,.cls-73,.cls-74,.cls-75,.cls-76,.cls-77,.cls-78,.cls-79,.cls-80,.cls-81,.cls-82,.cls-83,.cls-84,.cls-85,.cls-86,.cls-87,.cls-88,.cls-89,.cls-90,.cls-91,.cls-92,.cls-94,.cls-95{stroke:#939598;}.cls-34{fill:url(#linear-gradient);}.cls-35{fill:url(#linear-gradient-2);}.cls-36{fill:url(#linear-gradient-3);}.cls-37{fill:url(#linear-gradient-4);}.cls-38{fill:url(#linear-gradient-5);}.cls-39{fill:url(#linear-gradient-6);}.cls-40{fill:url(#linear-gradient-7);}.cls-41{fill:url(#linear-gradient-8);}.cls-42{fill:url(#linear-gradient-9);}.cls-43{fill:url(#linear-gradient-10);}.cls-44{fill:url(#linear-gradient-11);}.cls-45{fill:url(#linear-gradient-12);}.cls-46{fill:url(#linear-gradient-13);}.cls-47{fill:url(#linear-gradient-14);}.cls-48{fill:url(#linear-gradient-15);}.cls-49{fill:url(#linear-gradient-16);}.cls-50{fill:url(#linear-gradient-17);}.cls-51{fill:url(#linear-gradient-18);}.cls-52{fill:url(#linear-gradient-19);}.cls-53{fill:url(#linear-gradient-20);}.cls-54{fill:url(#linear-gradient-21);}.cls-55{fill:url(#linear-gradient-22);}.cls-56{fill:url(#linear-gradient-23);}.cls-57{fill:url(#linear-gradient-24);}.cls-58{fill:url(#linear-gradient-25);}.cls-59{fill:url(#linear-gradient-26);}.cls-60{fill:url(#linear-gradient-27);}.cls-61{fill:url(#linear-gradient-28);}.cls-62{fill:url(#linear-gradient-29);}.cls-63{fill:url(#linear-gradient-30);}.cls-64{fill:url(#linear-gradient-31);}.cls-65{fill:url(#linear-gradient-32);}.cls-66{fill:url(#linear-gradient-33);}.cls-67{fill:url(#linear-gradient-34);}.cls-68{fill:url(#linear-gradient-35);}.cls-69{fill:url(#linear-gradient-36);}.cls-70{fill:url(#linear-gradient-37);}.cls-71{fill:url(#linear-gradient-38);}.cls-72{fill:url(#linear-gradient-39);}.cls-73{fill:url(#linear-gradient-40);}.cls-74{fill:url(#linear-gradient-41);}.cls-75{fill:url(#linear-gradient-42);}.cls-76{fill:url(#linear-gradient-43);}.cls-77{fill:url(#linear-gradient-44);}.cls-78{fill:url(#linear-gradient-45);}.cls-79{fill:url(#linear-gradient-46);}.cls-80{fill:url(#linear-gradient-47);}.cls-81{fill:url(#linear-gradient-48);}.cls-82{fill:url(#linear-gradient-49);}.cls-83{fill:url(#linear-gradient-50);}.cls-84{fill:url(#linear-gradient-51);}.cls-85{fill:url(#linear-gradient-52);}.cls-86{fill:url(#linear-gradient-53);}.cls-88{fill:url(#linear-gradient-54);}.cls-89{fill:url(#linear-gradient-55);}.cls-90{fill:url(#linear-gradient-56);}.cls-91{fill:url(#linear-gradient-57);}.cls-92{fill:url(#linear-gradient-58);}.cls-93{letter-spacing:-0.01em;}.cls-94{fill:url(#linear-gradient-59);}.cls-95{fill:url(#linear-gradient-60);}</style><linearGradient id="linear-gradient" x1="658.93" y1="118.81" x2="769.84" y2="188.92" gradientUnits="userSpaceOnUse"><stop offset="0" stop-color="#fff33b"/><stop offset="0.04" stop-color="#fee72e"/><stop offset="0.1" stop-color="#fed51b"/><stop offset="0.17" stop-color="#fdca10"/><stop offset="0.25" stop-color="#fdc70c"/><stop offset="0.5" stop-color="#f3903f"/><stop offset="0.75" stop-color="#ed683c"/><stop offset="1" stop-color="#e93e3a"/></linearGradient><linearGradient id="linear-gradient-2" x1="663.34" y1="111.85" x2="774.25" y2="181.96" xlink:href="#linear-gradient"/><linearGradient id="linear-gradient-3" x1="667.75" y1="104.89" x2="778.66" y2="175" xlink:href="#linear-gradient"/><linearGradient id="linear-gradient-4" x1="672.16" y1="97.93" x2="783.07" y2="168.04" xlink:href="#linear-gradient"/><linearGradient id="linear-gradient-5" x1="676.57" y1="90.97" x2="787.48" y2="161.08" xlink:href="#linear-gradient"/><linearGradient id="linear-gradient-6" x1="680.98" y1="84.01" x2="791.89" y2="154.12" xlink:href="#linear-gradient"/><linearGradient id="linear-gradient-7" x1="685.54" y1="76.82" x2="796.45" y2="146.93" xlink:href="#linear-gradient"/><linearGradient id="linear-gradient-8" x1="689.95" y1="69.86" x2="800.86" y2="139.97" xlink:href="#linear-gradient"/><linearGradient id="linear-gradient-9" x1="652.15" y1="129.52" x2="763.05" y2="199.64" xlink:href="#linear-gradient"/><linearGradient id="linear-gradient-10" x1="656.56" y1="122.56" x2="767.46" y2="192.68" xlink:href="#linear-gradient"/><linearGradient id="linear-gradient-11" x1="660.97" y1="115.6" x2="771.88" y2="185.72" xlink:href="#linear-gradient"/><linearGradient id="linear-gradient-12" x1="665.38" y1="108.64" x2="776.29" y2="178.76" xlink:href="#linear-gradient"/><linearGradient id="linear-gradient-13" x1="669.79" y1="101.68" x2="780.7" y2="171.8" xlink:href="#linear-gradient"/><linearGradient id="linear-gradient-14" x1="674.2" y1="94.72" x2="785.11" y2="164.84" xlink:href="#linear-gradient"/><linearGradient id="linear-gradient-15" x1="678.76" y1="87.53" x2="789.67" y2="157.64" xlink:href="#linear-gradient"/><linearGradient id="linear-gradient-16" x1="683.17" y1="80.57" x2="794.08" y2="150.68" xlink:href="#linear-gradient"/><linearGradient id="linear-gradient-17" x1="687.73" y1="73.38" x2="798.64" y2="143.49" xlink:href="#linear-gradient"/><linearGradient id="linear-gradient-18" x1="665.71" y1="108.1" x2="776.62" y2="178.21" xlink:href="#linear-gradient"/><linearGradient id="linear-gradient-19" x1="670.12" y1="101.14" x2="781.03" y2="171.25" xlink:href="#linear-gradient"/><linearGradient id="linear-gradient-20" x1="674.53" y1="94.18" x2="785.44" y2="164.29" xlink:href="#linear-gradient"/><linearGradient id="linear-gradient-21" x1="678.94" y1="87.22" x2="789.85" y2="157.33" xlink:href="#linear-gradient"/><linearGradient id="linear-gradient-22" x1="683.36" y1="80.26" x2="794.26" y2="150.37" xlink:href="#linear-gradient"/><linearGradient id="linear-gradient-23" x1="672.49" y1="97.39" x2="783.4" y2="167.5" xlink:href="#linear-gradient"/><linearGradient id="linear-gradient-24" x1="676.91" y1="90.43" x2="787.81" y2="160.54" xlink:href="#linear-gradient"/><linearGradient id="linear-gradient-25" x1="649.77" y1="133.28" x2="760.68" y2="203.39" xlink:href="#linear-gradient"/><linearGradient id="linear-gradient-26" x1="654.19" y1="126.32" x2="765.09" y2="196.43" xlink:href="#linear-gradient"/><linearGradient id="linear-gradient-27" x1="658.6" y1="119.36" x2="769.5" y2="189.47" xlink:href="#linear-gradient"/><linearGradient id="linear-gradient-28" x1="663.01" y1="112.4" x2="773.92" y2="182.51" xlink:href="#linear-gradient"/><linearGradient id="linear-gradient-29" x1="692.16" y1="66.39" x2="803.07" y2="136.5" xlink:href="#linear-gradient"/><linearGradient id="linear-gradient-30" x1="1069.7" y1="40.78" x2="1180.6" y2="110.89" xlink:href="#linear-gradient"/><linearGradient id="linear-gradient-31" x1="1074.11" y1="33.82" x2="1185.02" y2="103.93" xlink:href="#linear-gradient"/><linearGradient id="linear-gradient-32" x1="1078.52" y1="26.85" x2="1189.43" y2="96.97" xlink:href="#linear-gradient"/><linearGradient id="linear-gradient-33" x1="1082.93" y1="19.89" x2="1193.84" y2="90.01" xlink:href="#linear-gradient"/><linearGradient id="linear-gradient-34" x1="1087.34" y1="12.93" x2="1198.25" y2="83.05" xlink:href="#linear-gradient"/><linearGradient id="linear-gradient-35" x1="1091.75" y1="5.97" x2="1202.66" y2="76.09" xlink:href="#linear-gradient"/><linearGradient id="linear-gradient-36" x1="1096.31" y1="-1.22" x2="1207.22" y2="68.89" xlink:href="#linear-gradient"/><linearGradient id="linear-gradient-37" x1="1100.72" y1="-8.18" x2="1211.63" y2="61.93" xlink:href="#linear-gradient"/><linearGradient id="linear-gradient-38" x1="1062.91" y1="51.49" x2="1173.82" y2="121.6" xlink:href="#linear-gradient"/><linearGradient id="linear-gradient-39" x1="1067.33" y1="44.53" x2="1178.23" y2="114.64" xlink:href="#linear-gradient"/><linearGradient id="linear-gradient-40" x1="1071.74" y1="37.57" x2="1182.64" y2="107.68" xlink:href="#linear-gradient"/><linearGradient id="linear-gradient-41" x1="1076.15" y1="30.61" x2="1187.06" y2="100.72" xlink:href="#linear-gradient"/><linearGradient id="linear-gradient-42" x1="1080.56" y1="23.65" x2="1191.47" y2="93.76" xlink:href="#linear-gradient"/><linearGradient id="linear-gradient-43" x1="1084.97" y1="16.69" x2="1195.88" y2="86.8" xlink:href="#linear-gradient"/><linearGradient id="linear-gradient-44" x1="1089.53" y1="9.49" x2="1200.44" y2="79.61" xlink:href="#linear-gradient"/><linearGradient id="linear-gradient-45" x1="1093.94" y1="2.53" x2="1204.85" y2="72.65" xlink:href="#linear-gradient"/><linearGradient id="linear-gradient-46" x1="1098.5" y1="-4.66" x2="1209.41" y2="65.45" xlink:href="#linear-gradient"/><linearGradient id="linear-gradient-47" x1="1076.48" y1="30.06" x2="1187.39" y2="100.18" xlink:href="#linear-gradient"/><linearGradient id="linear-gradient-48" x1="1080.89" y1="23.1" x2="1191.8" y2="93.22" xlink:href="#linear-gradient"/><linearGradient id="linear-gradient-49" x1="1085.3" y1="16.14" x2="1196.21" y2="86.26" xlink:href="#linear-gradient"/><linearGradient id="linear-gradient-50" x1="1089.71" y1="9.18" x2="1200.62" y2="79.29" xlink:href="#linear-gradient"/><linearGradient id="linear-gradient-51" x1="1094.12" y1="2.22" x2="1205.03" y2="72.33" xlink:href="#linear-gradient"/><linearGradient id="linear-gradient-52" x1="1083.26" y1="19.35" x2="1194.17" y2="89.46" xlink:href="#linear-gradient"/><linearGradient id="linear-gradient-53" x1="1087.67" y1="12.39" x2="1198.58" y2="82.5" xlink:href="#linear-gradient"/><linearGradient id="linear-gradient-54" x1="1060.54" y1="55.24" x2="1171.45" y2="125.35" xlink:href="#linear-gradient"/><linearGradient id="linear-gradient-55" x1="1064.95" y1="48.28" x2="1175.86" y2="118.39" xlink:href="#linear-gradient"/><linearGradient id="linear-gradient-56" x1="1069.37" y1="41.32" x2="1180.27" y2="111.43" xlink:href="#linear-gradient"/><linearGradient id="linear-gradient-57" x1="1073.78" y1="34.36" x2="1184.68" y2="104.47" xlink:href="#linear-gradient"/><linearGradient id="linear-gradient-58" x1="1102.93" y1="-11.65" x2="1213.84" y2="58.46" xlink:href="#linear-gradient"/><linearGradient id="linear-gradient-59" x1="674.2" y1="109.72" x2="785.11" y2="179.84" xlink:href="#linear-gradient"/><linearGradient id="linear-gradient-60" x1="1084.97" y1="31.69" x2="1195.88" y2="101.8" xlink:href="#linear-gradient"/></defs><title>webgl-triangle-pipeline</title><rect class="cls-1" x="49.25" y="21.99" width="180" height="60"/><text class="cls-2" transform="translate(69.68 59.04)"><tspan class="cls-3">V</tspan><tspan x="12.6" y="0">e</tspan><tspan class="cls-4" x="24.62" y="0">r</tspan><tspan class="cls-5" x="33.05" y="0">t</tspan><tspan class="cls-6" x="40.85" y="0">e</tspan><tspan x="52.8" y="0">x Shader</tspan></text><rect class="cls-1" x="657.97" y="21.99" width="180" height="60"/><text class="cls-2" transform="translate(661.95 59.04)"><tspan class="cls-7">F</tspan><tspan class="cls-8" x="11.06" y="0">r</tspan><tspan x="18.79" y="0">a</tspan><tspan class="cls-9" x="30.36" y="0">g</tspan><tspan class="cls-10" x="43.63" y="0">me</tspan><tspan class="cls-11" x="75.67" y="0">n</tspan><tspan x="88.9" y="0">t Shader</tspan></text><rect class="cls-12" x="269.71" y="21.99" width="166.67" height="60"/><polyline class="cls-13" points="436.38 75.99 436.38 81.99 430.38 81.99"/><line class="cls-14" x1="418.48" y1="81.99" x2="281.66" y2="81.99"/><polyline class="cls-13" points="275.71 81.99 269.71 81.99 269.71 75.99"/><line class="cls-15" x1="269.71" y1="66.39" x2="269.71" y2="32.79"/><polyline class="cls-13" points="269.71 27.99 269.71 21.99 275.71 21.99"/><line class="cls-14" x1="287.61" y1="21.99" x2="424.43" y2="21.99"/><polyline class="cls-13" points="430.38 21.99 436.38 21.99 436.38 27.99"/><line class="cls-15" x1="436.38" y1="37.59" x2="436.38" y2="71.19"/><text class="cls-16" transform="translate(308.47 44.64)">Clipping &amp;<tspan class="cls-17" x="-35.54" y="24">P</tspan><tspan class="cls-18" x="-25.22" y="24">r</tspan><tspan class="cls-19" x="-18.6" y="24">imiti</tspan><tspan class="cls-20" x="18.74" y="24">v</tspan><tspan x="28.16" y="24">e </tspan><tspan class="cls-9" x="42.42" y="24">A</tspan><tspan x="54.54" y="24">ssembly</tspan></text><rect class="cls-12" x="476.84" y="21.99" width="140.67" height="60"/><polyline class="cls-13" points="617.51 75.99 617.51 81.99 611.51 81.99"/><line class="cls-21" x1="599.81" y1="81.99" x2="488.69" y2="81.99"/><polyline class="cls-13" points="482.84 81.99 476.84 81.99 476.84 75.99"/><line class="cls-15" x1="476.84" y1="66.39" x2="476.84" y2="32.79"/><polyline class="cls-13" points="476.84 27.99 476.84 21.99 482.84 21.99"/><line class="cls-21" x1="494.54" y1="21.99" x2="605.66" y2="21.99"/><polyline class="cls-13" points="611.51 21.99 617.51 21.99 617.51 27.99"/><line class="cls-15" x1="617.51" y1="37.59" x2="617.51" y2="71.19"/><text class="cls-2" transform="translate(482.44 59.04)"><tspan class="cls-22">R</tspan><tspan x="13.2" y="0">as</tspan><tspan class="cls-5" x="34.27" y="0">t</tspan><tspan x="42.07" y="0">e</tspan><tspan class="cls-23" x="54.1" y="0">r</tspan><tspan x="62.04" y="0">iz</tspan><tspan class="cls-24" x="77.93" y="0">a</tspan><tspan class="cls-25" x="89.4" y="0">tion</tspan></text><rect class="cls-12" x="878.44" y="21.99" width="132" height="60"/><polyline class="cls-13" points="1010.44 75.99 1010.44 81.99 1004.44 81.99"/><line class="cls-26" x1="993.53" y1="81.99" x2="889.89" y2="81.99"/><polyline class="cls-13" points="884.44 81.99 878.44 81.99 878.44 75.99"/><line class="cls-15" x1="878.44" y1="66.39" x2="878.44" y2="32.79"/><polyline class="cls-13" points="878.44 27.99 878.44 21.99 884.44 21.99"/><line class="cls-26" x1="895.35" y1="21.99" x2="998.98" y2="21.99"/><polyline class="cls-13" points="1004.44 21.99 1010.44 21.99 1010.44 27.99"/><line class="cls-15" x1="1010.44" y1="37.59" x2="1010.44" y2="71.19"/><text class="cls-2" transform="translate(889.64 44.64)"><tspan class="cls-27">P</tspan><tspan x="12.17" y="0">e</tspan><tspan class="cls-28" x="24.19" y="0">r</tspan><tspan x="31.92" y="0">-sample</tspan><tspan x="0.37" y="28.8">Ope</tspan><tspan class="cls-8" x="42.59" y="28.8">r</tspan><tspan class="cls-11" x="50.32" y="28.8">a</tspan><tspan x="61.79" y="28.8">tions</tspan></text><circle class="cls-29" cx="9.7" cy="76.82" r="5"/><circle class="cls-29" cx="27" cy="62.07" r="5"/><circle class="cls-29" cx="6" cy="52.73" r="5"/><line class="cls-30" x1="7.97" y1="35.99" x2="48.95" y2="35.99"/><path class="cls-31" d="M78.2,41.92c-8.52,3.16-19.09,8.56-25.64,14.27l5.16-14.27L52.56,27.66C59.11,33.37,69.68,38.76,78.2,41.92Z" transform="translate(-11.14 -5.93)"/><line class="cls-30" x1="226.47" y1="35.99" x2="266.37" y2="35.99"/><path class="cls-31" d="M295.62,41.92c-8.52,3.16-19.09,8.56-25.65,14.27l5.16-14.27L270,27.66C276.53,33.37,287.1,38.76,295.62,41.92Z" transform="translate(-11.14 -5.93)"/><line class="cls-30" x1="424.58" y1="35.99" x2="464.89" y2="35.99"/><path class="cls-31" d="M494.14,41.92c-8.51,3.16-19.08,8.56-25.64,14.27l5.16-14.27L468.5,27.66C475.06,33.37,485.63,38.76,494.14,41.92Z" transform="translate(-11.14 -5.93)"/><line class="cls-30" x1="607.92" y1="35.99" x2="647.81" y2="35.99"/><path class="cls-31" d="M677.07,41.92c-8.52,3.16-19.09,8.56-25.65,14.27l5.16-14.27-5.16-14.26C658,33.37,668.55,38.76,677.07,41.92Z" transform="translate(-11.14 -5.93)"/><line class="cls-30" x1="830.51" y1="35.99" x2="870.41" y2="35.99"/><path class="cls-31" d="M899.66,41.92c-8.52,3.16-19.09,8.56-25.64,14.27l5.16-14.27L874,27.66C880.57,33.37,891.14,38.76,899.66,41.92Z" transform="translate(-11.14 -5.93)"/><circle class="cls-29" cx="292.53" cy="170.87" r="6.25"/><circle class="cls-29" cx="434.48" cy="145.43" r="6.25"/><circle class="cls-29" cx="271.6" cy="95.54" r="6.25"/><polygon class="cls-32" points="434.48 145.43 271.6 95.54 292.53 170.87 434.48 145.43"/><circle class="cls-29" cx="486.66" cy="170.87" r="6.25"/><circle class="cls-29" cx="628.62" cy="145.43" r="6.25"/><circle class="cls-29" cx="465.74" cy="95.54" r="6.25"/><polygon class="cls-32" points="628.62 145.43 465.74 95.54 486.66 170.87 628.62 145.43"/><rect class="cls-33" x="470.18" y="124.13" width="12.5" height="12.5"/><rect class="cls-33" x="485.6" y="124.13" width="12.5" height="12.5"/><rect class="cls-33" x="501.02" y="124.13" width="12.5" height="12.5"/><rect class="cls-33" x="516.44" y="124.13" width="12.5" height="12.5"/><rect class="cls-33" x="531.86" y="124.13" width="12.5" height="12.5"/><rect class="cls-33" x="547.28" y="124.13" width="12.5" height="12.5"/><rect class="cls-33" x="562.71" y="123.8" width="12.5" height="12.5"/><rect class="cls-33" x="578.13" y="123.8" width="12.5" height="12.5"/><rect class="cls-33" x="470.18" y="139.13" width="12.5" height="12.5"/><rect class="cls-33" x="485.6" y="139.13" width="12.5" height="12.5"/><rect class="cls-33" x="501.02" y="139.13" width="12.5" height="12.5"/><rect class="cls-33" x="516.44" y="139.13" width="12.5" height="12.5"/><rect class="cls-33" x="531.86" y="139.13" width="12.5" height="12.5"/><rect class="cls-33" x="547.28" y="139.13" width="12.5" height="12.5"/><rect class="cls-33" x="562.71" y="138.8" width="12.5" height="12.5"/><rect class="cls-33" x="578.13" y="138.8" width="12.5" height="12.5"/><rect class="cls-33" x="593.55" y="138.48" width="12.5" height="12.5"/><rect class="cls-33" x="470.18" y="109.13" width="12.5" height="12.5"/><rect class="cls-33" x="485.6" y="109.13" width="12.5" height="12.5"/><rect class="cls-33" x="501.02" y="109.13" width="12.5" height="12.5"/><rect class="cls-33" x="516.44" y="109.13" width="12.5" height="12.5"/><rect class="cls-33" x="531.86" y="109.13" width="12.5" height="12.5"/><rect class="cls-33" x="470.18" y="94.13" width="12.5" height="12.5"/><rect class="cls-33" x="485.6" y="94.13" width="12.5" height="12.5"/><rect class="cls-33" x="485.6" y="154.13" width="12.5" height="12.5"/><rect class="cls-33" x="501.02" y="154.13" width="12.5" height="12.5"/><rect class="cls-33" x="516.44" y="154.13" width="12.5" height="12.5"/><rect class="cls-33" x="531.86" y="154.13" width="12.5" height="12.5"/><rect class="cls-33" x="609.04" y="138.48" width="12.5" height="12.5"/><circle class="cls-29" cx="687.46" cy="170.87" r="6.25"/><circle class="cls-29" cx="829.41" cy="145.43" r="6.25"/><circle class="cls-29" cx="666.53" cy="95.54" r="6.25"/><polygon class="cls-32" points="829.41 145.43 666.53 95.54 687.46 170.87 829.41 145.43"/><rect class="cls-34" x="670.98" y="124.13" width="12.5" height="12.5"/><rect class="cls-35" x="686.4" y="124.13" width="12.5" height="12.5"/><rect class="cls-36" x="701.82" y="124.13" width="12.5" height="12.5"/><rect class="cls-37" x="717.24" y="124.13" width="12.5" height="12.5"/><rect class="cls-38" x="732.66" y="124.13" width="12.5" height="12.5"/><rect class="cls-39" x="748.08" y="124.13" width="12.5" height="12.5"/><rect class="cls-40" x="763.5" y="123.8" width="12.5" height="12.5"/><rect class="cls-41" x="778.93" y="123.8" width="12.5" height="12.5"/><rect class="cls-42" x="670.98" y="139.13" width="12.5" height="12.5"/><rect class="cls-43" x="686.4" y="139.13" width="12.5" height="12.5"/><rect class="cls-44" x="701.82" y="139.13" width="12.5" height="12.5"/><rect class="cls-45" x="717.24" y="139.13" width="12.5" height="12.5"/><rect class="cls-46" x="732.66" y="139.13" width="12.5" height="12.5"/><rect class="cls-47" x="748.08" y="139.13" width="12.5" height="12.5"/><rect class="cls-48" x="763.5" y="138.8" width="12.5" height="12.5"/><rect class="cls-49" x="778.93" y="138.8" width="12.5" height="12.5"/><rect class="cls-50" x="794.35" y="138.48" width="12.5" height="12.5"/><rect class="cls-51" x="670.98" y="109.13" width="12.5" height="12.5"/><rect class="cls-52" x="686.4" y="109.13" width="12.5" height="12.5"/><rect class="cls-53" x="701.82" y="109.13" width="12.5" height="12.5"/><rect class="cls-54" x="717.24" y="109.13" width="12.5" height="12.5"/><rect class="cls-55" x="732.66" y="109.13" width="12.5" height="12.5"/><rect class="cls-56" x="670.98" y="94.13" width="12.5" height="12.5"/><rect class="cls-57" x="686.4" y="94.13" width="12.5" height="12.5"/><rect class="cls-58" x="686.4" y="154.13" width="12.5" height="12.5"/><rect class="cls-59" x="701.82" y="154.13" width="12.5" height="12.5"/><rect class="cls-60" x="717.24" y="154.13" width="12.5" height="12.5"/><rect class="cls-61" x="732.66" y="154.13" width="12.5" height="12.5"/><rect class="cls-62" x="809.84" y="138.48" width="12.5" height="12.5"/><rect class="cls-63" x="1081.75" y="46.09" width="12.5" height="12.5"/><rect class="cls-64" x="1097.17" y="46.09" width="12.5" height="12.5"/><rect class="cls-65" x="1112.59" y="46.09" width="12.5" height="12.5"/><rect class="cls-66" x="1128.01" y="46.09" width="12.5" height="12.5"/><rect class="cls-67" x="1143.43" y="46.09" width="12.5" height="12.5"/><rect class="cls-68" x="1158.85" y="46.09" width="12.5" height="12.5"/><rect class="cls-69" x="1174.27" y="45.77" width="12.5" height="12.5"/><rect class="cls-70" x="1189.69" y="45.77" width="12.5" height="12.5"/><rect class="cls-71" x="1081.75" y="61.09" width="12.5" height="12.5"/><rect class="cls-72" x="1097.17" y="61.09" width="12.5" height="12.5"/><rect class="cls-73" x="1112.59" y="61.09" width="12.5" height="12.5"/><rect class="cls-74" x="1128.01" y="61.09" width="12.5" height="12.5"/><rect class="cls-75" x="1143.43" y="61.09" width="12.5" height="12.5"/><rect class="cls-76" x="1158.85" y="61.09" width="12.5" height="12.5"/><rect class="cls-77" x="1174.27" y="60.77" width="12.5" height="12.5"/><rect class="cls-78" x="1189.69" y="60.77" width="12.5" height="12.5"/><rect class="cls-79" x="1205.12" y="60.44" width="12.5" height="12.5"/><rect class="cls-80" x="1081.75" y="31.09" width="12.5" height="12.5"/><rect class="cls-81" x="1097.17" y="31.09" width="12.5" height="12.5"/><rect class="cls-82" x="1112.59" y="31.09" width="12.5" height="12.5"/><rect class="cls-83" x="1128.01" y="31.09" width="12.5" height="12.5"/><rect class="cls-84" x="1143.43" y="31.09" width="12.5" height="12.5"/><rect class="cls-85" x="1081.75" y="16.09" width="12.5" height="12.5"/><rect class="cls-86" x="1097.17" y="16.09" width="12.5" height="12.5"/><rect class="cls-87" x="1081.75" y="76.09" width="12.5" height="12.5"/><rect class="cls-88" x="1097.17" y="76.09" width="12.5" height="12.5"/><rect class="cls-89" x="1112.59" y="76.09" width="12.5" height="12.5"/><rect class="cls-90" x="1128.01" y="76.09" width="12.5" height="12.5"/><rect class="cls-91" x="1143.43" y="76.09" width="12.5" height="12.5"/><rect class="cls-87" x="1097.1" y="90.98" width="12.5" height="12.5"/><rect class="cls-87" x="1112.52" y="90.98" width="12.5" height="12.5"/><rect class="cls-87" x="1127.94" y="90.98" width="12.5" height="12.5"/><rect class="cls-87" x="1143.36" y="90.98" width="12.5" height="12.5"/><rect class="cls-87" x="1158.78" y="90.66" width="12.5" height="12.5"/><rect class="cls-87" x="1174.2" y="90.66" width="12.5" height="12.5"/><rect class="cls-87" x="1189.63" y="90.33" width="12.5" height="12.5"/><rect class="cls-87" x="1205.12" y="90.33" width="12.5" height="12.5"/><rect class="cls-87" x="1220.6" y="90.49" width="12.5" height="12.5"/><rect class="cls-87" x="1236.03" y="90.17" width="12.5" height="12.5"/><rect class="cls-87" x="1050.9" y="90.98" width="12.5" height="12.5"/><rect class="cls-87" x="1066.32" y="90.98" width="12.5" height="12.5"/><rect class="cls-87" x="1081.75" y="90.98" width="12.5" height="12.5"/><rect class="cls-87" x="1174.27" y="76.34" width="12.5" height="12.5"/><rect class="cls-87" x="1189.69" y="76.01" width="12.5" height="12.5"/><rect class="cls-87" x="1205.18" y="76.01" width="12.5" height="12.5"/><rect class="cls-87" x="1220.67" y="76.17" width="12.5" height="12.5"/><rect class="cls-87" x="1236.09" y="75.85" width="12.5" height="12.5"/><rect class="cls-87" x="1050.9" y="16.09" width="12.5" height="12.5"/><rect class="cls-87" x="1066.32" y="16.09" width="12.5" height="12.5"/><rect class="cls-87" x="1050.9" y="31.09" width="12.5" height="12.5"/><rect class="cls-87" x="1066.32" y="31.09" width="12.5" height="12.5"/><rect class="cls-87" x="1050.9" y="46.09" width="12.5" height="12.5"/><rect class="cls-87" x="1066.32" y="46.09" width="12.5" height="12.5"/><rect class="cls-87" x="1050.9" y="61.09" width="12.5" height="12.5"/><rect class="cls-87" x="1066.32" y="61.09" width="12.5" height="12.5"/><rect class="cls-87" x="1050.9" y="76.09" width="12.5" height="12.5"/><rect class="cls-87" x="1066.32" y="76.09" width="12.5" height="12.5"/><rect class="cls-87" x="1112.59" y="16.5" width="12.5" height="12.5"/><rect class="cls-87" x="1128.01" y="16.5" width="12.5" height="12.5"/><rect class="cls-87" x="1143.43" y="16.5" width="12.5" height="12.5"/><rect class="cls-87" x="1158.85" y="16.17" width="12.5" height="12.5"/><rect class="cls-87" x="1174.27" y="16.17" width="12.5" height="12.5"/><rect class="cls-87" x="1189.69" y="15.85" width="12.5" height="12.5"/><rect class="cls-87" x="1205.18" y="15.85" width="12.5" height="12.5"/><rect class="cls-87" x="1220.67" y="16.01" width="12.5" height="12.5"/><rect class="cls-87" x="1236.09" y="15.69" width="12.5" height="12.5"/><rect class="cls-87" x="1158.85" y="31.34" width="12.5" height="12.5"/><rect class="cls-87" x="1174.27" y="31.34" width="12.5" height="12.5"/><rect class="cls-87" x="1189.69" y="31.01" width="12.5" height="12.5"/><rect class="cls-87" x="1205.18" y="31.01" width="12.5" height="12.5"/><rect class="cls-87" x="1220.67" y="31.17" width="12.5" height="12.5"/><rect class="cls-87" x="1236.09" y="30.85" width="12.5" height="12.5"/><rect class="cls-92" x="1220.6" y="60.44" width="12.5" height="12.5"/><rect class="cls-87" x="1236.09" y="60.44" width="12.5" height="12.5"/><rect class="cls-87" x="1205.12" y="45.77" width="12.5" height="12.5"/><rect class="cls-87" x="1220.6" y="45.93" width="12.5" height="12.5"/><rect class="cls-87" x="1236.03" y="45.6" width="12.5" height="12.5"/><rect class="cls-87" x="1097.1" y="1.32" width="12.5" height="12.5"/><rect class="cls-87" x="1112.52" y="1.32" width="12.5" height="12.5"/><rect class="cls-87" x="1127.94" y="1.32" width="12.5" height="12.5"/><rect class="cls-87" x="1143.36" y="1.32" width="12.5" height="12.5"/><rect class="cls-87" x="1158.78" y="0.99" width="12.5" height="12.5"/><rect class="cls-87" x="1174.2" y="0.99" width="12.5" height="12.5"/><rect class="cls-87" x="1189.63" y="0.66" width="12.5" height="12.5"/><rect class="cls-87" x="1205.12" y="0.66" width="12.5" height="12.5"/><rect class="cls-87" x="1220.6" y="0.83" width="12.5" height="12.5"/><rect class="cls-87" x="1236.03" y="0.5" width="12.5" height="12.5"/><rect class="cls-87" x="1050.9" y="1.32" width="12.5" height="12.5"/><rect class="cls-87" x="1066.32" y="1.32" width="12.5" height="12.5"/><rect class="cls-87" x="1081.75" y="1.32" width="12.5" height="12.5"/><text class="cls-2" transform="translate(1113.2 126.97)">Displ<tspan class="cls-93" x="50.42" y="0">a</tspan><tspan x="61.8" y="0">y</tspan></text><line class="cls-30" x1="1005.57" y1="35.99" x2="1045.46" y2="35.99"/><path class="cls-31" d="M1074.71,41.92c-8.52,3.16-19.09,8.56-25.64,14.27l5.16-14.27-5.16-14.26C1055.62,33.37,1066.19,38.76,1074.71,41.92Z" transform="translate(-11.14 -5.93)"/><rect class="cls-94" x="748.08" y="154.13" width="12.5" height="12.5"/><rect class="cls-95" x="1158.85" y="76.09" width="12.5" height="12.5"/><rect class="cls-33" x="547.28" y="154.13" width="12.5" height="12.5"/></svg>