<svg id="Layer_1" data-name="Layer 1" xmlns="http://www.w3.org/2000/svg" viewBox="0 0 815.68 297.43"><defs><style>.cls-1,.cls-31{fill:#fff;}.cls-2,.cls-29,.cls-3,.cls-30,.cls-33,.cls-4{fill:none;}.cls-2,.cls-3,.cls-4{stroke:#6d6e71;}.cls-17,.cls-2,.cls-23,.cls-29,.cls-3,.cls-30,.cls-31,.cls-33,.cls-4{stroke-miterlimit:10;}.cls-17,.cls-2,.cls-23,.cls-29,.cls-3,.cls-4{stroke-width:2px;}.cls-3{stroke-dasharray:11.9 11.9;}.cls-4{stroke-dasharray:9.6 9.6;}.cls-5{font-size:20px;}.cls-18,.cls-23,.cls-32,.cls-5{fill:#231f20;}.cls-18,.cls-5{font-family:MyriadPro-Regular, Myriad Pro;}.cls-6{letter-spacing:-0.03em;}.cls-7{letter-spacing:0.02em;}.cls-8{letter-spacing:-0.01em;}.cls-9{letter-spacing:0em;}.cls-10{letter-spacing:0em;}.cls-11{letter-spacing:-0.02em;}.cls-12{letter-spacing:-0.01em;}.cls-13{letter-spacing:0.01em;}.cls-14{letter-spacing:0em;}.cls-15{letter-spacing:0em;}.cls-16{letter-spacing:0em;}.cls-17{fill:#00aeef;}.cls-17,.cls-23,.cls-29,.cls-31,.cls-33{stroke:#231f20;}.cls-18{font-size:24px;}.cls-19{letter-spacing:-0.03em;}.cls-20{letter-spacing:0.02em;}.cls-21{letter-spacing:-0.01em;}.cls-22{letter-spacing:0em;}.cls-24{letter-spacing:-0.03em;}.cls-25{letter-spacing:0em;}.cls-26{letter-spacing:-0.01em;}.cls-27{letter-spacing:0em;}.cls-28{letter-spacing:0em;}.cls-30{stroke:#939598;}.cls-31,.cls-33{stroke-width:3px;}</style></defs><title>webgl-volume-raycast-pipeline</title><rect class="cls-1" x="304.94" y="6.12" width="166.67" height="60"/><polyline class="cls-2" points="471.61 60.12 471.61 66.12 465.61 66.12"/><line class="cls-3" x1="453.71" y1="66.12" x2="316.89" y2="66.12"/><polyline class="cls-2" points="310.94 66.12 304.94 66.12 304.94 60.12"/><line class="cls-4" x1="304.94" y1="50.52" x2="304.94" y2="16.92"/><polyline class="cls-2" points="304.94 12.12 304.94 6.12 310.94 6.12"/><line class="cls-3" x1="322.84" y1="6.12" x2="459.66" y2="6.12"/><polyline class="cls-2" points="465.61 6.12 471.61 6.12 471.61 12.12"/><line class="cls-4" x1="471.61" y1="21.72" x2="471.61" y2="55.32"/><text class="cls-5" transform="translate(313.83 28.77)"><tspan class="cls-6">V</tspan><tspan x="10.5" y="0">e</tspan><tspan class="cls-7" x="20.52" y="0">r</tspan><tspan class="cls-8" x="27.54" y="0">t</tspan><tspan class="cls-9" x="34.04" y="0">e</tspan><tspan class="cls-10" x="44" y="0">x </tspan><tspan class="cls-11" x="57.5" y="0">P</tspan><tspan class="cls-12" x="67.82" y="0">r</tspan><tspan x="74.16" y="0">o</tspan><tspan class="cls-8" x="85.14" y="0">c</tspan><tspan x="93.98" y="0">essing</tspan><tspan x="11.29" y="24">&amp; </tspan><tspan class="cls-13" x="27.63" y="24">R</tspan><tspan class="cls-10" x="38.63" y="24">as</tspan><tspan class="cls-8" x="56.19" y="24">t</tspan><tspan class="cls-14" x="62.69" y="24">e</tspan><tspan class="cls-15" x="72.71" y="24">r</tspan><tspan x="79.33" y="24">iz</tspan><tspan class="cls-16" x="92.57" y="24">a</tspan><tspan class="cls-14" x="102.13" y="24">tion</tspan></text><rect class="cls-17" x="1" y="6.12" width="180" height="60"/><text class="cls-18" transform="translate(21.44 43.17)"><tspan class="cls-19">V</tspan><tspan x="12.6" y="0">e</tspan><tspan class="cls-20" x="24.62" y="0">r</tspan><tspan class="cls-21" x="33.05" y="0">t</tspan><tspan class="cls-22" x="40.85" y="0">e</tspan><tspan x="52.8" y="0">x Shader</tspan></text><ellipse class="cls-23" cx="91.8" cy="128.79" rx="11.17" ry="11.29"/><ellipse class="cls-23" cx="130.34" cy="144.12" rx="11.17" ry="11.29"/><ellipse class="cls-23" cx="80.16" cy="87.31" rx="11.17" ry="11.29"/><ellipse class="cls-23" cx="133.55" cy="96.43" rx="11.17" ry="11.29"/><ellipse class="cls-23" cx="99.65" cy="179.21" rx="11.17" ry="11.29"/><ellipse class="cls-23" cx="35.08" cy="105.54" rx="11.17" ry="11.29"/><ellipse class="cls-23" cx="51.57" cy="153.92" rx="11.17" ry="11.29"/><rect class="cls-17" x="595.56" y="6.12" width="180" height="60"/><text class="cls-18" transform="translate(599.53 43.17)"><tspan class="cls-24">F</tspan><tspan class="cls-25" x="11.06" y="0">r</tspan><tspan x="18.79" y="0">a</tspan><tspan class="cls-26" x="30.36" y="0">g</tspan><tspan class="cls-27" x="43.63" y="0">me</tspan><tspan class="cls-28" x="75.67" y="0">n</tspan><tspan x="88.9" y="0">t Shader</tspan></text><ellipse class="cls-23" cx="399.59" cy="224.5" rx="11.17" ry="11.29"/><ellipse class="cls-23" cx="479.02" cy="230.94" rx="11.17" ry="11.29"/><ellipse class="cls-23" cx="360.4" cy="86.58" rx="11.17" ry="11.29"/><polygon class="cls-29" points="479.02 230.34 360.4 86.58 397.8 222.69 479.02 230.34"/><ellipse class="cls-23" cx="442.67" cy="94.81" rx="11.17" ry="11.29"/><polygon class="cls-29" points="361.45 87.17 480.08 230.93 442.67 94.81 361.45 87.17"/><ellipse class="cls-23" cx="444.33" cy="285.14" rx="11.17" ry="11.29"/><polygon class="cls-29" points="401.38 223.9 443.87 285.15 482.6 231.54 401.38 223.9"/><polygon class="cls-29" points="443.27 283.95 400.78 222.69 362.05 276.3 443.27 283.95"/><polygon class="cls-29" points="296.09 123.12 397.8 222.69 360.44 88.48 296.09 123.12"/><polygon class="cls-29" points="397.8 223.6 296.09 123.12 362.64 277.21 397.8 223.6"/><ellipse class="cls-23" cx="297.53" cy="123.92" rx="11.17" ry="11.29"/><ellipse class="cls-23" cx="360.7" cy="275.41" rx="11.17" ry="11.29"/><rect class="cls-30" x="379.59" y="131.3" width="12.5" height="12.5"/><rect class="cls-30" x="394.99" y="131.3" width="12.5" height="12.5"/><rect class="cls-30" x="410.38" y="131.3" width="12.5" height="12.5"/><rect class="cls-30" x="425.78" y="131.3" width="12.5" height="12.5"/><rect class="cls-30" x="441.18" y="131.3" width="12.5" height="12.5"/><rect class="cls-30" x="302.61" y="131.3" width="12.5" height="12.5"/><rect class="cls-30" x="318.01" y="131.3" width="12.5" height="12.5"/><rect class="cls-30" x="333.4" y="131.3" width="12.5" height="12.5"/><rect class="cls-30" x="348.8" y="131.3" width="12.5" height="12.5"/><rect class="cls-30" x="364.2" y="131.3" width="12.5" height="12.5"/><rect class="cls-30" x="379.59" y="115.35" width="12.5" height="12.5"/><rect class="cls-30" x="394.99" y="115.35" width="12.5" height="12.5"/><rect class="cls-30" x="410.38" y="115.35" width="12.5" height="12.5"/><rect class="cls-30" x="425.78" y="115.35" width="12.5" height="12.5"/><rect class="cls-30" x="441.18" y="115.35" width="12.5" height="12.5"/><rect class="cls-30" x="302.61" y="115.35" width="12.5" height="12.5"/><rect class="cls-30" x="318.01" y="115.35" width="12.5" height="12.5"/><rect class="cls-30" x="333.4" y="115.35" width="12.5" height="12.5"/><rect class="cls-30" x="348.8" y="115.35" width="12.5" height="12.5"/><rect class="cls-30" x="364.2" y="115.35" width="12.5" height="12.5"/><rect class="cls-30" x="379.59" y="99.4" width="12.5" height="12.5"/><rect class="cls-30" x="394.99" y="99.4" width="12.5" height="12.5"/><rect class="cls-30" x="410.38" y="99.4" width="12.5" height="12.5"/><rect class="cls-30" x="425.78" y="99.4" width="12.5" height="12.5"/><rect class="cls-30" x="318.01" y="99.4" width="12.5" height="12.5"/><rect class="cls-30" x="333.4" y="99.4" width="12.5" height="12.5"/><rect class="cls-30" x="348.8" y="99.4" width="12.5" height="12.5"/><rect class="cls-30" x="364.2" y="99.4" width="12.5" height="12.5"/><rect class="cls-30" x="379.59" y="83.44" width="12.5" height="12.5"/><rect class="cls-30" x="394.99" y="83.44" width="12.5" height="12.5"/><rect class="cls-30" x="348.8" y="83.44" width="12.5" height="12.5"/><rect class="cls-30" x="364.2" y="83.44" width="12.5" height="12.5"/><rect class="cls-30" x="379.59" y="211.06" width="12.5" height="12.5"/><rect class="cls-30" x="394.99" y="211.06" width="12.5" height="12.5"/><rect class="cls-30" x="410.38" y="211.06" width="12.5" height="12.5"/><rect class="cls-30" x="425.78" y="211.06" width="12.5" height="12.5"/><rect class="cls-30" x="441.18" y="211.06" width="12.5" height="12.5"/><rect class="cls-30" x="456.57" y="211.06" width="12.5" height="12.5"/><rect class="cls-30" x="333.4" y="211.06" width="12.5" height="12.5"/><rect class="cls-30" x="348.8" y="211.06" width="12.5" height="12.5"/><rect class="cls-30" x="364.2" y="211.06" width="12.5" height="12.5"/><rect class="cls-30" x="379.59" y="195.11" width="12.5" height="12.5"/><rect class="cls-30" x="394.99" y="195.11" width="12.5" height="12.5"/><rect class="cls-30" x="410.38" y="195.11" width="12.5" height="12.5"/><rect class="cls-30" x="425.78" y="195.11" width="12.5" height="12.5"/><rect class="cls-30" x="441.18" y="195.11" width="12.5" height="12.5"/><rect class="cls-30" x="456.57" y="195.11" width="12.5" height="12.5"/><rect class="cls-30" x="333.4" y="195.11" width="12.5" height="12.5"/><rect class="cls-30" x="348.8" y="195.11" width="12.5" height="12.5"/><rect class="cls-30" x="364.2" y="195.11" width="12.5" height="12.5"/><rect class="cls-30" x="379.59" y="179.16" width="12.5" height="12.5"/><rect class="cls-30" x="394.99" y="179.16" width="12.5" height="12.5"/><rect class="cls-30" x="410.38" y="179.16" width="12.5" height="12.5"/><rect class="cls-30" x="425.78" y="179.16" width="12.5" height="12.5"/><rect class="cls-30" x="441.18" y="179.16" width="12.5" height="12.5"/><rect class="cls-30" x="456.57" y="179.16" width="12.5" height="12.5"/><rect class="cls-30" x="318.01" y="179.16" width="12.5" height="12.5"/><rect class="cls-30" x="333.4" y="179.16" width="12.5" height="12.5"/><rect class="cls-30" x="348.8" y="179.16" width="12.5" height="12.5"/><rect class="cls-30" x="364.2" y="179.16" width="12.5" height="12.5"/><rect class="cls-30" x="379.59" y="163.2" width="12.5" height="12.5"/><rect class="cls-30" x="394.99" y="163.2" width="12.5" height="12.5"/><rect class="cls-30" x="410.38" y="163.2" width="12.5" height="12.5"/><rect class="cls-30" x="425.78" y="163.2" width="12.5" height="12.5"/><rect class="cls-30" x="441.18" y="163.2" width="12.5" height="12.5"/><rect class="cls-30" x="456.57" y="163.2" width="12.5" height="12.5"/><rect class="cls-30" x="318.01" y="163.2" width="12.5" height="12.5"/><rect class="cls-30" x="333.4" y="163.2" width="12.5" height="12.5"/><rect class="cls-30" x="348.8" y="163.2" width="12.5" height="12.5"/><rect class="cls-30" x="364.2" y="163.2" width="12.5" height="12.5"/><rect class="cls-30" x="379.59" y="147.25" width="12.5" height="12.5"/><rect class="cls-30" x="394.99" y="147.25" width="12.5" height="12.5"/><rect class="cls-30" x="410.38" y="147.25" width="12.5" height="12.5"/><rect class="cls-30" x="425.78" y="147.25" width="12.5" height="12.5"/><rect class="cls-30" x="441.18" y="147.25" width="12.5" height="12.5"/><rect class="cls-30" x="302.61" y="147.25" width="12.5" height="12.5"/><rect class="cls-30" x="318.01" y="147.25" width="12.5" height="12.5"/><rect class="cls-30" x="333.4" y="147.25" width="12.5" height="12.5"/><rect class="cls-30" x="348.8" y="147.25" width="12.5" height="12.5"/><rect class="cls-30" x="364.2" y="147.25" width="12.5" height="12.5"/><rect class="cls-30" x="394.99" y="274.87" width="12.5" height="12.5"/><rect class="cls-30" x="410.38" y="274.87" width="12.5" height="12.5"/><rect class="cls-30" x="425.78" y="274.87" width="12.5" height="12.5"/><rect class="cls-30" x="441.18" y="274.87" width="12.5" height="12.5"/><rect class="cls-30" x="379.59" y="258.92" width="12.5" height="12.5"/><rect class="cls-30" x="394.99" y="258.92" width="12.5" height="12.5"/><rect class="cls-30" x="410.38" y="258.92" width="12.5" height="12.5"/><rect class="cls-30" x="425.78" y="258.92" width="12.5" height="12.5"/><rect class="cls-30" x="441.18" y="258.92" width="12.5" height="12.5"/><rect class="cls-30" x="364.2" y="258.92" width="12.5" height="12.5"/><rect class="cls-30" x="379.59" y="242.97" width="12.5" height="12.5"/><rect class="cls-30" x="394.99" y="242.97" width="12.5" height="12.5"/><rect class="cls-30" x="410.38" y="242.97" width="12.5" height="12.5"/><rect class="cls-30" x="425.78" y="242.97" width="12.5" height="12.5"/><rect class="cls-30" x="441.18" y="242.97" width="12.5" height="12.5"/><rect class="cls-30" x="456.57" y="242.97" width="12.5" height="12.5"/><rect class="cls-30" x="348.8" y="242.97" width="12.5" height="12.5"/><rect class="cls-30" x="364.2" y="242.97" width="12.5" height="12.5"/><rect class="cls-30" x="379.59" y="227.01" width="12.5" height="12.5"/><rect class="cls-30" x="394.99" y="227.01" width="12.5" height="12.5"/><rect class="cls-30" x="410.38" y="227.01" width="12.5" height="12.5"/><rect class="cls-30" x="425.78" y="227.01" width="12.5" height="12.5"/><rect class="cls-30" x="441.18" y="227.01" width="12.5" height="12.5"/><rect class="cls-30" x="456.57" y="227.01" width="12.5" height="12.5"/><rect class="cls-30" x="471.97" y="227.01" width="12.5" height="12.5"/><rect class="cls-30" x="348.8" y="227.01" width="12.5" height="12.5"/><rect class="cls-30" x="364.2" y="227.01" width="12.5" height="12.5"/><polyline class="cls-31" points="776.92 134.9 813.61 175.59 777.09 212.14"/><ellipse class="cls-31" cx="806.86" cy="187.1" rx="12.99" ry="13.48" transform="translate(-8.07 376.72) rotate(-27.15)"/><ellipse class="cls-23" cx="670.73" cy="224.5" rx="11.17" ry="11.29"/><ellipse class="cls-23" cx="750.16" cy="230.94" rx="11.17" ry="11.29"/><ellipse class="cls-23" cx="631.54" cy="86.58" rx="11.17" ry="11.29"/><polygon class="cls-29" points="750.16 230.34 631.53 86.58 668.94 222.69 750.16 230.34"/><ellipse class="cls-23" cx="713.81" cy="94.81" rx="11.17" ry="11.29"/><polygon class="cls-29" points="632.59 87.17 751.22 230.93 713.81 94.81 632.59 87.17"/><ellipse class="cls-23" cx="715.46" cy="285.14" rx="11.17" ry="11.29"/><polygon class="cls-29" points="672.51 223.9 715 285.15 753.74 231.54 672.51 223.9"/><polygon class="cls-29" points="714.41 283.95 671.92 222.69 633.19 276.3 714.41 283.95"/><polygon class="cls-29" points="567.23 123.12 668.94 222.69 631.58 88.48 567.23 123.12"/><polygon class="cls-29" points="668.94 223.6 567.23 123.12 633.78 277.21 668.94 223.6"/><ellipse class="cls-23" cx="568.67" cy="123.92" rx="11.17" ry="11.29"/><ellipse class="cls-23" cx="631.83" cy="275.41" rx="11.17" ry="11.29"/><rect class="cls-30" x="650.73" y="131.3" width="12.5" height="12.5"/><line class="cls-29" x1="782.18" y1="174.99" x2="668.55" y2="141.01"/><path class="cls-32" d="M668.58,149.65c6-.39,13.82-1.82,19.1-4.21l-6,8.12.57,10.1C679.14,158.76,673.41,153.3,668.58,149.65Z" transform="translate(-11.6 -12.1)"/><line class="cls-33" x1="464.8" y1="14.26" x2="584.63" y2="14.26"/><path class="cls-32" d="M614.33,26.37c-8.52,3.16-19.09,8.55-25.64,14.26l5.16-14.26L588.69,12.1C595.24,17.82,605.81,23.21,614.33,26.37Z" transform="translate(-11.6 -12.1)"/><line class="cls-33" x1="172.47" y1="14.26" x2="292.3" y2="14.26"/><path class="cls-32" d="M322,26.37c-8.52,3.16-19.09,8.55-25.64,14.26l5.16-14.26L296.36,12.1C302.91,17.82,313.48,23.21,322,26.37Z" transform="translate(-11.6 -12.1)"/></svg>