<?xml version="1.0" encoding="utf-8"?>
<!-- Generator: Adobe Illustrator 23.1.0, SVG Export Plug-In . SVG Version: 6.00 Build 0)  -->
<svg version="1.1" id="Layer_1" xmlns="http://www.w3.org/2000/svg" xmlns:xlink="http://www.w3.org/1999/xlink" x="0px" y="0px"
	 viewBox="0 0 800 313.3" style="enable-background:new 0 0 800 313.3;" xml:space="preserve">
<style type="text/css">
	.st0{fill:none;stroke:#000000;}
	.st1{font-family:'ArialMT';}
	.st2{font-size:8.9746px;}
	.st3{fill:#66C2A5;stroke:#000000;stroke-width:2;}
	.st4{enable-background:new    ;}
	.st5{fill:#FC8D62;stroke:#000000;stroke-width:2;}
	.st6{fill:#8DA0CB;stroke:#000000;stroke-width:2;}
	.st7{fill:none;stroke:#000000;stroke-width:2;stroke-miterlimit:10;}
	.st8{fill:#FFFFFF;stroke:#000000;stroke-width:2;}
	.st9{fill:#ADD8E6;fill-opacity:0.5;stroke:#0000FF;stroke-width:2;}
	.st10{fill:#90EE90;fill-opacity:0.5;stroke:#008000;stroke-width:2;}
	.st11{fill:#66C2A5;stroke:#808080;stroke-width:1.5;stroke-miterlimit:10;}
	.st12{fill:#FC8D62;stroke:#808080;stroke-width:1.5;stroke-miterlimit:10;}
	.st13{fill:#8DA0CB;stroke:#808080;stroke-width:1.5;stroke-miterlimit:10;}
</style>
<g>
	<g transform="translate(0, 94)">
		<path class="st0" d="M14.1-2.9v-4.9h770"/>
		<g transform="translate(0.5,0)">
			<line class="st0" x1="13.6" y1="-8.3" x2="13.6" y2="-2.9"/>
			<text transform="matrix(1 0 0 1 11.1139 6.1595)" class="st1 st2">0</text>
		</g>
		<g transform="translate(78.5,0)">
			<line class="st0" x1="5.6" y1="-8.3" x2="5.6" y2="-2.9"/>
			<text transform="matrix(1 0 0 1 0.6203 6.1595)" class="st1 st2">32</text>
		</g>
		<g transform="translate(156.5,0)">
			<line class="st0" x1="-2.4" y1="-8.3" x2="-2.4" y2="-2.9"/>
			<text transform="matrix(1 0 0 1 -7.3783 6.1595)" class="st1 st2">64</text>
		</g>
		<g transform="translate(234.5,0)">
			<line class="st0" x1="-10.4" y1="-8.3" x2="-10.4" y2="-2.9"/>
			<text transform="matrix(1 0 0 1 -15.3768 6.1595)" class="st1 st2">96</text>
		</g>
		<g transform="translate(312.5,0)">
			<line class="st0" x1="-18.4" y1="-8.3" x2="-18.4" y2="-2.9"/>
			<text transform="matrix(1 0 0 1 -25.8704 6.1595)" class="st1 st2">128</text>
		</g>
		<g transform="translate(390.5,0)">
			<line class="st0" x1="-26.4" y1="-8.3" x2="-26.4" y2="-2.9"/>
			<text transform="matrix(1 0 0 1 -33.8695 6.1595)" class="st1 st2">160</text>
		</g>
		<g transform="translate(468.5,0)">
			<line class="st0" x1="-34.4" y1="-8.3" x2="-34.4" y2="-2.9"/>
			<text transform="matrix(1 0 0 1 -41.8675 6.1595)" class="st1 st2">192</text>
		</g>
		<g transform="translate(546.5,0)">
			<line class="st0" x1="-42.4" y1="-8.3" x2="-42.4" y2="-2.9"/>
			<text transform="matrix(1 0 0 1 -49.8656 6.1595)" class="st1 st2">224</text>
		</g>
		<g transform="translate(624.5,0)">
			<line class="st0" x1="-50.4" y1="-8.3" x2="-50.4" y2="-2.9"/>
			<text transform="matrix(1 0 0 1 -57.8646 6.1595)" class="st1 st2">256</text>
		</g>
		<g transform="translate(702.5,0)">
			<line class="st0" x1="-58.4" y1="-8.3" x2="-58.4" y2="-2.9"/>
			<text transform="matrix(1 0 0 1 -65.8626 6.1595)" class="st1 st2">288</text>
		</g>
		<g transform="translate(780.5,0)">
			<line class="st0" x1="-66.4" y1="-8.3" x2="-66.4" y2="-2.9"/>
			<text transform="matrix(1 0 0 1 -73.8607 6.1595)" class="st1 st2">320</text>
		</g>
		<g transform="translate(858.5,0)">
			<line class="st0" x1="-74.4" y1="-8.3" x2="-74.4" y2="-2.9"/>
			<text transform="matrix(1 0 0 1 -81.8597 6.1595)" class="st1 st2">352</text>
		</g>
	</g>
	<rect x="13.7" y="28.3" class="st3" width="70" height="57.4"/>
	<g class="st4">
		<path d="M21.4,57v-7.7h1v3.2h4v-3.2h1V57h-1v-3.6h-4V57H21.4z"/>
		<path d="M32.8,54v-0.9h3.3V56c-0.5,0.4-1,0.7-1.6,0.9c-0.5,0.2-1.1,0.3-1.6,0.3c-0.8,0-1.4-0.2-2.1-0.5s-1.1-0.8-1.4-1.4
			s-0.5-1.3-0.5-2.1s0.2-1.5,0.5-2.1s0.8-1.1,1.4-1.4s1.3-0.5,2-0.5c0.6,0,1.1,0.1,1.5,0.3c0.5,0.2,0.8,0.4,1.1,0.8
			c0.3,0.3,0.5,0.7,0.6,1.3l-1,0.1c-0.1-0.4-0.3-0.7-0.4-0.9c-0.2-0.2-0.4-0.4-0.7-0.5s-0.7-0.2-1.1-0.2c-0.5,0-0.9,0.1-1.2,0.2
			c-0.3,0.1-0.6,0.3-0.8,0.6s-0.4,0.5-0.5,0.8c-0.2,0.5-0.3,1-0.3,1.6c0,0.7,0.1,1.3,0.4,1.7c0.2,0.5,0.6,0.8,1,1
			c0.5,0.2,0.9,0.3,1.4,0.3c0.4,0,0.9-0.1,1.3-0.3c0.4-0.2,0.7-0.4,1-0.5V54H32.8z"/>
		<path d="M40.5,57v-7.7h2.9c0.5,0,0.9,0,1.2,0.1c0.4,0.1,0.7,0.2,1,0.4s0.5,0.4,0.6,0.7c0.2,0.3,0.2,0.7,0.2,1.1
			c0,0.7-0.2,1.2-0.6,1.7c-0.4,0.5-1.2,0.7-2.3,0.7h-2v3H40.5z M41.5,52.9h2c0.7,0,1.1-0.1,1.4-0.4c0.3-0.2,0.4-0.6,0.4-1
			c0-0.3-0.1-0.6-0.2-0.8s-0.4-0.4-0.6-0.5c-0.2,0-0.5-0.1-1-0.1h-2C41.5,50.1,41.5,52.9,41.5,52.9z"/>
		<path d="M47.6,57v-5.6h0.9v0.8c0.2-0.4,0.4-0.7,0.6-0.8s0.4-0.2,0.6-0.2c0.3,0,0.6,0.1,1,0.3l-0.3,0.9c-0.2-0.1-0.5-0.2-0.7-0.2
			s-0.4,0.1-0.6,0.2c-0.2,0.1-0.3,0.3-0.4,0.5c-0.1,0.3-0.2,0.7-0.2,1.1v3H47.6z"/>
		<path d="M51.2,50.4v-1.1h0.9v1.1H51.2z M51.2,57v-5.6h0.9V57H51.2z"/>
		<path d="M53.6,57v-5.6h0.8v0.8c0.2-0.3,0.4-0.5,0.7-0.7s0.6-0.3,1-0.3s0.8,0.1,1,0.3s0.5,0.4,0.6,0.7c0.4-0.7,1-1,1.7-1
			c0.6,0,1,0.2,1.3,0.5s0.4,0.8,0.4,1.4V57h-0.9v-3.5c0-0.4,0-0.7-0.1-0.8c-0.1-0.2-0.2-0.3-0.3-0.4c-0.2-0.1-0.4-0.2-0.6-0.2
			c-0.4,0-0.7,0.1-1,0.4c-0.3,0.3-0.4,0.7-0.4,1.3V57h-0.9v-3.6c0-0.4-0.1-0.7-0.2-0.9c-0.2-0.2-0.4-0.3-0.8-0.3
			c-0.3,0-0.5,0.1-0.7,0.2c-0.2,0.1-0.4,0.3-0.5,0.6s-0.2,0.7-0.2,1.2V57H53.6z"/>
		<path d="M66.2,56.3c-0.4,0.3-0.7,0.5-1,0.6s-0.7,0.2-1,0.2c-0.6,0-1.1-0.1-1.4-0.4s-0.5-0.7-0.5-1.1c0-0.3,0.1-0.5,0.2-0.7
			c0.1-0.2,0.3-0.4,0.5-0.5s0.4-0.2,0.7-0.3c0.2,0,0.5-0.1,0.8-0.1c0.8-0.1,1.3-0.2,1.7-0.3c0-0.1,0-0.2,0-0.2
			c0-0.4-0.1-0.7-0.3-0.8c-0.2-0.2-0.6-0.3-1.1-0.3c-0.4,0-0.8,0.1-1,0.2s-0.4,0.4-0.5,0.8L62.4,53c0.1-0.4,0.2-0.7,0.4-1
			c0.2-0.2,0.5-0.4,0.8-0.6s0.8-0.2,1.3-0.2s0.9,0.1,1.2,0.2c0.3,0.1,0.5,0.3,0.7,0.4c0.1,0.2,0.2,0.4,0.3,0.6c0,0.2,0,0.5,0,0.9
			v1.3c0,0.9,0,1.4,0.1,1.7c0,0.2,0.1,0.5,0.2,0.7h-1C66.3,56.8,66.2,56.6,66.2,56.3z M66.1,54.2c-0.3,0.1-0.9,0.3-1.5,0.4
			c-0.4,0.1-0.7,0.1-0.8,0.2c-0.2,0.1-0.3,0.2-0.4,0.3c-0.1,0.1-0.1,0.3-0.1,0.4c0,0.3,0.1,0.5,0.3,0.6c0.2,0.2,0.5,0.3,0.8,0.3
			c0.4,0,0.7-0.1,1-0.2c0.3-0.2,0.5-0.4,0.6-0.7c0.1-0.2,0.2-0.5,0.2-0.9L66.1,54.2L66.1,54.2z"/>
		<path d="M68.5,57v-5.6h0.9v0.8c0.2-0.4,0.4-0.7,0.6-0.8s0.4-0.2,0.6-0.2c0.3,0,0.6,0.1,1,0.3l-0.3,0.9c-0.2-0.1-0.5-0.2-0.7-0.2
			s-0.4,0.1-0.6,0.2c-0.2,0.1-0.3,0.3-0.4,0.5c-0.1,0.3-0.2,0.7-0.2,1.1v3H68.5z"/>
		<path d="M72.1,59.1L72,58.3c0.2,0.1,0.4,0.1,0.5,0.1c0.2,0,0.4,0,0.5-0.1s0.2-0.2,0.3-0.3c0.1-0.1,0.2-0.3,0.3-0.7
			c0-0.1,0-0.1,0.1-0.2l-2.1-5.6h1l1.2,3.2c0.2,0.4,0.3,0.8,0.4,1.3c0.1-0.4,0.2-0.9,0.4-1.3l1.2-3.3h0.9l-2.1,5.7
			c-0.2,0.6-0.4,1-0.5,1.3c-0.2,0.3-0.4,0.5-0.6,0.7s-0.5,0.2-0.8,0.2C72.5,59.3,72.3,59.2,72.1,59.1z"/>
	</g>
	<rect x="153.7" y="28.3" class="st3" width="70" height="57.4"/>
	<g class="st4">
		<path d="M156.3,57v-7.7h1v3.2h4v-3.2h1V57h-1v-3.6h-4V57H156.3z"/>
		<path d="M167.7,54v-0.9h3.3V56c-0.5,0.4-1,0.7-1.6,0.9c-0.5,0.2-1.1,0.3-1.6,0.3c-0.8,0-1.4-0.2-2.1-0.5s-1.1-0.8-1.4-1.4
			s-0.5-1.3-0.5-2.1s0.2-1.5,0.5-2.1s0.8-1.1,1.4-1.4s1.3-0.5,2-0.5c0.6,0,1.1,0.1,1.5,0.3c0.5,0.2,0.8,0.4,1.1,0.8
			c0.3,0.3,0.5,0.7,0.6,1.3l-0.9,0.3c-0.1-0.4-0.3-0.7-0.4-0.9c-0.2-0.2-0.4-0.4-0.7-0.5s-0.7-0.2-1.1-0.2c-0.5,0-0.9,0.1-1.2,0.2
			c-0.3,0.1-0.6,0.3-0.8,0.6s-0.4,0.5-0.5,0.8c-0.2,0.5-0.3,1-0.3,1.6c0,0.7,0.1,1.3,0.4,1.7c0.2,0.5,0.6,0.8,1,1
			c0.5,0.2,0.9,0.3,1.4,0.3c0.4,0,0.9-0.1,1.3-0.3c0.4-0.2,0.7-0.4,1-0.5V54H167.7z"/>
		<path d="M175.1,53.2c0-1.3,0.3-2.3,1-3s1.6-1.1,2.7-1.1c0.7,0,1.4,0.2,1.9,0.5c0.6,0.3,1,0.8,1.3,1.4s0.4,1.3,0.4,2.1
			s-0.2,1.5-0.5,2.1s-0.8,1.1-1.3,1.4c-0.6,0.3-1.2,0.5-1.9,0.5s-1.4-0.2-1.9-0.5s-1-0.8-1.3-1.4S175.1,53.9,175.1,53.2z
			 M176.2,53.3c0,0.9,0.3,1.7,0.7,2.2c0.5,0.5,1.1,0.8,1.9,0.8c0.8,0,1.4-0.3,1.9-0.8s0.7-1.3,0.7-2.3c0-0.6-0.1-1.2-0.3-1.6
			c-0.2-0.5-0.5-0.8-0.9-1.1s-0.9-0.4-1.4-0.4c-0.7,0-1.3,0.2-1.9,0.7C176.4,51.3,176.2,52.1,176.2,53.3z"/>
		<path d="M187.3,54.9l0.9,0.1c-0.1,0.6-0.4,1.1-0.8,1.5c-0.4,0.4-0.9,0.5-1.5,0.5c-0.8,0-1.4-0.3-1.8-0.7c-0.5-0.5-0.7-1.2-0.7-2.1
			c0-0.6,0.1-1.1,0.3-1.6s0.5-0.8,0.9-1s0.9-0.3,1.3-0.3c0.6,0,1.1,0.2,1.5,0.5s0.6,0.7,0.7,1.3l-0.9,0.1c-0.1-0.4-0.2-0.7-0.5-0.8
			c-0.2-0.2-0.5-0.3-0.8-0.3c-0.5,0-0.9,0.2-1.2,0.5s-0.4,0.9-0.4,1.6c0,0.8,0.1,1.3,0.4,1.6s0.7,0.5,1.1,0.5c0.4,0,0.7-0.1,0.9-0.3
			C187.1,55.8,187.3,55.4,187.3,54.9z"/>
		<path d="M192.7,54.9l0.9,0.1c-0.1,0.6-0.4,1.1-0.8,1.5c-0.4,0.4-0.9,0.5-1.5,0.5c-0.8,0-1.4-0.3-1.8-0.7c-0.5-0.5-0.7-1.2-0.7-2.1
			c0-0.6,0.1-1.1,0.3-1.6s0.5-0.8,0.9-1s0.9-0.3,1.3-0.3c0.6,0,1.1,0.2,1.5,0.5s0.6,0.7,0.7,1.3l-0.9,0.1c-0.1-0.4-0.2-0.7-0.5-0.8
			c-0.2-0.2-0.5-0.3-0.8-0.3c-0.5,0-0.9,0.2-1.2,0.5s-0.4,0.9-0.4,1.6c0,0.8,0.1,1.3,0.4,1.6s0.7,0.5,1.1,0.5c0.4,0,0.7-0.1,0.9-0.3
			C192.5,55.8,192.6,55.4,192.7,54.9z"/>
		<path d="M194.4,57v-7.7h0.9V57H194.4z"/>
		<path d="M200.5,57v-0.8c-0.4,0.6-1,0.9-1.8,0.9c-0.3,0-0.6-0.1-0.9-0.2c-0.3-0.1-0.5-0.3-0.6-0.5s-0.2-0.4-0.3-0.7
			c0-0.2-0.1-0.5-0.1-0.9v-3.5h0.9v3.1c0,0.5,0,0.8,0.1,1s0.2,0.4,0.4,0.6c0.2,0.1,0.4,0.2,0.7,0.2s0.6-0.1,0.8-0.2
			c0.2-0.1,0.4-0.3,0.5-0.6s0.2-0.6,0.2-1.1v-3h0.9V57H200.5z"/>
		<path d="M202.5,55.3l0.9-0.1c0.1,0.4,0.2,0.7,0.4,0.9s0.6,0.3,1,0.3s0.8-0.1,1-0.3s0.3-0.4,0.3-0.6c0-0.2-0.1-0.4-0.3-0.5
			c-0.1-0.1-0.5-0.2-1-0.3c-0.7-0.2-1.2-0.3-1.4-0.5s-0.5-0.3-0.6-0.5s-0.2-0.5-0.2-0.7s0.1-0.5,0.2-0.7c0.1-0.2,0.3-0.4,0.5-0.5
			c0.1-0.1,0.3-0.2,0.6-0.3s0.5-0.1,0.8-0.1c0.4,0,0.8,0.1,1.2,0.2c0.3,0.1,0.6,0.3,0.7,0.5s0.3,0.5,0.3,0.9l-0.9,0
			c0-0.3-0.2-0.5-0.4-0.7s-0.5-0.2-0.9-0.2s-0.7,0.1-0.9,0.2c-0.2,0.1-0.3,0.3-0.3,0.5c0,0.1,0,0.2,0.1,0.3s0.2,0.2,0.4,0.3
			c0.1,0,0.4,0.1,0.8,0.2c0.7,0.2,1.1,0.3,1.4,0.4s0.5,0.3,0.6,0.5c0.2,0.2,0.2,0.5,0.2,0.8s-0.1,0.6-0.3,0.9
			c-0.2,0.3-0.4,0.5-0.8,0.6s-0.7,0.2-1.2,0.2c-0.7,0-1.3-0.2-1.7-0.5S202.6,55.9,202.5,55.3z"/>
		<path d="M208.2,50.4v-1.1h0.9v1.1H208.2z M208.2,57v-5.6h0.9V57H208.2z"/>
		<path d="M210.3,54.2c0-1,0.3-1.8,0.9-2.3c0.5-0.4,1.1-0.6,1.8-0.6c0.8,0,1.4,0.3,1.9,0.8s0.7,1.2,0.7,2.1c0,0.7-0.1,1.3-0.3,1.7
			s-0.5,0.7-0.9,1c-0.4,0.2-0.9,0.3-1.3,0.3c-0.8,0-1.4-0.3-1.9-0.8C210.5,55.9,210.3,55.1,210.3,54.2z M211.2,54.2
			c0,0.7,0.2,1.3,0.5,1.6c0.3,0.4,0.7,0.5,1.2,0.5s0.9-0.2,1.2-0.5s0.5-0.9,0.5-1.6c0-0.7-0.2-1.2-0.5-1.6c-0.3-0.4-0.7-0.5-1.2-0.5
			s-0.9,0.2-1.2,0.5C211.4,53,211.2,53.5,211.2,54.2z"/>
		<path d="M216.6,57v-5.6h0.9v0.8c0.4-0.6,1-0.9,1.8-0.9c0.3,0,0.6,0.1,0.9,0.2s0.5,0.3,0.6,0.5s0.2,0.4,0.3,0.7
			c0,0.2,0.1,0.5,0.1,0.9V57h-0.9v-3.4c0-0.4,0-0.7-0.1-0.9s-0.2-0.3-0.4-0.5c-0.2-0.1-0.4-0.2-0.7-0.2c-0.4,0-0.8,0.1-1,0.4
			c-0.3,0.3-0.4,0.7-0.4,1.5v3h-1.1V57z"/>
	</g>
	<rect x="293.7" y="28.3" class="st5" width="70" height="57.4"/>
	<g class="st4">
		<path d="M301.4,57v-7.7h1v3.2h4v-3.2h1V57h-1v-3.6h-4V57H301.4z"/>
		<path d="M312.8,54v-0.9h3.3V56c-0.5,0.4-1,0.7-1.6,0.9c-0.5,0.2-1.1,0.3-1.6,0.3c-0.8,0-1.4-0.2-2.1-0.5s-1.1-0.8-1.4-1.4
			s-0.5-1.3-0.5-2.1s0.2-1.5,0.5-2.1s0.8-1.1,1.4-1.4s1.3-0.5,2-0.5c0.6,0,1.1,0.1,1.5,0.3c0.5,0.2,0.8,0.4,1.1,0.8
			c0.3,0.3,0.5,0.7,0.6,1.3l-0.9,0.3c-0.1-0.4-0.3-0.7-0.4-0.9c-0.2-0.2-0.4-0.4-0.7-0.5c-0.3-0.1-0.7-0.2-1.1-0.2
			c-0.5,0-0.9,0.1-1.2,0.2c-0.3,0.1-0.6,0.3-0.8,0.6s-0.4,0.5-0.5,0.8c-0.2,0.5-0.3,1-0.3,1.6c0,0.7,0.1,1.3,0.4,1.7
			c0.2,0.5,0.6,0.8,1,1c0.5,0.2,0.9,0.3,1.4,0.3c0.4,0,0.9-0.1,1.3-0.3s0.7-0.4,1-0.5V54H312.8z"/>
		<path d="M320.5,57v-7.7h2.9c0.5,0,0.9,0,1.2,0.1c0.4,0.1,0.7,0.2,1,0.4s0.5,0.4,0.6,0.7c0.2,0.3,0.2,0.7,0.2,1.1
			c0,0.7-0.2,1.2-0.6,1.7s-1.2,0.7-2.3,0.7h-2v3H320.5z M321.5,52.9h2c0.7,0,1.1-0.1,1.4-0.4c0.3-0.2,0.4-0.6,0.4-1
			c0-0.3-0.1-0.6-0.2-0.8s-0.4-0.4-0.6-0.5c-0.2,0-0.5-0.1-1-0.1h-2L321.5,52.9L321.5,52.9z"/>
		<path d="M327.6,57v-5.6h0.9v0.8c0.2-0.4,0.4-0.7,0.6-0.8s0.4-0.2,0.6-0.2c0.3,0,0.6,0.1,1,0.3l-0.3,0.9c-0.2-0.1-0.5-0.2-0.7-0.2
			s-0.4,0.1-0.6,0.2c-0.2,0.1-0.3,0.3-0.4,0.5c-0.1,0.3-0.2,0.7-0.2,1.1v3H327.6z"/>
		<path d="M331.2,50.4v-1.1h0.9v1.1H331.2z M331.2,57v-5.6h0.9V57H331.2z"/>
		<path d="M333.6,57v-5.6h0.8v0.8c0.2-0.3,0.4-0.5,0.7-0.7c0.3-0.2,0.6-0.3,1-0.3s0.8,0.1,1,0.3s0.5,0.4,0.6,0.7c0.4-0.7,1-1,1.7-1
			c0.6,0,1,0.2,1.3,0.5s0.4,0.8,0.4,1.4V57h-0.9v-3.5c0-0.4,0-0.7-0.1-0.8c-0.1-0.2-0.2-0.3-0.3-0.4c-0.2-0.1-0.4-0.2-0.6-0.2
			c-0.4,0-0.7,0.1-1,0.4c-0.3,0.3-0.4,0.7-0.4,1.3V57h-0.9v-3.6c0-0.4-0.1-0.7-0.2-0.9c-0.2-0.2-0.4-0.3-0.8-0.3
			c-0.3,0-0.5,0.1-0.7,0.2c-0.2,0.1-0.4,0.3-0.5,0.6s-0.2,0.7-0.2,1.2V57H333.6z"/>
		<path d="M346.2,56.3c-0.4,0.3-0.7,0.5-1,0.6s-0.7,0.2-1,0.2c-0.6,0-1.1-0.1-1.4-0.4s-0.5-0.7-0.5-1.1c0-0.3,0.1-0.5,0.2-0.7
			s0.3-0.4,0.5-0.5s0.4-0.2,0.7-0.3c0.2,0,0.5-0.1,0.8-0.1c0.8-0.1,1.3-0.2,1.7-0.3c0-0.1,0-0.2,0-0.2c0-0.4-0.1-0.7-0.3-0.8
			c-0.2-0.2-0.6-0.3-1.1-0.3c-0.4,0-0.8,0.1-1,0.2s-0.4,0.4-0.5,0.8l-0.9-0.1c0.1-0.4,0.2-0.7,0.4-1c0.2-0.2,0.5-0.4,0.8-0.6
			s0.8-0.2,1.3-0.2s0.9,0.1,1.2,0.2c0.3,0.1,0.5,0.3,0.7,0.4c0.1,0.2,0.2,0.4,0.3,0.6c0,0.2,0,0.5,0,0.9v1.3c0,0.9,0,1.4,0.1,1.7
			c0,0.2,0.1,0.5,0.2,0.7h-1C346.3,56.8,346.2,56.6,346.2,56.3z M346.1,54.2c-0.3,0.1-0.9,0.3-1.5,0.4c-0.4,0.1-0.7,0.1-0.8,0.2
			c-0.2,0.1-0.3,0.2-0.4,0.3s-0.1,0.3-0.1,0.4c0,0.3,0.1,0.5,0.3,0.6c0.2,0.2,0.5,0.3,0.8,0.3c0.4,0,0.7-0.1,1-0.2
			c0.3-0.2,0.5-0.4,0.6-0.7c0.1-0.2,0.2-0.5,0.2-0.9v-0.4H346.1z"/>
		<path d="M348.5,57v-5.6h0.9v0.8c0.2-0.4,0.4-0.7,0.6-0.8s0.4-0.2,0.6-0.2c0.3,0,0.6,0.1,1,0.3l-0.3,0.9c-0.2-0.1-0.5-0.2-0.7-0.2
			s-0.4,0.1-0.6,0.2c-0.2,0.1-0.3,0.3-0.4,0.5c-0.1,0.3-0.2,0.7-0.2,1.1v3H348.5z"/>
		<path d="M352.1,59.1l-0.1-0.9c0.2,0.1,0.4,0.1,0.5,0.1c0.2,0,0.4,0,0.5-0.1s0.2-0.2,0.3-0.3c0.1-0.1,0.2-0.3,0.3-0.7
			c0-0.1,0-0.1,0.1-0.2l-2.1-5.6h1l1.2,3.2c0.2,0.4,0.3,0.8,0.4,1.3c0.1-0.4,0.2-0.9,0.4-1.3l1.2-3.3h0.9l-2.1,5.7
			c-0.2,0.6-0.4,1-0.5,1.3c-0.2,0.3-0.4,0.5-0.6,0.7s-0.5,0.2-0.8,0.2C352.5,59.3,352.3,59.2,352.1,59.1z"/>
	</g>
	<rect x="433.7" y="28.3" class="st5" width="70" height="57.4"/>
	<g class="st4">
		<path d="M436.3,57v-7.7h1v3.2h4v-3.2h1V57h-1v-3.6h-4V57H436.3z"/>
		<path d="M447.7,54v-0.9h3.3V56c-0.5,0.4-1,0.7-1.6,0.9s-1.1,0.3-1.6,0.3c-0.8,0-1.4-0.2-2.1-0.5c-0.6-0.3-1.1-0.8-1.4-1.4
			s-0.5-1.3-0.5-2.1s0.2-1.5,0.5-2.1s0.8-1.1,1.4-1.4s1.3-0.5,2-0.5c0.6,0,1.1,0.1,1.5,0.3s0.8,0.4,1.1,0.8c0.3,0.3,0.5,0.7,0.6,1.3
			l-0.9,0.3c-0.1-0.4-0.3-0.7-0.4-0.9c-0.2-0.2-0.4-0.4-0.7-0.5c-0.3-0.1-0.7-0.2-1.1-0.2c-0.5,0-0.9,0.1-1.2,0.2
			c-0.3,0.1-0.6,0.3-0.8,0.6c-0.2,0.2-0.4,0.5-0.5,0.8c-0.2,0.5-0.3,1-0.3,1.6c0,0.7,0.1,1.3,0.4,1.7s0.6,0.8,1,1
			c0.5,0.2,0.9,0.3,1.4,0.3c0.4,0,0.9-0.1,1.3-0.3s0.7-0.4,1-0.5V54H447.7z"/>
		<path d="M455.1,53.2c0-1.3,0.3-2.3,1-3s1.6-1.1,2.7-1.1c0.7,0,1.4,0.2,1.9,0.5c0.6,0.3,1,0.8,1.3,1.4s0.4,1.3,0.4,2.1
			s-0.2,1.5-0.5,2.1s-0.8,1.1-1.3,1.4c-0.6,0.3-1.2,0.5-1.9,0.5c-0.7,0-1.4-0.2-1.9-0.5s-1-0.8-1.3-1.4
			C455.3,54.6,455.1,53.9,455.1,53.2z M456.2,53.3c0,0.9,0.3,1.7,0.7,2.2c0.5,0.5,1.1,0.8,1.9,0.8s1.4-0.3,1.9-0.8s0.7-1.3,0.7-2.3
			c0-0.6-0.1-1.2-0.3-1.6c-0.2-0.5-0.5-0.8-0.9-1.1s-0.9-0.4-1.4-0.4c-0.7,0-1.3,0.2-1.9,0.7C456.4,51.3,456.2,52.1,456.2,53.3z"/>
		<path d="M467.3,54.9l0.9,0.1c-0.1,0.6-0.4,1.1-0.8,1.5s-0.9,0.5-1.5,0.5c-0.8,0-1.4-0.3-1.8-0.7c-0.5-0.5-0.7-1.2-0.7-2.1
			c0-0.6,0.1-1.1,0.3-1.6c0.2-0.5,0.5-0.8,0.9-1s0.9-0.3,1.3-0.3c0.6,0,1.1,0.2,1.5,0.5s0.6,0.7,0.7,1.3l-0.9,0.1
			c-0.1-0.4-0.2-0.7-0.5-0.8s-0.5-0.3-0.8-0.3c-0.5,0-0.9,0.2-1.2,0.5s-0.4,0.9-0.4,1.6c0,0.8,0.1,1.3,0.4,1.6s0.7,0.5,1.1,0.5
			s0.7-0.1,0.9-0.3C467.1,55.8,467.3,55.4,467.3,54.9z"/>
		<path d="M472.7,54.9l0.9,0.1c-0.1,0.6-0.4,1.1-0.8,1.5s-0.9,0.5-1.5,0.5c-0.8,0-1.4-0.3-1.8-0.7c-0.5-0.5-0.7-1.2-0.7-2.1
			c0-0.6,0.1-1.1,0.3-1.6c0.2-0.5,0.5-0.8,0.9-1s0.9-0.3,1.3-0.3c0.6,0,1.1,0.2,1.5,0.5s0.6,0.7,0.7,1.3l-0.9,0.1
			c-0.1-0.4-0.2-0.7-0.5-0.8s-0.5-0.3-0.8-0.3c-0.5,0-0.9,0.2-1.2,0.5s-0.4,0.9-0.4,1.6c0,0.8,0.1,1.3,0.4,1.6s0.7,0.5,1.1,0.5
			s0.7-0.1,0.9-0.3C472.5,55.8,472.7,55.4,472.7,54.9z"/>
		<path d="M474.4,57v-7.7h0.9V57H474.4z"/>
		<path d="M480.5,57v-0.8c-0.4,0.6-1,0.9-1.8,0.9c-0.3,0-0.6-0.1-0.9-0.2c-0.3-0.1-0.5-0.3-0.6-0.5s-0.2-0.4-0.3-0.7
			c0-0.2-0.1-0.5-0.1-0.9v-3.5h0.9v3.1c0,0.5,0,0.8,0.1,1s0.2,0.4,0.4,0.6c0.2,0.1,0.4,0.2,0.7,0.2c0.3,0,0.5-0.1,0.8-0.2
			s0.4-0.3,0.5-0.6s0.2-0.6,0.2-1.1v-3h0.9V57H480.5z"/>
		<path d="M482.5,55.3l0.9-0.1c0.1,0.4,0.2,0.7,0.4,0.9c0.2,0.2,0.6,0.3,1,0.3s0.8-0.1,1-0.3s0.3-0.4,0.3-0.6c0-0.2-0.1-0.4-0.3-0.5
			c-0.1-0.1-0.5-0.2-1-0.3c-0.7-0.2-1.2-0.3-1.4-0.5c-0.3-0.1-0.5-0.3-0.6-0.5s-0.2-0.5-0.2-0.7s0.1-0.5,0.2-0.7s0.3-0.4,0.5-0.5
			c0.1-0.1,0.3-0.2,0.6-0.3c0.3-0.1,0.5-0.1,0.8-0.1c0.4,0,0.8,0.1,1.2,0.2s0.6,0.3,0.7,0.5c0.2,0.2,0.3,0.5,0.3,0.9l-0.9,0
			c0-0.3-0.2-0.5-0.4-0.7s-0.5-0.2-0.9-0.2s-0.7,0.1-0.9,0.2s-0.3,0.3-0.3,0.5c0,0.1,0,0.2,0.1,0.3s0.2,0.2,0.4,0.3
			c0.1,0,0.4,0.1,0.8,0.2c0.7,0.2,1.1,0.3,1.4,0.4s0.5,0.3,0.6,0.5c0.2,0.2,0.2,0.5,0.2,0.8s-0.1,0.6-0.3,0.9
			c-0.2,0.3-0.5,0.5-0.8,0.6c-0.3,0.2-0.7,0.2-1.2,0.2c-0.7,0-1.3-0.2-1.7-0.5C482.8,56.4,482.6,55.9,482.5,55.3z"/>
		<path d="M488.2,50.4v-1.1h0.9v1.1H488.2z M488.2,57v-5.6h0.9V57H488.2z"/>
		<path d="M490.3,54.2c0-1,0.3-1.8,0.9-2.3c0.5-0.4,1.1-0.6,1.8-0.6c0.8,0,1.4,0.3,1.9,0.8s0.7,1.2,0.7,2.1c0,0.7-0.1,1.3-0.3,1.7
			c-0.2,0.4-0.5,0.7-0.9,1c-0.4,0.2-0.9,0.3-1.3,0.3c-0.8,0-1.4-0.3-1.9-0.8C490.5,55.9,490.3,55.1,490.3,54.2z M491.2,54.2
			c0,0.7,0.2,1.3,0.5,1.6c0.3,0.4,0.7,0.5,1.2,0.5s0.9-0.2,1.2-0.5c0.3-0.4,0.5-0.9,0.5-1.6c0-0.7-0.2-1.2-0.5-1.6
			c-0.3-0.4-0.7-0.5-1.2-0.5s-0.9,0.2-1.2,0.5C491.4,53,491.2,53.5,491.2,54.2z"/>
		<path d="M496.6,57v-5.6h0.9v0.8c0.4-0.6,1-0.9,1.8-0.9c0.3,0,0.6,0.1,0.9,0.2s0.5,0.3,0.6,0.5s0.2,0.4,0.3,0.7
			c0,0.2,0.1,0.5,0.1,0.9V57h-0.9v-3.4c0-0.4,0-0.7-0.1-0.9s-0.2-0.3-0.4-0.5c-0.2-0.1-0.4-0.2-0.7-0.2c-0.4,0-0.8,0.1-1,0.4
			c-0.3,0.3-0.4,0.7-0.4,1.5v3h-1.1V57z"/>
	</g>
	<rect x="573.7" y="28.3" class="st6" width="70" height="57.4"/>
	<g class="st4">
		<path d="M581.4,57v-7.7h1v3.2h4v-3.2h1V57h-1v-3.6h-4V57H581.4z"/>
		<path d="M592.8,54v-0.9h3.3V56c-0.5,0.4-1,0.7-1.6,0.9c-0.5,0.2-1.1,0.3-1.6,0.3c-0.8,0-1.4-0.2-2.1-0.5c-0.6-0.3-1.1-0.8-1.4-1.4
			s-0.5-1.3-0.5-2.1s0.2-1.5,0.5-2.1s0.8-1.1,1.4-1.4s1.3-0.5,2-0.5c0.6,0,1.1,0.1,1.5,0.3c0.5,0.2,0.8,0.4,1.1,0.8
			c0.3,0.3,0.5,0.7,0.6,1.3l-0.9,0.3c-0.1-0.4-0.3-0.7-0.4-0.9c-0.2-0.2-0.4-0.4-0.7-0.5s-0.7-0.2-1.1-0.2c-0.5,0-0.9,0.1-1.2,0.2
			c-0.3,0.1-0.6,0.3-0.8,0.6c-0.2,0.2-0.4,0.5-0.5,0.8c-0.2,0.5-0.3,1-0.3,1.6c0,0.7,0.1,1.3,0.4,1.7c0.2,0.5,0.6,0.8,1,1
			c0.5,0.2,0.9,0.3,1.4,0.3c0.4,0,0.9-0.1,1.3-0.3s0.7-0.4,1-0.5V54H592.8z"/>
		<path d="M600.5,57v-7.7h2.9c0.5,0,0.9,0,1.2,0.1c0.4,0.1,0.7,0.2,1,0.4s0.5,0.4,0.6,0.7c0.2,0.3,0.2,0.7,0.2,1.1
			c0,0.7-0.2,1.2-0.6,1.7c-0.4,0.5-1.2,0.7-2.3,0.7h-2v3H600.5z M601.6,52.9h2c0.7,0,1.1-0.1,1.4-0.4c0.3-0.2,0.4-0.6,0.4-1
			c0-0.3-0.1-0.6-0.2-0.8s-0.4-0.4-0.6-0.5c-0.2,0-0.5-0.1-1-0.1h-2L601.6,52.9L601.6,52.9z"/>
		<path d="M607.6,57v-5.6h0.9v0.8c0.2-0.4,0.4-0.7,0.6-0.8c0.2-0.1,0.4-0.2,0.6-0.2c0.3,0,0.6,0.1,1,0.3l-0.3,0.9
			c-0.2-0.1-0.5-0.2-0.7-0.2s-0.4,0.1-0.6,0.2c-0.2,0.1-0.3,0.3-0.4,0.5c-0.1,0.3-0.2,0.7-0.2,1.1v3H607.6z"/>
		<path d="M611.2,50.4v-1.1h0.9v1.1H611.2z M611.2,57v-5.6h0.9V57H611.2z"/>
		<path d="M613.6,57v-5.6h0.8v0.8c0.2-0.3,0.4-0.5,0.7-0.7s0.6-0.3,1-0.3s0.8,0.1,1,0.3s0.5,0.4,0.6,0.7c0.4-0.7,1-1,1.7-1
			c0.6,0,1,0.2,1.3,0.5s0.4,0.8,0.4,1.4V57h-0.9v-3.5c0-0.4,0-0.7-0.1-0.8c-0.1-0.2-0.2-0.3-0.3-0.4c-0.2-0.1-0.4-0.2-0.6-0.2
			c-0.4,0-0.7,0.1-1,0.4c-0.3,0.3-0.4,0.7-0.4,1.3V57h-0.9v-3.6c0-0.4-0.1-0.7-0.2-0.9c-0.2-0.2-0.4-0.3-0.8-0.3
			c-0.3,0-0.5,0.1-0.7,0.2c-0.2,0.1-0.4,0.3-0.5,0.6s-0.2,0.7-0.2,1.2V57H613.6z"/>
		<path d="M626.2,56.3c-0.4,0.3-0.7,0.5-1,0.6s-0.7,0.2-1,0.2c-0.6,0-1.1-0.1-1.4-0.4c-0.3-0.3-0.5-0.7-0.5-1.1
			c0-0.3,0.1-0.5,0.2-0.7c0.1-0.2,0.3-0.4,0.5-0.5s0.4-0.2,0.7-0.3c0.2,0,0.5-0.1,0.8-0.1c0.8-0.1,1.3-0.2,1.7-0.3
			c0-0.1,0-0.2,0-0.2c0-0.4-0.1-0.7-0.3-0.8c-0.2-0.2-0.6-0.3-1.1-0.3c-0.4,0-0.8,0.1-1,0.2s-0.4,0.4-0.5,0.8l-0.9-0.1
			c0.1-0.4,0.2-0.7,0.4-1c0.2-0.2,0.5-0.4,0.8-0.6c0.4-0.1,0.8-0.2,1.3-0.2s0.9,0.1,1.2,0.2c0.3,0.1,0.5,0.3,0.7,0.4
			s0.2,0.4,0.3,0.6c0,0.2,0,0.5,0,0.9v1.3c0,0.9,0,1.4,0.1,1.7c0,0.2,0.1,0.5,0.2,0.7h-1C626.3,56.8,626.2,56.6,626.2,56.3z
			 M626.1,54.2c-0.3,0.1-0.9,0.3-1.5,0.4c-0.4,0.1-0.7,0.1-0.8,0.2c-0.2,0.1-0.3,0.2-0.4,0.3s-0.1,0.3-0.1,0.4
			c0,0.3,0.1,0.5,0.3,0.6c0.2,0.2,0.5,0.3,0.8,0.3c0.4,0,0.7-0.1,1-0.2s0.5-0.4,0.6-0.7c0.1-0.2,0.2-0.5,0.2-0.9L626.1,54.2
			L626.1,54.2z"/>
		<path d="M628.5,57v-5.6h0.9v0.8c0.2-0.4,0.4-0.7,0.6-0.8c0.2-0.1,0.4-0.2,0.6-0.2c0.3,0,0.6,0.1,1,0.3l-0.3,0.9
			c-0.2-0.1-0.5-0.2-0.7-0.2s-0.4,0.1-0.6,0.2c-0.2,0.1-0.3,0.3-0.4,0.5c-0.1,0.3-0.2,0.7-0.2,1.1v3H628.5z"/>
		<path d="M632.1,59.1l-0.1-0.9c0.2,0.1,0.4,0.1,0.5,0.1c0.2,0,0.4,0,0.5-0.1s0.2-0.2,0.3-0.3s0.2-0.3,0.3-0.7c0-0.1,0-0.1,0.1-0.2
			l-2.1-5.6h1l1.2,3.2c0.2,0.4,0.3,0.8,0.4,1.3c0.1-0.4,0.2-0.9,0.4-1.3l1.2-3.3h0.9l-2.1,5.7c-0.2,0.6-0.4,1-0.5,1.3
			c-0.2,0.3-0.4,0.5-0.6,0.7c-0.2,0.1-0.5,0.2-0.8,0.2C632.5,59.3,632.3,59.2,632.1,59.1z"/>
	</g>
	<rect x="714" y="28.3" class="st6" width="70" height="57.4"/>
	<g class="st4">
		<path d="M716.6,57v-7.7h1v3.2h4v-3.2h1V57h-1v-3.6h-4V57H716.6z"/>
		<path d="M728,54v-0.9h3.3V56c-0.5,0.4-1,0.7-1.6,0.9s-1.1,0.3-1.6,0.3c-0.8,0-1.4-0.2-2.1-0.5s-1.1-0.8-1.4-1.4s-0.5-1.3-0.5-2.1
			s0.2-1.5,0.5-2.1s0.8-1.1,1.4-1.4s1.3-0.5,2-0.5c0.6,0,1.1,0.1,1.5,0.3s0.8,0.4,1.1,0.8c0.3,0.3,0.5,0.7,0.6,1.3l-0.9,0.3
			c-0.1-0.4-0.3-0.7-0.4-0.9c-0.2-0.2-0.4-0.4-0.7-0.5s-0.7-0.2-1.1-0.2c-0.5,0-0.9,0.1-1.2,0.2c-0.3,0.1-0.6,0.3-0.8,0.6
			s-0.4,0.5-0.5,0.8c-0.2,0.5-0.3,1-0.3,1.6c0,0.7,0.1,1.3,0.4,1.7c0.2,0.5,0.6,0.8,1,1c0.5,0.2,0.9,0.3,1.4,0.3
			c0.4,0,0.9-0.1,1.3-0.3s0.7-0.4,1-0.5V54H728z"/>
		<path d="M735.4,53.2c0-1.3,0.3-2.3,1-3s1.6-1.1,2.7-1.1c0.7,0,1.4,0.2,1.9,0.5c0.6,0.3,1,0.8,1.3,1.4c0.3,0.6,0.4,1.3,0.4,2.1
			s-0.2,1.5-0.5,2.1s-0.8,1.1-1.3,1.4s-1.2,0.5-1.9,0.5s-1.4-0.2-1.9-0.5s-1-0.8-1.3-1.4S735.4,53.9,735.4,53.2z M736.5,53.3
			c0,0.9,0.3,1.7,0.7,2.2c0.5,0.5,1.1,0.8,1.9,0.8c0.8,0,1.4-0.3,1.9-0.8s0.7-1.3,0.7-2.3c0-0.6-0.1-1.2-0.3-1.6
			c-0.2-0.5-0.5-0.8-0.9-1.1s-0.9-0.4-1.4-0.4c-0.7,0-1.3,0.2-1.9,0.7S736.5,52.1,736.5,53.3z"/>
		<path d="M747.6,54.9l0.9,0.1c-0.1,0.6-0.4,1.1-0.8,1.5c-0.4,0.4-0.9,0.5-1.5,0.5c-0.8,0-1.4-0.3-1.8-0.7c-0.5-0.5-0.7-1.2-0.7-2.1
			c0-0.6,0.1-1.1,0.3-1.6s0.5-0.8,0.9-1s0.9-0.3,1.3-0.3c0.6,0,1.1,0.2,1.5,0.5s0.6,0.7,0.7,1.3l-0.9,0.1c-0.1-0.4-0.2-0.7-0.5-0.8
			c-0.2-0.2-0.5-0.3-0.8-0.3c-0.5,0-0.9,0.2-1.2,0.5s-0.4,0.9-0.4,1.6c0,0.8,0.1,1.3,0.4,1.6s0.7,0.5,1.1,0.5c0.4,0,0.7-0.1,0.9-0.3
			C747.4,55.8,747.6,55.4,747.6,54.9z"/>
		<path d="M753,54.9l0.9,0.1c-0.1,0.6-0.4,1.1-0.8,1.5c-0.4,0.4-0.9,0.5-1.5,0.5c-0.8,0-1.4-0.3-1.8-0.7c-0.5-0.5-0.7-1.2-0.7-2.1
			c0-0.6,0.1-1.1,0.3-1.6s0.5-0.8,0.9-1s0.9-0.3,1.3-0.3c0.6,0,1.1,0.2,1.5,0.5s0.6,0.7,0.7,1.3l-0.9,0.1c-0.1-0.4-0.2-0.7-0.5-0.8
			c-0.2-0.2-0.5-0.3-0.8-0.3c-0.5,0-0.9,0.2-1.2,0.5s-0.4,0.9-0.4,1.6c0,0.8,0.1,1.3,0.4,1.6s0.7,0.5,1.1,0.5c0.4,0,0.7-0.1,0.9-0.3
			C752.8,55.8,753,55.4,753,54.9z"/>
		<path d="M754.7,57v-7.7h0.9V57H754.7z"/>
		<path d="M760.8,57v-0.8c-0.4,0.6-1,0.9-1.8,0.9c-0.3,0-0.6-0.1-0.9-0.2c-0.3-0.1-0.5-0.3-0.6-0.5s-0.2-0.4-0.3-0.7
			c0-0.2-0.1-0.5-0.1-0.9v-3.5h0.9v3.1c0,0.5,0,0.8,0.1,1s0.2,0.4,0.4,0.6c0.2,0.1,0.4,0.2,0.7,0.2s0.5-0.1,0.8-0.2
			c0.2-0.1,0.4-0.3,0.5-0.6s0.2-0.6,0.2-1.1v-3h0.9V57H760.8z"/>
		<path d="M762.8,55.3l0.9-0.1c0.1,0.4,0.2,0.7,0.4,0.9s0.6,0.3,1,0.3s0.8-0.1,1-0.3s0.3-0.4,0.3-0.6c0-0.2-0.1-0.4-0.3-0.5
			c-0.1-0.1-0.5-0.2-1-0.3c-0.7-0.2-1.2-0.3-1.4-0.5c-0.3-0.1-0.5-0.3-0.6-0.5s-0.2-0.5-0.2-0.7s0.1-0.5,0.2-0.7
			c0.1-0.2,0.3-0.4,0.5-0.5c0.1-0.1,0.3-0.2,0.6-0.3s0.5-0.1,0.8-0.1c0.4,0,0.8,0.1,1.2,0.2c0.3,0.1,0.6,0.3,0.7,0.5
			s0.3,0.5,0.3,0.9l-0.9,0.1c0-0.3-0.2-0.5-0.4-0.7s-0.5-0.2-0.9-0.2s-0.7,0.1-0.9,0.2s-0.3,0.3-0.3,0.5c0,0.1,0,0.2,0.1,0.3
			s0.2,0.2,0.4,0.3c0.1,0,0.4,0.1,0.8,0.2c0.7,0.2,1.1,0.3,1.4,0.4c0.3,0.1,0.5,0.3,0.6,0.5c0.2,0.2,0.2,0.5,0.2,0.8
			s-0.1,0.6-0.3,0.9c-0.2,0.3-0.4,0.5-0.8,0.6c-0.3,0.2-0.7,0.2-1.2,0.2c-0.7,0-1.3-0.2-1.7-0.5C763.1,56.4,762.9,55.9,762.8,55.3z"
			/>
		<path d="M768.5,50.4v-1.1h0.9v1.1H768.5z M768.5,57v-5.6h0.9V57H768.5z"/>
		<path d="M770.6,54.2c0-1,0.3-1.8,0.9-2.3c0.5-0.4,1.1-0.6,1.8-0.6c0.8,0,1.4,0.3,1.9,0.8s0.7,1.2,0.7,2.1c0,0.7-0.1,1.3-0.3,1.7
			s-0.5,0.7-0.9,1c-0.4,0.2-0.9,0.3-1.3,0.3c-0.8,0-1.4-0.3-1.9-0.8C770.8,55.9,770.6,55.1,770.6,54.2z M771.5,54.2
			c0,0.7,0.2,1.3,0.5,1.6c0.3,0.4,0.7,0.5,1.2,0.5s0.9-0.2,1.2-0.5s0.5-0.9,0.5-1.6c0-0.7-0.2-1.2-0.5-1.6c-0.3-0.4-0.7-0.5-1.2-0.5
			s-0.9,0.2-1.2,0.5C771.7,53,771.5,53.5,771.5,54.2z"/>
		<path d="M776.9,57v-5.6h0.9v0.8c0.4-0.6,1-0.9,1.8-0.9c0.3,0,0.6,0.1,0.9,0.2s0.5,0.3,0.6,0.5s0.2,0.4,0.3,0.7
			c0,0.2,0.1,0.5,0.1,0.9V57h-0.9v-3.4c0-0.4,0-0.7-0.1-0.9s-0.2-0.3-0.4-0.5c-0.2-0.1-0.4-0.2-0.7-0.2c-0.4,0-0.8,0.1-1,0.4
			c-0.3,0.3-0.4,0.7-0.4,1.5v3h-1.1V57z"/>
	</g>
</g>
<g>
	<path d="M112.7,116.5c0-4.2-11.4-4.8-19.6-4.8c-7.1,0-14.3,0.2-21.4,0.5c-7.1,0.2-14.5,0.5-21.7,0.5c-26.7,0-36.2-3.7-36.2-8.6
		v-1.2h14.5v1c0.3,3.3,8.2,4.7,23,4.7c6.3,0,12.4-0.2,19-0.4c6.3-0.2,12.9-0.5,20.1-0.5c16.9,0,25.9,1.7,28.8,4.3h0.5
		c3.2-2.6,11.6-4.3,28.6-4.3c7.1,0,13.5,0.2,20.1,0.5c6.3,0.2,12.7,0.4,18.8,0.4c14.3,0,22.5-1.2,22.7-4.7v-1.1h14.5v1.2
		c0,5-10.3,8.6-34.6,8.6c-7.4,0-14.5-0.2-22-0.5c-7.4-0.2-14.8-0.5-22.2-0.5c-9.3,0-19.6,0.6-19.6,4.8L112.7,116.5z"/>
</g>
<g>
	<g>
		<path class="st7" d="M120.2,118.8c-0.3,23.5,33.4,17.1,39.2,50"/>
		<g>
			<path d="M160.2,180.8c-2.6-5.5-6.7-12.2-10.9-16.3l9.8,2.7l9.2-4.2C164.8,167.7,161.8,175,160.2,180.8z"/>
		</g>
	</g>
</g>
<g>
	<g>
		<path class="st7" d="M399.5,118.5c-0.6,14.4,33.6,18.8,38.5,51.6"/>
		<g>
			<path d="M438.5,182.2c-2.4-5.6-6.3-12.4-10.4-16.6l9.7,3l9.3-3.9C443.5,169.2,440.3,176.4,438.5,182.2z"/>
		</g>
	</g>
</g>
<g>
	<g>
		<path class="st7" d="M679.5,118.5c0.3,20.2-146.1,3-164.5,52.4"/>
		<g>
			<path d="M513.2,182.8c-1.1-6-3.4-13.5-6.4-18.5l8.8,5l10-1.7C521,171.3,516.2,177.6,513.2,182.8z"/>
		</g>
	</g>
</g>
<g>
	<path d="M392.6,116.5c0-4.2-11.4-4.8-19.6-4.8c-7.1,0-14.3,0.2-21.4,0.5c-7.1,0.2-14.5,0.5-21.7,0.5c-26.7,0-36.2-3.7-36.2-8.6
		v-1.2h14.5v1c0.3,3.3,8.2,4.7,23,4.7c6.3,0,12.4-0.2,19-0.4c6.3-0.2,12.9-0.5,20.1-0.5c16.9,0,25.9,1.7,28.8,4.3h0.5
		c3.2-2.6,11.6-4.3,28.6-4.3c7.1,0,13.5,0.2,20.1,0.5c6.3,0.2,12.7,0.4,18.8,0.4c14.3,0,22.5-1.2,22.7-4.7v-1.1h14.5v1.2
		c0,5-10.3,8.6-34.6,8.6c-7.4,0-14.5-0.2-22-0.5c-7.4-0.2-14.8-0.5-22.2-0.5c-9.3,0-19.6,0.6-19.6,4.8L392.6,116.5z"/>
</g>
<g>
	<path d="M673.6,116.5c0-4.2-11.4-4.8-19.6-4.8c-7.1,0-14.3,0.2-21.4,0.5c-7.1,0.2-14.5,0.5-21.7,0.5c-26.7,0-36.2-3.7-36.2-8.6
		v-1.2h14.5v1c0.3,3.3,8.2,4.7,23,4.7c6.3,0,12.4-0.2,19-0.4c6.3-0.2,12.9-0.5,20.1-0.5c16.9,0,25.9,1.7,28.8,4.3h0.5
		c3.2-2.6,11.6-4.3,28.6-4.3c7.1,0,13.5,0.2,20.1,0.5c6.3,0.2,12.7,0.4,18.8,0.4c14.3,0,22.5-1.2,22.7-4.7v-1.1h14.5v1.2
		c0,5-10.3,8.6-34.6,8.6c-7.4,0-14.5-0.2-22-0.5c-7.4-0.2-14.8-0.5-22.2-0.5c-9.3,0-19.6,0.6-19.6,4.8L673.6,116.5z"/>
</g>
<g>
	<g transform="translate(8, 8)">
		<rect x="6.7" y="165.3" class="st8" width="100" height="100"/>
		<rect x="6.7" y="165.3" class="st9" width="35" height="100"/>
		<rect x="26.7" y="185.3" class="st10" width="80" height="50"/>
		<path class="st11" d="M156.5,177.8c-5.7,3.8-11.3,7.2-15.9,12c-0.2,0-0.2-0.2-0.3-0.2c0.1-0.8,0.1-1.5,0.4-2.1
			c0.8-1.6,0.9-3.5,0.4-5.3c-0.3-1.3-1.2-2.4-2.6-3c-1.6-0.6-3.1,0-4.6,0.8c-0.8,0.5-1.2,1-1.5,2c-0.8,2.4-0.4,5-0.4,7.5
			c0,0.2,0,0.2,0,0.3c0.3,0.5,0,0.5-0.3,0.6c-1.6,0.5-3.4,0.9-5.1,1.5c-1.6,0.6-2.7,2-2.4,3.9c0,0.4,0,0.9,0.1,1.5
			c0.2,0.9,0.2,1.8,0.3,2.7c0.2,1.3-0.8,2.4-1.2,3.6c-0.8,1.7-0.6,3.5-0.4,5.1c0.1,1.8,1.5,2.8,2.8,3.8c1.2,0.8,1.2,1.1,0.8,2.4
			c-0.6,1.2-0.9,2.6-1.2,3.9c-0.1,0.6-0.1,1.2,0,1.9c0.2,1.2,0.4,2.3,0.8,3.4c0.2,0.8,0.4,1.4,0.8,2.1c0.3,0.6,0.8,1.4,1.1,1.9
			c0.8,1.7,7.9,8.7,10.4,9.3c0.8,0.1,1.6,0.4,2.4,0.8c0.3,0.1,0.4,0.3,0.6,0.6c0.3,1.6-0.6,3.1-2.1,3.8c-1.2,0.4-2.3,1.2-3.3,1.8
			c-0.3,0.2-0.1,2.4,0.3,3.5c0,0,0,0.4,0.1,0.8c0.3,0.1,6.2,0.6,7.2,0.6c1.3,0.2,30.1,0.3,33-0.8c0.9-0.3,1.8-0.9,2.7-1.7
			s1.6-1.3,2.7-1.5c1.8-0.1,3.4-0.1,5.3-0.3c0.4,0,1.1-0.3,1.5-0.3s2.3-0.8,2.6-1.2c0.3-0.3,4.4-3,4.9-4.2c1.2-2.1,1.8-4.2,1.2-6.6
			c-0.3-0.9-0.8-1.7-1.6-2.1c-1.2-0.8-2.4-0.9-3.8-0.6c-1.1,0.1-1.4-0.1-1.4-1.1c-0.1-0.9-0.1-1.8-0.1-2.6c-0.1-2.1-0.3-4.2-0.6-6.3
			c-0.6-3.6-2.4-6.6-4.6-9.5c-4.9-6.1-10.9-9.6-19.1-8.2c-3.3,0.6-6.4,1.3-9.8,2.3c-1.2,0.3-2.4,0.3-3.6-0.2c-1.3-0.4-2.7-0.8-4-1
			c-0.9-0.2-1.7-0.6-2.1-1.3c-1.1-1.4-1.5-2.7-1.8-4.4c-0.1-0.8,0.2-1.2,0.8-1.6c3.6-2.3,7.4-4.2,11.3-5.7c2.4-0.9,4.7-2.1,6.4-4
			c0.4-0.5,0.8-1.2,0.9-1.8c0.4-3,0-5.7-2.6-7.8c-1.2-0.9-2.1-1-3.3-0.4C158.1,176.6,157.1,177.4,156.5,177.8z"/>
		<g class="st4">
			<path d="M7.8,282.5v-10h1.3v10H7.8z"/>
			<path d="M11.3,282.5v-7.3h1.1v1c0.5-0.8,1.3-1.2,2.3-1.2c0.4,0,0.8,0.1,1.2,0.2c0.4,0.2,0.6,0.4,0.8,0.6s0.3,0.6,0.4,0.9
				c0,0.2,0.1,0.6,0.1,1.2v4.5H16V278c0-0.5,0-0.9-0.1-1.1s-0.3-0.4-0.5-0.6c-0.2-0.1-0.5-0.2-0.9-0.2c-0.5,0-1,0.2-1.4,0.5
				s-0.6,1-0.6,1.9v4H11.3z"/>
			<path d="M18.6,280.3l1.2-0.2c0.1,0.5,0.3,0.9,0.6,1.1s0.7,0.4,1.3,0.4c0.6,0,1-0.1,1.3-0.3c0.3-0.2,0.4-0.5,0.4-0.8
				s-0.1-0.5-0.4-0.7c-0.2-0.1-0.6-0.2-1.3-0.4c-0.9-0.2-1.5-0.4-1.9-0.6c-0.3-0.2-0.6-0.4-0.8-0.7c-0.2-0.3-0.3-0.6-0.3-1
				c0-0.3,0.1-0.6,0.2-0.9s0.3-0.5,0.6-0.7c0.2-0.1,0.5-0.3,0.8-0.4s0.7-0.1,1.1-0.1c0.6,0,1.1,0.1,1.5,0.2s0.7,0.4,1,0.7
				c0.2,0.3,0.3,0.7,0.4,1.1l-1.2,0.2c-0.1-0.4-0.2-0.7-0.5-0.9S22,276,21.5,276c-0.6,0-1,0.1-1.2,0.3S20,276.8,20,277
				s0.1,0.3,0.2,0.4s0.3,0.2,0.5,0.3c0.1,0,0.5,0.2,1.1,0.3c0.9,0.2,1.5,0.4,1.8,0.6c0.3,0.1,0.6,0.4,0.8,0.6s0.3,0.6,0.3,1.1
				c0,0.4-0.1,0.8-0.4,1.2c-0.2,0.4-0.6,0.6-1,0.8c-0.5,0.2-1,0.3-1.5,0.3c-0.9,0-1.7-0.2-2.2-0.6S18.8,281.1,18.6,280.3z"/>
			<path d="M28.8,281.4l0.2,1.1c-0.3,0.1-0.7,0.1-0.9,0.1c-0.4,0-0.8-0.1-1-0.2s-0.4-0.3-0.5-0.6c-0.1-0.2-0.2-0.7-0.2-1.5v-4.2
				h-0.9v-1h0.9v-1.8l1.2-0.7v2.5h1.2v1h-1.2v4.2c0,0.4,0,0.6,0.1,0.7s0.1,0.2,0.2,0.2s0.2,0.1,0.4,0.1
				C28.4,281.4,28.6,281.4,28.8,281.4z"/>
			<path d="M34.8,281.6c-0.5,0.4-0.9,0.7-1.3,0.8s-0.9,0.2-1.4,0.2c-0.8,0-1.4-0.2-1.8-0.6s-0.6-0.9-0.6-1.5c0-0.4,0.1-0.7,0.2-1
				c0.2-0.3,0.4-0.5,0.6-0.7s0.6-0.3,0.9-0.4c0.2-0.1,0.6-0.1,1.1-0.2c1-0.1,1.7-0.3,2.2-0.4c0-0.2,0-0.3,0-0.3
				c0-0.5-0.1-0.9-0.3-1.1c-0.3-0.3-0.8-0.4-1.4-0.4c-0.6,0-1,0.1-1.3,0.3c-0.3,0.2-0.5,0.6-0.6,1.1l-1.2-0.2
				c0.1-0.5,0.3-0.9,0.5-1.2c0.3-0.3,0.6-0.6,1.1-0.7c0.5-0.2,1-0.3,1.6-0.3s1.1,0.1,1.5,0.2s0.7,0.3,0.9,0.6
				c0.2,0.2,0.3,0.5,0.4,0.8c0,0.2,0.1,0.6,0.1,1.1v1.6c0,1.1,0,1.9,0.1,2.2c0.1,0.3,0.2,0.6,0.3,0.9H35
				C34.9,282.2,34.8,281.9,34.8,281.6z M34.7,278.9c-0.4,0.2-1.1,0.3-2,0.5c-0.5,0.1-0.9,0.2-1.1,0.2s-0.4,0.2-0.5,0.4
				c-0.1,0.2-0.2,0.4-0.2,0.6c0,0.3,0.1,0.6,0.4,0.8s0.6,0.3,1.1,0.3c0.5,0,0.9-0.1,1.3-0.3c0.4-0.2,0.6-0.5,0.8-0.9
				c0.1-0.3,0.2-0.7,0.2-1.2C34.7,279.3,34.7,278.9,34.7,278.9z"/>
			<path d="M37.8,282.5v-7.3h1.1v1c0.5-0.8,1.3-1.2,2.3-1.2c0.4,0,0.8,0.1,1.2,0.2c0.4,0.2,0.6,0.4,0.8,0.6s0.3,0.6,0.4,0.9
				c0,0.2,0.1,0.6,0.1,1.2v4.5h-1.2V278c0-0.5,0-0.9-0.1-1.1s-0.3-0.4-0.5-0.6c-0.2-0.1-0.5-0.2-0.9-0.2c-0.5,0-1,0.2-1.4,0.5
				s-0.6,1-0.6,1.9v4H37.8z"/>
			<path d="M50.3,279.8l1.2,0.2c-0.1,0.8-0.5,1.5-1,2s-1.2,0.7-2,0.7c-1,0-1.8-0.3-2.4-1c-0.6-0.6-0.9-1.6-0.9-2.8
				c0-0.8,0.1-1.5,0.4-2.1s0.7-1,1.2-1.3s1.1-0.4,1.7-0.4c0.8,0,1.4,0.2,1.9,0.6s0.8,1,1,1.7l-1.2,0.2c-0.1-0.5-0.3-0.9-0.6-1.1
				s-0.6-0.4-1-0.4c-0.6,0-1.1,0.2-1.5,0.7c-0.4,0.4-0.6,1.1-0.6,2.1s0.2,1.7,0.6,2.1s0.9,0.7,1.5,0.7c0.5,0,0.9-0.1,1.2-0.4
				S50.2,280.5,50.3,279.8z"/>
			<path d="M57.6,280.2l1.3,0.2c-0.2,0.7-0.6,1.3-1.1,1.7s-1.2,0.6-2.1,0.6c-1.1,0-1.9-0.3-2.5-1s-0.9-1.6-0.9-2.8
				c0-1.2,0.3-2.2,0.9-2.8s1.4-1,2.4-1s1.8,0.3,2.4,1s0.9,1.6,0.9,2.8c0,0.1,0,0.2,0,0.3h-5.4c0,0.8,0.3,1.4,0.7,1.8
				s0.9,0.6,1.5,0.6c0.5,0,0.8-0.1,1.2-0.4S57.4,280.7,57.6,280.2z M53.5,278.2h4.1c-0.1-0.6-0.2-1.1-0.5-1.4
				c-0.4-0.5-0.9-0.7-1.5-0.7s-1,0.2-1.4,0.6S53.6,277.5,53.5,278.2z"/>
			<path d="M64,277.6c0-1.7,0.4-3,1.3-3.9s2-1.4,3.5-1.4c0.9,0,1.8,0.2,2.5,0.7s1.3,1.1,1.7,1.8c0.4,0.8,0.6,1.7,0.6,2.7
				s-0.2,1.9-0.6,2.7s-1,1.4-1.7,1.8c-0.8,0.4-1.6,0.6-2.4,0.6c-0.9,0-1.8-0.2-2.5-0.7s-1.3-1.1-1.7-1.9S64,278.5,64,277.6z
				 M65.4,277.6c0,1.2,0.3,2.2,1,2.9c0.6,0.7,1.5,1,2.4,1c1,0,1.8-0.4,2.5-1.1s1-1.7,1-3c0-0.8-0.1-1.5-0.4-2.1s-0.7-1.1-1.2-1.4
				s-1.1-0.5-1.8-0.5c-0.9,0-1.7,0.3-2.4,1C65.7,275.1,65.4,276.1,65.4,277.6z"/>
			<path d="M75.5,282.5v-6.3h-1.1v-1h1.1v-0.8c0-0.5,0-0.8,0.1-1.1c0.1-0.3,0.3-0.6,0.6-0.8c0.3-0.2,0.7-0.3,1.3-0.3
				c0.3,0,0.7,0,1.1,0.1l-0.2,1.1c-0.3,0-0.5-0.1-0.7-0.1c-0.4,0-0.6,0.1-0.8,0.2s-0.2,0.5-0.2,0.9v0.7h1.4v1h-1.4v6.3L75.5,282.5
				L75.5,282.5z"/>
			<path d="M79.1,282.5v-6.3H78v-1h1.1v-0.8c0-0.5,0-0.8,0.1-1.1c0.1-0.3,0.3-0.6,0.6-0.8c0.3-0.2,0.7-0.3,1.3-0.3
				c0.3,0,0.7,0,1.1,0.1l-0.2,1.1c-0.3,0-0.5-0.1-0.7-0.1c-0.4,0-0.6,0.1-0.8,0.2s-0.2,0.5-0.2,0.9v0.7h1.4v1h-1.4v6.3L79.1,282.5
				L79.1,282.5z"/>
			<path d="M82.2,280.3l1.2-0.2c0.1,0.5,0.3,0.9,0.6,1.1s0.7,0.4,1.3,0.4c0.6,0,1-0.1,1.3-0.3c0.3-0.2,0.4-0.5,0.4-0.8
				s-0.1-0.5-0.4-0.7c-0.2-0.1-0.6-0.2-1.3-0.4c-0.9-0.2-1.5-0.4-1.9-0.6c-0.3-0.2-0.6-0.4-0.8-0.7c-0.2-0.3-0.3-0.6-0.3-1
				c0-0.3,0.1-0.6,0.2-0.9s0.3-0.5,0.6-0.7c0.2-0.1,0.5-0.3,0.8-0.4s0.7-0.1,1.1-0.1c0.6,0,1.1,0.1,1.5,0.2s0.7,0.4,1,0.7
				c0.2,0.3,0.3,0.7,0.4,1.1l-1.2,0.2c-0.1-0.4-0.2-0.7-0.5-0.9s-0.6-0.3-1.1-0.3c-0.6,0-1,0.1-1.2,0.3s-0.4,0.4-0.4,0.7
				c0,0.2,0.1,0.3,0.2,0.4s0.3,0.2,0.5,0.3c0.1,0,0.5,0.2,1.1,0.3c0.9,0.2,1.5,0.4,1.8,0.6c0.3,0.1,0.6,0.4,0.8,0.6s0.3,0.6,0.3,1.1
				c0,0.4-0.1,0.8-0.4,1.2c-0.2,0.4-0.6,0.6-1,0.8c-0.5,0.2-1,0.3-1.5,0.3c-0.9,0-1.7-0.2-2.2-0.6S82.3,281.1,82.2,280.3z"/>
			<path d="M94.7,280.2l1.3,0.2c-0.2,0.7-0.6,1.3-1.1,1.7s-1.2,0.6-2.1,0.6c-1.1,0-1.9-0.3-2.5-1s-0.9-1.6-0.9-2.8
				c0-1.2,0.3-2.2,0.9-2.8s1.4-1,2.4-1s1.8,0.3,2.4,1s0.9,1.6,0.9,2.8c0,0.1,0,0.2,0,0.3h-5.4c0,0.8,0.3,1.4,0.7,1.8
				s0.9,0.6,1.5,0.6c0.5,0,0.8-0.1,1.2-0.4S94.5,280.7,94.7,280.2z M90.6,278.2h4.1c-0.1-0.6-0.2-1.1-0.5-1.4
				c-0.4-0.5-0.9-0.7-1.5-0.7s-1,0.2-1.4,0.6S90.7,277.5,90.6,278.2z"/>
			<path d="M100.2,281.4l0.2,1.1c-0.3,0.1-0.7,0.1-0.9,0.1c-0.4,0-0.8-0.1-1-0.2s-0.4-0.3-0.5-0.6c-0.1-0.2-0.2-0.7-0.2-1.5v-4.2
				h-0.9v-1h0.9v-1.8l1.2-0.7v2.5h1.2v1H99v4.2c0,0.4,0,0.6,0.1,0.7s0.1,0.2,0.2,0.2s0.2,0.1,0.4,0.1
				C99.8,281.4,99.9,281.4,100.2,281.4z"/>
			<path d="M101.7,276.6v-1.4h1.4v1.4H101.7z M101.7,282.5v-1.4h1.4v1.4H101.7z"/>
			<path d="M108.8,277.6c0-1.2,0.1-2.1,0.4-2.9c0.2-0.7,0.6-1.3,1.1-1.7s1.1-0.6,1.8-0.6c0.5,0,1,0.1,1.4,0.3c0.4,0.2,0.7,0.5,1,0.9
				s0.5,0.9,0.6,1.5c0.2,0.6,0.2,1.4,0.2,2.4c0,1.2-0.1,2.1-0.4,2.8c-0.2,0.7-0.6,1.3-1.1,1.7c-0.5,0.4-1.1,0.6-1.8,0.6
				c-1,0-1.7-0.3-2.3-1C109.1,280.8,108.8,279.4,108.8,277.6z M110.1,277.6c0,1.6,0.2,2.7,0.6,3.3c0.4,0.5,0.9,0.8,1.4,0.8
				s1-0.3,1.4-0.8s0.6-1.6,0.6-3.3c0-1.6-0.2-2.7-0.6-3.3s-0.9-0.8-1.4-0.8c-0.6,0-1,0.2-1.4,0.7
				C110.3,274.8,110.1,275.9,110.1,277.6z"/>
		</g>
		<g class="st4">
			<path d="M7.2,299.5l0.6-2.9H6.7v-1H8l0.5-2.5H6.7v-1h2.1l0.6-2.9h1L9.8,292H12l0.6-2.9h1L13,292h1.2v1h-1.4l-0.5,2.5h1.9v1H12
				l-0.6,2.9h-1l0.6-2.9H8.9l-0.6,2.9H7.2V299.5z M9.1,295.5h2.1l0.5-2.5H9.6L9.1,295.5z"/>
			<path d="M24,295.4v-1.2h4.2v3.7c-0.7,0.5-1.3,0.9-2,1.2c-0.7,0.3-1.4,0.4-2.1,0.4c-1,0-1.9-0.2-2.7-0.6c-0.8-0.4-1.4-1-1.8-1.8
				s-0.6-1.7-0.6-2.7s0.2-1.9,0.6-2.7c0.4-0.8,1-1.5,1.8-1.9s1.6-0.6,2.6-0.6c0.7,0,1.4,0.1,2,0.4c0.6,0.2,1,0.6,1.4,1
				s0.6,1,0.8,1.6l-1.2,0.3c-0.2-0.5-0.3-0.9-0.6-1.2s-0.5-0.5-1-0.7c-0.4-0.2-0.9-0.3-1.4-0.3c-0.6,0-1.1,0.1-1.6,0.3
				c-0.4,0.2-0.8,0.4-1.1,0.7s-0.5,0.6-0.6,1c-0.3,0.6-0.4,1.3-0.4,2c0,0.9,0.2,1.6,0.5,2.2s0.8,1,1.3,1.3s1.2,0.4,1.9,0.4
				c0.6,0,1.1-0.1,1.7-0.3c0.5-0.2,1-0.5,1.2-0.7v-1.9H24V295.4z"/>
			<path d="M35,297l1.3,0.2c-0.2,0.7-0.6,1.3-1.1,1.7s-1.2,0.6-2.1,0.6c-1.1,0-1.9-0.3-2.5-1s-0.9-1.6-0.9-2.8
				c0-1.2,0.3-2.2,0.9-2.8s1.4-1,2.4-1s1.8,0.3,2.4,1s0.9,1.6,0.9,2.8c0,0.1,0,0.2,0,0.3h-5.4c0,0.8,0.3,1.4,0.7,1.8
				c0.4,0.4,0.9,0.6,1.5,0.6c0.5,0,0.8-0.1,1.2-0.4S34.8,297.5,35,297z M31,295h4c-0.1-0.6-0.2-1.1-0.5-1.4
				c-0.4-0.5-0.9-0.7-1.5-0.7s-1,0.2-1.4,0.6S31,294.3,31,295z"/>
			<path d="M37.4,295.7c0-1.3,0.4-2.3,1.1-3c0.6-0.5,1.4-0.8,2.3-0.8c1,0,1.8,0.3,2.4,1c0.6,0.7,1,1.6,1,2.7c0,0.9-0.1,1.7-0.4,2.2
				c-0.3,0.5-0.7,1-1.2,1.2s-1.1,0.4-1.8,0.4c-1,0-1.8-0.3-2.5-1S37.4,296.9,37.4,295.7z M38.6,295.7c0,0.9,0.2,1.6,0.6,2.1
				c0.4,0.5,0.9,0.7,1.5,0.7s1.1-0.2,1.5-0.7s0.6-1.2,0.6-2.1s-0.2-1.6-0.6-2c-0.4-0.5-0.9-0.7-1.5-0.7s-1.1,0.2-1.5,0.7
				S38.6,294.7,38.6,295.7z"/>
			<path d="M45.6,299.3V292h1.1v1c0.2-0.4,0.5-0.6,0.9-0.9c0.4-0.2,0.8-0.3,1.3-0.3s1,0.1,1.3,0.3s0.6,0.5,0.7,0.9
				c0.6-0.8,1.3-1.3,2.2-1.3c0.7,0,1.3,0.2,1.7,0.6s0.6,1,0.6,1.8v5h-1.2v-4.6c0-0.5,0-0.8-0.1-1.1c-0.1-0.2-0.2-0.4-0.4-0.5
				s-0.5-0.2-0.7-0.2c-0.5,0-0.9,0.2-1.3,0.5c-0.3,0.3-0.5,0.9-0.5,1.6v4.2H50v-4.7c0-0.5-0.1-1-0.3-1.2s-0.5-0.4-1-0.4
				c-0.3,0-0.7,0.1-1,0.3s-0.5,0.4-0.6,0.8s-0.2,0.9-0.2,1.5v3.8h-1.3V299.3z"/>
			<path d="M62.2,297l1.3,0.2c-0.2,0.7-0.6,1.3-1.1,1.7s-1.2,0.6-2.1,0.6c-1.1,0-1.9-0.3-2.5-1s-0.9-1.6-0.9-2.8
				c0-1.2,0.3-2.2,0.9-2.8s1.4-1,2.4-1s1.8,0.3,2.4,1s0.9,1.6,0.9,2.8c0,0.1,0,0.2,0,0.3h-5.4c0,0.8,0.3,1.4,0.7,1.8
				s0.9,0.6,1.5,0.6c0.5,0,0.8-0.1,1.2-0.4S62,297.5,62.2,297z M58.2,295h4.1c-0.1-0.6-0.2-1.1-0.5-1.4c-0.4-0.5-0.9-0.7-1.5-0.7
				s-1,0.2-1.4,0.6S58.2,294.3,58.2,295z"/>
			<path d="M67.7,298.2l0.2,1.1c-0.3,0.1-0.7,0.1-0.9,0.1c-0.4,0-0.8-0.1-1-0.2s-0.4-0.3-0.5-0.6c-0.1-0.2-0.2-0.7-0.2-1.5V293h-0.9
				v-1h0.9v-1.8l1.2-0.7v2.5h1.2v1h-1.2v4.2c0,0.4,0,0.6,0.1,0.7s0.1,0.2,0.2,0.2s0.2,0.1,0.4,0.1C67.3,298.2,67.5,298.2,67.7,298.2
				z"/>
			<path d="M68.9,299.3V292H70v1.1c0.3-0.5,0.5-0.9,0.8-1s0.5-0.2,0.8-0.2c0.4,0,0.8,0.1,1.3,0.4l-0.4,1.1c-0.3-0.2-0.6-0.3-0.9-0.3
				s-0.5,0.1-0.7,0.2c-0.2,0.2-0.4,0.4-0.5,0.7c-0.1,0.4-0.2,0.9-0.2,1.4v3.8L68.9,299.3L68.9,299.3z"/>
			<path d="M73.6,290.7v-1.4h1.2v1.4H73.6z M73.6,299.3V292h1.2v7.3H73.6z"/>
			<path d="M81.7,297l1.3,0.2c-0.2,0.7-0.6,1.3-1.1,1.7s-1.2,0.6-2.1,0.6c-1.1,0-1.9-0.3-2.5-1s-0.9-1.6-0.9-2.8
				c0-1.2,0.3-2.2,0.9-2.8s1.4-1,2.4-1s1.8,0.3,2.4,1s0.9,1.6,0.9,2.8c0,0.1,0,0.2,0,0.3h-5.4c0,0.8,0.3,1.4,0.7,1.8
				s0.9,0.6,1.5,0.6c0.5,0,0.8-0.1,1.2-0.4S81.5,297.5,81.7,297z M77.6,295h4.1c-0.1-0.6-0.2-1.1-0.5-1.4c-0.4-0.5-0.9-0.7-1.5-0.7
				s-1,0.2-1.4,0.6S77.7,294.3,77.6,295z"/>
			<path d="M84,297.1l1.2-0.2c0.1,0.5,0.3,0.9,0.6,1.1s0.7,0.4,1.3,0.4c0.6,0,1-0.1,1.3-0.3c0.3-0.2,0.4-0.5,0.4-0.8
				s-0.1-0.5-0.4-0.7c-0.2-0.1-0.6-0.2-1.3-0.4c-0.9-0.2-1.5-0.4-1.9-0.6c-0.3-0.2-0.6-0.4-0.8-0.7c-0.2-0.3-0.3-0.6-0.3-1
				c0-0.3,0.1-0.6,0.2-0.9s0.3-0.5,0.6-0.7c0.2-0.1,0.5-0.3,0.8-0.4s0.7-0.1,1.1-0.1c0.6,0,1.1,0.1,1.5,0.2s0.7,0.4,1,0.7
				c0.2,0.3,0.3,0.7,0.4,1.1l-1.2,0.2c-0.1-0.4-0.2-0.7-0.5-0.9s-0.6-0.3-1.1-0.3c-0.6,0-1,0.1-1.2,0.3s-0.4,0.4-0.4,0.7
				c0,0.2,0.1,0.3,0.2,0.4s0.3,0.2,0.5,0.3c0.1,0,0.5,0.2,1.1,0.3c0.9,0.2,1.5,0.4,1.8,0.6c0.3,0.1,0.6,0.4,0.8,0.6s0.3,0.6,0.3,1.1
				c0,0.4-0.1,0.8-0.4,1.2c-0.2,0.4-0.6,0.6-1,0.8c-0.5,0.2-1,0.3-1.5,0.3c-0.9,0-1.7-0.2-2.2-0.6S84.1,297.9,84,297.1z"/>
			<path d="M91.8,293.4V292h1.4v1.4H91.8z M91.8,299.3v-1.4h1.4v1.4H91.8z"/>
			<path d="M103.6,299.3h-1.2v-7.8c-0.3,0.3-0.7,0.6-1.2,0.8s-0.9,0.5-1.3,0.6v-1.2c0.7-0.3,1.3-0.7,1.8-1.2s0.9-0.9,1.1-1.3h0.8
				C103.6,289.2,103.6,299.3,103.6,299.3z"/>
		</g>
	</g>
</g>
<g>
	<g transform="translate(8, 124)">
		<rect x="286.2" y="49.3" class="st8" width="100" height="100"/>
		<rect x="286.2" y="49.3" class="st9" width="35" height="100"/>
		<rect x="306.2" y="69.3" class="st10" width="80" height="50"/>
		<path class="st12" d="M436,61.8c-5.7,3.8-11.3,7.2-15.9,12c-0.2,0-0.2-0.2-0.3-0.2c0.1-0.8,0.1-1.5,0.4-2.1
			c0.8-1.6,0.9-3.5,0.4-5.3c-0.3-1.3-1.2-2.4-2.6-3c-1.6-0.6-3.1,0-4.6,0.8c-0.8,0.5-1.2,1-1.5,2c-0.8,2.4-0.4,5-0.4,7.5
			c0,0.2,0,0.2,0,0.3c0.3,0.5,0,0.5-0.3,0.6c-1.6,0.5-3.4,0.9-5.1,1.5c-1.6,0.6-2.7,2-2.4,3.9c0,0.4,0,0.9,0.1,1.5
			c0.2,0.9,0.2,1.8,0.3,2.7c0.2,1.3-0.8,2.4-1.2,3.6c-0.8,1.7-0.6,3.5-0.4,5.1c0.1,1.8,1.5,2.8,2.8,3.8c1.2,0.8,1.2,1.1,0.8,2.4
			c-0.6,1.2-0.9,2.6-1.2,3.9c-0.1,0.6-0.1,1.2,0,1.9c0.2,1.2,0.4,2.3,0.8,3.4c0.2,0.8,0.4,1.4,0.8,2.1c0.3,0.6,0.8,1.4,1.1,1.9
			c0.8,1.7,7.9,8.7,10.4,9.3c0.8,0.1,1.6,0.4,2.4,0.8c0.3,0.1,0.4,0.3,0.6,0.6c0.3,1.6-0.6,3.1-2.1,3.8c-1.2,0.4-2.3,1.2-3.3,1.8
			c-0.3,0.2-0.1,2.4,0.3,3.5c0,0,0,0.4,0.1,0.8c0.3,0.1,6.2,0.6,7.2,0.6c1.3,0.2,30.1,0.3,33-0.8c0.9-0.3,1.8-0.9,2.7-1.7
			c0.9-0.8,1.6-1.3,2.7-1.5c1.8-0.1,3.4-0.1,5.3-0.3c0.4,0,1.1-0.3,1.5-0.3s2.3-0.8,2.6-1.2c0.3-0.3,4.4-3,4.9-4.2
			c1.2-2.1,1.8-4.2,1.2-6.6c-0.3-0.9-0.8-1.7-1.6-2.1c-1.2-0.8-2.4-0.9-3.8-0.6c-1.1,0.1-1.4-0.1-1.4-1.1c-0.1-0.9-0.1-1.8-0.1-2.6
			c-0.1-2.1-0.3-4.2-0.6-6.3c-0.6-3.6-2.4-6.6-4.6-9.5c-4.9-6.1-10.9-9.6-19.1-8.2c-3.3,0.6-6.4,1.3-9.8,2.3
			c-1.2,0.3-2.4,0.3-3.6-0.2c-1.3-0.4-2.7-0.8-4-1c-0.9-0.2-1.7-0.6-2.1-1.3c-1.1-1.4-1.5-2.7-1.8-4.4c-0.1-0.8,0.2-1.2,0.8-1.6
			c3.6-2.3,7.4-4.2,11.3-5.7c2.4-0.9,4.7-2.1,6.4-4c0.4-0.5,0.8-1.2,0.9-1.8c0.4-3,0-5.7-2.6-7.8c-1.2-0.9-2.1-1-3.3-0.4
			C437.6,60.6,436.6,61.3,436,61.8z"/>
		<path class="st13" d="M516,61.8c-5.7,3.8-11.3,7.2-15.9,12c-0.1,0-0.1-0.2-0.3-0.2c0.2-0.8,0.2-1.5,0.5-2.1
			c0.8-1.6,0.9-3.5,0.5-5.3c-0.3-1.3-1.2-2.4-2.6-3c-1.6-0.6-3.1,0-4.6,0.8c-0.8,0.5-1.2,1-1.5,2c-0.8,2.4-0.5,5-0.5,7.5
			c0,0.2,0,0.2,0,0.3c0.3,0.5,0,0.5-0.3,0.6c-1.6,0.5-3.5,0.9-5.1,1.5s-2.7,2-2.4,3.9c0,0.4,0,0.9,0.1,1.5c0.1,0.9,0.1,1.8,0.3,2.7
			c0.1,1.3-0.8,2.4-1.2,3.6c-0.8,1.7-0.6,3.5-0.5,5.1c0.2,1.8,1.5,2.8,2.9,3.8c1.2,0.8,1.2,1.1,0.8,2.4c-0.6,1.2-0.9,2.6-1.2,3.9
			c-0.2,0.6-0.2,1.2,0,1.9c0.1,1.2,0.4,2.3,0.8,3.4c0.1,0.8,0.4,1.4,0.8,2.1c0.3,0.6,0.8,1.4,1,1.9c0.8,1.7,8,8.7,10.4,9.3
			c0.8,0.1,1.6,0.4,2.4,0.8c0.3,0.1,0.5,0.3,0.6,0.6c0.3,1.6-0.6,3.1-2.1,3.8c-1.2,0.4-2.3,1.2-3.3,1.8c-0.3,0.2-0.2,2.4,0.3,3.5
			c0,0,0,0.4,0.1,0.8c0.3,0.1,6.1,0.6,7.2,0.6c1.4,0.2,30.1,0.3,33-0.8c0.9-0.3,1.8-0.9,2.7-1.7s1.7-1.3,2.7-1.5
			c1.8-0.1,3.5-0.1,5.3-0.3c0.5,0,1-0.3,1.5-0.3s2.3-0.8,2.5-1.2c0.3-0.3,4.4-3,5-4.2c1.2-2.1,1.8-4.2,1.2-6.6
			c-0.3-0.9-0.8-1.7-1.7-2.1c-1.2-0.8-2.4-0.9-3.8-0.6c-1,0.1-1.3-0.1-1.3-1.1c-0.2-0.9-0.2-1.8-0.2-2.6c-0.1-2.1-0.3-4.2-0.6-6.3
			c-0.6-3.6-2.4-6.6-4.7-9.5c-4.9-6.1-10.9-9.6-19-8.2c-3.3,0.6-6.5,1.3-9.8,2.3c-1.2,0.3-2.4,0.3-3.6-0.2c-1.4-0.4-2.7-0.8-4-1
			c-0.9-0.2-1.6-0.6-2.1-1.3c-1-1.4-1.5-2.7-1.8-4.4c-0.2-0.8,0.1-1.2,0.8-1.6c3.6-2.3,7.3-4.2,11.3-5.7c2.4-0.9,4.6-2.1,6.4-4
			c0.5-0.5,0.8-1.2,0.9-1.8c0.5-3,0-5.7-2.5-7.8c-1.2-0.9-2.1-1-3.3-0.4C517.6,60.6,516.6,61.3,516,61.8z"/>
		<g class="st4">
			<path d="M287.3,165.2v-10h1.3v10H287.3z"/>
			<path d="M290.8,165.2v-7.3h1.1v1c0.5-0.8,1.3-1.2,2.3-1.2c0.4,0,0.8,0.1,1.2,0.2c0.4,0.2,0.6,0.4,0.8,0.6s0.3,0.6,0.4,0.9
				c0,0.2,0.1,0.6,0.1,1.2v4.5h-1.2v-4.4c0-0.5,0-0.9-0.1-1.1c-0.1-0.2-0.3-0.4-0.5-0.6c-0.2-0.1-0.5-0.2-0.9-0.2
				c-0.5,0-1,0.2-1.4,0.5s-0.6,1-0.6,1.9v4L290.8,165.2L290.8,165.2z"/>
			<path d="M298.1,163l1.2-0.2c0.1,0.5,0.3,0.9,0.6,1.1s0.7,0.4,1.3,0.4c0.6,0,1-0.1,1.3-0.3s0.4-0.5,0.4-0.8s-0.1-0.5-0.4-0.7
				c-0.2-0.1-0.6-0.2-1.3-0.4c-0.9-0.2-1.5-0.4-1.9-0.6c-0.3-0.2-0.6-0.4-0.8-0.7c-0.2-0.3-0.3-0.6-0.3-1c0-0.3,0.1-0.6,0.2-0.9
				c0.1-0.3,0.3-0.5,0.6-0.7c0.2-0.1,0.5-0.3,0.8-0.4c0.3-0.1,0.7-0.1,1.1-0.1c0.6,0,1.1,0.1,1.5,0.2s0.7,0.4,1,0.7
				c0.2,0.3,0.3,0.7,0.4,1.1l-1.2,0.2c-0.1-0.4-0.2-0.7-0.5-0.9s-0.6-0.3-1.1-0.3c-0.6,0-1,0.1-1.2,0.3s-0.4,0.4-0.4,0.7
				c0,0.2,0.1,0.3,0.2,0.4c0.1,0.1,0.3,0.2,0.5,0.3c0.1,0,0.5,0.2,1.1,0.3c0.9,0.2,1.5,0.4,1.8,0.6c0.3,0.1,0.6,0.4,0.8,0.6
				s0.3,0.6,0.3,1.1c0,0.4-0.1,0.8-0.4,1.2c-0.2,0.4-0.6,0.6-1,0.8c-0.5,0.2-1,0.3-1.5,0.3c-0.9,0-1.7-0.2-2.2-0.6
				S298.3,163.8,298.1,163z"/>
			<path d="M308.3,164.1l0.2,1.1c-0.3,0.1-0.7,0.1-0.9,0.1c-0.4,0-0.8-0.1-1-0.2s-0.4-0.3-0.5-0.6c-0.1-0.2-0.2-0.7-0.2-1.5v-4.2
				H305v-1h0.9V156l1.2-0.7v2.5h1.2v1h-1.2v4.2c0,0.4,0,0.6,0.1,0.7s0.1,0.2,0.2,0.2s0.2,0.1,0.4,0.1
				C307.9,164.1,308.1,164.1,308.3,164.1z"/>
			<path d="M314.3,164.3c-0.5,0.4-0.9,0.7-1.3,0.8s-0.9,0.2-1.4,0.2c-0.8,0-1.4-0.2-1.8-0.6c-0.4-0.4-0.6-0.9-0.6-1.5
				c0-0.4,0.1-0.7,0.2-1c0.2-0.3,0.4-0.5,0.6-0.7s0.6-0.3,0.9-0.4c0.2-0.1,0.6-0.1,1.1-0.2c1-0.1,1.7-0.3,2.2-0.4c0-0.2,0-0.3,0-0.3
				c0-0.5-0.1-0.9-0.3-1.1c-0.3-0.3-0.8-0.4-1.4-0.4s-1,0.1-1.3,0.3s-0.5,0.6-0.6,1.1l-1.2-0.2c0.1-0.5,0.3-0.9,0.5-1.2
				c0.3-0.3,0.6-0.6,1.1-0.7c0.5-0.2,1-0.3,1.6-0.3s1.1,0.1,1.5,0.2s0.7,0.3,0.9,0.6c0.2,0.2,0.3,0.5,0.4,0.8c0,0.2,0.1,0.6,0.1,1.1
				v1.6c0,1.1,0,1.9,0.1,2.2s0.2,0.6,0.3,0.9h-1.3C314.4,164.9,314.3,164.6,314.3,164.3z M314.2,161.5c-0.4,0.2-1.1,0.3-2,0.5
				c-0.5,0.1-0.9,0.2-1.1,0.2s-0.4,0.2-0.5,0.4s-0.2,0.4-0.2,0.6c0,0.3,0.1,0.6,0.4,0.8s0.6,0.3,1.1,0.3s0.9-0.1,1.3-0.3
				s0.6-0.5,0.8-0.9c0.1-0.3,0.2-0.7,0.2-1.2L314.2,161.5L314.2,161.5z"/>
			<path d="M317.3,165.2v-7.3h1.1v1c0.5-0.8,1.3-1.2,2.3-1.2c0.4,0,0.8,0.1,1.2,0.2c0.4,0.2,0.6,0.4,0.8,0.6s0.3,0.6,0.4,0.9
				c0,0.2,0.1,0.6,0.1,1.2v4.5H322v-4.4c0-0.5,0-0.9-0.1-1.1c-0.1-0.2-0.3-0.4-0.5-0.6c-0.2-0.1-0.5-0.2-0.9-0.2
				c-0.5,0-1,0.2-1.4,0.5s-0.6,1-0.6,1.9v4L317.3,165.2L317.3,165.2z"/>
			<path d="M329.8,162.5l1.2,0.2c-0.1,0.8-0.5,1.5-1,2s-1.2,0.7-2,0.7c-1,0-1.8-0.3-2.4-1c-0.6-0.6-0.9-1.6-0.9-2.8
				c0-0.8,0.1-1.5,0.4-2.1s0.7-1,1.2-1.3s1.1-0.4,1.7-0.4c0.8,0,1.4,0.2,1.9,0.6c0.5,0.4,0.8,1,1,1.7l-1.2,0.2
				c-0.1-0.5-0.3-0.9-0.6-1.1s-0.6-0.4-1-0.4c-0.6,0-1.1,0.2-1.5,0.7c-0.4,0.4-0.6,1.1-0.6,2.1s0.2,1.7,0.6,2.1s0.9,0.7,1.5,0.7
				c0.5,0,0.9-0.1,1.2-0.4S329.7,163.1,329.8,162.5z"/>
			<path d="M337.1,162.8l1.3,0.2c-0.2,0.7-0.6,1.3-1.1,1.7s-1.2,0.6-2.1,0.6c-1.1,0-1.9-0.3-2.5-1s-0.9-1.6-0.9-2.8s0.3-2.2,0.9-2.8
				s1.4-1,2.4-1s1.8,0.3,2.4,1s0.9,1.6,0.9,2.8c0,0.1,0,0.2,0,0.3H333c0,0.8,0.3,1.4,0.7,1.8s0.9,0.6,1.5,0.6c0.5,0,0.8-0.1,1.2-0.4
				S336.9,163.3,337.1,162.8z M333,160.8h4.1c-0.1-0.6-0.2-1.1-0.5-1.4c-0.4-0.5-0.9-0.7-1.5-0.7s-1,0.2-1.4,0.6
				S333.1,160.2,333,160.8z"/>
			<path d="M343.5,160.3c0-1.7,0.4-3,1.3-3.9s2-1.4,3.5-1.4c0.9,0,1.8,0.2,2.5,0.7s1.3,1.1,1.7,1.8c0.4,0.8,0.6,1.7,0.6,2.7
				s-0.2,1.9-0.6,2.7s-1,1.4-1.7,1.8c-0.8,0.4-1.6,0.6-2.4,0.6c-0.9,0-1.8-0.2-2.5-0.7s-1.3-1.1-1.7-1.9S343.5,161.2,343.5,160.3z
				 M344.9,160.3c0,1.2,0.3,2.2,1,2.9c0.6,0.7,1.5,1,2.4,1c1,0,1.8-0.4,2.5-1.1s1-1.7,1-3c0-0.8-0.1-1.5-0.4-2.1s-0.7-1.1-1.2-1.4
				c-0.5-0.3-1.1-0.5-1.8-0.5c-0.9,0-1.7,0.3-2.4,1C345.2,157.7,344.9,158.8,344.9,160.3z"/>
			<path d="M355,165.2v-6.3h-1.1v-1h1.1v-0.8c0-0.5,0-0.8,0.1-1.1s0.3-0.6,0.6-0.8c0.3-0.2,0.7-0.3,1.3-0.3c0.3,0,0.7,0,1.1,0.1
				l-0.2,1.1c-0.3,0-0.5-0.1-0.7-0.1c-0.4,0-0.6,0.1-0.8,0.2s-0.2,0.5-0.2,0.9v0.7h1.4v1h-1.4v6.3H355V165.2z"/>
			<path d="M358.6,165.2v-6.3h-1.1v-1h1.1v-0.8c0-0.5,0-0.8,0.1-1.1s0.3-0.6,0.6-0.8c0.3-0.2,0.7-0.3,1.3-0.3c0.3,0,0.7,0,1.1,0.1
				l-0.2,1.1c-0.3,0-0.5-0.1-0.7-0.1c-0.4,0-0.6,0.1-0.8,0.2s-0.2,0.5-0.2,0.9v0.7h1.4v1h-1.4v6.3h-1.2V165.2z"/>
			<path d="M361.7,163l1.2-0.2c0.1,0.5,0.3,0.9,0.6,1.1s0.7,0.4,1.3,0.4c0.6,0,1-0.1,1.3-0.3s0.4-0.5,0.4-0.8s-0.1-0.5-0.4-0.7
				c-0.2-0.1-0.6-0.2-1.3-0.4c-0.9-0.2-1.5-0.4-1.9-0.6c-0.3-0.2-0.6-0.4-0.8-0.7c-0.2-0.3-0.3-0.6-0.3-1c0-0.3,0.1-0.6,0.2-0.9
				c0.1-0.3,0.3-0.5,0.6-0.7c0.2-0.1,0.5-0.3,0.8-0.4c0.3-0.1,0.7-0.1,1.1-0.1c0.6,0,1.1,0.1,1.5,0.2s0.7,0.4,1,0.7
				c0.2,0.3,0.3,0.7,0.4,1.1l-1.2,0.2c-0.1-0.4-0.2-0.7-0.5-0.9s-0.6-0.3-1.1-0.3c-0.6,0-1,0.1-1.2,0.3s-0.4,0.4-0.4,0.7
				c0,0.2,0.1,0.3,0.2,0.4c0.1,0.1,0.3,0.2,0.5,0.3c0.1,0,0.5,0.2,1.1,0.3c0.9,0.2,1.5,0.4,1.8,0.6c0.3,0.1,0.6,0.4,0.8,0.6
				s0.3,0.6,0.3,1.1c0,0.4-0.1,0.8-0.4,1.2c-0.2,0.4-0.6,0.6-1,0.8c-0.5,0.2-1,0.3-1.5,0.3c-0.9,0-1.7-0.2-2.2-0.6
				S361.8,163.8,361.7,163z"/>
			<path d="M374.2,162.8l1.3,0.2c-0.2,0.7-0.6,1.3-1.1,1.7s-1.2,0.6-2.1,0.6c-1.1,0-1.9-0.3-2.5-1s-0.9-1.6-0.9-2.8s0.3-2.2,0.9-2.8
				s1.4-1,2.4-1s1.8,0.3,2.4,1s0.9,1.6,0.9,2.8c0,0.1,0,0.2,0,0.3H370c0,0.8,0.3,1.4,0.7,1.8s0.9,0.6,1.5,0.6c0.5,0,0.8-0.1,1.2-0.4
				S374,163.3,374.2,162.8z M370.1,160.8h4.1c-0.1-0.6-0.2-1.1-0.5-1.4c-0.4-0.5-0.9-0.7-1.5-0.7s-1,0.2-1.4,0.6
				S370.2,160.2,370.1,160.8z"/>
			<path d="M379.7,164.1l0.2,1.1c-0.3,0.1-0.7,0.1-0.9,0.1c-0.4,0-0.8-0.1-1-0.2s-0.4-0.3-0.5-0.6c-0.1-0.2-0.2-0.7-0.2-1.5v-4.2
				h-0.9v-1h0.9V156l1.2-0.7v2.5h1.2v1h-1.2v4.2c0,0.4,0,0.6,0.1,0.7s0.1,0.2,0.2,0.2s0.2,0.1,0.4,0.1
				C379.3,164.1,379.4,164.1,379.7,164.1z"/>
			<path d="M381.2,159.3v-1.4h1.4v1.4H381.2z M381.2,165.2v-1.4h1.4v1.4H381.2z"/>
			<path d="M394.8,164v1.2h-6.6c0-0.3,0-0.6,0.1-0.9c0.2-0.5,0.4-0.9,0.8-1.3s0.9-0.9,1.6-1.5c1.1-0.9,1.8-1.6,2.2-2.1
				c0.4-0.5,0.6-1,0.6-1.5s-0.2-0.9-0.5-1.2s-0.8-0.5-1.4-0.5s-1.1,0.2-1.4,0.5s-0.5,0.8-0.5,1.5l-1.3-0.1c0.1-0.9,0.4-1.7,1-2.2
				s1.3-0.7,2.3-0.7s1.7,0.3,2.3,0.8s0.8,1.2,0.8,2c0,0.4-0.1,0.8-0.2,1.2s-0.4,0.8-0.8,1.2s-1,1-1.9,1.8c-0.7,0.6-1.2,1-1.4,1.3
				c-0.2,0.2-0.4,0.4-0.5,0.7h4.8V164z"/>
		</g>
		<g class="st4">
			<path d="M286.7,182.1l0.6-2.9h-1.2v-1h1.4l0.5-2.5h-1.9v-1h2.1l0.6-2.9h1l-0.6,2.9h2.2l0.6-2.9h1l-0.6,2.9h1.2v1h-1.4l-0.5,2.5
				h1.9v1h-2.1l-0.6,2.9h-1l0.6-2.9h-2.1l-0.6,2.9H286.7z M288.6,178.2h2.1l0.5-2.5H289L288.6,178.2z"/>
			<path d="M303.5,178v-1.2h4.2v3.7c-0.7,0.5-1.3,0.9-2,1.2s-1.4,0.4-2.1,0.4c-1,0-1.9-0.2-2.7-0.6c-0.8-0.4-1.4-1-1.8-1.8
				s-0.6-1.7-0.6-2.7s0.2-1.9,0.6-2.7s1-1.5,1.8-1.9s1.6-0.6,2.6-0.6c0.7,0,1.4,0.1,2,0.4c0.6,0.2,1,0.6,1.4,1s0.6,1,0.8,1.6
				l-1.2,0.3c-0.2-0.5-0.3-0.9-0.6-1.2s-0.5-0.5-1-0.7c-0.4-0.2-0.9-0.3-1.4-0.3c-0.6,0-1.1,0.1-1.6,0.3c-0.4,0.2-0.8,0.4-1.1,0.7
				s-0.5,0.6-0.6,1c-0.3,0.6-0.4,1.3-0.4,2c0,0.9,0.2,1.6,0.5,2.2s0.8,1,1.3,1.3s1.2,0.4,1.9,0.4c0.6,0,1.1-0.1,1.7-0.3
				c0.5-0.2,1-0.5,1.2-0.7V178H303.5z"/>
			<path d="M314.5,179.6l1.3,0.2c-0.2,0.7-0.6,1.3-1.1,1.7s-1.2,0.6-2.1,0.6c-1.1,0-1.9-0.3-2.5-1s-0.9-1.6-0.9-2.8s0.3-2.2,0.9-2.8
				s1.4-1,2.4-1s1.8,0.3,2.4,1s0.9,1.6,0.9,2.8c0,0.1,0,0.2,0,0.3h-5.4c0,0.8,0.3,1.4,0.7,1.8s0.9,0.6,1.5,0.6
				c0.5,0,0.8-0.1,1.2-0.4S314.3,180.1,314.5,179.6z M310.5,177.6h4.1c-0.1-0.6-0.2-1.1-0.5-1.4c-0.4-0.5-0.9-0.7-1.5-0.7
				s-1,0.2-1.4,0.6S310.5,177,310.5,177.6z"/>
			<path d="M316.9,178.3c0-1.3,0.4-2.3,1.1-3c0.6-0.5,1.4-0.8,2.3-0.8c1,0,1.8,0.3,2.4,1s1,1.6,1,2.7c0,0.9-0.1,1.7-0.4,2.2
				s-0.7,1-1.2,1.2s-1.1,0.4-1.8,0.4c-1,0-1.8-0.3-2.5-1S316.9,179.6,316.9,178.3z M318.1,178.3c0,0.9,0.2,1.6,0.6,2.1
				s0.9,0.7,1.5,0.7s1.1-0.2,1.5-0.7s0.6-1.2,0.6-2.1c0-0.9-0.2-1.6-0.6-2c-0.4-0.5-0.9-0.7-1.5-0.7s-1.1,0.2-1.5,0.7
				S318.1,177.4,318.1,178.3z"/>
			<path d="M325.1,182v-7.3h1.1v1c0.2-0.4,0.5-0.6,0.9-0.9c0.4-0.2,0.8-0.3,1.3-0.3s1,0.1,1.3,0.3s0.6,0.5,0.7,0.9
				c0.6-0.8,1.3-1.3,2.2-1.3c0.7,0,1.3,0.2,1.7,0.6c0.4,0.4,0.6,1,0.6,1.8v5h-1.2v-4.6c0-0.5,0-0.8-0.1-1.1
				c-0.1-0.2-0.2-0.4-0.4-0.5s-0.5-0.2-0.7-0.2c-0.5,0-0.9,0.2-1.3,0.5c-0.3,0.3-0.5,0.9-0.5,1.6v4.2h-1.2V177c0-0.5-0.1-1-0.3-1.2
				s-0.5-0.4-1-0.4c-0.3,0-0.7,0.1-1,0.3s-0.5,0.4-0.6,0.8s-0.2,0.9-0.2,1.5v3.8h-1.3V182z"/>
			<path d="M341.7,179.6l1.3,0.2c-0.2,0.7-0.6,1.3-1.1,1.7s-1.2,0.6-2.1,0.6c-1.1,0-1.9-0.3-2.5-1s-0.9-1.6-0.9-2.8s0.3-2.2,0.9-2.8
				s1.4-1,2.4-1s1.8,0.3,2.4,1s0.9,1.6,0.9,2.8c0,0.1,0,0.2,0,0.3h-5.4c0,0.8,0.3,1.4,0.7,1.8s0.9,0.6,1.5,0.6
				c0.5,0,0.8-0.1,1.2-0.4S341.5,180.1,341.7,179.6z M337.7,177.6h4.1c-0.1-0.6-0.2-1.1-0.5-1.4c-0.4-0.5-0.9-0.7-1.5-0.7
				s-1,0.2-1.4,0.6S337.7,177,337.7,177.6z"/>
			<path d="M347.2,180.9l0.2,1.1c-0.3,0.1-0.7,0.1-0.9,0.1c-0.4,0-0.8-0.1-1-0.2s-0.4-0.3-0.5-0.6c-0.1-0.2-0.2-0.7-0.2-1.5v-4.2
				h-0.9v-1h0.9v-1.8l1.2-0.7v2.5h1.2v1H346v4.2c0,0.4,0,0.6,0.1,0.7s0.1,0.2,0.2,0.2s0.2,0.1,0.4,0.1
				C346.8,180.9,347,180.9,347.2,180.9z"/>
			<path d="M348.4,182v-7.3h1.1v1.1c0.3-0.5,0.5-0.9,0.8-1s0.5-0.2,0.8-0.2c0.4,0,0.8,0.1,1.3,0.4l-0.4,1.1
				c-0.3-0.2-0.6-0.3-0.9-0.3s-0.5,0.1-0.7,0.2c-0.2,0.2-0.4,0.4-0.5,0.7c-0.1,0.4-0.2,0.9-0.2,1.4v3.8h-1.3V182z"/>
			<path d="M353.1,173.4V172h1.2v1.4H353.1z M353.1,182v-7.3h1.2v7.3H353.1z"/>
			<path d="M361.2,179.6l1.3,0.2c-0.2,0.7-0.6,1.3-1.1,1.7s-1.2,0.6-2.1,0.6c-1.1,0-1.9-0.3-2.5-1s-0.9-1.6-0.9-2.8s0.3-2.2,0.9-2.8
				s1.4-1,2.4-1s1.8,0.3,2.4,1s0.9,1.6,0.9,2.8c0,0.1,0,0.2,0,0.3h-5.4c0,0.8,0.3,1.4,0.7,1.8s0.9,0.6,1.5,0.6
				c0.5,0,0.8-0.1,1.2-0.4S361,180.1,361.2,179.6z M357.1,177.6h4.1c-0.1-0.6-0.2-1.1-0.5-1.4c-0.4-0.5-0.9-0.7-1.5-0.7
				s-1,0.2-1.4,0.6S357.2,177,357.1,177.6z"/>
			<path d="M363.5,179.8l1.2-0.2c0.1,0.5,0.3,0.9,0.6,1.1s0.7,0.4,1.3,0.4c0.6,0,1-0.1,1.3-0.3s0.4-0.5,0.4-0.8s-0.1-0.5-0.4-0.7
				c-0.2-0.1-0.6-0.2-1.3-0.4c-0.9-0.2-1.5-0.4-1.9-0.6c-0.3-0.2-0.6-0.4-0.8-0.7c-0.2-0.3-0.3-0.6-0.3-1c0-0.3,0.1-0.6,0.2-0.9
				c0.1-0.3,0.3-0.5,0.6-0.7c0.2-0.1,0.5-0.3,0.8-0.4c0.3-0.1,0.7-0.1,1.1-0.1c0.6,0,1.1,0.1,1.5,0.2s0.7,0.4,1,0.7
				c0.2,0.3,0.3,0.7,0.4,1.1l-1.2,0.2c-0.1-0.4-0.2-0.7-0.5-0.9s-0.6-0.3-1.1-0.3c-0.6,0-1,0.1-1.2,0.3s-0.4,0.4-0.4,0.7
				c0,0.2,0.1,0.3,0.2,0.4c0.1,0.1,0.3,0.2,0.5,0.3c0.1,0,0.5,0.2,1.1,0.3c0.9,0.2,1.5,0.4,1.8,0.6c0.3,0.1,0.6,0.4,0.8,0.6
				s0.3,0.6,0.3,1.1c0,0.4-0.1,0.8-0.4,1.2c-0.2,0.4-0.6,0.6-1,0.8c-0.5,0.2-1,0.3-1.5,0.3c-0.9,0-1.7-0.2-2.2-0.6
				S363.6,180.6,363.5,179.8z"/>
			<path d="M371.3,176.1v-1.4h1.4v1.4H371.3z M371.3,182v-1.4h1.4v1.4H371.3z"/>
			<path d="M384.9,180.8v1.2h-6.6c0-0.3,0-0.6,0.1-0.9c0.2-0.5,0.4-0.9,0.8-1.3s0.9-0.9,1.6-1.5c1.1-0.9,1.8-1.6,2.2-2.1
				c0.4-0.5,0.6-1,0.6-1.5s-0.2-0.9-0.5-1.2s-0.8-0.5-1.4-0.5s-1.1,0.2-1.4,0.5s-0.5,0.8-0.5,1.5l-1.3-0.1c0.1-0.9,0.4-1.7,1-2.2
				s1.3-0.7,2.3-0.7s1.7,0.3,2.3,0.8s0.8,1.2,0.8,2c0,0.4-0.1,0.8-0.2,1.2s-0.4,0.8-0.8,1.2s-1,1-1.9,1.8c-0.7,0.6-1.2,1-1.4,1.3
				c-0.2,0.2-0.4,0.4-0.5,0.7h4.8V180.8z"/>
		</g>
	</g>
</g>
<g>
	<path d="M134.1,188.1c0,3.1-1.1,4.8-3.2,4.8c-1.8,0-3-1.7-3-4.7c0-3.1,1.3-4.7,3.2-4.7C133,183.5,134.1,185.2,134.1,188.1z
		 M129.1,188.2c0,2.4,0.7,3.7,1.8,3.7c1.3,0,1.9-1.5,1.9-3.8c0-2.2-0.6-3.7-1.8-3.7C129.9,184.4,129.1,185.7,129.1,188.2z"/>
</g>
<g>
	<path d="M413.5,188.1c0,3.1-1.1,4.8-3.2,4.8c-1.8,0-3-1.7-3-4.7c0-3.1,1.3-4.7,3.2-4.7C412.4,183.5,413.5,185.2,413.5,188.1z
		 M408.6,188.2c0,2.4,0.7,3.7,1.8,3.7c1.3,0,1.9-1.5,1.9-3.8c0-2.2-0.6-3.7-1.8-3.7C409.4,184.4,408.6,185.7,408.6,188.2z"/>
</g>
<g>
	<path d="M490.6,184.8L490.6,184.8l-1.6,0.9l-0.2-0.9l2-1.1h1.1v9.1h-1.2V184.8z"/>
</g>
</svg>
