<?xml version="1.0" encoding="utf-8"?>
<!-- Generator: Adobe Illustrator 23.0.1, SVG Export Plug-In . SVG Version: 6.00 Build 0)  -->
<svg version="1.1" id="Layer_1" xmlns="http://www.w3.org/2000/svg" xmlns:xlink="http://www.w3.org/1999/xlink" x="0px" y="0px"
	 viewBox="0 0 600 300" style="enable-background:new 0 0 600 300;" xml:space="preserve">
<style type="text/css">
	.st0{fill:none;stroke:#000000;stroke-width:2;stroke-miterlimit:10;}
	.st1{fill:#FFFFFF;stroke:#000000;stroke-width:2;stroke-miterlimit:10;}
	.st2{enable-background:new    ;}
	.st3{fill:#BCBEC0;stroke:#000000;stroke-width:2;stroke-miterlimit:10;}
	.st4{fill:#3082BD;stroke:#000000;stroke-width:2;stroke-miterlimit:10;}
	.st5{fill:#756BB1;stroke:#000000;stroke-width:2;stroke-miterlimit:10;}
</style>
<line class="st0" x1="315.2" y1="165.7" x2="315.2" y2="214.3"/>
<g>
	<path class="st1" d="M142.8,165.7H21.1c-6.6,0-12-5.4-12-12v-36c0-6.6,5.4-12,12-12h121.7c6.6,0,12,5.4,12,12v36
		C154.8,160.3,149.4,165.7,142.8,165.7z"/>
	<g class="st2">
		<path d="M19.8,137.7v-8.6h3.8c0.8,0,1.3,0.1,1.7,0.2s0.7,0.4,1,0.8s0.4,0.8,0.4,1.3c0,0.6-0.2,1.1-0.6,1.5s-1,0.7-1.8,0.8
			c0.3,0.1,0.5,0.3,0.7,0.4c0.3,0.3,0.6,0.7,0.9,1.1l1.5,2.3H26l-1.1-1.8c-0.3-0.5-0.6-0.9-0.8-1.2s-0.4-0.5-0.6-0.6
			S23,134,22.9,134s-0.3,0-0.6,0H21v3.8h-1.2V137.7z M20.9,132.9h2.4c0.5,0,0.9-0.1,1.2-0.2s0.5-0.3,0.7-0.5s0.2-0.5,0.2-0.8
			c0-0.4-0.1-0.7-0.4-1s-0.8-0.4-1.4-0.4h-2.7C20.9,130,20.9,132.9,20.9,132.9z"/>
		<path d="M32.3,137c-0.4,0.3-0.8,0.6-1.1,0.7s-0.7,0.2-1.2,0.2c-0.7,0-1.2-0.2-1.6-0.5s-0.6-0.8-0.6-1.3c0-0.3,0.1-0.6,0.2-0.8
			s0.3-0.5,0.5-0.6s0.5-0.3,0.8-0.3c0.2-0.1,0.5-0.1,0.9-0.2c0.9-0.1,1.5-0.2,1.9-0.4c0-0.1,0-0.2,0-0.3c0-0.4-0.1-0.7-0.3-0.9
			c-0.3-0.2-0.7-0.4-1.2-0.4s-0.9,0.1-1.1,0.3s-0.4,0.5-0.5,0.9l-1-0.1c0.1-0.4,0.2-0.8,0.5-1.1s0.5-0.5,0.9-0.6s0.9-0.2,1.4-0.2
			s1,0.1,1.3,0.2c0.3,0.1,0.6,0.3,0.7,0.5s0.3,0.4,0.3,0.7c0,0.2,0.1,0.5,0.1,1v1.4c0,1,0,1.6,0.1,1.9s0.1,0.5,0.3,0.7h-1.1
			C32.4,137.5,32.4,137.3,32.3,137z M32.3,134.6c-0.4,0.2-1,0.3-1.7,0.4c-0.4,0.1-0.7,0.1-0.9,0.2s-0.3,0.2-0.4,0.3
			s-0.1,0.3-0.1,0.5c0,0.3,0.1,0.5,0.3,0.7s0.5,0.3,0.9,0.3s0.8-0.1,1.1-0.3s0.5-0.4,0.7-0.7c0.1-0.2,0.2-0.6,0.2-1.1L32.3,134.6
			L32.3,134.6z"/>
		<path d="M34.9,140.1l-0.1-1c0.2,0.1,0.4,0.1,0.6,0.1c0.2,0,0.4,0,0.6-0.1s0.3-0.2,0.3-0.3c0.1-0.1,0.2-0.4,0.3-0.8
			c0-0.1,0.1-0.1,0.1-0.3l-2.4-6.2h1.1l1.3,3.6c0.2,0.5,0.3,0.9,0.5,1.4c0.1-0.5,0.3-1,0.4-1.4l1.3-3.6H40l-2.4,6.3
			c-0.3,0.7-0.5,1.2-0.6,1.4c-0.2,0.3-0.4,0.6-0.6,0.8s-0.5,0.2-0.9,0.2C35.4,140.3,35.2,140.2,34.9,140.1z"/>
		<path d="M48.4,134.4v-1H52v3.2c-0.6,0.4-1.1,0.8-1.7,1s-1.2,0.3-1.8,0.3c-0.8,0-1.6-0.2-2.3-0.5s-1.2-0.9-1.6-1.6
			s-0.5-1.4-0.5-2.3c0-0.8,0.2-1.6,0.5-2.3s0.9-1.3,1.5-1.6s1.4-0.5,2.3-0.5c0.6,0,1.2,0.1,1.7,0.3s0.9,0.5,1.2,0.8s0.5,0.8,0.7,1.4
			l-1,0.3c-0.1-0.4-0.3-0.8-0.5-1s-0.5-0.5-0.8-0.6s-0.8-0.2-1.2-0.2c-0.5,0-1,0.1-1.3,0.2s-0.7,0.4-0.9,0.6s-0.4,0.5-0.5,0.8
			c-0.2,0.5-0.3,1.1-0.3,1.7c0,0.8,0.1,1.4,0.4,1.9s0.6,0.9,1.2,1.1s1,0.4,1.6,0.4c0.5,0,1-0.1,1.4-0.3s0.8-0.4,1.1-0.6v-1.6h-2.8
			C48.4,134.3,48.4,134.4,48.4,134.4z"/>
		<path d="M57.9,135.7l1.1,0.1c-0.2,0.6-0.5,1.1-1,1.5s-1.1,0.5-1.8,0.5c-0.9,0-1.6-0.3-2.2-0.8s-0.8-1.3-0.8-2.4
			c0-1,0.3-1.9,0.8-2.4s1.2-0.9,2.1-0.9c0.8,0,1.5,0.3,2,0.8s0.8,1.4,0.8,2.4c0,0.1,0,0.2,0,0.3h-4.6c0,0.7,0.2,1.2,0.6,1.6
			s0.8,0.5,1.3,0.5c0.4,0,0.7-0.1,1-0.3S57.7,136.2,57.9,135.7z M54.4,134h3.5c0-0.5-0.2-0.9-0.4-1.2c-0.3-0.4-0.8-0.6-1.3-0.6
			s-0.9,0.2-1.2,0.5S54.5,133.5,54.4,134z"/>
		<path d="M60.3,137.7v-6.2h0.9v0.9c0.5-0.7,1.1-1,2-1c0.4,0,0.7,0.1,1,0.2s0.5,0.3,0.7,0.5s0.3,0.5,0.3,0.8c0,0.2,0.1,0.5,0.1,1
			v3.8h-1.1V134c0-0.4,0-0.8-0.1-1s-0.2-0.4-0.4-0.5s-0.5-0.2-0.7-0.2c-0.4,0-0.8,0.1-1.2,0.4s-0.5,0.8-0.5,1.6v3.4H60.3z"/>
		<path d="M71.2,135.7l1.1,0.1c-0.2,0.6-0.5,1.1-1,1.5s-1.1,0.5-1.8,0.5c-0.9,0-1.6-0.3-2.2-0.8s-0.8-1.3-0.8-2.4
			c0-1,0.3-1.9,0.8-2.4s1.2-0.9,2.1-0.9c0.8,0,1.5,0.3,2,0.8s0.8,1.4,0.8,2.4c0,0.1,0,0.2,0,0.3h-4.6c0,0.7,0.2,1.2,0.6,1.6
			s0.8,0.5,1.3,0.5c0.4,0,0.7-0.1,1-0.3S71.1,136.2,71.2,135.7z M67.8,134h3.5c0-0.5-0.2-0.9-0.4-1.2c-0.3-0.4-0.8-0.6-1.3-0.6
			s-0.9,0.2-1.2,0.5S67.8,133.5,67.8,134z"/>
		<path d="M73.6,137.7v-6.2h0.9v0.9c0.2-0.4,0.5-0.7,0.7-0.9s0.4-0.2,0.7-0.2c0.4,0,0.7,0.1,1.1,0.3l-0.4,1
			c-0.3-0.2-0.5-0.2-0.8-0.2c-0.2,0-0.4,0.1-0.6,0.2s-0.3,0.3-0.4,0.6c-0.1,0.4-0.2,0.8-0.2,1.2v3.3L73.6,137.7L73.6,137.7z"/>
		<path d="M81.7,137c-0.4,0.3-0.8,0.6-1.1,0.7s-0.7,0.2-1.2,0.2c-0.7,0-1.2-0.2-1.6-0.5s-0.6-0.8-0.6-1.3c0-0.3,0.1-0.6,0.2-0.8
			s0.3-0.5,0.5-0.6s0.5-0.3,0.8-0.3c0.2-0.1,0.5-0.1,0.9-0.2c0.9-0.1,1.5-0.2,1.9-0.4c0-0.1,0-0.2,0-0.3c0-0.4-0.1-0.7-0.3-0.9
			c-0.3-0.2-0.7-0.4-1.2-0.4s-0.9,0.1-1.1,0.3s-0.4,0.5-0.5,0.9l-1-0.1c0.1-0.4,0.2-0.8,0.5-1.1s0.5-0.5,0.9-0.6s0.9-0.2,1.4-0.2
			s1,0.1,1.3,0.2s0.6,0.3,0.7,0.5s0.3,0.4,0.3,0.7c0,0.2,0.1,0.5,0.1,1v1.4c0,1,0,1.6,0.1,1.9s0.1,0.5,0.3,0.7h-1.1
			C81.8,137.5,81.7,137.3,81.7,137z M81.6,134.6c-0.4,0.2-1,0.3-1.7,0.4c-0.4,0.1-0.7,0.1-0.9,0.2s-0.3,0.2-0.4,0.3
			s-0.1,0.3-0.1,0.5c0,0.3,0.1,0.5,0.3,0.7s0.5,0.3,0.9,0.3s0.8-0.1,1.1-0.3s0.5-0.4,0.7-0.7c0.1-0.2,0.2-0.6,0.2-1.1L81.6,134.6
			L81.6,134.6z"/>
		<path d="M86.6,136.8l0.2,0.9c-0.3,0.1-0.6,0.1-0.8,0.1c-0.4,0-0.7-0.1-0.9-0.2s-0.4-0.3-0.4-0.5s-0.1-0.6-0.1-1.2v-3.6h-0.8v-0.8
			h0.8V130l1-0.6v2.2h1.1v0.8h-1.1v3.6c0,0.3,0,0.5,0.1,0.6s0.1,0.2,0.2,0.2s0.2,0.1,0.4,0.1C86.3,136.8,86.4,136.8,86.6,136.8z"/>
		<path d="M87.7,130.4v-1.2h1.1v1.2H87.7z M87.7,137.7v-6.2h1.1v6.2H87.7z"/>
		<path d="M89.9,134.6c0-1.2,0.3-2,1-2.6c0.5-0.5,1.2-0.7,2-0.7c0.9,0,1.6,0.3,2.1,0.8s0.8,1.3,0.8,2.3c0,0.8-0.1,1.4-0.4,1.9
			s-0.6,0.8-1,1.1s-1,0.4-1.5,0.4c-0.9,0-1.6-0.3-2.1-0.8S89.9,135.7,89.9,134.6z M91,134.6c0,0.8,0.2,1.4,0.5,1.8s0.8,0.6,1.3,0.6
			s1-0.2,1.3-0.6s0.5-1,0.5-1.8s-0.2-1.4-0.5-1.7s-0.8-0.6-1.3-0.6s-1,0.2-1.3,0.6S91,133.8,91,134.6z"/>
		<path d="M97,137.7v-6.2h0.9v0.9c0.5-0.7,1.1-1,2-1c0.4,0,0.7,0.1,1,0.2s0.5,0.3,0.7,0.5s0.3,0.5,0.3,0.8c0,0.2,0.1,0.5,0.1,1v3.8
			h-1V134c0-0.4,0-0.8-0.1-1s-0.2-0.4-0.4-0.5s-0.5-0.2-0.7-0.2c-0.4,0-0.8,0.1-1.2,0.4s-0.5,0.8-0.5,1.6v3.4H97z"/>
		<path d="M106.7,135l1.1-0.1c0.1,0.4,0.2,0.8,0.4,1.1s0.5,0.5,0.9,0.7s0.8,0.3,1.3,0.3c0.4,0,0.8-0.1,1.1-0.2s0.6-0.3,0.7-0.5
			s0.2-0.5,0.2-0.7c0-0.3-0.1-0.5-0.2-0.7s-0.4-0.4-0.8-0.5c-0.2-0.1-0.7-0.2-1.5-0.4s-1.3-0.4-1.7-0.5c-0.4-0.2-0.7-0.5-0.9-0.8
			s-0.3-0.7-0.3-1.1c0-0.4,0.1-0.8,0.4-1.2s0.6-0.7,1.1-0.9s1-0.3,1.6-0.3s1.2,0.1,1.7,0.3s0.9,0.5,1.1,0.9s0.4,0.8,0.4,1.4
			l-1.1,0.1c-0.1-0.5-0.3-1-0.6-1.2s-0.8-0.4-1.5-0.4s-1.2,0.1-1.5,0.4s-0.5,0.6-0.5,0.9c0,0.3,0.1,0.6,0.3,0.8
			c0.2,0.2,0.8,0.4,1.7,0.6s1.6,0.4,1.9,0.5c0.5,0.2,0.9,0.5,1.1,0.9s0.4,0.8,0.4,1.2c0,0.5-0.1,0.9-0.4,1.3s-0.6,0.7-1.1,0.9
			s-1,0.3-1.7,0.3c-0.8,0-1.4-0.1-2-0.3s-0.9-0.6-1.2-1S106.8,135.6,106.7,135z"/>
		<path d="M115,137.7v-8.6h1.1v3.1c0.5-0.6,1.1-0.9,1.9-0.9c0.5,0,0.9,0.1,1.2,0.3s0.6,0.4,0.7,0.8s0.2,0.8,0.2,1.4v3.9H119v-3.9
			c0-0.5-0.1-0.9-0.3-1.2s-0.6-0.4-1-0.4c-0.3,0-0.6,0.1-0.9,0.2s-0.5,0.4-0.6,0.7s-0.2,0.7-0.2,1.1v3.4L115,137.7L115,137.7z"/>
		<path d="M125.7,137c-0.4,0.3-0.8,0.6-1.1,0.7s-0.7,0.2-1.2,0.2c-0.7,0-1.2-0.2-1.6-0.5s-0.6-0.8-0.6-1.3c0-0.3,0.1-0.6,0.2-0.8
			s0.3-0.5,0.5-0.6s0.5-0.3,0.8-0.3c0.2-0.1,0.5-0.1,0.9-0.2c0.9-0.1,1.5-0.2,1.9-0.4c0-0.1,0-0.2,0-0.3c0-0.4-0.1-0.7-0.3-0.9
			c-0.3-0.2-0.7-0.4-1.2-0.4s-0.9,0.1-1.1,0.3s-0.4,0.5-0.5,0.9l-1-0.1c0.1-0.4,0.2-0.8,0.5-1.1s0.5-0.5,0.9-0.6s0.9-0.2,1.4-0.2
			s1,0.1,1.3,0.2s0.6,0.3,0.7,0.5s0.3,0.4,0.3,0.7c0,0.2,0.1,0.5,0.1,1v1.4c0,1,0,1.6,0.1,1.9s0.1,0.5,0.3,0.7h-1.1
			C125.8,137.5,125.8,137.3,125.7,137z M125.6,134.6c-0.4,0.2-1,0.3-1.7,0.4c-0.4,0.1-0.7,0.1-0.9,0.2s-0.3,0.2-0.4,0.3
			s-0.1,0.3-0.1,0.5c0,0.3,0.1,0.5,0.3,0.7s0.5,0.3,0.9,0.3s0.8-0.1,1.1-0.3s0.5-0.4,0.7-0.7c0.1-0.2,0.2-0.6,0.2-1.1L125.6,134.6
			L125.6,134.6z"/>
		<path d="M132.4,137.7V137c-0.4,0.6-1,0.9-1.7,0.9c-0.5,0-1-0.1-1.4-0.4s-0.7-0.7-1-1.1s-0.3-1.1-0.3-1.7c0-0.6,0.1-1.2,0.3-1.7
			s0.5-0.9,0.9-1.2s0.9-0.4,1.4-0.4c0.4,0,0.7,0.1,1,0.2s0.5,0.4,0.7,0.6v-3.1h1v8.6L132.4,137.7L132.4,137.7z M129,134.6
			c0,0.8,0.2,1.4,0.5,1.8s0.7,0.6,1.2,0.6s0.9-0.2,1.2-0.6s0.5-1,0.5-1.7c0-0.9-0.2-1.5-0.5-1.9s-0.7-0.6-1.2-0.6s-0.9,0.2-1.2,0.6
			S129,133.8,129,134.6z"/>
		<path d="M139.3,135.7l1.1,0.1c-0.2,0.6-0.5,1.1-1,1.5s-1.1,0.5-1.8,0.5c-0.9,0-1.6-0.3-2.2-0.8s-0.8-1.3-0.8-2.4
			c0-1,0.3-1.9,0.8-2.4s1.2-0.9,2.1-0.9c0.8,0,1.5,0.3,2,0.8s0.8,1.4,0.8,2.4c0,0.1,0,0.2,0,0.3h-4.6c0,0.7,0.2,1.2,0.6,1.6
			s0.8,0.5,1.3,0.5c0.4,0,0.7-0.1,1-0.3S139.1,136.2,139.3,135.7z M135.8,134h3.5c0-0.5-0.2-0.9-0.4-1.2c-0.3-0.4-0.8-0.6-1.3-0.6
			s-0.9,0.2-1.2,0.5S135.9,133.5,135.8,134z"/>
		<path d="M141.7,137.7v-6.2h0.9v0.9c0.2-0.4,0.5-0.7,0.7-0.9s0.4-0.2,0.7-0.2c0.4,0,0.7,0.1,1.1,0.3l-0.4,1
			c-0.3-0.2-0.5-0.2-0.8-0.2c-0.2,0-0.4,0.1-0.6,0.2s-0.3,0.3-0.4,0.6c-0.1,0.4-0.2,0.8-0.2,1.2v3.3L141.7,137.7L141.7,137.7z"/>
	</g>
</g>
<g>
	<g>
		<line class="st0" x1="154" y1="135.3" x2="237.6" y2="135.6"/>
		<g>
			<path d="M249.7,135.7c-5.7,2.1-12.8,5.7-17.1,9.4l3.5-9.5l-3.4-9.5C237,129.9,244,133.5,249.7,135.7z"/>
		</g>
	</g>
</g>
<g class="st2">
	<path d="M169.6,127.8v-7.6h-2.8v-1h6.8v1h-2.8v7.6H169.6z"/>
	<path d="M174.1,127.8v-6.2h0.9v0.9c0.2-0.4,0.5-0.7,0.7-0.9s0.4-0.2,0.7-0.2c0.4,0,0.7,0.1,1.1,0.3l-0.4,1
		c-0.3-0.2-0.5-0.2-0.8-0.2c-0.2,0-0.4,0.1-0.6,0.2s-0.3,0.3-0.4,0.6c-0.1,0.4-0.2,0.8-0.2,1.2v3.3
		C175.1,127.8,174.1,127.8,174.1,127.8z"/>
	<path d="M182.2,127c-0.4,0.3-0.8,0.6-1.1,0.7s-0.7,0.2-1.2,0.2c-0.7,0-1.2-0.2-1.6-0.5s-0.6-0.8-0.6-1.3c0-0.3,0.1-0.6,0.2-0.8
		s0.3-0.5,0.5-0.6s0.5-0.3,0.8-0.3c0.2-0.1,0.5-0.1,0.9-0.2c0.9-0.1,1.5-0.2,1.9-0.4c0-0.1,0-0.2,0-0.3c0-0.4-0.1-0.7-0.3-0.9
		c-0.3-0.2-0.7-0.4-1.2-0.4s-0.9,0.1-1.1,0.3s-0.4,0.5-0.5,0.9l-1-0.1c0.1-0.4,0.2-0.8,0.5-1.1s0.5-0.5,0.9-0.6s0.9-0.2,1.4-0.2
		s1,0.1,1.3,0.2s0.6,0.3,0.7,0.5s0.3,0.4,0.3,0.7c0,0.2,0.1,0.5,0.1,1v1.4c0,1,0,1.6,0.1,1.9s0.1,0.5,0.3,0.7h-1.1
		C182.3,127.6,182.2,127.3,182.2,127z M182.1,124.7c-0.4,0.2-1,0.3-1.7,0.4c-0.4,0.1-0.7,0.1-0.9,0.2s-0.3,0.2-0.4,0.3
		s-0.1,0.3-0.1,0.5c0,0.3,0.1,0.5,0.3,0.7s0.5,0.3,0.9,0.3s0.8-0.1,1.1-0.3s0.5-0.4,0.7-0.7c0.1-0.2,0.2-0.6,0.2-1.1v-0.3H182.1z"/>
	<path d="M188.9,125.5l1,0.1c-0.1,0.7-0.4,1.3-0.9,1.7s-1,0.6-1.7,0.6c-0.9,0-1.5-0.3-2.1-0.8s-0.8-1.4-0.8-2.4
		c0-0.7,0.1-1.3,0.3-1.8s0.6-0.9,1-1.1s1-0.4,1.5-0.4c0.7,0,1.2,0.2,1.7,0.5s0.7,0.8,0.8,1.5l-1,0.2c-0.1-0.4-0.3-0.7-0.5-0.9
		s-0.5-0.3-0.9-0.3c-0.5,0-1,0.2-1.3,0.6s-0.5,1-0.5,1.8s0.2,1.4,0.5,1.8s0.7,0.6,1.3,0.6c0.4,0,0.8-0.1,1-0.4
		S188.8,126,188.9,125.5z"/>
	<path d="M195,125.8l1.1,0.1c-0.2,0.6-0.5,1.1-1,1.5s-1.1,0.5-1.8,0.5c-0.9,0-1.6-0.3-2.2-0.8s-0.8-1.3-0.8-2.4c0-1,0.3-1.9,0.8-2.4
		s1.2-0.9,2.1-0.9c0.8,0,1.5,0.3,2,0.8s0.8,1.4,0.8,2.4c0,0.1,0,0.2,0,0.3h-4.6c0,0.7,0.2,1.2,0.6,1.6s0.8,0.5,1.3,0.5
		c0.4,0,0.7-0.1,1-0.3S194.9,126.2,195,125.8z M191.6,124.1h3.5c0-0.5-0.2-0.9-0.4-1.2c-0.3-0.4-0.8-0.6-1.3-0.6s-0.9,0.2-1.2,0.5
		S191.6,123.5,191.6,124.1z"/>
	<path d="M197.6,127.8v-8.6h3.8c0.8,0,1.3,0.1,1.7,0.2s0.7,0.4,1,0.8s0.4,0.8,0.4,1.3c0,0.6-0.2,1.1-0.6,1.5s-1,0.7-1.8,0.8
		c0.3,0.1,0.5,0.3,0.7,0.4c0.3,0.3,0.6,0.7,0.9,1.1l1.5,2.3h-1.4l-1.1-1.8c-0.3-0.5-0.6-0.9-0.8-1.2s-0.4-0.5-0.6-0.6
		s-0.3-0.2-0.5-0.2c-0.1,0-0.3,0-0.6,0h-1.3v3.8h-1.3L197.6,127.8L197.6,127.8z M198.8,123h2.4c0.5,0,0.9-0.1,1.2-0.2
		s0.5-0.3,0.7-0.5s0.2-0.5,0.2-0.8c0-0.4-0.1-0.7-0.4-1s-0.8-0.4-1.4-0.4h-2.7V123z"/>
	<path d="M210.2,127c-0.4,0.3-0.8,0.6-1.1,0.7s-0.7,0.2-1.2,0.2c-0.7,0-1.2-0.2-1.6-0.5s-0.6-0.8-0.6-1.3c0-0.3,0.1-0.6,0.2-0.8
		s0.3-0.5,0.5-0.6s0.5-0.3,0.8-0.3c0.2-0.1,0.5-0.1,0.9-0.2c0.9-0.1,1.5-0.2,1.9-0.4c0-0.1,0-0.2,0-0.3c0-0.4-0.1-0.7-0.3-0.9
		c-0.3-0.2-0.7-0.4-1.2-0.4s-0.9,0.1-1.1,0.3s-0.4,0.5-0.5,0.9l-1-0.1c0.1-0.4,0.2-0.8,0.5-1.1s0.5-0.5,0.9-0.6s0.9-0.2,1.4-0.2
		s1,0.1,1.3,0.2s0.6,0.3,0.7,0.5s0.3,0.4,0.3,0.7c0,0.2,0.1,0.5,0.1,1v1.4c0,1,0,1.6,0.1,1.9s0.1,0.5,0.3,0.7h-1.1
		C210.3,127.6,210.2,127.3,210.2,127z M210.1,124.7c-0.4,0.2-1,0.3-1.7,0.4c-0.4,0.1-0.7,0.1-0.9,0.2s-0.3,0.2-0.4,0.3
		s-0.1,0.3-0.1,0.5c0,0.3,0.1,0.5,0.3,0.7s0.5,0.3,0.9,0.3s0.8-0.1,1.1-0.3s0.5-0.4,0.7-0.7c0.1-0.2,0.2-0.6,0.2-1.1v-0.3H210.1z"/>
	<path d="M212.8,130.2l-0.1-1c0.2,0.1,0.4,0.1,0.6,0.1c0.2,0,0.4,0,0.6-0.1s0.3-0.2,0.3-0.3c0.1-0.1,0.2-0.4,0.3-0.8
		c0-0.1,0.1-0.1,0.1-0.3l-2.4-6.2h1.1l1.3,3.6c0.2,0.5,0.3,0.9,0.5,1.4c0.1-0.5,0.3-1,0.4-1.4l1.3-3.6h1.1l-2.4,6.3
		c-0.3,0.7-0.5,1.2-0.6,1.4c-0.2,0.3-0.4,0.6-0.6,0.8s-0.5,0.2-0.9,0.2C213.2,130.3,213,130.3,212.8,130.2z"/>
	<path d="M220.8,130.3c-0.6-0.7-1.1-1.6-1.5-2.6s-0.6-2-0.6-3.1c0-0.9,0.2-1.8,0.5-2.7c0.4-1,0.9-2,1.6-3h0.8
		c-0.5,0.8-0.8,1.4-0.9,1.7c-0.2,0.5-0.4,1.1-0.6,1.7c-0.2,0.7-0.3,1.5-0.3,2.2c0,1.9,0.6,3.8,1.8,5.6h-0.8V130.3z"/>
	<path d="M223.5,130.3h-0.8c1.2-1.9,1.8-3.8,1.8-5.6c0-0.7-0.1-1.5-0.3-2.2c-0.1-0.6-0.3-1.1-0.6-1.7c-0.2-0.4-0.5-0.9-0.9-1.8h0.8
		c0.7,1,1.3,2,1.6,3c0.3,0.9,0.5,1.7,0.5,2.7c0,1.1-0.2,2.1-0.6,3.1S224.1,129.6,223.5,130.3z"/>
</g>
<rect x="250.9" y="105.7" class="st3" width="128.6" height="60"/>
<g class="st2">
	<path d="M256.2,132.4l3.3-8.6h1.2l3.5,8.6h-1.3l-1-2.6h-3.6l-0.9,2.6H256.2z M258.6,128.9h2.9l-0.9-2.4c-0.3-0.7-0.5-1.3-0.6-1.8
		c-0.1,0.6-0.3,1.1-0.5,1.6L258.6,128.9z"/>
	<path d="M269,130.2l1,0.1c-0.1,0.7-0.4,1.3-0.9,1.7s-1,0.6-1.7,0.6c-0.9,0-1.5-0.3-2.1-0.8s-0.8-1.4-0.8-2.4c0-0.7,0.1-1.3,0.3-1.8
		s0.6-0.9,1-1.1s1-0.4,1.5-0.4c0.7,0,1.2,0.2,1.7,0.5s0.7,0.8,0.8,1.5l-1,0.2c-0.1-0.4-0.3-0.7-0.5-0.9s-0.5-0.3-0.9-0.3
		c-0.5,0-1,0.2-1.3,0.6c-0.3,0.4-0.5,1-0.5,1.8s0.2,1.4,0.5,1.8s0.7,0.6,1.3,0.6c0.4,0,0.8-0.1,1-0.4S269,130.7,269,130.2z"/>
	<path d="M275,130.2l1,0.1c-0.1,0.7-0.4,1.3-0.9,1.7s-1,0.6-1.7,0.6c-0.9,0-1.5-0.3-2.1-0.8s-0.8-1.4-0.8-2.4c0-0.7,0.1-1.3,0.3-1.8
		s0.6-0.9,1-1.1s1-0.4,1.5-0.4c0.7,0,1.2,0.2,1.7,0.5s0.7,0.8,0.8,1.5l-1,0.2c-0.1-0.4-0.3-0.7-0.5-0.9s-0.5-0.3-0.9-0.3
		c-0.5,0-1,0.2-1.3,0.6c-0.3,0.4-0.5,1-0.5,1.8s0.2,1.4,0.5,1.8s0.7,0.6,1.3,0.6c0.4,0,0.8-0.1,1-0.4S275,130.7,275,130.2z"/>
	<path d="M281.2,130.4l1.1,0.1c-0.2,0.6-0.5,1.1-1,1.5s-1.1,0.5-1.8,0.5c-0.9,0-1.6-0.3-2.2-0.8s-0.8-1.3-0.8-2.4
		c0-1,0.3-1.9,0.8-2.4s1.2-0.9,2.1-0.9c0.8,0,1.5,0.3,2,0.8s0.8,1.4,0.8,2.4c0,0.1,0,0.2,0,0.3h-4.6c0,0.7,0.2,1.2,0.6,1.6
		s0.8,0.5,1.3,0.5c0.4,0,0.7-0.1,1-0.3S281.1,130.9,281.2,130.4z M277.8,128.7h3.5c0-0.5-0.2-0.9-0.4-1.2c-0.3-0.4-0.8-0.6-1.3-0.6
		s-0.9,0.2-1.2,0.5S277.8,128.2,277.8,128.7z"/>
	<path d="M283.6,132.4v-8.6h1.1v8.6H283.6z"/>
	<path d="M290.6,130.4l1.1,0.1c-0.2,0.6-0.5,1.1-1,1.5s-1.1,0.5-1.8,0.5c-0.9,0-1.6-0.3-2.2-0.8s-0.8-1.3-0.8-2.4
		c0-1,0.3-1.9,0.8-2.4s1.2-0.9,2.1-0.9c0.8,0,1.5,0.3,2,0.8s0.8,1.4,0.8,2.4c0,0.1,0,0.2,0,0.3H287c0,0.7,0.2,1.2,0.6,1.6
		s0.8,0.5,1.3,0.5c0.4,0,0.7-0.1,1-0.3S290.4,130.9,290.6,130.4z M287.1,128.7h3.5c0-0.5-0.2-0.9-0.4-1.2c-0.3-0.4-0.8-0.6-1.3-0.6
		s-0.9,0.2-1.2,0.5S287.1,128.2,287.1,128.7z"/>
	<path d="M293,132.4v-6.2h0.9v0.9c0.2-0.4,0.5-0.7,0.7-0.9s0.4-0.2,0.7-0.2c0.4,0,0.7,0.1,1.1,0.3l-0.4,1c-0.3-0.2-0.5-0.2-0.8-0.2
		c-0.2,0-0.4,0.1-0.6,0.2s-0.3,0.3-0.4,0.6c-0.1,0.4-0.2,0.8-0.2,1.2v3.3L293,132.4L293,132.4z"/>
	<path d="M301,131.7c-0.4,0.3-0.8,0.6-1.1,0.7s-0.7,0.2-1.2,0.2c-0.7,0-1.2-0.2-1.6-0.5s-0.6-0.8-0.6-1.3c0-0.3,0.1-0.6,0.2-0.8
		s0.3-0.5,0.5-0.6s0.5-0.3,0.8-0.3c0.2-0.1,0.5-0.1,0.9-0.2c0.9-0.1,1.5-0.2,1.9-0.4c0-0.1,0-0.2,0-0.3c0-0.4-0.1-0.7-0.3-0.9
		c-0.3-0.2-0.7-0.4-1.2-0.4s-0.9,0.1-1.1,0.3s-0.4,0.5-0.5,0.9l-1-0.1c0.1-0.4,0.2-0.8,0.5-1.1s0.5-0.5,0.9-0.6s0.9-0.2,1.4-0.2
		s1,0.1,1.3,0.2s0.6,0.3,0.7,0.5s0.3,0.4,0.3,0.7c0,0.2,0.1,0.5,0.1,1v1.4c0,1,0,1.6,0.1,1.9s0.1,0.5,0.3,0.7h-1.1
		C301.1,132.2,301.1,132,301,131.7z M301,129.3c-0.4,0.2-1,0.3-1.7,0.4c-0.4,0.1-0.7,0.1-0.9,0.2s-0.3,0.2-0.4,0.3s-0.1,0.3-0.1,0.5
		c0,0.3,0.1,0.5,0.3,0.7s0.5,0.3,0.9,0.3s0.8-0.1,1.1-0.3s0.5-0.4,0.7-0.7c0.1-0.2,0.2-0.6,0.2-1.1v-0.3L301,129.3L301,129.3z"/>
	<path d="M306,131.5l0.2,0.9c-0.3,0.1-0.6,0.1-0.8,0.1c-0.4,0-0.7-0.1-0.9-0.2s-0.4-0.3-0.4-0.5s-0.1-0.6-0.1-1.2V127h-0.8v-0.8h0.8
		v-1.5l1-0.6v2.2h1.1v0.8H305v3.6c0,0.3,0,0.5,0.1,0.6s0.1,0.2,0.2,0.2s0.2,0.1,0.4,0.1C305.6,131.5,305.8,131.5,306,131.5z"/>
	<path d="M307,125.1v-1.2h1.1v1.2H307z M307,132.4v-6.2h1.1v6.2H307z"/>
	<path d="M309.3,129.3c0-1.2,0.3-2,1-2.6c0.5-0.5,1.2-0.7,2-0.7c0.9,0,1.6,0.3,2.1,0.8s0.8,1.3,0.8,2.3c0,0.8-0.1,1.4-0.4,1.9
		s-0.6,0.8-1,1.1s-1,0.4-1.5,0.4c-0.9,0-1.6-0.3-2.1-0.8S309.3,130.4,309.3,129.3z M310.3,129.3c0,0.8,0.2,1.4,0.5,1.8
		s0.8,0.6,1.3,0.6s1-0.2,1.3-0.6s0.5-1,0.5-1.8s-0.2-1.4-0.5-1.7s-0.8-0.6-1.3-0.6s-1,0.2-1.3,0.6
		C310.5,128,310.3,128.5,310.3,129.3z"/>
	<path d="M316.3,132.4v-6.2h0.9v0.9c0.5-0.7,1.1-1,2-1c0.4,0,0.7,0.1,1,0.2s0.5,0.3,0.7,0.5s0.3,0.5,0.3,0.8c0,0.2,0.1,0.5,0.1,1
		v3.8h-1.1v-3.8c0-0.4,0-0.8-0.1-1s-0.2-0.4-0.4-0.5s-0.5-0.2-0.7-0.2c-0.4,0-0.8,0.1-1.2,0.4s-0.5,0.8-0.5,1.6v3.4L316.3,132.4
		L316.3,132.4z"/>
	<path d="M326.1,129.7l1.1-0.1c0.1,0.4,0.2,0.8,0.4,1.1s0.5,0.5,0.9,0.7s0.8,0.3,1.3,0.3c0.4,0,0.8-0.1,1.1-0.2s0.6-0.3,0.7-0.5
		s0.2-0.5,0.2-0.7c0-0.3-0.1-0.5-0.2-0.7s-0.4-0.4-0.8-0.5c-0.2-0.1-0.7-0.2-1.5-0.4s-1.3-0.4-1.7-0.5c-0.4-0.2-0.7-0.5-0.9-0.8
		s-0.3-0.7-0.3-1.1s0.1-0.8,0.4-1.2s0.6-0.7,1.1-0.9s1-0.3,1.6-0.3s1.2,0.1,1.7,0.3s0.9,0.5,1.1,0.9s0.4,0.8,0.4,1.4l-1.1,0.1
		c-0.1-0.5-0.3-1-0.6-1.2s-0.8-0.4-1.5-0.4s-1.2,0.1-1.5,0.4s-0.5,0.6-0.5,0.9s0.1,0.6,0.3,0.8c0.2,0.2,0.8,0.4,1.7,0.6
		s1.6,0.4,1.9,0.5c0.5,0.2,0.9,0.5,1.1,0.9s0.4,0.8,0.4,1.2c0,0.5-0.1,0.9-0.4,1.3s-0.6,0.7-1.1,0.9s-1,0.3-1.7,0.3
		c-0.8,0-1.4-0.1-2-0.3s-0.9-0.6-1.2-1S326.1,130.3,326.1,129.7z"/>
	<path d="M336.6,131.5l0.2,0.9c-0.3,0.1-0.6,0.1-0.8,0.1c-0.4,0-0.7-0.1-0.9-0.2s-0.4-0.3-0.4-0.5s-0.1-0.6-0.1-1.2V127h-0.8v-0.8
		h0.8v-1.5l1-0.6v2.2h1.1v0.8h-1.1v3.6c0,0.3,0,0.5,0.1,0.6s0.1,0.2,0.2,0.2s0.2,0.1,0.4,0.1C336.3,131.5,336.5,131.5,336.6,131.5z"
		/>
	<path d="M337.7,132.4v-6.2h0.9v0.9c0.2-0.4,0.5-0.7,0.7-0.9s0.4-0.2,0.7-0.2c0.4,0,0.7,0.1,1.1,0.3l-0.4,1
		c-0.3-0.2-0.5-0.2-0.8-0.2c-0.2,0-0.4,0.1-0.6,0.2s-0.3,0.3-0.4,0.6c-0.1,0.4-0.2,0.8-0.2,1.2v3.3L337.7,132.4L337.7,132.4z"/>
	<path d="M345.7,132.4v-0.9c-0.5,0.7-1.1,1.1-2,1.1c-0.4,0-0.7-0.1-1-0.2s-0.6-0.3-0.7-0.5s-0.3-0.5-0.3-0.8c0-0.2-0.1-0.5-0.1-1
		v-3.9h1.1v3.5c0,0.6,0,0.9,0.1,1.1c0.1,0.3,0.2,0.5,0.4,0.7s0.5,0.2,0.8,0.2s0.6-0.1,0.9-0.2s0.5-0.4,0.6-0.7s0.2-0.7,0.2-1.2v-3.3
		h1.1v6.2h-1.1V132.4z"/>
	<path d="M352.4,130.2l1,0.1c-0.1,0.7-0.4,1.3-0.9,1.7s-1,0.6-1.7,0.6c-0.9,0-1.5-0.3-2.1-0.8s-0.8-1.4-0.8-2.4
		c0-0.7,0.1-1.3,0.3-1.8s0.6-0.9,1-1.1s1-0.4,1.5-0.4c0.7,0,1.2,0.2,1.7,0.5s0.7,0.8,0.8,1.5l-1,0.2c-0.1-0.4-0.3-0.7-0.5-0.9
		s-0.5-0.3-0.9-0.3c-0.5,0-1,0.2-1.3,0.6c-0.3,0.4-0.5,1-0.5,1.8s0.2,1.4,0.5,1.8s0.7,0.6,1.3,0.6c0.4,0,0.8-0.1,1-0.4
		S352.3,130.7,352.4,130.2z"/>
	<path d="M356.6,131.5l0.2,0.9c-0.3,0.1-0.6,0.1-0.8,0.1c-0.4,0-0.7-0.1-0.9-0.2s-0.4-0.3-0.4-0.5s-0.1-0.6-0.1-1.2V127h-0.8v-0.8
		h0.8v-1.5l1-0.6v2.2h1.1v0.8h-1.1v3.6c0,0.3,0,0.5,0.1,0.6s0.1,0.2,0.2,0.2s0.2,0.1,0.4,0.1C356.3,131.5,356.5,131.5,356.6,131.5z"
		/>
	<path d="M361.8,132.4v-0.9c-0.5,0.7-1.1,1.1-2,1.1c-0.4,0-0.7-0.1-1-0.2s-0.6-0.3-0.7-0.5s-0.3-0.5-0.3-0.8c0-0.2-0.1-0.5-0.1-1
		v-3.9h1.1v3.5c0,0.6,0,0.9,0.1,1.1c0.1,0.3,0.2,0.5,0.4,0.7s0.5,0.2,0.8,0.2s0.6-0.1,0.9-0.2s0.5-0.4,0.6-0.7s0.2-0.7,0.2-1.2v-3.3
		h1.1v6.2h-1.1V132.4z"/>
	<path d="M364.3,132.4v-6.2h0.9v0.9c0.2-0.4,0.5-0.7,0.7-0.9s0.4-0.2,0.7-0.2c0.4,0,0.7,0.1,1.1,0.3l-0.4,1
		c-0.3-0.2-0.5-0.2-0.8-0.2c-0.2,0-0.4,0.1-0.6,0.2s-0.3,0.3-0.4,0.6c-0.1,0.4-0.2,0.8-0.2,1.2v3.3L364.3,132.4L364.3,132.4z"/>
	<path d="M372.6,130.4l1.1,0.1c-0.2,0.6-0.5,1.1-1,1.5s-1.1,0.5-1.8,0.5c-0.9,0-1.6-0.3-2.2-0.8s-0.8-1.3-0.8-2.4
		c0-1,0.3-1.9,0.8-2.4s1.2-0.9,2.1-0.9c0.8,0,1.5,0.3,2,0.8s0.8,1.4,0.8,2.4c0,0.1,0,0.2,0,0.3H369c0,0.7,0.2,1.2,0.6,1.6
		s0.8,0.5,1.3,0.5c0.4,0,0.7-0.1,1-0.3S372.4,130.9,372.6,130.4z M369.1,128.7h3.5c0-0.5-0.2-0.9-0.4-1.2c-0.3-0.4-0.8-0.6-1.3-0.6
		s-0.9,0.2-1.2,0.5S369.2,128.2,369.1,128.7z"/>
</g>
<g class="st2">
	<path d="M292.7,146.8v-7.6h-2.8v-1h6.8v1h-2.8v7.6H292.7z"/>
	<path d="M297.2,146.8v-6.2h0.9v0.9c0.2-0.4,0.5-0.7,0.7-0.9s0.4-0.2,0.7-0.2c0.4,0,0.7,0.1,1.1,0.3l-0.4,1
		c-0.3-0.2-0.5-0.2-0.8-0.2c-0.2,0-0.4,0.1-0.6,0.2s-0.3,0.3-0.4,0.6c-0.1,0.4-0.2,0.8-0.2,1.2v3.3L297.2,146.8L297.2,146.8z"/>
	<path d="M305.3,146.1c-0.4,0.3-0.8,0.6-1.1,0.7s-0.7,0.2-1.2,0.2c-0.7,0-1.2-0.2-1.6-0.5s-0.6-0.8-0.6-1.3c0-0.3,0.1-0.6,0.2-0.8
		s0.3-0.5,0.5-0.6s0.5-0.3,0.8-0.3c0.2-0.1,0.5-0.1,0.9-0.2c0.9-0.1,1.5-0.2,1.9-0.4c0-0.1,0-0.2,0-0.3c0-0.4-0.1-0.7-0.3-0.9
		c-0.3-0.2-0.7-0.4-1.2-0.4s-0.9,0.1-1.1,0.3s-0.4,0.5-0.5,0.9l-1-0.1c0.1-0.4,0.2-0.8,0.5-1.1s0.5-0.5,0.9-0.6s0.9-0.2,1.4-0.2
		s1,0.1,1.3,0.2s0.6,0.3,0.7,0.5s0.3,0.4,0.3,0.7c0,0.2,0.1,0.5,0.1,1v1.4c0,1,0,1.6,0.1,1.9s0.1,0.5,0.3,0.7h-1.1
		C305.4,146.6,305.3,146.4,305.3,146.1z M305.2,143.7c-0.4,0.2-1,0.3-1.7,0.4c-0.4,0.1-0.7,0.1-0.9,0.2s-0.3,0.2-0.4,0.3
		s-0.1,0.3-0.1,0.5c0,0.3,0.1,0.5,0.3,0.7s0.5,0.3,0.9,0.3s0.8-0.1,1.1-0.3s0.5-0.4,0.7-0.7c0.1-0.2,0.2-0.6,0.2-1.1v-0.3
		L305.2,143.7L305.2,143.7z"/>
	<path d="M309.7,146.8l-2.4-6.2h1.1l1.3,3.7c0.1,0.4,0.3,0.8,0.4,1.3c0.1-0.3,0.2-0.7,0.4-1.2l1.4-3.8h1.1l-2.4,6.2H309.7z"/>
	<path d="M318.2,144.8l1.1,0.1c-0.2,0.6-0.5,1.1-1,1.5s-1.1,0.5-1.8,0.5c-0.9,0-1.6-0.3-2.2-0.8s-0.8-1.3-0.8-2.4
		c0-1,0.3-1.9,0.8-2.4s1.2-0.9,2.1-0.9c0.8,0,1.5,0.3,2,0.8s0.8,1.4,0.8,2.4c0,0.1,0,0.2,0,0.3h-4.6c0,0.7,0.2,1.2,0.6,1.6
		s0.8,0.5,1.3,0.5c0.4,0,0.7-0.1,1-0.3S318,145.3,318.2,144.8z M314.7,143.1h3.5c0-0.5-0.2-0.9-0.4-1.2c-0.3-0.4-0.8-0.6-1.3-0.6
		s-0.9,0.2-1.2,0.5S314.8,142.6,314.7,143.1z"/>
	<path d="M320.6,146.8v-6.2h0.9v0.9c0.2-0.4,0.5-0.7,0.7-0.9s0.4-0.2,0.7-0.2c0.4,0,0.7,0.1,1.1,0.3l-0.4,1
		c-0.3-0.2-0.5-0.2-0.8-0.2c-0.2,0-0.4,0.1-0.6,0.2s-0.3,0.3-0.4,0.6c-0.1,0.4-0.2,0.8-0.2,1.2v3.3L320.6,146.8L320.6,146.8z"/>
	<path d="M324.2,145l1-0.2c0.1,0.4,0.2,0.7,0.5,1s0.6,0.3,1.1,0.3s0.8-0.1,1.1-0.3s0.4-0.4,0.4-0.7c0-0.2-0.1-0.4-0.3-0.6
		c-0.1-0.1-0.5-0.2-1.1-0.4c-0.8-0.2-1.3-0.4-1.6-0.5s-0.5-0.3-0.7-0.6s-0.2-0.5-0.2-0.8s0.1-0.5,0.2-0.8s0.3-0.4,0.5-0.6
		c0.2-0.1,0.4-0.2,0.7-0.3s0.6-0.1,0.9-0.1c0.5,0,0.9,0.1,1.3,0.2s0.6,0.3,0.8,0.6s0.3,0.6,0.4,1l-1,0.1c0-0.3-0.2-0.6-0.4-0.8
		s-0.5-0.3-1-0.3s-0.8,0.1-1,0.2s-0.3,0.3-0.3,0.6c0,0.1,0,0.3,0.1,0.4c0.1,0.1,0.2,0.2,0.4,0.3c0.1,0,0.4,0.1,0.9,0.3
		c0.7,0.2,1.3,0.4,1.6,0.5s0.5,0.3,0.7,0.6s0.3,0.5,0.3,0.9s-0.1,0.7-0.3,1s-0.5,0.6-0.9,0.7s-0.8,0.3-1.3,0.3
		c-0.8,0-1.4-0.2-1.8-0.5S324.3,145.6,324.2,145z"/>
	<path d="M334.7,146.1c-0.4,0.3-0.8,0.6-1.1,0.7s-0.7,0.2-1.2,0.2c-0.7,0-1.2-0.2-1.6-0.5s-0.6-0.8-0.6-1.3c0-0.3,0.1-0.6,0.2-0.8
		s0.3-0.5,0.5-0.6s0.5-0.3,0.8-0.3c0.2-0.1,0.5-0.1,0.9-0.2c0.9-0.1,1.5-0.2,1.9-0.4c0-0.1,0-0.2,0-0.3c0-0.4-0.1-0.7-0.3-0.9
		c-0.3-0.2-0.7-0.4-1.2-0.4s-0.9,0.1-1.1,0.3s-0.4,0.5-0.5,0.9l-1-0.1c0.1-0.4,0.2-0.8,0.5-1.1s0.5-0.5,0.9-0.6s0.9-0.2,1.4-0.2
		s1,0.1,1.3,0.2s0.6,0.3,0.7,0.5s0.3,0.4,0.3,0.7c0,0.2,0.1,0.5,0.1,1v1.4c0,1,0,1.6,0.1,1.9s0.1,0.5,0.3,0.7h-1.1
		C334.8,146.6,334.7,146.4,334.7,146.1z M334.6,143.7c-0.4,0.2-1,0.3-1.7,0.4c-0.4,0.1-0.7,0.1-0.9,0.2s-0.3,0.2-0.4,0.3
		s-0.1,0.3-0.1,0.5c0,0.3,0.1,0.5,0.3,0.7s0.5,0.3,0.9,0.3s0.8-0.1,1.1-0.3s0.5-0.4,0.7-0.7c0.1-0.2,0.2-0.6,0.2-1.1v-0.3
		L334.6,143.7L334.6,143.7z"/>
	<path d="M337.2,146.8v-8.6h1.1v8.6H337.2z"/>
</g>
<g>
	<path class="st4" d="M557.4,72.8h-84.3c-6.6,0-12-5.4-12-12v-36c0-6.6,5.4-12,12-12h84.3c6.6,0,12,5.4,12,12v36
		C569.4,67.4,564,72.8,557.4,72.8z"/>
	<g class="st2">
		<path d="M487,39.1v-8.6h1.1V34h4.5v-3.5h1.1v8.6h-1.1v-4h-4.5v4H487z"/>
		<path d="M495.5,31.7v-1.2h1.1v1.2H495.5z M495.5,39.1v-6.2h1.1v6.2H495.5z"/>
		<path d="M500.5,38.1l0.2,0.9c-0.3,0.1-0.6,0.1-0.8,0.1c-0.4,0-0.7-0.1-0.9-0.2s-0.4-0.3-0.4-0.5s-0.1-0.6-0.1-1.2v-3.6h-0.8v-0.8
			h0.8v-1.5l1-0.6v2.2h1.1v0.8h-1.1v3.6c0,0.3,0,0.5,0.1,0.6s0.1,0.2,0.2,0.2s0.2,0.1,0.4,0.1C500.2,38.2,500.3,38.2,500.5,38.1z"/>
		<path d="M509,35.7v-1h3.6v3.2c-0.6,0.4-1.1,0.8-1.7,1s-1.2,0.3-1.8,0.3c-0.8,0-1.6-0.2-2.3-0.5s-1.2-0.9-1.6-1.6s-0.5-1.4-0.5-2.3
			c0-0.8,0.2-1.6,0.5-2.3s0.9-1.3,1.5-1.6s1.4-0.5,2.3-0.5c0.6,0,1.2,0.1,1.7,0.3s0.9,0.5,1.2,0.8s0.5,0.8,0.7,1.4l-1,0.3
			c-0.1-0.4-0.3-0.8-0.5-1s-0.5-0.5-0.8-0.6s-0.8-0.2-1.2-0.2c-0.5,0-1,0.1-1.3,0.2s-0.7,0.4-0.9,0.6s-0.4,0.5-0.5,0.8
			c-0.2,0.5-0.3,1.1-0.3,1.7c0,0.8,0.1,1.4,0.4,1.9s0.6,0.9,1.2,1.1s1,0.4,1.6,0.4c0.5,0,1-0.1,1.4-0.3s0.8-0.4,1.1-0.6v-1.6
			L509,35.7L509,35.7z"/>
		<path d="M514.2,39.1v-6.2h0.9v0.9c0.2-0.4,0.5-0.7,0.7-0.9s0.4-0.2,0.7-0.2c0.4,0,0.7,0.1,1.1,0.3l-0.4,1
			c-0.3-0.2-0.5-0.2-0.8-0.2c-0.2,0-0.4,0.1-0.6,0.2s-0.3,0.3-0.4,0.6c-0.1,0.4-0.2,0.8-0.2,1.2v3.3
			C515.2,39.1,514.2,39.1,514.2,39.1z"/>
		<path d="M517.8,36c0-1.2,0.3-2,1-2.6c0.5-0.5,1.2-0.7,2-0.7c0.9,0,1.6,0.3,2.1,0.8s0.8,1.3,0.8,2.3c0,0.8-0.1,1.4-0.4,1.9
			s-0.6,0.8-1,1.1s-1,0.4-1.5,0.4c-0.9,0-1.6-0.3-2.1-0.8S517.8,37,517.8,36z M518.9,36c0,0.8,0.2,1.4,0.5,1.8s0.8,0.6,1.3,0.6
			s1-0.2,1.3-0.6s0.5-1,0.5-1.8s-0.2-1.4-0.5-1.7s-0.8-0.6-1.3-0.6s-1,0.2-1.3,0.6S518.9,35.2,518.9,36z"/>
		<path d="M529,39.1v-0.9c-0.5,0.7-1.1,1.1-2,1.1c-0.4,0-0.7-0.1-1-0.2s-0.6-0.3-0.7-0.5s-0.3-0.5-0.3-0.8c0-0.2-0.1-0.5-0.1-1v-3.9
			h1.1v3.5c0,0.6,0,0.9,0.1,1.1c0.1,0.3,0.2,0.5,0.4,0.7s0.5,0.2,0.8,0.2s0.6-0.1,0.9-0.2s0.5-0.4,0.6-0.7s0.2-0.7,0.2-1.2V33h1.1
			v6.2L529,39.1L529,39.1z"/>
		<path d="M531.5,41.5v-8.6h1v0.8c0.2-0.3,0.5-0.6,0.8-0.7s0.6-0.2,1-0.2c0.5,0,1,0.1,1.4,0.4s0.7,0.7,0.9,1.2s0.3,1,0.3,1.6
			s-0.1,1.2-0.3,1.7s-0.6,0.9-1,1.2s-0.9,0.4-1.4,0.4c-0.4,0-0.7-0.1-0.9-0.2s-0.5-0.3-0.7-0.6v3C532.6,41.5,531.5,41.5,531.5,41.5z
			 M532.5,36c0,0.8,0.2,1.4,0.5,1.8s0.7,0.6,1.2,0.6s0.9-0.2,1.2-0.6s0.5-1,0.5-1.8s-0.2-1.4-0.5-1.8s-0.7-0.6-1.2-0.6
			c-0.4,0-0.8,0.2-1.2,0.6S532.5,35.2,532.5,36z"/>
		<path d="M538.5,34.1v-1.2h1.2v1.2H538.5z M538.5,39.1v-1.2h1.2v1.2H538.5z"/>
	</g>
	<g class="st2">
		<path d="M464.3,53.5v-8.6h1.1v8.6H464.3z"/>
		<path d="M467.3,53.5v-6.2h0.9v0.9c0.5-0.7,1.1-1,2-1c0.4,0,0.7,0.1,1,0.2s0.5,0.3,0.7,0.5s0.3,0.5,0.3,0.8c0,0.2,0.1,0.5,0.1,1
			v3.8h-1.1v-3.8c0-0.4,0-0.8-0.1-1s-0.2-0.4-0.4-0.5S470.3,48,470,48c-0.4,0-0.8,0.1-1.2,0.4s-0.5,0.8-0.5,1.6v3.4L467.3,53.5
			L467.3,53.5z"/>
		<path d="M476.2,52.5l0.2,0.9c-0.3,0.1-0.6,0.1-0.8,0.1c-0.4,0-0.7-0.1-0.9-0.2s-0.4-0.3-0.4-0.5s-0.1-0.6-0.1-1.2V48h-0.8v-0.8
			h0.8v-1.5l1-0.6v2.2h1.1v0.8h-1.1v3.6c0,0.3,0,0.5,0.1,0.6s0.1,0.2,0.2,0.2s0.2,0.1,0.4,0.1C475.9,52.6,476,52.6,476.2,52.5z"/>
		<path d="M481.5,51.5l1.1,0.1c-0.2,0.6-0.5,1.1-1,1.5s-1.1,0.5-1.8,0.5c-0.9,0-1.6-0.3-2.2-0.8s-0.8-1.3-0.8-2.4
			c0-1,0.3-1.9,0.8-2.4s1.2-0.9,2.1-0.9c0.8,0,1.5,0.3,2,0.8s0.8,1.4,0.8,2.4c0,0.1,0,0.2,0,0.3H478c0,0.7,0.2,1.2,0.6,1.6
			s0.8,0.5,1.3,0.5c0.4,0,0.7-0.1,1-0.3S481.4,51.9,481.5,51.5z M478.1,49.8h3.5c0-0.5-0.2-0.9-0.4-1.2c-0.3-0.4-0.8-0.6-1.3-0.6
			s-0.9,0.2-1.2,0.5S478.1,49.2,478.1,49.8z"/>
		<path d="M483.9,53.5v-6.2h0.9v0.9c0.2-0.4,0.5-0.7,0.7-0.9s0.4-0.2,0.7-0.2c0.4,0,0.7,0.1,1.1,0.3l-0.4,1
			c-0.3-0.2-0.5-0.2-0.8-0.2c-0.2,0-0.4,0.1-0.6,0.2s-0.3,0.3-0.4,0.6c-0.1,0.4-0.2,0.8-0.2,1.2v3.3
			C484.9,53.5,483.9,53.5,483.9,53.5z"/>
		<path d="M487.5,51.6l1-0.2c0.1,0.4,0.2,0.7,0.5,1s0.6,0.3,1.1,0.3s0.8-0.1,1.1-0.3s0.4-0.4,0.4-0.7c0-0.2-0.1-0.4-0.3-0.6
			c-0.1-0.1-0.5-0.2-1.1-0.4c-0.8-0.2-1.3-0.4-1.6-0.5s-0.5-0.3-0.7-0.6s-0.2-0.5-0.2-0.8s0.1-0.5,0.2-0.8s0.3-0.4,0.5-0.6
			c0.2-0.1,0.4-0.2,0.7-0.3s0.6-0.1,0.9-0.1c0.5,0,0.9,0.1,1.3,0.2s0.6,0.3,0.8,0.6s0.3,0.6,0.4,1l-1,0.1c0-0.3-0.2-0.6-0.4-0.8
			s-0.5-0.3-1-0.3s-0.8,0.1-1,0.2s-0.3,0.3-0.3,0.6c0,0.1,0,0.3,0.1,0.4c0.1,0.1,0.2,0.2,0.4,0.3c0.1,0,0.4,0.1,0.9,0.3
			c0.7,0.2,1.3,0.4,1.6,0.5s0.5,0.3,0.7,0.6s0.3,0.5,0.3,0.9s-0.1,0.7-0.3,1s-0.5,0.6-0.9,0.7s-0.8,0.3-1.3,0.3
			c-0.8,0-1.4-0.2-1.8-0.5S487.6,52.3,487.5,51.6z"/>
		<path d="M498.2,51.5l1.1,0.1c-0.2,0.6-0.5,1.1-1,1.5s-1.1,0.5-1.8,0.5c-0.9,0-1.6-0.3-2.2-0.8s-0.8-1.3-0.8-2.4
			c0-1,0.3-1.9,0.8-2.4s1.2-0.9,2.1-0.9c0.8,0,1.5,0.3,2,0.8s0.8,1.4,0.8,2.4c0,0.1,0,0.2,0,0.3h-4.6c0,0.7,0.2,1.2,0.6,1.6
			s0.8,0.5,1.3,0.5c0.4,0,0.7-0.1,1-0.3S498,51.9,498.2,51.5z M494.7,49.8h3.5c0-0.5-0.2-0.9-0.4-1.2c-0.3-0.4-0.8-0.6-1.3-0.6
			s-0.9,0.2-1.2,0.5S494.8,49.2,494.7,49.8z"/>
		<path d="M504.7,51.2l1,0.1c-0.1,0.7-0.4,1.3-0.9,1.7s-1,0.6-1.7,0.6c-0.9,0-1.5-0.3-2.1-0.8s-0.8-1.4-0.8-2.4
			c0-0.7,0.1-1.3,0.3-1.8s0.6-0.9,1-1.1s1-0.4,1.5-0.4c0.7,0,1.2,0.2,1.7,0.5s0.7,0.8,0.8,1.5l-1,0.2c-0.1-0.4-0.3-0.7-0.5-0.9
			s-0.5-0.3-0.9-0.3c-0.5,0-1,0.2-1.3,0.6s-0.5,1-0.5,1.8s0.2,1.4,0.5,1.8s0.7,0.6,1.3,0.6c0.4,0,0.8-0.1,1-0.4
			S504.6,51.7,504.7,51.2z"/>
		<path d="M508.9,52.5l0.2,0.9c-0.3,0.1-0.6,0.1-0.8,0.1c-0.4,0-0.7-0.1-0.9-0.2S507,53,507,52.8s-0.1-0.6-0.1-1.2V48H506v-0.8h0.8
			v-1.5l1-0.6v2.2h1.1v0.8h-1.1v3.6c0,0.3,0,0.5,0.1,0.6s0.1,0.2,0.2,0.2s0.2,0.1,0.4,0.1C508.6,52.6,508.7,52.6,508.9,52.5z"/>
		<path d="M510,46.1v-1.2h1.1v1.2H510z M510,53.5v-6.2h1.1v6.2H510z"/>
		<path d="M512.2,50.4c0-1.2,0.3-2,1-2.6c0.5-0.5,1.2-0.7,2-0.7c0.9,0,1.6,0.3,2.1,0.8s0.8,1.3,0.8,2.3c0,0.8-0.1,1.4-0.4,1.9
			s-0.6,0.8-1,1.1s-1,0.4-1.5,0.4c-0.9,0-1.6-0.3-2.1-0.8S512.2,51.4,512.2,50.4z M513.3,50.4c0,0.8,0.2,1.4,0.5,1.8
			s0.8,0.6,1.3,0.6s1-0.2,1.3-0.6s0.5-1,0.5-1.8s-0.2-1.4-0.5-1.7s-0.8-0.6-1.3-0.6s-1,0.2-1.3,0.6S513.3,49.6,513.3,50.4z"/>
		<path d="M519.3,53.5v-6.2h0.9v0.9c0.5-0.7,1.1-1,2-1c0.4,0,0.7,0.1,1,0.2s0.5,0.3,0.7,0.5s0.3,0.5,0.3,0.8c0,0.2,0.1,0.5,0.1,1
			v3.8h-1.1v-3.8c0-0.4,0-0.8-0.1-1s-0.2-0.4-0.4-0.5S522.3,48,522,48c-0.4,0-0.8,0.1-1.2,0.4s-0.5,0.8-0.5,1.6v3.4L519.3,53.5
			L519.3,53.5z"/>
		<path d="M529,50.7l1.1-0.1c0.1,0.4,0.2,0.8,0.4,1.1s0.5,0.5,0.9,0.7s0.8,0.3,1.3,0.3c0.4,0,0.8-0.1,1.1-0.2s0.6-0.3,0.7-0.5
			s0.2-0.5,0.2-0.7c0-0.3-0.1-0.5-0.2-0.7s-0.4-0.4-0.8-0.5c-0.2-0.1-0.7-0.2-1.5-0.4s-1.3-0.4-1.7-0.5c-0.4-0.2-0.7-0.5-0.9-0.8
			s-0.3-0.7-0.3-1.1c0-0.4,0.1-0.8,0.4-1.2s0.6-0.7,1.1-0.9s1-0.3,1.6-0.3s1.2,0.1,1.7,0.3s0.9,0.5,1.1,0.9s0.4,0.8,0.4,1.4
			l-1.1,0.1c-0.1-0.5-0.3-1-0.6-1.2s-0.8-0.4-1.5-0.4s-1.2,0.1-1.5,0.4s-0.5,0.6-0.5,0.9c0,0.3,0.1,0.6,0.3,0.8s0.8,0.4,1.7,0.6
			s1.6,0.4,1.9,0.5c0.5,0.2,0.9,0.5,1.1,0.9s0.4,0.8,0.4,1.2c0,0.5-0.1,0.9-0.4,1.3s-0.6,0.7-1.1,0.9s-1,0.3-1.7,0.3
			c-0.8,0-1.4-0.1-2-0.3s-0.9-0.6-1.2-1S529.1,51.3,529,50.7z"/>
		<path d="M537.3,53.5v-8.6h1.1V48c0.5-0.6,1.1-0.9,1.9-0.9c0.5,0,0.9,0.1,1.2,0.3s0.6,0.4,0.7,0.8s0.2,0.8,0.2,1.4v3.9h-1.1v-3.9
			c0-0.5-0.1-0.9-0.3-1.2s-0.6-0.4-1-0.4c-0.3,0-0.6,0.1-0.9,0.2s-0.5,0.4-0.6,0.7s-0.2,0.7-0.2,1.1v3.4h-1L537.3,53.5L537.3,53.5z"
			/>
		<path d="M548,52.7c-0.4,0.3-0.8,0.6-1.1,0.7s-0.7,0.2-1.2,0.2c-0.7,0-1.2-0.2-1.6-0.5s-0.6-0.8-0.6-1.3c0-0.3,0.1-0.6,0.2-0.8
			s0.3-0.5,0.5-0.6s0.5-0.3,0.8-0.3c0.2-0.1,0.5-0.1,0.9-0.2c0.9-0.1,1.5-0.2,1.9-0.4c0-0.1,0-0.2,0-0.3c0-0.4-0.1-0.7-0.3-0.9
			c-0.3-0.2-0.7-0.4-1.2-0.4s-0.9,0.1-1.1,0.3s-0.4,0.5-0.5,0.9l-1-0.1c0.1-0.4,0.2-0.8,0.5-1.1s0.5-0.5,0.9-0.6s0.9-0.2,1.4-0.2
			s1,0.1,1.3,0.2s0.6,0.3,0.7,0.5s0.3,0.4,0.3,0.7c0,0.2,0.1,0.5,0.1,1v1.4c0,1,0,1.6,0.1,1.9s0.1,0.5,0.3,0.7h-1.1
			C548.1,53.3,548.1,53,548,52.7z M547.9,50.4c-0.4,0.2-1,0.3-1.7,0.4c-0.4,0.1-0.7,0.1-0.9,0.2s-0.3,0.2-0.4,0.3s-0.1,0.3-0.1,0.5
			c0,0.3,0.1,0.5,0.3,0.7s0.5,0.3,0.9,0.3s0.8-0.1,1.1-0.3s0.5-0.4,0.7-0.7c0.1-0.2,0.2-0.6,0.2-1.1L547.9,50.4L547.9,50.4z"/>
		<path d="M554.7,53.5v-0.8c-0.4,0.6-1,0.9-1.7,0.9c-0.5,0-1-0.1-1.4-0.4s-0.7-0.7-1-1.1s-0.3-1.1-0.3-1.7c0-0.6,0.1-1.2,0.3-1.7
			s0.5-0.9,0.9-1.2s0.9-0.4,1.4-0.4c0.4,0,0.7,0.1,1,0.2s0.5,0.4,0.7,0.6v-3.1h1v8.6L554.7,53.5L554.7,53.5z M551.4,50.4
			c0,0.8,0.2,1.4,0.5,1.8s0.7,0.6,1.2,0.6s0.9-0.2,1.2-0.6s0.5-1,0.5-1.7c0-0.9-0.2-1.5-0.5-1.9S553.5,48,553,48s-0.9,0.2-1.2,0.6
			S551.4,49.6,551.4,50.4z"/>
		<path d="M561.6,51.5l1.1,0.1c-0.2,0.6-0.5,1.1-1,1.5s-1.1,0.5-1.8,0.5c-0.9,0-1.6-0.3-2.2-0.8s-0.8-1.3-0.8-2.4
			c0-1,0.3-1.9,0.8-2.4s1.2-0.9,2.1-0.9c0.8,0,1.5,0.3,2,0.8s0.8,1.4,0.8,2.4c0,0.1,0,0.2,0,0.3H558c0,0.7,0.2,1.2,0.6,1.6
			s0.8,0.5,1.3,0.5c0.4,0,0.7-0.1,1-0.3S561.4,51.9,561.6,51.5z M558.1,49.8h3.5c0-0.5-0.2-0.9-0.4-1.2c-0.3-0.4-0.8-0.6-1.3-0.6
			s-0.9,0.2-1.2,0.5S558.2,49.2,558.1,49.8z"/>
		<path d="M564,53.5v-6.2h0.9v0.9c0.2-0.4,0.5-0.7,0.7-0.9s0.4-0.2,0.7-0.2c0.4,0,0.7,0.1,1.1,0.3l-0.4,1c-0.3-0.2-0.5-0.2-0.8-0.2
			c-0.2,0-0.4,0.1-0.6,0.2s-0.3,0.3-0.4,0.6c-0.1,0.4-0.2,0.8-0.2,1.2v3.3C565,53.5,564,53.5,564,53.5z"/>
	</g>
</g>
<g>
	<path class="st4" d="M305.1,72.9h-84.3c-6.6,0-12-5.4-12-12v-36c0-6.6,5.4-12,12-12h84.3c6.6,0,12,5.4,12,12v36
		C317.1,67.5,311.7,72.9,305.1,72.9z"/>
	<g class="st2">
		<path d="M235,39.2v-8.6h1.1v3.5h4.5v-3.5h1.1v8.6h-1.1v-4h-4.5v4C236.1,39.2,235,39.2,235,39.2z"/>
		<path d="M243.5,31.8v-1.2h1.1v1.2H243.5z M243.5,39.2V33h1.1v6.2H243.5z"/>
		<path d="M248.5,38.3l0.2,0.9c-0.3,0.1-0.6,0.1-0.8,0.1c-0.4,0-0.7-0.1-0.9-0.2s-0.4-0.3-0.4-0.5s-0.1-0.6-0.1-1.2v-3.6h-0.8V33
			h0.8v-1.5l1-0.6V33h1.1v0.8h-1.1v3.6c0,0.3,0,0.5,0.1,0.6s0.1,0.2,0.2,0.2s0.2,0.1,0.4,0.1C248.1,38.3,248.3,38.3,248.5,38.3z"/>
		<path d="M257,35.8v-1h3.6V38c-0.6,0.4-1.1,0.8-1.7,1s-1.2,0.3-1.8,0.3c-0.8,0-1.6-0.2-2.3-0.5s-1.2-0.9-1.6-1.6s-0.5-1.4-0.5-2.3
			c0-0.8,0.2-1.6,0.5-2.3s0.9-1.3,1.5-1.6s1.4-0.5,2.3-0.5c0.6,0,1.2,0.1,1.7,0.3s0.9,0.5,1.2,0.8s0.5,0.8,0.7,1.4l-1,0.3
			c-0.1-0.4-0.3-0.8-0.5-1s-0.5-0.5-0.8-0.6s-0.8-0.2-1.2-0.2c-0.5,0-1,0.1-1.3,0.2s-0.7,0.4-0.9,0.6s-0.4,0.5-0.5,0.8
			c-0.2,0.5-0.3,1.1-0.3,1.7c0,0.8,0.1,1.4,0.4,1.9s0.6,0.9,1.2,1.1s1,0.4,1.6,0.4c0.5,0,1-0.1,1.4-0.3s0.8-0.4,1.1-0.6v-1.6
			L257,35.8L257,35.8z"/>
		<path d="M262.1,39.2V33h0.9v0.9c0.2-0.4,0.5-0.7,0.7-0.9s0.4-0.2,0.7-0.2c0.4,0,0.7,0.1,1.1,0.3l-0.4,1c-0.3-0.2-0.5-0.2-0.8-0.2
			c-0.2,0-0.4,0.1-0.6,0.2s-0.3,0.3-0.4,0.6c-0.1,0.4-0.2,0.8-0.2,1.2v3.3C263.1,39.2,262.1,39.2,262.1,39.2z"/>
		<path d="M265.8,36.1c0-1.2,0.3-2,1-2.6c0.5-0.5,1.2-0.7,2-0.7c0.9,0,1.6,0.3,2.1,0.8s0.8,1.3,0.8,2.3c0,0.8-0.1,1.4-0.4,1.9
			s-0.6,0.8-1,1.1s-1,0.4-1.5,0.4c-0.9,0-1.6-0.3-2.1-0.8S265.8,37.1,265.8,36.1z M266.8,36.1c0,0.8,0.2,1.4,0.5,1.8
			s0.8,0.6,1.3,0.6s1-0.2,1.3-0.6s0.5-1,0.5-1.8s-0.2-1.4-0.5-1.7s-0.8-0.6-1.3-0.6s-1,0.2-1.3,0.6S266.8,35.3,266.8,36.1z"/>
		<path d="M276.9,39.2v-0.9c-0.5,0.7-1.1,1.1-2,1.1c-0.4,0-0.7-0.1-1-0.2s-0.6-0.3-0.7-0.5s-0.3-0.5-0.3-0.8c0-0.2-0.1-0.5-0.1-1V33
			h1.1v3.5c0,0.6,0,0.9,0.1,1.1c0.1,0.3,0.2,0.5,0.4,0.7s0.5,0.2,0.8,0.2s0.6-0.1,0.9-0.2s0.5-0.4,0.6-0.7s0.2-0.7,0.2-1.2V33h1.1
			v6.2H276.9z"/>
		<path d="M279.5,41.6V33h1v0.8c0.2-0.3,0.5-0.6,0.8-0.7s0.6-0.2,1-0.2c0.5,0,1,0.1,1.4,0.4s0.7,0.7,0.9,1.2s0.3,1,0.3,1.6
			s-0.1,1.2-0.3,1.7s-0.6,0.9-1,1.2s-0.9,0.4-1.4,0.4c-0.4,0-0.7-0.1-0.9-0.2s-0.5-0.3-0.7-0.6v3C280.6,41.6,279.5,41.6,279.5,41.6z
			 M280.5,36.1c0,0.8,0.2,1.4,0.5,1.8s0.7,0.6,1.2,0.6s0.9-0.2,1.2-0.6s0.5-1,0.5-1.8s-0.2-1.4-0.5-1.8s-0.7-0.6-1.2-0.6
			c-0.4,0-0.8,0.2-1.2,0.6S280.5,35.3,280.5,36.1z"/>
		<path d="M286.5,34.2V33h1.2v1.2H286.5z M286.5,39.2V38h1.2v1.2H286.5z"/>
	</g>
	<g class="st2">
		<path d="M222.5,53.6l3.3-8.6h1.2l3.5,8.6h-1.3l-1-2.6h-3.6l-0.9,2.6H222.5z M224.9,50.1h2.9l-0.9-2.4c-0.3-0.7-0.5-1.3-0.6-1.8
			c-0.1,0.6-0.3,1.1-0.5,1.6L224.9,50.1z"/>
		<path d="M231.3,53.6v-6.2h0.9v0.9c0.5-0.7,1.1-1,2-1c0.4,0,0.7,0.1,1,0.2s0.5,0.3,0.7,0.5s0.3,0.5,0.3,0.8c0,0.2,0.1,0.5,0.1,1
			v3.8h-1.1v-3.8c0-0.4,0-0.8-0.1-1s-0.2-0.4-0.4-0.5s-0.5-0.2-0.7-0.2c-0.4,0-0.8,0.1-1.2,0.4s-0.5,0.8-0.5,1.6v3.4L231.3,53.6
			L231.3,53.6z"/>
		<path d="M237.9,56l-0.1-1c0.2,0.1,0.4,0.1,0.6,0.1c0.2,0,0.4,0,0.6-0.1s0.3-0.2,0.3-0.3c0.1-0.1,0.2-0.4,0.3-0.8
			c0-0.1,0.1-0.1,0.1-0.3l-2.4-6.2h1.1l1.3,3.6c0.2,0.5,0.3,0.9,0.5,1.4c0.1-0.5,0.3-1,0.4-1.4l1.3-3.6h1.1l-2.4,6.3
			c-0.3,0.7-0.5,1.2-0.6,1.4c-0.2,0.3-0.4,0.6-0.6,0.8s-0.5,0.2-0.9,0.2C238.4,56.1,238.2,56.1,237.9,56z"/>
		<path d="M247.5,53.6V45h1.1v3.5h4.5V45h1.1v8.6h-1.1v-4h-4.5v4H247.5z"/>
		<path d="M256,46.2V45h1.1v1.2H256z M256,53.6v-6.2h1.1v6.2H256z"/>
		<path d="M260.9,52.7l0.2,0.9c-0.3,0.1-0.6,0.1-0.8,0.1c-0.4,0-0.7-0.1-0.9-0.2S259,53.2,259,53s-0.1-0.6-0.1-1.2v-3.6H258v-0.8
			h0.8v-1.5l1-0.6v2.2h1.1v0.8h-1.1v3.6c0,0.3,0,0.5,0.1,0.6s0.1,0.2,0.2,0.2s0.2,0.1,0.4,0.1C260.6,52.7,260.7,52.7,260.9,52.7z"/>
		<path d="M265,50.8l1.1-0.1c0.1,0.4,0.2,0.8,0.4,1.1s0.5,0.5,0.9,0.7s0.8,0.3,1.3,0.3c0.4,0,0.8-0.1,1.1-0.2s0.6-0.3,0.7-0.5
			s0.2-0.5,0.2-0.7c0-0.3-0.1-0.5-0.2-0.7s-0.4-0.4-0.8-0.5c-0.2-0.1-0.7-0.2-1.5-0.4s-1.3-0.4-1.7-0.5c-0.4-0.2-0.7-0.5-0.9-0.8
			s-0.3-0.7-0.3-1.1c0-0.4,0.1-0.8,0.4-1.2s0.6-0.7,1.1-0.9s1-0.3,1.6-0.3s1.2,0.1,1.7,0.3s0.9,0.5,1.1,0.9s0.4,0.8,0.4,1.4
			l-1.1,0.1c-0.1-0.5-0.3-1-0.6-1.2s-0.8-0.4-1.5-0.4s-1.2,0.1-1.5,0.4s-0.5,0.6-0.5,0.9c0,0.3,0.1,0.6,0.3,0.8
			c0.2,0.2,0.8,0.4,1.7,0.6s1.6,0.4,1.9,0.5c0.5,0.2,0.9,0.5,1.1,0.9s0.4,0.8,0.4,1.2c0,0.5-0.1,0.9-0.4,1.3s-0.6,0.7-1.1,0.9
			s-1,0.3-1.7,0.3c-0.8,0-1.4-0.1-2-0.3s-0.9-0.6-1.2-1S265.1,51.4,265,50.8z"/>
		<path d="M273.3,53.6V45h1.1v3.1c0.5-0.6,1.1-0.9,1.9-0.9c0.5,0,0.9,0.1,1.2,0.3s0.6,0.4,0.7,0.8s0.2,0.8,0.2,1.4v3.9h-1.1v-3.9
			c0-0.5-0.1-0.9-0.3-1.2s-0.6-0.4-1-0.4c-0.3,0-0.6,0.1-0.9,0.2s-0.5,0.4-0.6,0.7s-0.2,0.7-0.2,1.1v3.4h-1L273.3,53.6L273.3,53.6z"
			/>
		<path d="M284,52.8c-0.4,0.3-0.8,0.6-1.1,0.7s-0.7,0.2-1.2,0.2c-0.7,0-1.2-0.2-1.6-0.5s-0.6-0.8-0.6-1.3c0-0.3,0.1-0.6,0.2-0.8
			s0.3-0.5,0.5-0.6s0.5-0.3,0.8-0.3c0.2-0.1,0.5-0.1,0.9-0.2c0.9-0.1,1.5-0.2,1.9-0.4c0-0.1,0-0.2,0-0.3c0-0.4-0.1-0.7-0.3-0.9
			c-0.3-0.2-0.7-0.4-1.2-0.4s-0.9,0.1-1.1,0.3s-0.4,0.5-0.5,0.9l-1-0.1c0.1-0.4,0.2-0.8,0.5-1.1s0.5-0.5,0.9-0.6s0.9-0.2,1.4-0.2
			s1,0.1,1.3,0.2s0.6,0.3,0.7,0.5s0.3,0.4,0.3,0.7c0,0.2,0.1,0.5,0.1,1V51c0,1,0,1.6,0.1,1.9s0.1,0.5,0.3,0.7h-1.1
			C284.1,53.4,284.1,53.1,284,52.8z M283.9,50.5c-0.4,0.2-1,0.3-1.7,0.4c-0.4,0.1-0.7,0.1-0.9,0.2s-0.3,0.2-0.4,0.3
			s-0.1,0.3-0.1,0.5c0,0.3,0.1,0.5,0.3,0.7s0.5,0.3,0.9,0.3s0.8-0.1,1.1-0.3s0.5-0.4,0.7-0.7c0.1-0.2,0.2-0.6,0.2-1.1v-0.3
			C284,50.5,283.9,50.5,283.9,50.5z"/>
		<path d="M290.7,53.6v-0.8c-0.4,0.6-1,0.9-1.7,0.9c-0.5,0-1-0.1-1.4-0.4s-0.7-0.7-1-1.1s-0.3-1.1-0.3-1.7c0-0.6,0.1-1.2,0.3-1.7
			s0.5-0.9,0.9-1.2s0.9-0.4,1.4-0.4c0.4,0,0.7,0.1,1,0.2s0.5,0.4,0.7,0.6v-3h1v8.6H290.7z M287.3,50.5c0,0.8,0.2,1.4,0.5,1.8
			s0.7,0.6,1.2,0.6s0.9-0.2,1.2-0.6s0.5-1,0.5-1.7c0-0.9-0.2-1.5-0.5-1.9s-0.7-0.6-1.2-0.6s-0.9,0.2-1.2,0.6S287.3,49.7,287.3,50.5z
			"/>
		<path d="M297.6,51.6l1.1,0.1c-0.2,0.6-0.5,1.1-1,1.5s-1.1,0.5-1.8,0.5c-0.9,0-1.6-0.3-2.2-0.8s-0.8-1.3-0.8-2.4
			c0-1,0.3-1.9,0.8-2.4s1.2-0.9,2.1-0.9c0.8,0,1.5,0.3,2,0.8s0.8,1.4,0.8,2.4c0,0.1,0,0.2,0,0.3H294c0,0.7,0.2,1.2,0.6,1.6
			s0.8,0.5,1.3,0.5c0.4,0,0.7-0.1,1-0.3S297.4,52,297.6,51.6z M294.1,49.9h3.5c0-0.5-0.2-0.9-0.4-1.2c-0.3-0.4-0.8-0.6-1.3-0.6
			s-0.9,0.2-1.2,0.5S294.1,49.3,294.1,49.9z"/>
		<path d="M300,53.6v-6.2h0.9v0.9c0.2-0.4,0.5-0.7,0.7-0.9s0.4-0.2,0.7-0.2c0.4,0,0.7,0.1,1.1,0.3l-0.4,1c-0.3-0.2-0.5-0.2-0.8-0.2
			c-0.2,0-0.4,0.1-0.6,0.2s-0.3,0.3-0.4,0.6c-0.1,0.4-0.2,0.8-0.2,1.2v3.3C301,53.6,300,53.6,300,53.6z"/>
	</g>
</g>
<g>
	<path class="st4" d="M533.1,213h-84.3c-6.6,0-12-5.4-12-12v-36c0-6.6,5.4-12,12-12h84.3c6.6,0,12,5.4,12,12v36
		C545.1,207.6,539.7,213,533.1,213z"/>
	<g class="st2">
		<path d="M461.5,179.3v-8.6h1.1v3.5h4.5v-3.5h1.1v8.6h-1.1v-4h-4.5v4H461.5z"/>
		<path d="M470,172v-1.2h1.1v1.2H470z M470,179.3v-6.2h1.1v6.2H470z"/>
		<path d="M474.9,178.4l0.2,0.9c-0.3,0.1-0.6,0.1-0.8,0.1c-0.4,0-0.7-0.1-0.9-0.2s-0.4-0.3-0.4-0.5s-0.1-0.6-0.1-1.2v-3.6h-0.8v-0.8
			h0.8v-1.5l1-0.6v2.2h1.1v0.8h-1.1v3.6c0,0.3,0,0.5,0.1,0.6s0.1,0.2,0.2,0.2s0.2,0.1,0.4,0.1C474.6,178.4,474.7,178.4,474.9,178.4z
			"/>
		<path d="M483.5,176v-1h3.6v3.2c-0.6,0.4-1.1,0.8-1.7,1s-1.2,0.3-1.8,0.3c-0.8,0-1.6-0.2-2.3-0.5s-1.2-0.9-1.6-1.6
			s-0.5-1.4-0.5-2.3c0-0.8,0.2-1.6,0.5-2.3s0.9-1.3,1.5-1.6s1.4-0.5,2.3-0.5c0.6,0,1.2,0.1,1.7,0.3s0.9,0.5,1.2,0.8s0.5,0.8,0.7,1.4
			l-1,0.3c-0.1-0.4-0.3-0.8-0.5-1s-0.5-0.5-0.8-0.6s-0.8-0.2-1.2-0.2c-0.5,0-1,0.1-1.3,0.2s-0.7,0.4-0.9,0.6s-0.4,0.5-0.5,0.8
			c-0.2,0.5-0.3,1.1-0.3,1.7c0,0.8,0.1,1.4,0.4,1.9s0.6,0.9,1.2,1.1s1,0.4,1.6,0.4c0.5,0,1-0.1,1.4-0.3s0.8-0.4,1.1-0.6V176H483.5z"
			/>
		<path d="M488.6,179.3v-6.2h0.9v0.9c0.2-0.4,0.5-0.7,0.7-0.9s0.4-0.2,0.7-0.2c0.4,0,0.7,0.1,1.1,0.3l-0.4,1
			c-0.3-0.2-0.5-0.2-0.8-0.2c-0.2,0-0.4,0.1-0.6,0.2s-0.3,0.3-0.4,0.6c-0.1,0.4-0.2,0.8-0.2,1.2v3.3L488.6,179.3L488.6,179.3z"/>
		<path d="M492.2,176.2c0-1.2,0.3-2,1-2.6c0.5-0.5,1.2-0.7,2-0.7c0.9,0,1.6,0.3,2.1,0.8s0.8,1.3,0.8,2.3c0,0.8-0.1,1.4-0.4,1.9
			s-0.6,0.8-1,1.1s-1,0.4-1.5,0.4c-0.9,0-1.6-0.3-2.1-0.8S492.2,177.3,492.2,176.2z M493.3,176.2c0,0.8,0.2,1.4,0.5,1.8
			s0.8,0.6,1.3,0.6s1-0.2,1.3-0.6s0.5-1,0.5-1.8s-0.2-1.4-0.5-1.7s-0.8-0.6-1.3-0.6s-1,0.2-1.3,0.6S493.3,175.4,493.3,176.2z"/>
		<path d="M503.4,179.3v-0.9c-0.5,0.7-1.1,1.1-2,1.1c-0.4,0-0.7-0.1-1-0.2s-0.6-0.3-0.7-0.5s-0.3-0.5-0.3-0.8c0-0.2-0.1-0.5-0.1-1
			v-3.9h1.1v3.5c0,0.6,0,0.9,0.1,1.1c0.1,0.3,0.2,0.5,0.4,0.7s0.5,0.2,0.8,0.2s0.6-0.1,0.9-0.2s0.5-0.4,0.6-0.7s0.2-0.7,0.2-1.2
			v-3.3h1.1v6.2h-1.1V179.3z"/>
		<path d="M506,181.7v-8.6h1v0.8c0.2-0.3,0.5-0.6,0.8-0.7s0.6-0.2,1-0.2c0.5,0,1,0.1,1.4,0.4s0.7,0.7,0.9,1.2s0.3,1,0.3,1.6
			s-0.1,1.2-0.3,1.7s-0.6,0.9-1,1.2s-0.9,0.4-1.4,0.4c-0.4,0-0.7-0.1-0.9-0.2s-0.5-0.3-0.7-0.6v3L506,181.7L506,181.7z M506.9,176.3
			c0,0.8,0.2,1.4,0.5,1.8s0.7,0.6,1.2,0.6s0.9-0.2,1.2-0.6s0.5-1,0.5-1.8s-0.2-1.4-0.5-1.8s-0.7-0.6-1.2-0.6c-0.4,0-0.8,0.2-1.2,0.6
			S506.9,175.5,506.9,176.3z"/>
		<path d="M512.9,174.3v-1.2h1.2v1.2H512.9z M512.9,179.3v-1.2h1.2v1.2H512.9z"/>
	</g>
	<g class="st2">
		<path d="M447.9,190.7l1.1,0.3c-0.2,0.9-0.7,1.6-1.3,2.1s-1.4,0.7-2.3,0.7s-1.7-0.2-2.3-0.6s-1-0.9-1.3-1.6s-0.5-1.5-0.5-2.3
			c0-0.9,0.2-1.7,0.5-2.3s0.8-1.2,1.5-1.5s1.3-0.5,2.1-0.5c0.9,0,1.6,0.2,2.2,0.7s1,1.1,1.2,1.8l-1.1,0.3c-0.2-0.6-0.5-1.1-0.9-1.4
			s-0.9-0.4-1.4-0.4c-0.7,0-1.2,0.2-1.7,0.5s-0.8,0.7-0.9,1.3s-0.3,1.1-0.3,1.6c0,0.7,0.1,1.4,0.3,1.9s0.5,1,1,1.2s0.9,0.4,1.5,0.4
			s1.2-0.2,1.6-0.6S447.8,191.5,447.9,190.7z"/>
		<path d="M450.3,193.8v-8.6h1.1v8.6H450.3z"/>
		<path d="M452.6,190.6c0-1.2,0.3-2,1-2.6c0.5-0.5,1.2-0.7,2-0.7c0.9,0,1.6,0.3,2.1,0.8s0.8,1.3,0.8,2.3c0,0.8-0.1,1.4-0.4,1.9
			s-0.6,0.8-1,1.1s-1,0.4-1.5,0.4c-0.9,0-1.6-0.3-2.1-0.8S452.6,191.7,452.6,190.6z M453.7,190.6c0,0.8,0.2,1.4,0.5,1.8
			s0.8,0.6,1.3,0.6s1-0.2,1.3-0.6s0.5-1,0.5-1.8s-0.2-1.4-0.5-1.7s-0.8-0.6-1.3-0.6s-1,0.2-1.3,0.6S453.7,189.8,453.7,190.6z"/>
		<path d="M459.2,191.9l1-0.2c0.1,0.4,0.2,0.7,0.5,1s0.6,0.3,1.1,0.3s0.8-0.1,1.1-0.3s0.4-0.4,0.4-0.7c0-0.2-0.1-0.4-0.3-0.6
			c-0.1-0.1-0.5-0.2-1.1-0.4c-0.8-0.2-1.3-0.4-1.6-0.5s-0.5-0.3-0.7-0.6s-0.2-0.5-0.2-0.8s0.1-0.5,0.2-0.8s0.3-0.4,0.5-0.6
			c0.2-0.1,0.4-0.2,0.7-0.3s0.6-0.1,0.9-0.1c0.5,0,0.9,0.1,1.3,0.2s0.6,0.3,0.8,0.6s0.3,0.6,0.4,1l-1,0.1c0-0.3-0.2-0.6-0.4-0.8
			s-0.5-0.3-1-0.3s-0.8,0.1-1,0.2s-0.3,0.3-0.3,0.6c0,0.1,0,0.3,0.1,0.4c0.1,0.1,0.2,0.2,0.4,0.3c0.1,0,0.4,0.1,0.9,0.3
			c0.7,0.2,1.3,0.4,1.6,0.5s0.5,0.3,0.7,0.6s0.3,0.5,0.3,0.9s-0.1,0.7-0.3,1s-0.5,0.6-0.9,0.7s-0.8,0.3-1.3,0.3
			c-0.8,0-1.4-0.2-1.8-0.5S459.4,192.6,459.2,191.9z"/>
		<path d="M469.9,191.7l1.1,0.1c-0.2,0.6-0.5,1.1-1,1.5s-1.1,0.5-1.8,0.5c-0.9,0-1.6-0.3-2.2-0.8s-0.8-1.3-0.8-2.4
			c0-1,0.3-1.9,0.8-2.4s1.2-0.9,2.1-0.9c0.8,0,1.5,0.3,2,0.8s0.8,1.4,0.8,2.4c0,0.1,0,0.2,0,0.3h-4.6c0,0.7,0.2,1.2,0.6,1.6
			s0.8,0.5,1.3,0.5c0.4,0,0.7-0.1,1-0.3S469.8,192.2,469.9,191.7z M466.5,190h3.5c0-0.5-0.2-0.9-0.4-1.2c-0.3-0.4-0.8-0.6-1.3-0.6
			s-0.9,0.2-1.2,0.5S466.5,189.5,466.5,190z"/>
		<path d="M471.9,191.9l1-0.2c0.1,0.4,0.2,0.7,0.5,1s0.6,0.3,1.1,0.3s0.8-0.1,1.1-0.3s0.4-0.4,0.4-0.7c0-0.2-0.1-0.4-0.3-0.6
			c-0.1-0.1-0.5-0.2-1.1-0.4c-0.8-0.2-1.3-0.4-1.6-0.5s-0.5-0.3-0.7-0.6s-0.2-0.5-0.2-0.8s0.1-0.5,0.2-0.8s0.3-0.4,0.5-0.6
			c0.2-0.1,0.4-0.2,0.7-0.3s0.6-0.1,0.9-0.1c0.5,0,0.9,0.1,1.3,0.2s0.6,0.3,0.8,0.6s0.3,0.6,0.4,1l-1,0.1c0-0.3-0.2-0.6-0.4-0.8
			s-0.5-0.3-1-0.3s-0.8,0.1-1,0.2s-0.3,0.3-0.3,0.6c0,0.1,0,0.3,0.1,0.4c0.1,0.1,0.2,0.2,0.4,0.3c0.1,0,0.4,0.1,0.9,0.3
			c0.7,0.2,1.3,0.4,1.6,0.5s0.5,0.3,0.7,0.6s0.3,0.5,0.3,0.9s-0.1,0.7-0.3,1s-0.5,0.6-0.9,0.7s-0.8,0.3-1.3,0.3
			c-0.8,0-1.4-0.2-1.8-0.5S472,192.6,471.9,191.9z"/>
		<path d="M480.6,192.8l0.2,0.9c-0.3,0.1-0.6,0.1-0.8,0.1c-0.4,0-0.7-0.1-0.9-0.2s-0.4-0.3-0.4-0.5s-0.1-0.6-0.1-1.2v-3.6h-0.8v-0.8
			h0.8V186l1-0.6v2.2h1.1v0.8h-1.1v3.6c0,0.3,0,0.5,0.1,0.6s0.1,0.2,0.2,0.2s0.2,0.1,0.4,0.1C480.3,192.8,480.5,192.8,480.6,192.8z"
			/>
		<path d="M485.2,193.8v-8.6h1.1v3.5h4.5v-3.5h1.1v8.6h-1.1v-4h-4.5v4H485.2z"/>
		<path d="M493.7,186.4v-1.2h1.1v1.2H493.7z M493.7,193.8v-6.2h1.1v6.2H493.7z"/>
		<path d="M498.6,192.8l0.2,0.9c-0.3,0.1-0.6,0.1-0.8,0.1c-0.4,0-0.7-0.1-0.9-0.2s-0.4-0.3-0.4-0.5s-0.1-0.6-0.1-1.2v-3.6h-0.8v-0.8
			h0.8V186l1-0.6v2.2h1.1v0.8h-1.1v3.6c0,0.3,0,0.5,0.1,0.6s0.1,0.2,0.2,0.2s0.2,0.1,0.4,0.1C498.3,192.8,498.5,192.8,498.6,192.8z"
			/>
		<path d="M502.8,191l1.1-0.1c0.1,0.4,0.2,0.8,0.4,1.1s0.5,0.5,0.9,0.7s0.8,0.3,1.3,0.3c0.4,0,0.8-0.1,1.1-0.2s0.6-0.3,0.7-0.5
			s0.2-0.5,0.2-0.7c0-0.3-0.1-0.5-0.2-0.7s-0.4-0.4-0.8-0.5c-0.2-0.1-0.7-0.2-1.5-0.4s-1.3-0.4-1.7-0.5c-0.4-0.2-0.7-0.5-0.9-0.8
			s-0.3-0.7-0.3-1.1c0-0.4,0.1-0.8,0.4-1.2s0.6-0.7,1.1-0.9s1-0.3,1.6-0.3s1.2,0.1,1.7,0.3s0.9,0.5,1.1,0.9s0.4,0.8,0.4,1.4
			l-1.1,0.1c-0.1-0.5-0.3-1-0.6-1.2s-0.8-0.4-1.5-0.4s-1.2,0.1-1.5,0.4s-0.5,0.6-0.5,0.9c0,0.3,0.1,0.6,0.3,0.8
			c0.2,0.2,0.8,0.4,1.7,0.6s1.6,0.4,1.9,0.5c0.5,0.2,0.9,0.5,1.1,0.9s0.4,0.8,0.4,1.2c0,0.5-0.1,0.9-0.4,1.3s-0.6,0.7-1.1,0.9
			s-1,0.3-1.7,0.3c-0.8,0-1.4-0.1-2-0.3s-0.9-0.6-1.2-1S502.8,191.6,502.8,191z"/>
		<path d="M511,193.8v-8.6h1.1v3.1c0.5-0.6,1.1-0.9,1.9-0.9c0.5,0,0.9,0.1,1.2,0.3s0.6,0.4,0.7,0.8s0.2,0.8,0.2,1.4v3.9H515v-3.9
			c0-0.5-0.1-0.9-0.3-1.2s-0.6-0.4-1-0.4c-0.3,0-0.6,0.1-0.9,0.2s-0.5,0.4-0.6,0.7s-0.2,0.7-0.2,1.1v3.4L511,193.8L511,193.8z"/>
		<path d="M521.7,193c-0.4,0.3-0.8,0.6-1.1,0.7s-0.7,0.2-1.2,0.2c-0.7,0-1.2-0.2-1.6-0.5s-0.6-0.8-0.6-1.3c0-0.3,0.1-0.6,0.2-0.8
			s0.3-0.5,0.5-0.6s0.5-0.3,0.8-0.3c0.2-0.1,0.5-0.1,0.9-0.2c0.9-0.1,1.5-0.2,1.9-0.4c0-0.1,0-0.2,0-0.3c0-0.4-0.1-0.7-0.3-0.9
			c-0.3-0.2-0.7-0.4-1.2-0.4s-0.9,0.1-1.1,0.3s-0.4,0.5-0.5,0.9l-1-0.1c0.1-0.4,0.2-0.8,0.5-1.1s0.5-0.5,0.9-0.6s0.9-0.2,1.4-0.2
			s1,0.1,1.3,0.2s0.6,0.3,0.7,0.5s0.3,0.4,0.3,0.7c0,0.2,0.1,0.5,0.1,1v1.4c0,1,0,1.6,0.1,1.9s0.1,0.5,0.3,0.7h-1
			C521.8,193.5,521.8,193.3,521.7,193z M521.7,190.6c-0.4,0.2-1,0.3-1.7,0.4c-0.4,0.1-0.7,0.1-0.9,0.2s-0.3,0.2-0.4,0.3
			s-0.1,0.3-0.1,0.5c0,0.3,0.1,0.5,0.3,0.7s0.5,0.3,0.9,0.3s0.8-0.1,1.1-0.3s0.5-0.4,0.7-0.7c0.1-0.2,0.2-0.6,0.2-1.1L521.7,190.6
			L521.7,190.6z"/>
		<path d="M528.4,193.8V193c-0.4,0.6-1,0.9-1.7,0.9c-0.5,0-1-0.1-1.4-0.4s-0.7-0.7-1-1.1s-0.3-1.1-0.3-1.7c0-0.6,0.1-1.2,0.3-1.7
			s0.5-0.9,0.9-1.2s0.9-0.4,1.4-0.4c0.4,0,0.7,0.1,1,0.2s0.5,0.4,0.7,0.6v-3.1h1v8.6L528.4,193.8L528.4,193.8z M525.1,190.6
			c0,0.8,0.2,1.4,0.5,1.8s0.7,0.6,1.2,0.6s0.9-0.2,1.2-0.6s0.5-1,0.5-1.7c0-0.9-0.2-1.5-0.5-1.9s-0.7-0.6-1.2-0.6s-0.9,0.2-1.2,0.6
			S525.1,189.8,525.1,190.6z"/>
		<path d="M535.3,191.7l1.1,0.1c-0.2,0.6-0.5,1.1-1,1.5s-1.1,0.5-1.8,0.5c-0.9,0-1.6-0.3-2.2-0.8s-0.8-1.3-0.8-2.4
			c0-1,0.3-1.9,0.8-2.4s1.2-0.9,2.1-0.9c0.8,0,1.5,0.3,2,0.8s0.8,1.4,0.8,2.4c0,0.1,0,0.2,0,0.3h-4.6c0,0.7,0.2,1.2,0.6,1.6
			s0.8,0.5,1.3,0.5c0.4,0,0.7-0.1,1-0.3S535.1,192.2,535.3,191.7z M531.8,190h3.5c0-0.5-0.2-0.9-0.4-1.2c-0.3-0.4-0.8-0.6-1.3-0.6
			s-0.9,0.2-1.2,0.5S531.9,189.5,531.8,190z"/>
		<path d="M537.7,193.8v-6.2h0.9v0.9c0.2-0.4,0.5-0.7,0.7-0.9s0.4-0.2,0.7-0.2c0.4,0,0.7,0.1,1.1,0.3l-0.4,1
			c-0.3-0.2-0.5-0.2-0.8-0.2c-0.2,0-0.4,0.1-0.6,0.2s-0.3,0.3-0.4,0.6c-0.1,0.4-0.2,0.8-0.2,1.2v3.3L537.7,193.8L537.7,193.8z"/>
	</g>
</g>
<g>
	<path class="st5" d="M533.1,291.2h-84.3c-6.6,0-12-5.4-12-12v-36c0-6.6,5.4-12,12-12h84.3c6.6,0,12,5.4,12,12v36
		C545.1,285.8,539.7,291.2,533.1,291.2z"/>
	<g class="st2">
		<path d="M458.4,264.7v-8.6h1.7l2,6.1c0.2,0.6,0.3,1,0.4,1.3c0.1-0.3,0.3-0.8,0.5-1.4l2.1-6h1.5v8.6h-1.1v-7.2l-2.5,7.2h-1
			l-2.5-7.3v7.3H458.4z"/>
		<path d="M468.3,257.4v-1.2h1.1v1.2H468.3z M468.3,264.7v-6.2h1.1v6.2H468.3z"/>
		<path d="M470.6,262.9l1-0.2c0.1,0.4,0.2,0.7,0.5,1s0.6,0.3,1.1,0.3s0.8-0.1,1.1-0.3s0.4-0.4,0.4-0.7c0-0.2-0.1-0.4-0.3-0.6
			c-0.1-0.1-0.5-0.2-1.1-0.4c-0.8-0.2-1.3-0.4-1.6-0.5s-0.5-0.3-0.7-0.6s-0.2-0.5-0.2-0.8s0.1-0.5,0.2-0.8s0.3-0.4,0.5-0.6
			c0.2-0.1,0.4-0.2,0.7-0.3s0.6-0.1,0.9-0.1c0.5,0,0.9,0.1,1.3,0.2s0.6,0.3,0.8,0.6s0.3,0.6,0.4,1l-1,0.1c0-0.3-0.2-0.6-0.4-0.8
			s-0.5-0.3-1-0.3s-0.8,0.1-1,0.2s-0.3,0.3-0.3,0.6c0,0.1,0,0.3,0.1,0.4s0.2,0.2,0.4,0.3c0.1,0,0.4,0.1,0.9,0.3
			c0.7,0.2,1.3,0.4,1.6,0.5s0.5,0.3,0.7,0.6s0.3,0.5,0.3,0.9s-0.1,0.7-0.3,1s-0.5,0.6-0.9,0.7s-0.8,0.3-1.3,0.3
			c-0.8,0-1.4-0.2-1.8-0.5S470.7,263.5,470.6,262.9z"/>
		<path d="M476.6,262.9l1-0.2c0.1,0.4,0.2,0.7,0.5,1s0.6,0.3,1.1,0.3s0.8-0.1,1.1-0.3s0.4-0.4,0.4-0.7c0-0.2-0.1-0.4-0.3-0.6
			c-0.1-0.1-0.5-0.2-1.1-0.4c-0.8-0.2-1.3-0.4-1.6-0.5s-0.5-0.3-0.7-0.6s-0.2-0.5-0.2-0.8s0.1-0.5,0.2-0.8s0.3-0.4,0.5-0.6
			c0.2-0.1,0.4-0.2,0.7-0.3s0.6-0.1,0.9-0.1c0.5,0,0.9,0.1,1.3,0.2s0.6,0.3,0.8,0.6s0.3,0.6,0.4,1l-1,0.1c0-0.3-0.2-0.6-0.4-0.8
			s-0.5-0.3-1-0.3s-0.8,0.1-1,0.2s-0.3,0.3-0.3,0.6c0,0.1,0,0.3,0.1,0.4s0.2,0.2,0.4,0.3c0.1,0,0.4,0.1,0.9,0.3
			c0.7,0.2,1.3,0.4,1.6,0.5s0.5,0.3,0.7,0.6s0.3,0.5,0.3,0.9s-0.1,0.7-0.3,1s-0.5,0.6-0.9,0.7s-0.8,0.3-1.3,0.3
			c-0.8,0-1.4-0.2-1.8-0.5S476.7,263.5,476.6,262.9z"/>
		<path d="M486.1,262l1.1-0.1c0.1,0.4,0.2,0.8,0.4,1.1s0.5,0.5,0.9,0.7s0.8,0.3,1.3,0.3c0.4,0,0.8-0.1,1.1-0.2s0.6-0.3,0.7-0.5
			s0.2-0.5,0.2-0.7c0-0.3-0.1-0.5-0.2-0.7s-0.4-0.4-0.8-0.5c-0.2-0.1-0.7-0.2-1.5-0.4s-1.3-0.4-1.7-0.5c-0.4-0.2-0.7-0.5-0.9-0.8
			s-0.3-0.7-0.3-1.1s0.1-0.8,0.4-1.2s0.6-0.7,1.1-0.9s1-0.3,1.6-0.3s1.2,0.1,1.7,0.3s0.9,0.5,1.1,0.9s0.4,0.8,0.4,1.4l-1.1,0.1
			c-0.1-0.5-0.3-1-0.6-1.2s-0.8-0.4-1.5-0.4s-1.2,0.1-1.5,0.4s-0.5,0.6-0.5,0.9s0.1,0.6,0.3,0.8c0.2,0.2,0.8,0.4,1.7,0.6
			s1.6,0.4,1.9,0.5c0.5,0.2,0.9,0.5,1.1,0.9s0.4,0.8,0.4,1.2c0,0.5-0.1,0.9-0.4,1.3s-0.6,0.7-1.1,0.9s-1,0.3-1.7,0.3
			c-0.8,0-1.4-0.1-2-0.3s-0.9-0.6-1.2-1S486.1,262.5,486.1,262z"/>
		<path d="M494.3,264.7v-8.6h1.1v3.1c0.5-0.6,1.1-0.9,1.9-0.9c0.5,0,0.9,0.1,1.2,0.3s0.6,0.4,0.7,0.8s0.2,0.8,0.2,1.4v3.9h-1.1v-3.9
			c0-0.5-0.1-0.9-0.3-1.2s-0.6-0.4-1-0.4c-0.3,0-0.6,0.1-0.9,0.2s-0.5,0.4-0.6,0.7s-0.2,0.7-0.2,1.1v3.4h-1L494.3,264.7L494.3,264.7
			z"/>
		<path d="M505.1,264c-0.4,0.3-0.8,0.6-1.1,0.7s-0.8,0.2-1.2,0.2c-0.7,0-1.2-0.2-1.6-0.5s-0.6-0.8-0.6-1.3c0-0.3,0.1-0.6,0.2-0.8
			s0.3-0.5,0.5-0.6s0.5-0.3,0.8-0.3c0.2-0.1,0.5-0.1,0.9-0.2c0.9-0.1,1.5-0.2,1.9-0.4c0-0.1,0-0.2,0-0.3c0-0.4-0.1-0.7-0.3-0.9
			c-0.3-0.2-0.7-0.4-1.2-0.4s-0.9,0.1-1.1,0.3s-0.4,0.5-0.5,0.9l-1-0.1c0.1-0.4,0.2-0.8,0.5-1.1s0.5-0.5,0.9-0.6s0.9-0.2,1.4-0.2
			s1,0.1,1.3,0.2s0.6,0.3,0.7,0.5s0.3,0.4,0.3,0.7c0,0.2,0.1,0.5,0.1,1v1.4c0,1,0,1.6,0.1,1.9s0.1,0.5,0.3,0.7h-1.1
			C505.2,264.5,505.1,264.3,505.1,264z M505,261.6c-0.4,0.2-1,0.3-1.7,0.4c-0.4,0.1-0.7,0.1-0.9,0.2s-0.3,0.2-0.4,0.3
			s-0.1,0.3-0.1,0.5c0,0.3,0.1,0.5,0.3,0.7s0.5,0.3,0.9,0.3s0.8-0.1,1.1-0.3s0.5-0.4,0.7-0.7c0.1-0.2,0.2-0.6,0.2-1.1v-0.3H505z"/>
		<path d="M511.7,264.7v-0.8c-0.4,0.6-1,0.9-1.7,0.9c-0.5,0-1-0.1-1.4-0.4s-0.7-0.7-1-1.1s-0.3-1.1-0.3-1.7s0.1-1.2,0.3-1.7
			s0.5-0.9,0.9-1.2s0.9-0.4,1.4-0.4c0.4,0,0.7,0.1,1,0.2s0.5,0.4,0.7,0.6V256h1v8.6h-0.9L511.7,264.7L511.7,264.7z M508.4,261.6
			c0,0.8,0.2,1.4,0.5,1.8s0.7,0.6,1.2,0.6s0.9-0.2,1.2-0.6s0.5-1,0.5-1.7c0-0.9-0.2-1.5-0.5-1.9s-0.7-0.6-1.2-0.6s-0.9,0.2-1.2,0.6
			S508.4,260.8,508.4,261.6z"/>
		<path d="M518.6,262.7l1.1,0.1c-0.2,0.6-0.5,1.1-1,1.5s-1.1,0.5-1.8,0.5c-0.9,0-1.6-0.3-2.2-0.8s-0.8-1.3-0.8-2.4
			c0-1,0.3-1.9,0.8-2.4s1.2-0.9,2.1-0.9c0.8,0,1.5,0.3,2,0.8s0.8,1.4,0.8,2.4c0,0.1,0,0.2,0,0.3H515c0,0.7,0.2,1.2,0.6,1.6
			s0.8,0.5,1.3,0.5c0.4,0,0.7-0.1,1-0.3S518.5,263.2,518.6,262.7z M515.2,261h3.5c0-0.5-0.2-0.9-0.4-1.2c-0.3-0.4-0.8-0.6-1.3-0.6
			s-0.9,0.2-1.2,0.5S515.2,260.5,515.2,261z"/>
		<path d="M521,264.7v-6.2h0.9v0.9c0.2-0.4,0.5-0.7,0.7-0.9s0.4-0.2,0.7-0.2c0.4,0,0.7,0.1,1.1,0.3l-0.4,1c-0.3-0.2-0.5-0.2-0.8-0.2
			c-0.2,0-0.4,0.1-0.6,0.2s-0.3,0.3-0.4,0.6c-0.1,0.4-0.2,0.8-0.2,1.2v3.3L521,264.7L521,264.7z"/>
	</g>
</g>
<g>
	<polygon class="st3" points="360.7,239.8 315.2,268.6 269.6,239.8 315.2,211 	"/>
	<g class="st2">
		<path d="M281.8,243.3v-8.6h5.8v1h-4.7v2.7h4v1h-4v3.9L281.8,243.3L281.8,243.3z"/>
		<path d="M288.5,240.2c0-1.2,0.3-2,1-2.6c0.5-0.5,1.2-0.7,2-0.7c0.9,0,1.6,0.3,2.1,0.8s0.8,1.3,0.8,2.3c0,0.8-0.1,1.4-0.4,1.9
			s-0.6,0.8-1,1.1s-1,0.4-1.5,0.4c-0.9,0-1.6-0.3-2.1-0.8S288.5,241.3,288.5,240.2z M289.6,240.2c0,0.8,0.2,1.4,0.5,1.8
			s0.8,0.6,1.3,0.6s1-0.2,1.3-0.6s0.5-1,0.5-1.8s-0.2-1.4-0.5-1.7s-0.8-0.6-1.3-0.6s-1,0.2-1.3,0.6S289.6,239.4,289.6,240.2z"/>
		<path d="M299.7,243.3v-0.9c-0.5,0.7-1.1,1.1-2,1.1c-0.4,0-0.7-0.1-1-0.2s-0.6-0.3-0.7-0.5s-0.3-0.5-0.3-0.8c0-0.2-0.1-0.5-0.1-1
			v-3.9h1.1v3.5c0,0.6,0,0.9,0.1,1.1c0.1,0.3,0.2,0.5,0.4,0.7s0.5,0.2,0.8,0.2s0.6-0.1,0.9-0.2s0.5-0.4,0.6-0.7s0.2-0.7,0.2-1.2
			v-3.3h1.1v6.2h-1.1V243.3z"/>
		<path d="M302.3,243.3v-6.2h0.9v0.9c0.5-0.7,1.1-1,2-1c0.4,0,0.7,0.1,1,0.2s0.5,0.3,0.7,0.5s0.3,0.5,0.3,0.8c0,0.2,0.1,0.5,0.1,1
			v3.8h-1.1v-3.8c0-0.4,0-0.8-0.1-1s-0.2-0.4-0.4-0.5s-0.5-0.2-0.7-0.2c-0.4,0-0.8,0.1-1.2,0.4s-0.5,0.8-0.5,1.6v3.4h-1L302.3,243.3
			L302.3,243.3z"/>
		<path d="M313,243.3v-0.8c-0.4,0.6-1,0.9-1.7,0.9c-0.5,0-1-0.1-1.4-0.4s-0.7-0.7-1-1.1s-0.3-1.1-0.3-1.7c0-0.6,0.1-1.2,0.3-1.7
			s0.5-0.9,0.9-1.2s0.9-0.4,1.4-0.4c0.4,0,0.7,0.1,1,0.2s0.5,0.4,0.7,0.6v-3.1h1v8.6L313,243.3L313,243.3z M309.6,240.2
			c0,0.8,0.2,1.4,0.5,1.8s0.7,0.6,1.2,0.6s0.9-0.2,1.2-0.6s0.5-1,0.5-1.7c0-0.9-0.2-1.5-0.5-1.9s-0.7-0.6-1.2-0.6s-0.9,0.2-1.2,0.6
			S309.6,239.4,309.6,240.2z"/>
		<path d="M323,242.6c-0.4,0.3-0.8,0.6-1.1,0.7s-0.7,0.2-1.2,0.2c-0.7,0-1.2-0.2-1.6-0.5s-0.6-0.8-0.6-1.3c0-0.3,0.1-0.6,0.2-0.8
			s0.3-0.5,0.5-0.6s0.5-0.3,0.8-0.3c0.2-0.1,0.5-0.1,0.9-0.2c0.9-0.1,1.5-0.2,1.9-0.4c0-0.1,0-0.2,0-0.3c0-0.4-0.1-0.7-0.3-0.9
			c-0.3-0.2-0.7-0.4-1.2-0.4s-0.9,0.1-1.1,0.3s-0.4,0.5-0.5,0.9l-1-0.1c0.1-0.4,0.2-0.8,0.5-1.1s0.5-0.5,0.9-0.6s0.9-0.2,1.4-0.2
			s1,0.1,1.3,0.2s0.6,0.3,0.7,0.5s0.3,0.4,0.3,0.7c0,0.2,0.1,0.5,0.1,1v1.4c0,1,0,1.6,0.1,1.9s0.1,0.5,0.3,0.7h-1.1
			C323.1,243.1,323,242.9,323,242.6z M322.9,240.2c-0.4,0.2-1,0.3-1.7,0.4c-0.4,0.1-0.7,0.1-0.9,0.2s-0.3,0.2-0.4,0.3
			s-0.1,0.3-0.1,0.5c0,0.3,0.1,0.5,0.3,0.7s0.5,0.3,0.9,0.3s0.8-0.1,1.1-0.3s0.5-0.4,0.7-0.7c0.1-0.2,0.2-0.6,0.2-1.1v-0.3
			L322.9,240.2L322.9,240.2z"/>
		<path d="M329.1,243.3v-8.6h1.1v3.5h4.5v-3.5h1.1v8.6h-1.1v-4h-4.5v4H329.1z"/>
		<path d="M337.6,236v-1.2h1.1v1.2H337.6z M337.6,243.3v-6.2h1.1v6.2H337.6z"/>
		<path d="M342.6,242.4l0.2,0.9c-0.3,0.1-0.6,0.1-0.8,0.1c-0.4,0-0.7-0.1-0.9-0.2s-0.4-0.3-0.4-0.5s-0.1-0.6-0.1-1.2v-3.6h-0.8v-0.8
			h0.8v-1.5l1-0.6v2.2h1.1v0.8h-1.1v3.6c0,0.3,0,0.5,0.1,0.6s0.1,0.2,0.2,0.2s0.2,0.1,0.4,0.1C342.2,242.4,342.4,242.4,342.6,242.4z
			"/>
		<path d="M345.6,241.2c0-0.1,0-0.2,0-0.3c0-0.4,0.1-0.8,0.2-1.1c0.1-0.2,0.2-0.5,0.4-0.7c0.1-0.2,0.4-0.4,0.8-0.7s0.6-0.6,0.7-0.8
			s0.2-0.4,0.2-0.6c0-0.4-0.2-0.8-0.5-1.1s-0.7-0.5-1.2-0.5c-0.4,0-0.8,0.1-1.1,0.4s-0.5,0.7-0.6,1.3l-1.1-0.1
			c0.1-0.8,0.4-1.4,0.9-1.8s1.1-0.6,1.9-0.6s1.5,0.2,2,0.7s0.8,1,0.8,1.7c0,0.4-0.1,0.7-0.3,1s-0.5,0.7-1,1.2
			c-0.3,0.3-0.6,0.5-0.7,0.7s-0.2,0.3-0.2,0.5s-0.1,0.5-0.1,0.9L345.6,241.2L345.6,241.2z M345.5,243.3v-1.2h1.2v1.2H345.5z"/>
	</g>
</g>
<g>
	<g>
		<path class="st0" d="M379.3,128c14.7,0,158.7,1,181-7c27-9.7,30.3-36.7,30.7-59.7c0.1-9-4-13.9-9.2-16.5"/>
		<g>
			<path d="M570,42.3c6-0.7,13.7-2.6,18.8-5.3l-5.6,8.4l1.1,10C581,50.8,575,45.7,570,42.3z"/>
		</g>
	</g>
</g>
<g class="st2">
	<path d="M415.7,122v-8.6h6.2v1h-5.1v2.6h4.8v1h-4.8v2.9h5.3v1L415.7,122L415.7,122z"/>
	<path d="M423.6,122v-6.2h0.9v0.9c0.5-0.7,1.1-1,2-1c0.4,0,0.7,0.1,1,0.2s0.5,0.3,0.7,0.5s0.3,0.5,0.3,0.8c0,0.2,0.1,0.5,0.1,1v3.8
		h-1.1v-3.8c0-0.4,0-0.8-0.1-1s-0.2-0.4-0.4-0.5s-0.5-0.2-0.7-0.2c-0.4,0-0.8,0.1-1.2,0.4s-0.5,0.8-0.5,1.6v3.4L423.6,122L423.6,122
		z"/>
	<path d="M432.5,121.1l0.2,0.9c-0.3,0.1-0.6,0.1-0.8,0.1c-0.4,0-0.7-0.1-0.9-0.2s-0.4-0.3-0.4-0.5s-0.1-0.6-0.1-1.2v-3.6h-0.8v-0.8
		h0.8v-1.5l1-0.6v2.2h1.1v0.8h-1.1v3.6c0,0.3,0,0.5,0.1,0.6s0.1,0.2,0.2,0.2s0.2,0.1,0.4,0.1C432.2,121.1,432.4,121.1,432.5,121.1z"
		/>
	<path d="M437.8,120l1.1,0.1c-0.2,0.6-0.5,1.1-1,1.5s-1.1,0.5-1.8,0.5c-0.9,0-1.6-0.3-2.2-0.8s-0.8-1.3-0.8-2.4c0-1,0.3-1.9,0.8-2.4
		s1.2-0.9,2.1-0.9c0.8,0,1.5,0.3,2,0.8s0.8,1.4,0.8,2.4c0,0.1,0,0.2,0,0.3h-4.6c0,0.7,0.2,1.2,0.6,1.6s0.8,0.5,1.3,0.5
		c0.4,0,0.7-0.1,1-0.3S437.7,120.4,437.8,120z M434.4,118.3h3.5c0-0.5-0.2-0.9-0.4-1.2c-0.3-0.4-0.8-0.6-1.3-0.6s-0.9,0.2-1.2,0.5
		S434.4,117.7,434.4,118.3z"/>
	<path d="M440.2,122v-6.2h0.9v0.9c0.2-0.4,0.5-0.7,0.7-0.9s0.4-0.2,0.7-0.2c0.4,0,0.7,0.1,1.1,0.3l-0.4,1c-0.3-0.2-0.5-0.2-0.8-0.2
		c-0.2,0-0.4,0.1-0.6,0.2s-0.3,0.3-0.4,0.6c-0.1,0.4-0.2,0.8-0.2,1.2v3.3C441.2,122,440.2,122,440.2,122z"/>
	<path d="M447.7,122v-8.6h1.1v7.6h4.2v1H447.7z"/>
	<path d="M458.5,120l1.1,0.1c-0.2,0.6-0.5,1.1-1,1.5s-1.1,0.5-1.8,0.5c-0.9,0-1.6-0.3-2.2-0.8s-0.8-1.3-0.8-2.4c0-1,0.3-1.9,0.8-2.4
		s1.2-0.9,2.1-0.9c0.8,0,1.5,0.3,2,0.8s0.8,1.4,0.8,2.4c0,0.1,0,0.2,0,0.3H455c0,0.7,0.2,1.2,0.6,1.6s0.8,0.5,1.3,0.5
		c0.4,0,0.7-0.1,1-0.3S458.4,120.4,458.5,120z M455,118.3h3.5c0-0.5-0.2-0.9-0.4-1.2c-0.3-0.4-0.8-0.6-1.3-0.6s-0.9,0.2-1.2,0.5
		S455.1,117.7,455,118.3z"/>
	<path d="M465,121.2c-0.4,0.3-0.8,0.6-1.1,0.7s-0.7,0.2-1.2,0.2c-0.7,0-1.2-0.2-1.6-0.5s-0.6-0.8-0.6-1.3c0-0.3,0.1-0.6,0.2-0.8
		s0.3-0.5,0.5-0.6s0.5-0.3,0.8-0.3c0.2-0.1,0.5-0.1,0.9-0.2c0.9-0.1,1.5-0.2,1.9-0.4c0-0.1,0-0.2,0-0.3c0-0.4-0.1-0.7-0.3-0.9
		c-0.3-0.2-0.7-0.4-1.2-0.4s-0.9,0.1-1.1,0.3s-0.4,0.5-0.5,0.9l-1-0.1c0.1-0.4,0.2-0.8,0.5-1.1s0.5-0.5,0.9-0.6s0.9-0.2,1.4-0.2
		s1,0.1,1.3,0.2s0.6,0.3,0.7,0.5s0.3,0.4,0.3,0.7c0,0.2,0.1,0.5,0.1,1v1.4c0,1,0,1.6,0.1,1.9s0.1,0.5,0.3,0.7h-1.1
		C465.1,121.8,465,121.5,465,121.2z M464.9,118.9c-0.4,0.2-1,0.3-1.7,0.4c-0.4,0.1-0.7,0.1-0.9,0.2s-0.3,0.2-0.4,0.3
		s-0.1,0.3-0.1,0.5c0,0.3,0.1,0.5,0.3,0.7s0.5,0.3,0.9,0.3s0.8-0.1,1.1-0.3s0.5-0.4,0.7-0.7c0.1-0.2,0.2-0.6,0.2-1.1v-0.3H464.9z"/>
	<path d="M467.9,122v-5.4H467v-0.8h0.9v-0.7c0-0.4,0-0.7,0.1-0.9c0.1-0.3,0.3-0.5,0.5-0.7s0.6-0.3,1.1-0.3c0.3,0,0.6,0,1,0.1
		l-0.2,0.9c-0.2,0-0.4-0.1-0.6-0.1c-0.3,0-0.5,0.1-0.7,0.2s-0.2,0.4-0.2,0.8v0.6h1.2v0.8h-1.2v5.4L467.9,122L467.9,122z"/>
	<path d="M474.4,122v-8.6h1.2l4.5,6.7v-6.7h1.1v8.6H480l-4.5-6.8v6.8H474.4z"/>
	<path d="M482.5,118.9c0-1.2,0.3-2,1-2.6c0.5-0.5,1.2-0.7,2-0.7c0.9,0,1.6,0.3,2.1,0.8s0.8,1.3,0.8,2.3c0,0.8-0.1,1.4-0.4,1.9
		s-0.6,0.8-1,1.1s-1,0.4-1.5,0.4c-0.9,0-1.6-0.3-2.1-0.8S482.5,119.9,482.5,118.9z M483.6,118.9c0,0.8,0.2,1.4,0.5,1.8
		s0.8,0.6,1.3,0.6s1-0.2,1.3-0.6s0.5-1,0.5-1.8s-0.2-1.4-0.5-1.7s-0.8-0.6-1.3-0.6s-1,0.2-1.3,0.6S483.6,118.1,483.6,118.9z"/>
	<path d="M493.6,122v-0.8c-0.4,0.6-1,0.9-1.7,0.9c-0.5,0-1-0.1-1.4-0.4s-0.7-0.7-1-1.1s-0.3-1.1-0.3-1.7s0.1-1.2,0.3-1.7
		s0.5-0.9,0.9-1.2s0.9-0.4,1.4-0.4c0.4,0,0.7,0.1,1,0.2s0.5,0.4,0.7,0.6v-3.1h1v8.6L493.6,122L493.6,122z M490.3,118.9
		c0,0.8,0.2,1.4,0.5,1.8s0.7,0.6,1.2,0.6s0.9-0.2,1.2-0.6s0.5-1,0.5-1.7c0-0.9-0.2-1.5-0.5-1.9s-0.7-0.6-1.2-0.6s-0.9,0.2-1.2,0.6
		S490.3,118.1,490.3,118.9z"/>
	<path d="M500.5,120l1.1,0.1c-0.2,0.6-0.5,1.1-1,1.5s-1.1,0.5-1.8,0.5c-0.9,0-1.6-0.3-2.2-0.8s-0.8-1.3-0.8-2.4c0-1,0.3-1.9,0.8-2.4
		s1.2-0.9,2.1-0.9c0.8,0,1.5,0.3,2,0.8s0.8,1.4,0.8,2.4c0,0.1,0,0.2,0,0.3H497c0,0.7,0.2,1.2,0.6,1.6s0.8,0.5,1.3,0.5
		c0.4,0,0.7-0.1,1-0.3S500.4,120.4,500.5,120z M497.1,118.3h3.5c0-0.5-0.2-0.9-0.4-1.2c-0.3-0.4-0.8-0.6-1.3-0.6s-0.9,0.2-1.2,0.5
		S497.1,117.7,497.1,118.3z"/>
</g>
<line class="st0" x1="461.3" y1="42.8" x2="431.1" y2="42.8"/>
<line class="st0" x1="347.7" y1="42.8" x2="317.5" y2="42.8"/>
<g class="st2">
	<path d="M325.4,38.7V35l-3.3-5h1.4l1.7,2.6c0.3,0.5,0.6,1,0.9,1.5c0.3-0.4,0.6-1,0.9-1.5l1.7-2.5h1.3l-3.4,5v3.6
		C326.6,38.7,325.4,38.7,325.4,38.7z"/>
	<path d="M334,36.7l1.1,0.1c-0.2,0.6-0.5,1.1-1,1.5s-1.1,0.5-1.8,0.5c-0.9,0-1.6-0.3-2.2-0.8s-0.8-1.3-0.8-2.4c0-1,0.3-1.9,0.8-2.4
		s1.2-0.9,2.1-0.9c0.8,0,1.5,0.3,2,0.8s0.8,1.4,0.8,2.4c0,0.1,0,0.2,0,0.3h-4.6c0,0.7,0.2,1.2,0.6,1.6s0.8,0.5,1.3,0.5
		c0.4,0,0.7-0.1,1-0.3S333.8,37.1,334,36.7z M330.5,35h3.5c0-0.5-0.2-0.9-0.4-1.2c-0.3-0.4-0.8-0.6-1.3-0.6s-0.9,0.2-1.2,0.5
		S330.6,34.4,330.5,35z"/>
	<path d="M336,36.8l1-0.2c0.1,0.4,0.2,0.7,0.5,1s0.6,0.3,1.1,0.3s0.8-0.1,1.1-0.3s0.4-0.4,0.4-0.7c0-0.2-0.1-0.4-0.3-0.6
		c-0.1-0.1-0.5-0.2-1.1-0.4c-0.8-0.2-1.3-0.4-1.6-0.5s-0.5-0.3-0.7-0.6s-0.2-0.5-0.2-0.8s0.1-0.5,0.2-0.8s0.3-0.4,0.5-0.6
		c0.2-0.1,0.4-0.2,0.7-0.3s0.6-0.1,0.9-0.1c0.5,0,0.9,0.1,1.3,0.2s0.6,0.3,0.8,0.6s0.3,0.6,0.4,1l-1,0.1c0-0.3-0.2-0.6-0.4-0.8
		s-0.5-0.3-1-0.3s-0.8,0.1-1,0.2s-0.3,0.3-0.3,0.6c0,0.1,0,0.3,0.1,0.4c0.1,0.1,0.2,0.2,0.4,0.3c0.1,0,0.4,0.1,0.9,0.3
		c0.7,0.2,1.3,0.4,1.6,0.5s0.5,0.3,0.7,0.6s0.3,0.5,0.3,0.9s-0.1,0.7-0.3,1s-0.5,0.6-0.9,0.7s-0.8,0.3-1.3,0.3
		c-0.8,0-1.4-0.2-1.8-0.5S336.1,37.5,336,36.8z"/>
</g>
<g class="st2">
	<path d="M341,81.7v-8.6h1.2l4.5,6.7v-6.7h1.1v8.6h-1.2l-4.5-6.8v6.8H341z"/>
	<path d="M349.2,78.6c0-1.2,0.3-2,1-2.6c0.5-0.5,1.2-0.7,2-0.7c0.9,0,1.6,0.3,2.1,0.8s0.8,1.3,0.8,2.3c0,0.8-0.1,1.4-0.4,1.9
		s-0.6,0.8-1,1.1s-1,0.4-1.5,0.4c-0.9,0-1.6-0.3-2.1-0.8S349.2,79.6,349.2,78.6z M350.2,78.6c0,0.8,0.2,1.4,0.5,1.8s0.8,0.6,1.3,0.6
		s1-0.2,1.3-0.6s0.5-1,0.5-1.8s-0.2-1.4-0.5-1.7s-0.8-0.6-1.3-0.6s-1,0.2-1.3,0.6S350.2,77.8,350.2,78.6z"/>
</g>
<g>
	<g>
		<path class="st0" d="M389.4,58c0,11-25.2,29.3-44.7,27c-23.2-2.7-56.7-5.9-65.3,8.1"/>
		<g>
			<path d="M277.7,105c-1-6-3.3-13.6-6.2-18.5l8.7,5.1l10-1.7C285.6,93.5,280.8,99.8,277.7,105z"/>
		</g>
	</g>
</g>
<g>
	<g>
		<path class="st0" d="M208.7,41.3C197.3,41.7,193.7,59,195,73c1.3,13.7,26.3,33.5,42.8,41.7"/>
		<g>
			<path d="M249.3,118.3c-6.1,0.2-13.9,1.4-19.2,3.6l6.3-7.9l-0.2-10.1C239.1,108.9,244.6,114.5,249.3,118.3z"/>
		</g>
	</g>
</g>
<g class="st2">
	<path d="M224.2,182.2l1.1-0.1c0.1,0.4,0.2,0.8,0.4,1.1s0.5,0.5,0.9,0.7s0.8,0.3,1.3,0.3c0.4,0,0.8-0.1,1.1-0.2s0.6-0.3,0.7-0.5
		s0.2-0.5,0.2-0.7c0-0.3-0.1-0.5-0.2-0.7s-0.4-0.4-0.8-0.5c-0.2-0.1-0.7-0.2-1.5-0.4s-1.3-0.4-1.7-0.5c-0.4-0.2-0.7-0.5-0.9-0.8
		s-0.3-0.7-0.3-1.1c0-0.4,0.1-0.8,0.4-1.2s0.6-0.7,1.1-0.9s1-0.3,1.6-0.3s1.2,0.1,1.7,0.3s0.9,0.5,1.1,0.9s0.4,0.8,0.4,1.4l-1.1,0.1
		c-0.1-0.5-0.3-1-0.6-1.2s-0.8-0.4-1.5-0.4s-1.2,0.1-1.5,0.4s-0.5,0.6-0.5,0.9c0,0.3,0.1,0.6,0.3,0.8s0.8,0.4,1.7,0.6
		s1.6,0.4,1.9,0.5c0.5,0.2,0.9,0.5,1.1,0.9s0.4,0.8,0.4,1.2c0,0.5-0.1,0.9-0.4,1.3s-0.6,0.7-1.1,0.9s-1,0.3-1.7,0.3
		c-0.8,0-1.4-0.1-2-0.3s-0.9-0.6-1.2-1S224.2,182.8,224.2,182.2z"/>
	<path d="M236.5,182.7l1,0.1c-0.1,0.7-0.4,1.3-0.9,1.7s-1,0.6-1.7,0.6c-0.9,0-1.5-0.3-2.1-0.8s-0.8-1.4-0.8-2.4
		c0-0.7,0.1-1.3,0.3-1.8s0.6-0.9,1-1.1s1-0.4,1.5-0.4c0.7,0,1.2,0.2,1.7,0.5s0.7,0.8,0.8,1.5l-1,0.2c-0.1-0.4-0.3-0.7-0.5-0.9
		s-0.5-0.3-0.9-0.3c-0.5,0-1,0.2-1.3,0.6s-0.5,1-0.5,1.8s0.2,1.4,0.5,1.8s0.7,0.6,1.3,0.6c0.4,0,0.8-0.1,1-0.4
		S236.4,183.2,236.5,182.7z"/>
	<path d="M242.7,183l1.1,0.1c-0.2,0.6-0.5,1.1-1,1.5s-1.1,0.5-1.8,0.5c-0.9,0-1.6-0.3-2.2-0.8s-0.8-1.3-0.8-2.4c0-1,0.3-1.9,0.8-2.4
		s1.2-0.9,2.1-0.9c0.8,0,1.5,0.3,2,0.8s0.8,1.4,0.8,2.4c0,0.1,0,0.2,0,0.3h-4.6c0,0.7,0.2,1.2,0.6,1.6s0.8,0.5,1.3,0.5
		c0.4,0,0.7-0.1,1-0.3S242.6,183.4,242.7,183z M239.3,181.3h3.5c0-0.5-0.2-0.9-0.4-1.2c-0.3-0.4-0.8-0.6-1.3-0.6s-0.9,0.2-1.2,0.5
		S239.3,180.7,239.3,181.3z"/>
	<path d="M245.1,185v-6.2h0.9v0.9c0.5-0.7,1.1-1,2-1c0.4,0,0.7,0.1,1,0.2s0.5,0.3,0.7,0.5s0.3,0.5,0.3,0.8c0,0.2,0.1,0.5,0.1,1v3.8
		H249v-3.8c0-0.4,0-0.8-0.1-1s-0.2-0.4-0.4-0.5s-0.5-0.2-0.7-0.2c-0.4,0-0.8,0.1-1.2,0.4s-0.5,0.8-0.5,1.6v3.4h-1V185z"/>
	<path d="M256.1,183l1.1,0.1c-0.2,0.6-0.5,1.1-1,1.5s-1.1,0.5-1.8,0.5c-0.9,0-1.6-0.3-2.2-0.8s-0.8-1.3-0.8-2.4c0-1,0.3-1.9,0.8-2.4
		s1.2-0.9,2.1-0.9c0.8,0,1.5,0.3,2,0.8s0.8,1.4,0.8,2.4c0,0.1,0,0.2,0,0.3h-4.6c0,0.7,0.2,1.2,0.6,1.6s0.8,0.5,1.3,0.5
		c0.4,0,0.7-0.1,1-0.3S255.9,183.4,256.1,183z M252.6,181.3h3.5c0-0.5-0.2-0.9-0.4-1.2c-0.3-0.4-0.8-0.6-1.3-0.6s-0.9,0.2-1.2,0.5
		S252.6,180.7,252.6,181.3z"/>
	<path d="M263.9,185v-7.6h-2.8v-1h6.8v1h-2.8v7.6H263.9z"/>
	<path d="M268.5,185v-6.2h0.9v0.9c0.2-0.4,0.5-0.7,0.7-0.9s0.4-0.2,0.7-0.2c0.4,0,0.7,0.1,1.1,0.3l-0.4,1c-0.3-0.2-0.5-0.2-0.8-0.2
		c-0.2,0-0.4,0.1-0.6,0.2s-0.3,0.3-0.4,0.6c-0.1,0.4-0.2,0.8-0.2,1.2v3.3L268.5,185L268.5,185z"/>
	<path d="M276.5,184.2c-0.4,0.3-0.8,0.6-1.1,0.7s-0.7,0.2-1.2,0.2c-0.7,0-1.2-0.2-1.6-0.5s-0.6-0.8-0.6-1.3c0-0.3,0.1-0.6,0.2-0.8
		s0.3-0.5,0.5-0.6s0.5-0.3,0.8-0.3c0.2-0.1,0.5-0.1,0.9-0.2c0.9-0.1,1.5-0.2,1.9-0.4c0-0.1,0-0.2,0-0.3c0-0.4-0.1-0.7-0.3-0.9
		c-0.3-0.2-0.7-0.4-1.2-0.4s-0.9,0.1-1.1,0.3s-0.4,0.5-0.5,0.9l-1-0.1c0.1-0.4,0.2-0.8,0.5-1.1s0.5-0.5,0.9-0.6s0.9-0.2,1.4-0.2
		s1,0.1,1.3,0.2s0.6,0.3,0.7,0.5s0.3,0.4,0.3,0.7c0,0.2,0.1,0.5,0.1,1v1.4c0,1,0,1.6,0.1,1.9s0.1,0.5,0.3,0.7h-1.1
		C276.6,184.8,276.6,184.5,276.5,184.2z M276.5,181.9c-0.4,0.2-1,0.3-1.7,0.4c-0.4,0.1-0.7,0.1-0.9,0.2s-0.3,0.2-0.4,0.3
		s-0.1,0.3-0.1,0.5c0,0.3,0.1,0.5,0.3,0.7s0.5,0.3,0.9,0.3s0.8-0.1,1.1-0.3s0.5-0.4,0.7-0.7c0.1-0.2,0.2-0.6,0.2-1.1v-0.3
		L276.5,181.9L276.5,181.9z"/>
	<path d="M280.9,185l-2.4-6.2h1.1l1.3,3.7c0.1,0.4,0.3,0.8,0.4,1.3c0.1-0.3,0.2-0.7,0.4-1.2l1.4-3.8h1.1l-2.4,6.2H280.9z"/>
	<path d="M289.4,183l1.1,0.1c-0.2,0.6-0.5,1.1-1,1.5s-1.1,0.5-1.8,0.5c-0.9,0-1.6-0.3-2.2-0.8s-0.8-1.3-0.8-2.4c0-1,0.3-1.9,0.8-2.4
		s1.2-0.9,2.1-0.9c0.8,0,1.5,0.3,2,0.8s0.8,1.4,0.8,2.4c0,0.1,0,0.2,0,0.3h-4.6c0,0.7,0.2,1.2,0.6,1.6s0.8,0.5,1.3,0.5
		c0.4,0,0.7-0.1,1-0.3S289.3,183.4,289.4,183z M286,181.3h3.5c0-0.5-0.2-0.9-0.4-1.2c-0.3-0.4-0.8-0.6-1.3-0.6s-0.9,0.2-1.2,0.5
		S286,180.7,286,181.3z"/>
	<path d="M291.8,185v-6.2h0.9v0.9c0.2-0.4,0.5-0.7,0.7-0.9s0.4-0.2,0.7-0.2c0.4,0,0.7,0.1,1.1,0.3l-0.4,1c-0.3-0.2-0.5-0.2-0.8-0.2
		c-0.2,0-0.4,0.1-0.6,0.2s-0.3,0.3-0.4,0.6c-0.1,0.4-0.2,0.8-0.2,1.2v3.3L291.8,185L291.8,185z"/>
	<path d="M295.4,183.1l1-0.2c0.1,0.4,0.2,0.7,0.5,1s0.6,0.3,1.1,0.3s0.8-0.1,1.1-0.3s0.4-0.4,0.4-0.7c0-0.2-0.1-0.4-0.3-0.6
		c-0.1-0.1-0.5-0.2-1.1-0.4c-0.8-0.2-1.3-0.4-1.6-0.5s-0.5-0.3-0.7-0.6s-0.2-0.5-0.2-0.8s0.1-0.5,0.2-0.8s0.3-0.4,0.5-0.6
		c0.2-0.1,0.4-0.2,0.7-0.3s0.6-0.1,0.9-0.1c0.5,0,0.9,0.1,1.3,0.2s0.6,0.3,0.8,0.6s0.3,0.6,0.4,1l-1,0.1c0-0.3-0.2-0.6-0.4-0.8
		s-0.5-0.3-1-0.3s-0.8,0.1-1,0.2s-0.3,0.3-0.3,0.6c0,0.1,0,0.3,0.1,0.4c0.1,0.1,0.2,0.2,0.4,0.3c0.1,0,0.4,0.1,0.9,0.3
		c0.7,0.2,1.3,0.4,1.6,0.5s0.5,0.3,0.7,0.6s0.3,0.5,0.3,0.9s-0.1,0.7-0.3,1s-0.5,0.6-0.9,0.7s-0.8,0.3-1.3,0.3
		c-0.8,0-1.4-0.2-1.8-0.5S295.5,183.8,295.4,183.1z"/>
	<path d="M305.9,184.2c-0.4,0.3-0.8,0.6-1.1,0.7s-0.7,0.2-1.2,0.2c-0.7,0-1.2-0.2-1.6-0.5s-0.6-0.8-0.6-1.3c0-0.3,0.1-0.6,0.2-0.8
		s0.3-0.5,0.5-0.6s0.5-0.3,0.8-0.3c0.2-0.1,0.5-0.1,0.9-0.2c0.9-0.1,1.5-0.2,1.9-0.4c0-0.1,0-0.2,0-0.3c0-0.4-0.1-0.7-0.3-0.9
		c-0.3-0.2-0.7-0.4-1.2-0.4s-0.9,0.1-1.1,0.3s-0.4,0.5-0.5,0.9l-1-0.1c0.1-0.4,0.2-0.8,0.5-1.1s0.5-0.5,0.9-0.6s0.9-0.2,1.4-0.2
		s1,0.1,1.3,0.2s0.6,0.3,0.7,0.5s0.3,0.4,0.3,0.7c0,0.2,0.1,0.5,0.1,1v1.4c0,1,0,1.6,0.1,1.9s0.1,0.5,0.3,0.7h-1.1
		C306,184.8,305.9,184.5,305.9,184.2z M305.8,181.9c-0.4,0.2-1,0.3-1.7,0.4c-0.4,0.1-0.7,0.1-0.9,0.2s-0.3,0.2-0.4,0.3
		s-0.1,0.3-0.1,0.5c0,0.3,0.1,0.5,0.3,0.7s0.5,0.3,0.9,0.3s0.8-0.1,1.1-0.3s0.5-0.4,0.7-0.7c0.1-0.2,0.2-0.6,0.2-1.1v-0.3
		L305.8,181.9L305.8,181.9z"/>
	<path d="M308.5,185v-8.6h1.1v8.6H308.5z"/>
</g>
<g class="st2">
	<path d="M230.7,196.4l1.1,0.3c-0.2,0.9-0.7,1.6-1.3,2.1s-1.4,0.7-2.3,0.7c-0.9,0-1.7-0.2-2.3-0.6s-1-0.9-1.3-1.6s-0.5-1.5-0.5-2.3
		c0-0.9,0.2-1.7,0.5-2.3s0.8-1.2,1.5-1.5s1.3-0.5,2.1-0.5c0.9,0,1.6,0.2,2.2,0.7s1,1.1,1.2,1.8l-1.1,0.3c-0.2-0.6-0.5-1.1-0.9-1.4
		s-0.9-0.4-1.4-0.4c-0.7,0-1.2,0.2-1.7,0.5s-0.8,0.7-0.9,1.3s-0.3,1.1-0.3,1.6c0,0.7,0.1,1.4,0.3,1.9s0.5,1,1,1.2s0.9,0.4,1.5,0.4
		s1.2-0.2,1.6-0.6S230.6,197.1,230.7,196.4z"/>
	<path d="M232.7,196.3c0-1.2,0.3-2,1-2.6c0.5-0.5,1.2-0.7,2-0.7c0.9,0,1.6,0.3,2.1,0.8s0.8,1.3,0.8,2.3c0,0.8-0.1,1.4-0.4,1.9
		s-0.6,0.8-1,1.1s-1,0.4-1.5,0.4c-0.9,0-1.6-0.3-2.1-0.8S232.7,197.3,232.7,196.3z M233.8,196.3c0,0.8,0.2,1.4,0.5,1.8
		s0.8,0.6,1.3,0.6s1-0.2,1.3-0.6s0.5-1,0.5-1.8s-0.2-1.4-0.5-1.7s-0.8-0.6-1.3-0.6s-1,0.2-1.3,0.6S233.8,195.5,233.8,196.3z"/>
	<path d="M239.8,199.4v-6.2h0.9v0.9c0.2-0.3,0.5-0.5,0.8-0.7s0.7-0.3,1.1-0.3c0.5,0,0.8,0.1,1.1,0.3s0.5,0.5,0.6,0.8
		c0.5-0.7,1.1-1.1,1.9-1.1c0.6,0,1.1,0.2,1.4,0.5s0.5,0.9,0.5,1.6v4.3h-1v-3.9c0-0.4,0-0.7-0.1-0.9s-0.2-0.3-0.4-0.4
		s-0.4-0.2-0.6-0.2c-0.4,0-0.8,0.1-1.1,0.4s-0.4,0.8-0.4,1.4v3.6h-1.1v-4c0-0.5-0.1-0.8-0.3-1.1s-0.5-0.4-0.8-0.4s-0.6,0.1-0.8,0.2
		s-0.4,0.4-0.5,0.7s-0.2,0.7-0.2,1.3v3.2L239.8,199.4L239.8,199.4z"/>
	<path d="M249.8,201.8v-8.6h1v0.8c0.2-0.3,0.5-0.6,0.8-0.7s0.6-0.2,1-0.2c0.5,0,1,0.1,1.4,0.4s0.7,0.7,0.9,1.2s0.3,1,0.3,1.6
		s-0.1,1.2-0.3,1.7s-0.6,0.9-1,1.2s-0.9,0.4-1.4,0.4c-0.4,0-0.7-0.1-0.9-0.2s-0.5-0.3-0.7-0.6v3L249.8,201.8L249.8,201.8z
		 M250.7,196.3c0,0.8,0.2,1.4,0.5,1.8s0.7,0.6,1.2,0.6s0.9-0.2,1.2-0.6s0.5-1,0.5-1.8s-0.2-1.4-0.5-1.8s-0.7-0.6-1.2-0.6
		c-0.4,0-0.8,0.2-1.2,0.6S250.7,195.5,250.7,196.3z"/>
	<path d="M256.4,199.4v-8.6h1.1v8.6H256.4z"/>
	<path d="M263.4,197.4l1.1,0.1c-0.2,0.6-0.5,1.1-1,1.5s-1.1,0.5-1.8,0.5c-0.9,0-1.6-0.3-2.2-0.8s-0.8-1.3-0.8-2.4
		c0-1,0.3-1.9,0.8-2.4s1.2-0.9,2.1-0.9c0.8,0,1.5,0.3,2,0.8s0.8,1.4,0.8,2.4c0,0.1,0,0.2,0,0.3h-4.6c0,0.7,0.2,1.2,0.6,1.6
		s0.8,0.5,1.3,0.5c0.4,0,0.7-0.1,1-0.3S263.2,197.8,263.4,197.4z M259.9,195.7h3.5c0-0.5-0.2-0.9-0.4-1.2c-0.3-0.4-0.8-0.6-1.3-0.6
		s-0.9,0.2-1.2,0.5S260,195.1,259.9,195.7z"/>
	<path d="M268.1,198.5l0.2,0.9c-0.3,0.1-0.6,0.1-0.8,0.1c-0.4,0-0.7-0.1-0.9-0.2s-0.4-0.3-0.4-0.5s-0.1-0.6-0.1-1.2V194h-0.8v-0.8
		h0.8v-1.5l1-0.6v2.2h1.1v0.8H267v3.6c0,0.3,0,0.5,0.1,0.6s0.1,0.2,0.2,0.2s0.2,0.1,0.4,0.1C267.8,198.5,267.9,198.5,268.1,198.5z"
		/>
	<path d="M273.4,197.4l1.1,0.1c-0.2,0.6-0.5,1.1-1,1.5s-1.1,0.5-1.8,0.5c-0.9,0-1.6-0.3-2.2-0.8s-0.8-1.3-0.8-2.4
		c0-1,0.3-1.9,0.8-2.4s1.2-0.9,2.1-0.9c0.8,0,1.5,0.3,2,0.8s0.8,1.4,0.8,2.4c0,0.1,0,0.2,0,0.3h-4.6c0,0.7,0.2,1.2,0.6,1.6
		s0.8,0.5,1.3,0.5c0.4,0,0.7-0.1,1-0.3S273.2,197.8,273.4,197.4z M269.9,195.7h3.5c0-0.5-0.2-0.9-0.4-1.2c-0.3-0.4-0.8-0.6-1.3-0.6
		s-0.9,0.2-1.2,0.5S270,195.1,269.9,195.7z"/>
</g>
<g>
	<g>
		<path class="st0" d="M336.3,253c11,14.3,64.4,14.1,88.6,13.3"/>
		<g>
			<path d="M437,265.7c-5.6,2.4-12.4,6.3-16.6,10.3l3-9.7l-3.9-9.3C424,260.6,431.2,263.8,437,265.7z"/>
		</g>
	</g>
</g>
<g>
	<g>
		<path class="st0" d="M334.7,224.8c4.6-11,21.5-38.9,49.3-40.5c14.8-0.8,30.3-0.9,40.6-0.9"/>
		<g>
			<path d="M436.7,183.7c-5.7,2-12.8,5.6-17.2,9.3l3.6-9.5l-3.3-9.6C424,177.8,431,181.5,436.7,183.7z"/>
		</g>
	</g>
</g>
<g class="st2">
	<path d="M400.2,179.3v-3.6l-3.3-5h1.4l1.7,2.6c0.3,0.5,0.6,1,0.9,1.5c0.3-0.4,0.6-1,0.9-1.5l1.7-2.5h1.3l-3.4,5v3.6h-1.2V179.3z"/>
	<path d="M408.8,177.3l1.1,0.1c-0.2,0.6-0.5,1.1-1,1.5s-1.1,0.5-1.8,0.5c-0.9,0-1.6-0.3-2.2-0.8s-0.8-1.3-0.8-2.4
		c0-1,0.3-1.9,0.8-2.4s1.2-0.9,2.1-0.9c0.8,0,1.5,0.3,2,0.8s0.8,1.4,0.8,2.4c0,0.1,0,0.2,0,0.3h-4.6c0,0.7,0.2,1.2,0.6,1.6
		s0.8,0.5,1.3,0.5c0.4,0,0.7-0.1,1-0.3S408.7,177.8,408.8,177.3z M405.4,175.6h3.5c0-0.5-0.2-0.9-0.4-1.2c-0.3-0.4-0.8-0.6-1.3-0.6
		s-0.9,0.2-1.2,0.5S405.4,175.1,405.4,175.6z"/>
	<path d="M410.8,177.5l1-0.2c0.1,0.4,0.2,0.7,0.5,1s0.6,0.3,1.1,0.3s0.8-0.1,1.1-0.3s0.4-0.4,0.4-0.7c0-0.2-0.1-0.4-0.3-0.6
		c-0.1-0.1-0.5-0.2-1.1-0.4c-0.8-0.2-1.3-0.4-1.6-0.5s-0.5-0.3-0.7-0.6s-0.2-0.5-0.2-0.8s0.1-0.5,0.2-0.8s0.3-0.4,0.5-0.6
		c0.2-0.1,0.4-0.2,0.7-0.3s0.6-0.1,0.9-0.1c0.5,0,0.9,0.1,1.3,0.2s0.6,0.3,0.8,0.6s0.3,0.6,0.4,1l-1,0.1c0-0.3-0.2-0.6-0.4-0.8
		s-0.5-0.3-1-0.3s-0.8,0.1-1,0.2s-0.3,0.3-0.3,0.6c0,0.1,0,0.3,0.1,0.4c0.1,0.1,0.2,0.2,0.4,0.3c0.1,0,0.4,0.1,0.9,0.3
		c0.7,0.2,1.3,0.4,1.6,0.5s0.5,0.3,0.7,0.6s0.3,0.5,0.3,0.9s-0.1,0.7-0.3,1s-0.5,0.6-0.9,0.7s-0.8,0.3-1.3,0.3
		c-0.8,0-1.4-0.2-1.8-0.5S410.9,178.1,410.8,177.5z"/>
</g>
<g class="st2">
	<path d="M399.2,262.3v-8.6h1.2l4.5,6.7v-6.7h1.1v8.6h-1.2l-4.5-6.8v6.8H399.2z"/>
	<path d="M407.3,259.2c0-1.2,0.3-2,1-2.6c0.5-0.5,1.2-0.7,2-0.7c0.9,0,1.6,0.3,2.1,0.8s0.8,1.3,0.8,2.3c0,0.8-0.1,1.4-0.4,1.9
		s-0.6,0.8-1,1.1s-1,0.4-1.5,0.4c-0.9,0-1.6-0.3-2.1-0.8S407.3,260.3,407.3,259.2z M408.4,259.2c0,0.8,0.2,1.4,0.5,1.8
		s0.8,0.6,1.3,0.6s1-0.2,1.3-0.6s0.5-1,0.5-1.8s-0.2-1.4-0.5-1.7s-0.8-0.6-1.3-0.6s-1,0.2-1.3,0.6S408.4,258.4,408.4,259.2z"/>
</g>
<g>
	<polygon class="st3" points="436,42.8 389.4,61.4 342.7,42.8 389.4,24.1 	"/>
	<g class="st2">
		<path d="M366.3,46.3v-8.6h1.1v8.6C367.4,46.3,366.3,46.3,366.3,46.3z"/>
		<path d="M369.3,46.3v-6.2h0.9V41c0.5-0.7,1.1-1,2-1c0.4,0,0.7,0.1,1,0.2s0.5,0.3,0.7,0.5s0.3,0.5,0.3,0.8c0,0.2,0.1,0.5,0.1,1v3.8
			h-1.1v-3.8c0-0.4,0-0.8-0.1-1s-0.2-0.4-0.4-0.5s-0.5-0.2-0.7-0.2c-0.4,0-0.8,0.1-1.2,0.4s-0.5,0.8-0.5,1.6v3.4L369.3,46.3
			L369.3,46.3z"/>
		<path d="M378.3,45.4l0.2,0.9c-0.3,0.1-0.6,0.1-0.8,0.1c-0.4,0-0.7-0.1-0.9-0.2s-0.4-0.3-0.4-0.5s-0.1-0.6-0.1-1.2v-3.6h-0.8v-0.8
			h0.8v-1.5l1-0.6v2.2h1.1V41h-1.1v3.6c0,0.3,0,0.5,0.1,0.6s0.1,0.2,0.2,0.2s0.2,0.1,0.4,0.1C377.9,45.4,378.1,45.4,378.3,45.4z"/>
		<path d="M383.5,44.3l1.1,0.1c-0.2,0.6-0.5,1.1-1,1.5s-1.1,0.5-1.8,0.5c-0.9,0-1.6-0.3-2.2-0.8s-0.8-1.3-0.8-2.4
			c0-1,0.3-1.9,0.8-2.4s1.2-0.9,2.1-0.9c0.8,0,1.5,0.3,2,0.8s0.8,1.4,0.8,2.4c0,0.1,0,0.2,0,0.3H380c0,0.7,0.2,1.2,0.6,1.6
			s0.8,0.5,1.3,0.5c0.4,0,0.7-0.1,1-0.3S383.4,44.7,383.5,44.3z M380.1,42.6h3.5c0-0.5-0.2-0.9-0.4-1.2c-0.3-0.4-0.8-0.6-1.3-0.6
			s-0.9,0.2-1.2,0.5S380.1,42,380.1,42.6z"/>
		<path d="M385.9,46.3v-6.2h0.9V41c0.2-0.4,0.5-0.7,0.7-0.9s0.4-0.2,0.7-0.2c0.4,0,0.7,0.1,1.1,0.3l-0.4,1c-0.3-0.2-0.5-0.2-0.8-0.2
			c-0.2,0-0.4,0.1-0.6,0.2s-0.3,0.3-0.4,0.6c-0.1,0.4-0.2,0.8-0.2,1.2v3.3C386.9,46.3,385.9,46.3,385.9,46.3z"/>
		<path d="M389.5,44.4l1-0.2c0.1,0.4,0.2,0.7,0.5,1s0.6,0.3,1.1,0.3s0.8-0.1,1.1-0.3s0.4-0.4,0.4-0.7c0-0.2-0.1-0.4-0.3-0.6
			c-0.1-0.1-0.5-0.2-1.1-0.4c-0.8-0.2-1.3-0.4-1.6-0.5s-0.5-0.3-0.7-0.6s-0.2-0.5-0.2-0.8s0.1-0.5,0.2-0.8s0.3-0.4,0.5-0.6
			c0.2-0.1,0.4-0.2,0.7-0.3s0.6-0.1,0.9-0.1c0.5,0,0.9,0.1,1.3,0.2s0.6,0.3,0.8,0.6s0.3,0.6,0.4,1l-1,0.1c0-0.3-0.2-0.6-0.4-0.8
			s-0.5-0.3-1-0.3s-0.8,0.1-1,0.2s-0.3,0.3-0.3,0.6c0,0.1,0,0.3,0.1,0.4c0.1,0.1,0.2,0.2,0.4,0.3c0.1,0,0.4,0.1,0.9,0.3
			c0.7,0.2,1.3,0.4,1.6,0.5s0.5,0.3,0.7,0.6s0.3,0.5,0.3,0.9s-0.1,0.7-0.3,1s-0.5,0.6-0.9,0.7s-0.8,0.3-1.3,0.3
			c-0.8,0-1.4-0.2-1.8-0.5S389.6,45.1,389.5,44.4z"/>
		<path d="M400.2,44.3l1.1,0.1c-0.2,0.6-0.5,1.1-1,1.5s-1.1,0.5-1.8,0.5c-0.9,0-1.6-0.3-2.2-0.8s-0.8-1.3-0.8-2.4
			c0-1,0.3-1.9,0.8-2.4s1.2-0.9,2.1-0.9c0.8,0,1.5,0.3,2,0.8s0.8,1.4,0.8,2.4c0,0.1,0,0.2,0,0.3h-4.6c0,0.7,0.2,1.2,0.6,1.6
			s0.8,0.5,1.3,0.5c0.4,0,0.7-0.1,1-0.3S400.1,44.7,400.2,44.3z M396.8,42.6h3.5c0-0.5-0.2-0.9-0.4-1.2c-0.3-0.4-0.8-0.6-1.3-0.6
			s-0.9,0.2-1.2,0.5S396.8,42,396.8,42.6z"/>
		<path d="M406.7,44l1,0.1c-0.1,0.7-0.4,1.3-0.9,1.7s-1,0.6-1.7,0.6c-0.9,0-1.5-0.3-2.1-0.8s-0.8-1.4-0.8-2.4c0-0.7,0.1-1.3,0.3-1.8
			s0.6-0.9,1-1.1s1-0.4,1.5-0.4c0.7,0,1.2,0.2,1.7,0.5s0.7,0.8,0.8,1.5l-1,0.2c-0.1-0.4-0.3-0.7-0.5-0.9s-0.5-0.3-0.9-0.3
			c-0.5,0-1,0.2-1.3,0.6s-0.5,1-0.5,1.8s0.2,1.4,0.5,1.8s0.7,0.6,1.3,0.6c0.4,0,0.8-0.1,1-0.4S406.6,44.5,406.7,44z"/>
		<path d="M410.9,45.4l0.2,0.9c-0.3,0.1-0.6,0.1-0.8,0.1c-0.4,0-0.7-0.1-0.9-0.2s-0.4-0.3-0.4-0.5s-0.1-0.6-0.1-1.2v-3.6H408v-0.8
			h0.8v-1.5l1-0.6v2.2h1.1V41h-1.1v3.6c0,0.3,0,0.5,0.1,0.6s0.1,0.2,0.2,0.2s0.2,0.1,0.4,0.1C410.6,45.4,410.7,45.4,410.9,45.4z"/>
		<path d="M413.9,44.2c0-0.1,0-0.2,0-0.3c0-0.4,0.1-0.8,0.2-1.1c0.1-0.2,0.2-0.5,0.4-0.7c0.1-0.2,0.4-0.4,0.8-0.7s0.6-0.6,0.7-0.8
			s0.2-0.4,0.2-0.6c0-0.4-0.2-0.8-0.5-1.1s-0.7-0.5-1.2-0.5c-0.4,0-0.8,0.1-1.1,0.4s-0.5,0.7-0.6,1.3l-1.1-0.1
			c0.1-0.8,0.4-1.4,0.9-1.8s1.1-0.6,1.9-0.6s1.5,0.2,2,0.7s0.8,1,0.8,1.7c0,0.4-0.1,0.7-0.3,1s-0.5,0.7-1,1.2
			c-0.3,0.3-0.6,0.5-0.7,0.7s-0.2,0.3-0.2,0.5s-0.1,0.5-0.1,0.9h-1.1L413.9,44.2L413.9,44.2z M413.9,46.3v-1.2h1.2v1.2H413.9z"/>
	</g>
</g>
<g class="st2">
	<path d="M18.1,121.1c-0.6-0.7-1.1-1.6-1.5-2.6s-0.6-2-0.6-3.1c0-0.9,0.2-1.8,0.5-2.7c0.4-1,0.9-2,1.6-3h0.8
		c-0.5,0.8-0.8,1.4-0.9,1.7c-0.2,0.5-0.4,1.1-0.6,1.7c-0.2,0.7-0.3,1.5-0.3,2.2c0,1.9,0.6,3.8,1.8,5.6H18.1z"/>
	<path d="M24.2,117.8c-0.4,0.3-0.8,0.6-1.1,0.7s-0.7,0.2-1.2,0.2c-0.7,0-1.2-0.2-1.6-0.5s-0.6-0.8-0.6-1.3c0-0.3,0.1-0.6,0.2-0.8
		s0.3-0.5,0.5-0.6s0.5-0.3,0.8-0.3c0.2-0.1,0.5-0.1,0.9-0.2c0.9-0.1,1.5-0.2,1.9-0.4c0-0.1,0-0.2,0-0.3c0-0.4-0.1-0.7-0.3-0.9
		c-0.3-0.2-0.7-0.4-1.2-0.4c-0.5,0-0.9,0.1-1.1,0.3s-0.4,0.5-0.5,0.9l-1-0.1c0.1-0.4,0.2-0.8,0.5-1.1s0.5-0.5,0.9-0.6
		s0.9-0.2,1.4-0.2c0.5,0,1,0.1,1.3,0.2s0.6,0.3,0.7,0.5s0.3,0.4,0.3,0.7c0,0.2,0.1,0.5,0.1,1v1.4c0,1,0,1.6,0.1,1.9s0.1,0.5,0.3,0.7
		h-1.1C24.3,118.3,24.2,118.1,24.2,117.8z M24.1,115.4c-0.4,0.2-1,0.3-1.7,0.4c-0.4,0.1-0.7,0.1-0.9,0.2s-0.3,0.2-0.4,0.3
		s-0.1,0.3-0.1,0.5c0,0.3,0.1,0.5,0.3,0.7s0.5,0.3,0.9,0.3c0.4,0,0.8-0.1,1.1-0.3s0.5-0.4,0.7-0.7c0.1-0.2,0.2-0.6,0.2-1.1V115.4z"
		/>
	<path d="M27.5,121.1h-0.8c1.2-1.9,1.8-3.8,1.8-5.6c0-0.7-0.1-1.5-0.3-2.2c-0.1-0.6-0.3-1.1-0.6-1.7c-0.2-0.4-0.5-0.9-0.9-1.8h0.8
		c0.7,1,1.3,2,1.6,3c0.3,0.9,0.5,1.7,0.5,2.7c0,1.1-0.2,2.1-0.6,3.1S28.1,120.3,27.5,121.1z"/>
</g>
<g class="st2">
	<path d="M469.7,30.1c-0.6-0.7-1.1-1.6-1.5-2.6s-0.6-2-0.6-3.1c0-0.9,0.2-1.8,0.5-2.7c0.4-1,0.9-2,1.6-3h0.8
		c-0.5,0.8-0.8,1.4-0.9,1.7c-0.2,0.5-0.4,1.1-0.6,1.7c-0.2,0.7-0.3,1.5-0.3,2.2c0,1.9,0.6,3.8,1.8,5.6H469.7z"/>
	<path d="M472.7,27.6h-1V19h1.1V22c0.4-0.6,1-0.8,1.7-0.8c0.4,0,0.7,0.1,1.1,0.2s0.6,0.4,0.8,0.7s0.4,0.6,0.5,1s0.2,0.8,0.2,1.3
		c0,1.1-0.3,1.9-0.8,2.5s-1.2,0.9-1.9,0.9c-0.7,0-1.3-0.3-1.7-0.9V27.6z M472.6,24.4c0,0.7,0.1,1.3,0.3,1.6c0.3,0.5,0.8,0.8,1.3,0.8
		c0.5,0,0.9-0.2,1.2-0.6s0.5-1,0.5-1.8c0-0.8-0.2-1.4-0.5-1.8s-0.7-0.6-1.2-0.6c-0.5,0-0.9,0.2-1.2,0.6S472.6,23.6,472.6,24.4z"/>
	<path d="M479,30.1h-0.8c1.2-1.9,1.8-3.8,1.8-5.6c0-0.7-0.1-1.5-0.3-2.2c-0.1-0.6-0.3-1.1-0.6-1.7c-0.2-0.4-0.5-0.9-0.9-1.8h0.8
		c0.7,1,1.3,2,1.6,3c0.3,0.9,0.5,1.7,0.5,2.7c0,1.1-0.2,2.1-0.6,3.1S479.6,29.3,479,30.1z"/>
</g>
<g class="st2">
	<path d="M217.3,30.1c-0.6-0.7-1.1-1.6-1.5-2.6s-0.6-2-0.6-3.1c0-0.9,0.2-1.8,0.5-2.7c0.4-1,0.9-2,1.6-3h0.8
		c-0.5,0.8-0.8,1.4-0.9,1.7c-0.2,0.5-0.4,1.1-0.6,1.7c-0.2,0.7-0.3,1.5-0.3,2.2c0,1.9,0.6,3.8,1.8,5.6H217.3z"/>
	<path d="M223.4,25.3l1,0.1c-0.1,0.7-0.4,1.3-0.9,1.7s-1,0.6-1.7,0.6c-0.9,0-1.5-0.3-2.1-0.8s-0.8-1.4-0.8-2.4
		c0-0.7,0.1-1.3,0.3-1.8s0.6-0.9,1-1.1s1-0.4,1.5-0.4c0.7,0,1.2,0.2,1.7,0.5s0.7,0.8,0.8,1.5l-1,0.2c-0.1-0.4-0.3-0.7-0.5-0.9
		s-0.5-0.3-0.9-0.3c-0.5,0-1,0.2-1.3,0.6s-0.5,1-0.5,1.8c0,0.8,0.2,1.4,0.5,1.8s0.7,0.6,1.3,0.6c0.4,0,0.8-0.1,1-0.4
		S223.3,25.8,223.4,25.3z"/>
	<path d="M226,30.1h-0.8c1.2-1.9,1.8-3.8,1.8-5.6c0-0.7-0.1-1.5-0.3-2.2c-0.1-0.6-0.3-1.1-0.6-1.7c-0.2-0.4-0.5-0.9-0.9-1.8h0.8
		c0.7,1,1.3,2,1.6,3c0.3,0.9,0.5,1.7,0.5,2.7c0,1.1-0.2,2.1-0.6,3.1S226.6,29.3,226,30.1z"/>
</g>
<g class="st2">
	<path d="M443.9,170.6c-0.6-0.7-1.1-1.6-1.5-2.6s-0.6-2-0.6-3.1c0-0.9,0.2-1.8,0.5-2.7c0.4-1,0.9-2,1.6-3h0.8
		c-0.5,0.8-0.8,1.4-0.9,1.7c-0.2,0.5-0.4,1.1-0.6,1.7c-0.2,0.7-0.3,1.5-0.3,2.2c0,1.9,0.6,3.8,1.8,5.6H443.9z"/>
	<path d="M449.9,168.1v-0.8c-0.4,0.6-1,0.9-1.7,0.9c-0.5,0-1-0.1-1.4-0.4s-0.7-0.7-1-1.1s-0.3-1.1-0.3-1.7c0-0.6,0.1-1.2,0.3-1.7
		s0.5-0.9,0.9-1.2s0.9-0.4,1.4-0.4c0.4,0,0.7,0.1,1,0.2s0.5,0.4,0.7,0.6v-3.1h1v8.6H449.9z M446.6,165c0,0.8,0.2,1.4,0.5,1.8
		s0.7,0.6,1.2,0.6c0.5,0,0.9-0.2,1.2-0.6s0.5-1,0.5-1.7c0-0.9-0.2-1.5-0.5-1.9s-0.7-0.6-1.2-0.6c-0.5,0-0.9,0.2-1.2,0.6
		S446.6,164.2,446.6,165z"/>
	<path d="M453.3,170.6h-0.8c1.2-1.9,1.8-3.8,1.8-5.6c0-0.7-0.1-1.5-0.3-2.2c-0.1-0.6-0.3-1.1-0.6-1.7c-0.2-0.4-0.5-0.9-0.9-1.8h0.8
		c0.7,1,1.3,2,1.6,3c0.3,0.9,0.5,1.7,0.5,2.7c0,1.1-0.2,2.1-0.6,3.1S453.8,169.9,453.3,170.6z"/>
</g>
<g class="st2">
	<path d="M443.9,248.5c-0.6-0.7-1.1-1.6-1.5-2.6s-0.6-2-0.6-3.1c0-0.9,0.2-1.8,0.5-2.7c0.4-1,0.9-2,1.6-3h0.8
		c-0.5,0.8-0.8,1.4-0.9,1.7c-0.2,0.5-0.4,1.1-0.6,1.7c-0.2,0.7-0.3,1.5-0.3,2.2c0,1.9,0.6,3.8,1.8,5.6H443.9z"/>
	<path d="M450.2,244l1.1,0.1c-0.2,0.6-0.5,1.1-1,1.5s-1.1,0.5-1.8,0.5c-0.9,0-1.6-0.3-2.2-0.8s-0.8-1.3-0.8-2.4c0-1,0.3-1.9,0.8-2.4
		s1.2-0.9,2.1-0.9c0.8,0,1.5,0.3,2,0.8s0.8,1.4,0.8,2.4c0,0.1,0,0.2,0,0.3h-4.6c0,0.7,0.2,1.2,0.6,1.6s0.8,0.5,1.3,0.5
		c0.4,0,0.7-0.1,1-0.3S450,244.4,450.2,244z M446.7,242.3h3.5c0-0.5-0.2-0.9-0.4-1.2c-0.3-0.4-0.8-0.6-1.3-0.6
		c-0.5,0-0.9,0.2-1.2,0.5S446.7,241.7,446.7,242.3z"/>
	<path d="M453.3,248.5h-0.8c1.2-1.9,1.8-3.8,1.8-5.6c0-0.7-0.1-1.5-0.3-2.2c-0.1-0.6-0.3-1.1-0.6-1.7c-0.2-0.4-0.5-0.9-0.9-1.8h0.8
		c0.7,1,1.3,2,1.6,3c0.3,0.9,0.5,1.7,0.5,2.7c0,1.1-0.2,2.1-0.6,3.1S453.8,247.8,453.3,248.5z"/>
</g>
</svg>
