<?xml version="1.0" encoding="utf-8"?>
<!-- Generator: Adobe Illustrator 24.1.3, SVG Export Plug-In . SVG Version: 6.00 Build 0)  -->
<svg version="1.1" id="Layer_1" xmlns="http://www.w3.org/2000/svg" xmlns:xlink="http://www.w3.org/1999/xlink" x="0px" y="0px"
	 viewBox="0 0 854.8 187.6" style="enable-background:new 0 0 854.8 187.6;" xml:space="preserve">
<style type="text/css">
	.st0{stroke:#F68B1F;stroke-width:2;stroke-miterlimit:10;}
	.st1{fill:none;stroke:#000000;stroke-width:2;stroke-miterlimit:10;}
	.st2{fill:#00AEEF;stroke:#231F20;stroke-width:2;stroke-miterlimit:10;}
	.st3{fill:none;stroke:#6D6E71;stroke-width:2;stroke-miterlimit:10;}
	.st4{fill:none;stroke:#6D6E71;stroke-width:2;stroke-miterlimit:10;stroke-dasharray:11.9,11.9;}
	.st5{fill:none;stroke:#6D6E71;stroke-width:2;stroke-miterlimit:10;stroke-dasharray:9.6,9.6;}
	.st6{fill:none;stroke:#231F20;stroke-width:3;stroke-miterlimit:10;}
	.st7{fill:#231F20;}
	.st8{fill:#FFFFFF;stroke:#6D6E71;stroke-width:2;stroke-miterlimit:10;}
	.st9{fill:none;stroke:#F68B1F;stroke-width:2;stroke-miterlimit:10;}
</style>
<line class="st0" x1="302.7" y1="25.2" x2="450.7" y2="25.2"/>
<line class="st0" x1="302.7" y1="47.1" x2="450.7" y2="47.1"/>
<g>
	<g>
		<line class="st1" x1="138.9" y1="36.1" x2="241.3" y2="36.1"/>
		<g>
			<path d="M241.3,43.7c4.2,0,7.5-3.4,7.5-7.5s-3.4-7.5-7.5-7.5c-4.2,0-7.5,3.4-7.5,7.5S237.1,43.7,241.3,43.7z"/>
		</g>
	</g>
</g>
<rect x="654.3" y="37.3" class="st2" width="180" height="60"/>
<g>
	<polyline class="st3" points="617.5,138.5 617.5,151.9 611.5,151.9 	"/>
	<line class="st4" x1="599.6" y1="151.9" x2="462.8" y2="151.9"/>
	<polyline class="st3" points="456.8,151.9 450.8,151.9 450.8,138.5 	"/>
	<line class="st5" x1="450.8" y1="117" x2="450.8" y2="41.7"/>
	<polyline class="st3" points="450.8,30.9 450.8,17.5 456.8,17.5 	"/>
	<line class="st4" x1="468.7" y1="17.5" x2="605.5" y2="17.5"/>
	<polyline class="st3" points="611.5,17.5 617.5,17.5 617.5,30.9 	"/>
	<line class="st5" x1="617.5" y1="52.4" x2="617.5" y2="127.7"/>
</g>
<g>
	<line class="st6" x1="613" y1="51.3" x2="654" y2="51.3"/>
	<path class="st7" d="M672.1,51.3c-8.5,3.2-19.1,8.6-25.6,14.3l5.1-14.3L646.4,37C653,42.7,663.5,48.1,672.1,51.3z"/>
</g>
<g>
	<path d="M464.1,90V75.7h1.9V90H464.1z"/>
	<path d="M469.1,90V79.7h1.6v1.5c0.8-1.1,1.9-1.7,3.3-1.7c0.6,0,1.2,0.1,1.7,0.3s0.9,0.5,1.2,0.9s0.4,0.8,0.5,1.3
		c0.1,0.3,0.1,0.9,0.1,1.7V90h-1.8v-6.3c0-0.7-0.1-1.3-0.2-1.6s-0.4-0.6-0.7-0.8s-0.8-0.3-1.2-0.3c-0.7,0-1.4,0.2-1.9,0.7
		s-0.8,1.4-0.8,2.7V90H469.1z"/>
	<path d="M480.3,94V79.7h1.6V81c0.4-0.5,0.8-0.9,1.3-1.2s1.1-0.4,1.7-0.4c0.9,0,1.7,0.2,2.3,0.7s1.2,1.1,1.5,1.9s0.5,1.7,0.5,2.7
		c0,1.1-0.2,2-0.6,2.9s-0.9,1.5-1.7,2s-1.5,0.7-2.3,0.7c-0.6,0-1.1-0.1-1.6-0.4s-0.8-0.6-1.1-0.9v5H480.3z M481.9,84.9
		c0,1.3,0.3,2.3,0.8,3s1.2,1,2,1c0.8,0,1.5-0.3,2-1s0.8-1.7,0.8-3.1c0-1.3-0.3-2.3-0.8-3s-1.2-1-1.9-1c-0.7,0-1.4,0.3-2,1
		S481.9,83.6,481.9,84.9z"/>
	<path d="M498.2,90v-1.5c-0.8,1.2-1.9,1.8-3.3,1.8c-0.6,0-1.2-0.1-1.7-0.4s-0.9-0.5-1.2-0.9s-0.4-0.8-0.5-1.3
		c-0.1-0.3-0.1-0.9-0.1-1.6v-6.4h1.8v5.8c0,0.9,0,1.5,0.1,1.9c0.1,0.5,0.3,0.8,0.7,1.1s0.8,0.4,1.3,0.4s1-0.1,1.5-0.4s0.8-0.6,1-1.1
		s0.3-1.1,0.3-2v-5.6h1.8V90H498.2z"/>
	<path d="M506.4,88.5l0.3,1.6c-0.5,0.1-0.9,0.2-1.3,0.2c-0.6,0-1.1-0.1-1.5-0.3s-0.6-0.5-0.7-0.8s-0.2-1-0.2-2.1v-6h-1.3v-1.4h1.3
		v-2.6l1.7-1.1v3.6h1.8V81h-1.8v6.1c0,0.5,0,0.8,0.1,1s0.2,0.3,0.3,0.3s0.3,0.1,0.6,0.1C505.8,88.5,506,88.5,506.4,88.5z"/>
	<path d="M511.2,90l5.5-14.3h2l5.9,14.3h-2.2l-1.7-4.3h-6l-1.6,4.3H511.2z M515.3,84.2h4.9l-1.5-4c-0.5-1.2-0.8-2.2-1-3
		c-0.2,0.9-0.4,1.8-0.8,2.7L515.3,84.2z"/>
	<path d="M525.2,86.9l1.7-0.3c0.1,0.7,0.4,1.2,0.8,1.6s1.1,0.6,1.9,0.6c0.8,0,1.4-0.2,1.8-0.5s0.6-0.7,0.6-1.2
		c0-0.4-0.2-0.7-0.5-0.9c-0.2-0.2-0.8-0.4-1.8-0.6c-1.3-0.3-2.2-0.6-2.7-0.8s-0.9-0.6-1.1-1s-0.4-0.9-0.4-1.4c0-0.5,0.1-0.9,0.3-1.3
		s0.5-0.7,0.9-1c0.3-0.2,0.6-0.4,1.1-0.5s1-0.2,1.5-0.2c0.8,0,1.5,0.1,2.1,0.4s1.1,0.6,1.4,1s0.5,0.9,0.6,1.6l-1.7,0.2
		c-0.1-0.5-0.3-1-0.7-1.3s-0.9-0.4-1.6-0.4c-0.8,0-1.4,0.1-1.7,0.4s-0.5,0.6-0.5,0.9c0,0.2,0.1,0.4,0.2,0.6c0.1,0.2,0.4,0.3,0.7,0.5
		c0.2,0.1,0.7,0.2,1.6,0.4c1.2,0.3,2.1,0.6,2.6,0.8s0.9,0.5,1.2,0.9s0.4,0.9,0.4,1.5c0,0.6-0.2,1.1-0.5,1.7s-0.8,0.9-1.5,1.2
		s-1.4,0.4-2.2,0.4c-1.3,0-2.4-0.3-3.1-0.8S525.4,88,525.2,86.9z"/>
	<path d="M535.2,86.9l1.7-0.3c0.1,0.7,0.4,1.2,0.8,1.6s1.1,0.6,1.9,0.6c0.8,0,1.4-0.2,1.8-0.5s0.6-0.7,0.6-1.2
		c0-0.4-0.2-0.7-0.5-0.9c-0.2-0.2-0.8-0.4-1.8-0.6c-1.3-0.3-2.2-0.6-2.7-0.8s-0.9-0.6-1.1-1s-0.4-0.9-0.4-1.4c0-0.5,0.1-0.9,0.3-1.3
		s0.5-0.7,0.9-1c0.3-0.2,0.6-0.4,1.1-0.5s1-0.2,1.5-0.2c0.8,0,1.5,0.1,2.1,0.4s1.1,0.6,1.4,1s0.5,0.9,0.6,1.6l-1.7,0.2
		c-0.1-0.5-0.3-1-0.7-1.3s-0.9-0.4-1.6-0.4c-0.8,0-1.4,0.1-1.7,0.4s-0.5,0.6-0.5,0.9c0,0.2,0.1,0.4,0.2,0.6c0.1,0.2,0.4,0.3,0.7,0.5
		c0.2,0.1,0.7,0.2,1.6,0.4c1.2,0.3,2.1,0.6,2.6,0.8s0.9,0.5,1.2,0.9s0.4,0.9,0.4,1.5c0,0.6-0.2,1.1-0.5,1.7s-0.8,0.9-1.5,1.2
		s-1.4,0.4-2.2,0.4c-1.3,0-2.4-0.3-3.1-0.8S535.4,88,535.2,86.9z"/>
	<path d="M553,86.7l1.8,0.2c-0.3,1.1-0.8,1.9-1.6,2.5s-1.8,0.9-3,0.9c-1.5,0-2.7-0.5-3.6-1.4s-1.3-2.2-1.3-3.9
		c0-1.7,0.4-3.1,1.3-4.1s2.1-1.4,3.5-1.4c1.4,0,2.5,0.5,3.4,1.4s1.3,2.3,1.3,4c0,0.1,0,0.3,0,0.5h-7.7c0.1,1.1,0.4,2,1,2.6
		s1.3,0.9,2.2,0.9c0.6,0,1.2-0.2,1.7-0.5S552.7,87.4,553,86.7z M547.2,83.9h5.8c-0.1-0.9-0.3-1.5-0.7-2c-0.6-0.7-1.3-1-2.2-1
		c-0.8,0-1.5,0.3-2,0.8S547.3,82.9,547.2,83.9z"/>
	<path d="M557,90V79.7h1.6v1.5c0.3-0.5,0.8-0.9,1.3-1.2s1.2-0.5,1.8-0.5c0.8,0,1.4,0.2,1.9,0.5s0.8,0.8,1,1.3
		c0.8-1.2,1.9-1.8,3.2-1.8c1,0,1.8,0.3,2.4,0.9s0.8,1.4,0.8,2.6V90h-1.7v-6.5c0-0.7-0.1-1.2-0.2-1.5s-0.3-0.6-0.6-0.7
		s-0.7-0.3-1.1-0.3c-0.7,0-1.3,0.2-1.8,0.7s-0.7,1.3-0.7,2.3v6h-1.8v-6.7c0-0.8-0.1-1.4-0.4-1.8S562,81,561.3,81
		c-0.5,0-1,0.1-1.4,0.4s-0.7,0.6-0.9,1.1s-0.3,1.2-0.3,2.2V90H557z"/>
	<path d="M575.3,90h-1.6V75.7h1.8v5.1c0.7-0.9,1.7-1.4,2.8-1.4c0.6,0,1.2,0.1,1.8,0.4s1,0.6,1.4,1.1s0.7,1,0.9,1.7s0.3,1.4,0.3,2.1
		c0,1.8-0.4,3.2-1.3,4.1s-1.9,1.5-3.2,1.5c-1.2,0-2.2-0.5-2.9-1.5V90z M575.2,84.8c0,1.2,0.2,2.1,0.5,2.7c0.6,0.9,1.3,1.4,2.2,1.4
		c0.8,0,1.4-0.3,2-1s0.8-1.7,0.8-3c0-1.4-0.3-2.4-0.8-3s-1.2-1-1.9-1c-0.8,0-1.4,0.3-2,1S575.2,83.5,575.2,84.8z"/>
	<path d="M584.7,90V75.7h1.8V90H584.7z"/>
	<path d="M596.3,86.7l1.8,0.2c-0.3,1.1-0.8,1.9-1.6,2.5s-1.8,0.9-3,0.9c-1.5,0-2.7-0.5-3.6-1.4s-1.3-2.2-1.3-3.9
		c0-1.7,0.4-3.1,1.3-4.1s2.1-1.4,3.5-1.4c1.4,0,2.5,0.5,3.4,1.4s1.3,2.3,1.3,4c0,0.1,0,0.3,0,0.5h-7.7c0.1,1.1,0.4,2,1,2.6
		s1.3,0.9,2.2,0.9c0.6,0,1.2-0.2,1.7-0.5S596,87.4,596.3,86.7z M590.5,83.9h5.8c-0.1-0.9-0.3-1.5-0.7-2c-0.6-0.7-1.3-1-2.2-1
		c-0.8,0-1.5,0.3-2,0.8S590.6,82.9,590.5,83.9z"/>
	<path d="M600.3,90V79.7h1.6v1.6c0.4-0.7,0.8-1.2,1.1-1.5s0.7-0.4,1.1-0.4c0.6,0,1.2,0.2,1.8,0.6l-0.6,1.6c-0.4-0.3-0.9-0.4-1.3-0.4
		c-0.4,0-0.7,0.1-1,0.3s-0.5,0.6-0.7,1c-0.2,0.6-0.3,1.3-0.3,2.1V90H600.3z"/>
</g>
<g>
	<path d="M686.4,72.7l-5.5-14.3h2.1l3.7,10.4c0.3,0.8,0.5,1.6,0.8,2.3c0.2-0.8,0.5-1.6,0.8-2.3l3.9-10.4h1.9l-5.6,14.3H686.4z"/>
	<path d="M701.4,69.3l1.8,0.2c-0.3,1.1-0.8,1.9-1.6,2.5c-0.8,0.6-1.8,0.9-3,0.9c-1.5,0-2.7-0.5-3.6-1.4s-1.3-2.2-1.3-3.9
		c0-1.7,0.4-3.1,1.3-4.1c0.9-1,2.1-1.4,3.5-1.4c1.4,0,2.5,0.5,3.4,1.4c0.9,0.9,1.3,2.3,1.3,4c0,0.1,0,0.3,0,0.5h-7.7
		c0.1,1.1,0.4,2,1,2.6c0.6,0.6,1.3,0.9,2.2,0.9c0.6,0,1.2-0.2,1.7-0.5C700.8,70.6,701.2,70.1,701.4,69.3z M695.7,66.5h5.8
		c-0.1-0.9-0.3-1.5-0.7-2c-0.6-0.7-1.3-1-2.2-1c-0.8,0-1.5,0.3-2,0.8C696,64.9,695.7,65.6,695.7,66.5z"/>
	<path d="M705.4,72.7V62.3h1.6v1.6c0.4-0.7,0.8-1.2,1.1-1.5s0.7-0.4,1.1-0.4c0.6,0,1.2,0.2,1.8,0.6l-0.6,1.6
		c-0.4-0.3-0.9-0.4-1.3-0.4c-0.4,0-0.7,0.1-1,0.3c-0.3,0.2-0.5,0.6-0.7,1c-0.2,0.6-0.3,1.3-0.3,2.1v5.4H705.4z"/>
	<path d="M716,71.1l0.3,1.6c-0.5,0.1-0.9,0.2-1.3,0.2c-0.6,0-1.1-0.1-1.5-0.3s-0.6-0.5-0.7-0.8c-0.1-0.3-0.2-1-0.2-2.1v-6h-1.3v-1.4
		h1.3v-2.6l1.7-1.1v3.6h1.8v1.4h-1.8v6.1c0,0.5,0,0.8,0.1,1c0.1,0.1,0.2,0.3,0.3,0.3c0.1,0.1,0.3,0.1,0.6,0.1
		C715.4,71.2,715.6,71.1,716,71.1z"/>
	<path d="M724.8,69.3l1.8,0.2c-0.3,1.1-0.8,1.9-1.6,2.5c-0.8,0.6-1.8,0.9-3,0.9c-1.5,0-2.7-0.5-3.6-1.4s-1.3-2.2-1.3-3.9
		c0-1.7,0.4-3.1,1.3-4.1c0.9-1,2.1-1.4,3.5-1.4c1.4,0,2.5,0.5,3.4,1.4c0.9,0.9,1.3,2.3,1.3,4c0,0.1,0,0.3,0,0.5h-7.7
		c0.1,1.1,0.4,2,1,2.6c0.6,0.6,1.3,0.9,2.2,0.9c0.6,0,1.2-0.2,1.7-0.5C724.2,70.6,724.5,70.1,724.8,69.3z M719,66.5h5.8
		c-0.1-0.9-0.3-1.5-0.7-2c-0.6-0.7-1.3-1-2.2-1c-0.8,0-1.5,0.3-2,0.8C719.4,64.9,719.1,65.6,719,66.5z"/>
	<path d="M727.6,72.7l3.8-5.4l-3.5-5h2.2l1.6,2.4c0.3,0.5,0.5,0.8,0.7,1.2c0.3-0.4,0.5-0.8,0.8-1.1l1.7-2.5h2.1l-3.6,4.9l3.9,5.5
		h-2.2l-2.1-3.2l-0.6-0.9l-2.7,4.1H727.6z"/>
	<path d="M743.9,68.1l1.8-0.2c0.1,0.7,0.3,1.3,0.6,1.8c0.3,0.5,0.8,0.8,1.4,1.1c0.7,0.3,1.4,0.4,2.2,0.4c0.7,0,1.4-0.1,1.9-0.3
		c0.6-0.2,1-0.5,1.2-0.9c0.3-0.4,0.4-0.8,0.4-1.2c0-0.4-0.1-0.8-0.4-1.2c-0.3-0.3-0.7-0.6-1.3-0.8c-0.4-0.1-1.2-0.4-2.5-0.7
		c-1.3-0.3-2.2-0.6-2.8-0.9c-0.7-0.4-1.2-0.8-1.5-1.3c-0.3-0.5-0.5-1.1-0.5-1.8c0-0.7,0.2-1.4,0.6-2s1-1.1,1.8-1.4
		c0.8-0.3,1.7-0.5,2.6-0.5c1.1,0,2,0.2,2.8,0.5s1.4,0.8,1.9,1.5c0.4,0.7,0.7,1.4,0.7,2.3l-1.8,0.1c-0.1-0.9-0.4-1.6-1-2.1
		c-0.6-0.5-1.4-0.7-2.5-0.7c-1.1,0-2,0.2-2.5,0.6c-0.5,0.4-0.8,0.9-0.8,1.5c0,0.5,0.2,0.9,0.6,1.3c0.4,0.3,1.3,0.7,2.9,1
		c1.5,0.3,2.6,0.7,3.2,0.9c0.8,0.4,1.4,0.9,1.8,1.5c0.4,0.6,0.6,1.3,0.6,2c0,0.8-0.2,1.5-0.7,2.2c-0.4,0.7-1.1,1.2-1.9,1.6
		c-0.8,0.4-1.7,0.6-2.8,0.6c-1.3,0-2.4-0.2-3.3-0.6c-0.9-0.4-1.6-0.9-2.1-1.7S744,69,743.9,68.1z"/>
	<path d="M757.7,72.7V58.3h1.8v5.1c0.8-1,1.9-1.4,3.1-1.4c0.8,0,1.4,0.2,2,0.5s1,0.7,1.2,1.3c0.2,0.5,0.4,1.3,0.4,2.3v6.6h-1.8v-6.6
		c0-0.9-0.2-1.5-0.6-1.9c-0.4-0.4-0.9-0.6-1.6-0.6c-0.5,0-1,0.1-1.5,0.4c-0.5,0.3-0.8,0.6-1,1.1s-0.3,1.1-0.3,1.9v5.7H757.7z"/>
	<path d="M775.6,71.4c-0.7,0.6-1.3,0.9-1.9,1.2c-0.6,0.2-1.2,0.3-1.9,0.3c-1.1,0-2-0.3-2.6-0.8c-0.6-0.6-0.9-1.3-0.9-2.1
		c0-0.5,0.1-1,0.3-1.4c0.2-0.4,0.5-0.8,0.9-1c0.4-0.3,0.8-0.4,1.3-0.6c0.3-0.1,0.9-0.2,1.6-0.3c1.4-0.2,2.5-0.4,3.1-0.6
		c0-0.2,0-0.4,0-0.5c0-0.7-0.2-1.2-0.5-1.5c-0.4-0.4-1.1-0.6-2-0.6c-0.8,0-1.4,0.1-1.8,0.4c-0.4,0.3-0.7,0.8-0.9,1.5l-1.7-0.2
		c0.2-0.7,0.4-1.3,0.8-1.8c0.4-0.5,0.9-0.8,1.6-1c0.7-0.2,1.5-0.4,2.4-0.4c0.9,0,1.6,0.1,2.2,0.3c0.6,0.2,1,0.5,1.2,0.8
		c0.3,0.3,0.4,0.7,0.5,1.2c0.1,0.3,0.1,0.8,0.1,1.6v2.3c0,1.6,0,2.7,0.1,3.1c0.1,0.4,0.2,0.8,0.4,1.2h-1.8
		C775.8,72.3,775.6,71.9,775.6,71.4z M775.4,67.5c-0.6,0.3-1.6,0.5-2.9,0.7c-0.7,0.1-1.2,0.2-1.5,0.4c-0.3,0.1-0.5,0.3-0.7,0.6
		c-0.2,0.3-0.2,0.5-0.2,0.8c0,0.5,0.2,0.9,0.5,1.2c0.4,0.3,0.9,0.5,1.6,0.5c0.7,0,1.3-0.1,1.8-0.4s0.9-0.7,1.2-1.2
		c0.2-0.4,0.3-1,0.3-1.8V67.5z"/>
	<path d="M786.7,72.7v-1.3c-0.7,1-1.6,1.5-2.9,1.5c-0.8,0-1.6-0.2-2.3-0.7s-1.2-1.1-1.6-1.9s-0.6-1.8-0.6-2.8c0-1,0.2-2,0.5-2.8
		c0.3-0.8,0.9-1.5,1.6-1.9c0.7-0.4,1.5-0.7,2.3-0.7c0.6,0,1.2,0.1,1.7,0.4s0.9,0.6,1.2,1v-5.1h1.7v14.3H786.7z M781.1,67.5
		c0,1.3,0.3,2.3,0.8,3c0.6,0.7,1.2,1,2,1c0.8,0,1.4-0.3,2-0.9s0.8-1.6,0.8-2.9c0-1.4-0.3-2.5-0.8-3.1c-0.5-0.7-1.2-1-2-1
		c-0.8,0-1.4,0.3-2,1C781.4,65.1,781.1,66.1,781.1,67.5z"/>
	<path d="M798.2,69.3l1.8,0.2c-0.3,1.1-0.8,1.9-1.6,2.5c-0.8,0.6-1.8,0.9-3,0.9c-1.5,0-2.7-0.5-3.6-1.4s-1.3-2.2-1.3-3.9
		c0-1.7,0.4-3.1,1.3-4.1c0.9-1,2.1-1.4,3.5-1.4c1.4,0,2.5,0.5,3.4,1.4c0.9,0.9,1.3,2.3,1.3,4c0,0.1,0,0.3,0,0.5h-7.7
		c0.1,1.1,0.4,2,1,2.6c0.6,0.6,1.3,0.9,2.2,0.9c0.6,0,1.2-0.2,1.7-0.5C797.5,70.6,797.9,70.1,798.2,69.3z M792.4,66.5h5.8
		c-0.1-0.9-0.3-1.5-0.7-2c-0.6-0.7-1.3-1-2.2-1c-0.8,0-1.5,0.3-2,0.8C792.8,64.9,792.5,65.6,792.4,66.5z"/>
	<path d="M802.2,72.7V62.3h1.6v1.6c0.4-0.7,0.8-1.2,1.1-1.5s0.7-0.4,1.1-0.4c0.6,0,1.2,0.2,1.8,0.6l-0.6,1.6
		c-0.4-0.3-0.9-0.4-1.3-0.4c-0.4,0-0.7,0.1-1,0.3c-0.3,0.2-0.5,0.6-0.7,1c-0.2,0.6-0.3,1.3-0.3,2.1v5.4H802.2z"/>
</g>
<g>
	<g>
		<rect x="241.3" y="21.2" class="st8" width="61.4" height="29.8"/>
		<g>
			<path d="M249.8,36.8l1.6-0.1c0.1,0.6,0.3,1.2,0.5,1.6s0.7,0.7,1.3,1s1.2,0.4,2,0.4c0.7,0,1.2-0.1,1.7-0.3s0.9-0.5,1.1-0.8
				s0.4-0.7,0.4-1.1c0-0.4-0.1-0.8-0.4-1.1s-0.6-0.6-1.2-0.8c-0.3-0.1-1.1-0.3-2.3-0.6s-2-0.6-2.5-0.8c-0.6-0.3-1.1-0.7-1.4-1.2
				s-0.5-1-0.5-1.6c0-0.7,0.2-1.3,0.6-1.8s0.9-1,1.6-1.3s1.5-0.4,2.4-0.4c1,0,1.8,0.2,2.5,0.5s1.3,0.8,1.7,1.4s0.6,1.3,0.6,2
				l-1.6,0.1c-0.1-0.8-0.4-1.4-0.9-1.8s-1.3-0.6-2.2-0.6c-1,0-1.8,0.2-2.3,0.6s-0.7,0.8-0.7,1.4c0,0.5,0.2,0.8,0.5,1.1
				c0.3,0.3,1.2,0.6,2.6,0.9s2.3,0.6,2.9,0.8c0.8,0.3,1.3,0.8,1.7,1.3s0.5,1.1,0.5,1.8c0,0.7-0.2,1.3-0.6,1.9s-1,1.1-1.7,1.4
				s-1.6,0.5-2.5,0.5c-1.2,0-2.1-0.2-2.9-0.5s-1.4-0.9-1.9-1.5S249.8,37.7,249.8,36.8z"/>
			<path d="M262.1,40.9V28.1h1.6v12.9H262.1z"/>
			<path d="M265.6,36.3c0-1.7,0.5-3,1.4-3.8c0.8-0.7,1.8-1,2.9-1c1.3,0,2.3,0.4,3.1,1.3s1.2,2,1.2,3.5c0,1.2-0.2,2.1-0.5,2.8
				s-0.9,1.2-1.6,1.6s-1.4,0.6-2.3,0.6c-1.3,0-2.4-0.4-3.2-1.3S265.6,37.9,265.6,36.3z M267.2,36.3c0,1.2,0.3,2.1,0.8,2.7
				s1.2,0.9,2,0.9c0.8,0,1.4-0.3,2-0.9s0.8-1.5,0.8-2.7c0-1.2-0.3-2-0.8-2.6s-1.2-0.9-2-0.9c-0.8,0-1.4,0.3-2,0.9
				S267.2,35.1,267.2,36.3z"/>
			<path d="M279.6,39.5l0.2,1.4c-0.4,0.1-0.8,0.1-1.2,0.1c-0.6,0-1-0.1-1.3-0.3s-0.5-0.4-0.7-0.7s-0.2-0.9-0.2-1.9v-5.4h-1.2v-1.2
				h1.2v-2.3l1.6-0.9v3.3h1.6v1.2H278v5.5c0,0.5,0,0.7,0.1,0.9s0.1,0.2,0.3,0.3s0.3,0.1,0.5,0.1C279.1,39.6,279.3,39.6,279.6,39.5z"
				/>
			<path d="M285.7,34.6c0-1.5,0.2-2.7,0.5-3.7s0.8-1.6,1.4-2.1s1.4-0.8,2.3-0.8c0.7,0,1.3,0.1,1.8,0.4s1,0.7,1.3,1.2
				s0.6,1.2,0.8,1.9s0.3,1.8,0.3,3c0,1.5-0.2,2.7-0.5,3.7s-0.8,1.6-1.4,2.2s-1.4,0.8-2.3,0.8c-1.2,0-2.2-0.4-2.9-1.3
				C286.2,38.8,285.7,37,285.7,34.6z M287.4,34.6c0,2.1,0.2,3.5,0.7,4.2s1.1,1.1,1.8,1.1s1.3-0.4,1.8-1.1s0.7-2.1,0.7-4.2
				c0-2.1-0.2-3.5-0.7-4.2s-1.1-1-1.9-1c-0.7,0-1.3,0.3-1.7,0.9C287.6,31,287.4,32.5,287.4,34.6z"/>
		</g>
	</g>
	<g>
		<rect x="241.3" y="57.2" class="st8" width="61.4" height="29.8"/>
		<g>
			<path d="M249.8,72.8l1.6-0.1c0.1,0.6,0.3,1.2,0.5,1.6s0.7,0.7,1.3,1s1.2,0.4,2,0.4c0.7,0,1.2-0.1,1.7-0.3s0.9-0.5,1.1-0.8
				s0.4-0.7,0.4-1.1c0-0.4-0.1-0.8-0.4-1.1s-0.6-0.6-1.2-0.8c-0.3-0.1-1.1-0.3-2.3-0.6s-2-0.6-2.5-0.8c-0.6-0.3-1.1-0.7-1.4-1.2
				s-0.5-1-0.5-1.6c0-0.7,0.2-1.3,0.6-1.8s0.9-1,1.6-1.3c0.7-0.3,1.5-0.4,2.4-0.4c1,0,1.8,0.2,2.5,0.5c0.7,0.3,1.3,0.8,1.7,1.4
				s0.6,1.3,0.6,2l-1.6,0.1c-0.1-0.8-0.4-1.4-0.9-1.8s-1.3-0.6-2.2-0.6c-1,0-1.8,0.2-2.3,0.6s-0.7,0.8-0.7,1.4
				c0,0.5,0.2,0.8,0.5,1.1c0.3,0.3,1.2,0.6,2.6,0.9s2.3,0.6,2.9,0.8c0.8,0.3,1.3,0.8,1.7,1.3s0.5,1.1,0.5,1.8c0,0.7-0.2,1.3-0.6,1.9
				s-1,1.1-1.7,1.4s-1.6,0.5-2.5,0.5c-1.2,0-2.1-0.2-2.9-0.5s-1.4-0.9-1.9-1.5S249.8,73.6,249.8,72.8z"/>
			<path d="M262.1,76.9V64h1.6v12.9H262.1z"/>
			<path d="M265.6,72.2c0-1.7,0.5-3,1.4-3.8c0.8-0.7,1.8-1,2.9-1c1.3,0,2.3,0.4,3.1,1.3s1.2,2,1.2,3.5c0,1.2-0.2,2.1-0.5,2.8
				s-0.9,1.2-1.6,1.6s-1.4,0.6-2.3,0.6c-1.3,0-2.4-0.4-3.2-1.3S265.6,73.8,265.6,72.2z M267.2,72.2c0,1.2,0.3,2.1,0.8,2.7
				s1.2,0.9,2,0.9c0.8,0,1.4-0.3,2-0.9s0.8-1.5,0.8-2.7c0-1.2-0.3-2-0.8-2.6s-1.2-0.9-2-0.9c-0.8,0-1.4,0.3-2,0.9
				S267.2,71,267.2,72.2z"/>
			<path d="M279.6,75.5l0.2,1.4c-0.4,0.1-0.8,0.1-1.2,0.1c-0.6,0-1-0.1-1.3-0.3s-0.5-0.4-0.7-0.7s-0.2-0.9-0.2-1.9v-5.4h-1.2v-1.2
				h1.2v-2.3l1.6-0.9v3.3h1.6v1.2H278v5.5c0,0.5,0,0.7,0.1,0.9s0.1,0.2,0.3,0.3s0.3,0.1,0.5,0.1C279.1,75.5,279.3,75.5,279.6,75.5z"
				/>
			<path d="M291.7,76.9h-1.6V66.8c-0.4,0.4-0.9,0.7-1.5,1.1s-1.2,0.6-1.7,0.8v-1.5c0.9-0.4,1.7-0.9,2.3-1.5s1.1-1.2,1.4-1.7h1V76.9z
				"/>
		</g>
	</g>
	<g>
		<rect x="241.3" y="93.1" class="st8" width="61.4" height="29.8"/>
		<g>
			<path d="M249.8,108.7l1.6-0.1c0.1,0.6,0.3,1.2,0.5,1.6c0.3,0.4,0.7,0.7,1.3,1c0.6,0.3,1.2,0.4,2,0.4c0.7,0,1.2-0.1,1.7-0.3
				s0.9-0.5,1.1-0.8c0.2-0.3,0.4-0.7,0.4-1.1c0-0.4-0.1-0.8-0.4-1.1c-0.2-0.3-0.6-0.6-1.2-0.8c-0.3-0.1-1.1-0.3-2.3-0.6
				c-1.2-0.3-2-0.6-2.5-0.8c-0.6-0.3-1.1-0.7-1.4-1.2c-0.3-0.5-0.5-1-0.5-1.6c0-0.7,0.2-1.3,0.6-1.8s0.9-1,1.6-1.3s1.5-0.4,2.4-0.4
				c1,0,1.8,0.2,2.5,0.5s1.3,0.8,1.7,1.4s0.6,1.3,0.6,2l-1.6,0.1c-0.1-0.8-0.4-1.4-0.9-1.8s-1.3-0.6-2.2-0.6c-1,0-1.8,0.2-2.3,0.6
				s-0.7,0.8-0.7,1.4c0,0.5,0.2,0.8,0.5,1.1c0.3,0.3,1.2,0.6,2.6,0.9c1.4,0.3,2.3,0.6,2.9,0.8c0.8,0.3,1.3,0.8,1.7,1.3
				c0.4,0.5,0.5,1.1,0.5,1.8c0,0.7-0.2,1.3-0.6,1.9c-0.4,0.6-1,1.1-1.7,1.4c-0.7,0.3-1.6,0.5-2.5,0.5c-1.2,0-2.1-0.2-2.9-0.5
				s-1.4-0.9-1.9-1.5C250,110.3,249.8,109.6,249.8,108.7z"/>
			<path d="M262.1,112.9V100h1.6v12.9H262.1z"/>
			<path d="M265.6,108.2c0-1.7,0.5-3,1.4-3.8c0.8-0.7,1.8-1,2.9-1c1.3,0,2.3,0.4,3.1,1.3c0.8,0.8,1.2,2,1.2,3.5
				c0,1.2-0.2,2.1-0.5,2.8c-0.4,0.7-0.9,1.2-1.6,1.6s-1.4,0.6-2.3,0.6c-1.3,0-2.4-0.4-3.2-1.3S265.6,109.8,265.6,108.2z
				 M267.2,108.2c0,1.2,0.3,2.1,0.8,2.7c0.5,0.6,1.2,0.9,2,0.9c0.8,0,1.4-0.3,2-0.9s0.8-1.5,0.8-2.7c0-1.2-0.3-2-0.8-2.6
				c-0.5-0.6-1.2-0.9-2-0.9c-0.8,0-1.4,0.3-2,0.9S267.2,107,267.2,108.2z"/>
			<path d="M279.6,111.4l0.2,1.4c-0.4,0.1-0.8,0.1-1.2,0.1c-0.6,0-1-0.1-1.3-0.3s-0.5-0.4-0.7-0.7c-0.1-0.3-0.2-0.9-0.2-1.9v-5.4
				h-1.2v-1.2h1.2v-2.3l1.6-0.9v3.3h1.6v1.2H278v5.5c0,0.5,0,0.7,0.1,0.9s0.1,0.2,0.3,0.3s0.3,0.1,0.5,0.1
				C279.1,111.5,279.3,111.5,279.6,111.4z"/>
			<path d="M294,111.3v1.5h-8.5c0-0.4,0-0.7,0.2-1.1c0.2-0.6,0.6-1.2,1-1.7s1.2-1.2,2.1-2c1.4-1.1,2.3-2.1,2.8-2.7
				c0.5-0.7,0.7-1.3,0.7-1.9c0-0.6-0.2-1.2-0.7-1.6s-1-0.6-1.8-0.6c-0.8,0-1.4,0.2-1.8,0.7s-0.7,1.1-0.7,1.9l-1.6-0.2
				c0.1-1.2,0.5-2.1,1.3-2.8s1.7-1,2.9-1c1.2,0,2.2,0.3,2.9,1s1.1,1.5,1.1,2.5c0,0.5-0.1,1-0.3,1.5s-0.6,1-1.1,1.6s-1.3,1.3-2.4,2.3
				c-0.9,0.8-1.6,1.3-1.8,1.6c-0.3,0.3-0.5,0.6-0.7,0.9H294z"/>
		</g>
	</g>
	<g>
		<circle cx="272" cy="131.8" r="2.5"/>
		<circle cx="272" cy="140.6" r="2.5"/>
		<circle cx="272" cy="149.4" r="2.5"/>
	</g>
</g>
<path class="st9" d="M126.9,53.8H16.7c-6.6,0-12-5.4-12-12V31.2c0-6.6,5.4-12,12-12h110.2c6.6,0,12,5.4,12,12v10.6
	C138.9,48.4,133.5,53.8,126.9,53.8z"/>
<g>
	<path d="M17.5,41.3l-5-12.9h1.8l3.3,9.4c0.3,0.8,0.5,1.5,0.7,2.1c0.2-0.7,0.4-1.4,0.7-2.1l3.5-9.4h1.7l-5,12.9H17.5z"/>
	<path d="M31,38.3l1.6,0.2c-0.3,1-0.7,1.7-1.4,2.2s-1.6,0.8-2.7,0.8c-1.4,0-2.4-0.4-3.2-1.3s-1.2-2-1.2-3.5c0-1.6,0.4-2.8,1.2-3.7
		s1.9-1.3,3.1-1.3c1.2,0,2.3,0.4,3.1,1.3s1.2,2,1.2,3.6c0,0.1,0,0.2,0,0.4h-7c0.1,1,0.3,1.8,0.9,2.4s1.2,0.8,2,0.8
		c0.6,0,1.1-0.2,1.5-0.5S30.8,39,31,38.3z M25.8,35.8H31C31,35,30.8,34.4,30.4,34c-0.5-0.6-1.2-0.9-2-0.9c-0.7,0-1.3,0.2-1.8,0.7
		S25.9,34.9,25.8,35.8z"/>
	<path d="M34.6,41.3V32H36v1.4c0.4-0.7,0.7-1.1,1-1.3s0.6-0.3,1-0.3c0.5,0,1.1,0.2,1.6,0.5l-0.5,1.5c-0.4-0.2-0.8-0.3-1.2-0.3
		c-0.3,0-0.7,0.1-0.9,0.3s-0.5,0.5-0.6,0.9c-0.2,0.6-0.3,1.2-0.3,1.8v4.9H34.6z"/>
	<path d="M44.1,39.9l0.2,1.4c-0.4,0.1-0.8,0.1-1.2,0.1c-0.6,0-1-0.1-1.3-0.3s-0.5-0.4-0.7-0.7s-0.2-0.9-0.2-1.9v-5.4h-1.2V32h1.2
		v-2.3l1.6-0.9V32h1.6v1.2h-1.6v5.5c0,0.5,0,0.7,0.1,0.9s0.1,0.2,0.3,0.3s0.3,0.1,0.5,0.1C43.6,40,43.8,39.9,44.1,39.9z"/>
	<path d="M52,38.3l1.6,0.2c-0.3,1-0.7,1.7-1.4,2.2s-1.6,0.8-2.7,0.8c-1.4,0-2.4-0.4-3.2-1.3s-1.2-2-1.2-3.5c0-1.6,0.4-2.8,1.2-3.7
		s1.9-1.3,3.1-1.3c1.2,0,2.3,0.4,3.1,1.3s1.2,2,1.2,3.6c0,0.1,0,0.2,0,0.4h-7c0.1,1,0.3,1.8,0.9,2.4s1.2,0.8,2,0.8
		c0.6,0,1.1-0.2,1.5-0.5S51.8,39,52,38.3z M46.8,35.8H52C52,35,51.8,34.4,51.4,34c-0.5-0.6-1.2-0.9-2-0.9c-0.7,0-1.3,0.2-1.8,0.7
		S46.9,34.9,46.8,35.8z"/>
	<path d="M54.6,41.3l3.4-4.9L54.8,32h2l1.4,2.2c0.3,0.4,0.5,0.8,0.7,1c0.3-0.4,0.5-0.7,0.7-1l1.6-2.2h1.9l-3.2,4.4l3.5,4.9h-1.9
		l-1.9-2.9l-0.5-0.8l-2.5,3.7H54.6z"/>
	<path d="M69.8,41.3V28.4h4.8c1,0,1.8,0.1,2.4,0.4s1.1,0.7,1.4,1.2s0.5,1.1,0.5,1.7c0,0.6-0.1,1.1-0.4,1.6s-0.8,0.9-1.4,1.2
		c0.8,0.2,1.4,0.6,1.8,1.2s0.6,1.2,0.6,2c0,0.6-0.1,1.2-0.4,1.7s-0.6,0.9-0.9,1.2s-0.8,0.5-1.4,0.6s-1.3,0.2-2.1,0.2H69.8z
		 M71.5,33.8h2.8c0.8,0,1.3,0,1.6-0.1c0.4-0.1,0.8-0.3,1-0.6s0.3-0.7,0.3-1.1c0-0.4-0.1-0.8-0.3-1.1s-0.5-0.5-0.9-0.7S75,30,74,30
		h-2.6V33.8z M71.5,39.8h3.2c0.6,0,0.9,0,1.2-0.1c0.4-0.1,0.7-0.2,1-0.4s0.5-0.4,0.7-0.7s0.3-0.7,0.3-1.1c0-0.5-0.1-0.9-0.4-1.3
		s-0.6-0.6-1-0.7s-1.1-0.2-1.9-0.2h-3V39.8z"/>
	<path d="M87.8,41.3v-1.4c-0.7,1.1-1.7,1.6-3,1.6c-0.6,0-1.1-0.1-1.5-0.3s-0.8-0.5-1.1-0.8s-0.4-0.7-0.5-1.2
		c-0.1-0.3-0.1-0.8-0.1-1.5V32h1.6v5.2c0,0.8,0,1.4,0.1,1.7c0.1,0.4,0.3,0.7,0.6,1s0.7,0.4,1.2,0.4s0.9-0.1,1.3-0.4s0.7-0.6,0.9-1
		s0.3-1,0.3-1.8v-5h1.6v9.3H87.8z"/>
	<path d="M92,41.3v-8.1h-1.4V32H92v-1c0-0.6,0.1-1.1,0.2-1.4c0.2-0.4,0.4-0.7,0.8-1s0.9-0.4,1.6-0.4c0.4,0,0.9,0.1,1.5,0.2l-0.2,1.4
		c-0.3-0.1-0.6-0.1-0.9-0.1c-0.5,0-0.8,0.1-1,0.3s-0.3,0.6-0.3,1.2V32h1.8v1.2h-1.8v8.1H92z"/>
	<path d="M96.7,41.3v-8.1h-1.4V32h1.4v-1c0-0.6,0.1-1.1,0.2-1.4c0.2-0.4,0.4-0.7,0.8-1s0.9-0.4,1.6-0.4c0.4,0,0.9,0.1,1.5,0.2
		l-0.2,1.4c-0.3-0.1-0.6-0.1-0.9-0.1c-0.5,0-0.8,0.1-1,0.3s-0.3,0.6-0.3,1.2V32h1.8v1.2h-1.8v8.1H96.7z"/>
	<path d="M107.7,38.3l1.6,0.2c-0.3,1-0.7,1.7-1.4,2.2s-1.6,0.8-2.7,0.8c-1.4,0-2.4-0.4-3.2-1.3s-1.2-2-1.2-3.5
		c0-1.6,0.4-2.8,1.2-3.7s1.9-1.3,3.1-1.3c1.2,0,2.3,0.4,3.1,1.3s1.2,2,1.2,3.6c0,0.1,0,0.2,0,0.4h-7c0.1,1,0.3,1.8,0.9,2.4
		s1.2,0.8,2,0.8c0.6,0,1.1-0.2,1.5-0.5S107.5,39,107.7,38.3z M102.5,35.8h5.2c-0.1-0.8-0.3-1.4-0.6-1.8c-0.5-0.6-1.2-0.9-2-0.9
		c-0.7,0-1.3,0.2-1.8,0.7S102.6,34.9,102.5,35.8z"/>
	<path d="M111.3,41.3V32h1.4v1.4c0.4-0.7,0.7-1.1,1-1.3s0.6-0.3,1-0.3c0.5,0,1.1,0.2,1.6,0.5l-0.5,1.5c-0.4-0.2-0.8-0.3-1.2-0.3
		c-0.3,0-0.7,0.1-0.9,0.3s-0.5,0.5-0.6,0.9c-0.2,0.6-0.3,1.2-0.3,1.8v4.9H111.3z"/>
	<path d="M121.9,35c0-1.5,0.2-2.7,0.5-3.7s0.8-1.6,1.4-2.1s1.4-0.8,2.3-0.8c0.7,0,1.3,0.1,1.8,0.4s1,0.7,1.3,1.2s0.6,1.2,0.8,1.9
		s0.3,1.8,0.3,3c0,1.5-0.2,2.7-0.5,3.7s-0.8,1.6-1.4,2.2s-1.4,0.8-2.3,0.8c-1.2,0-2.2-0.4-2.9-1.3C122.3,39.1,121.9,37.4,121.9,35z
		 M123.5,35c0,2.1,0.2,3.5,0.7,4.2s1.1,1.1,1.8,1.1s1.3-0.4,1.8-1.1s0.7-2.1,0.7-4.2c0-2.1-0.2-3.5-0.7-4.2s-1.1-1-1.9-1
		c-0.7,0-1.3,0.3-1.7,0.9C123.8,31.4,123.5,32.8,123.5,35z"/>
</g>
<path class="st1" d="M172.1,123"/>
<g>
	<path d="M310.6,19.5l3.8-10h1.4l4.1,10h-1.5l-1.2-3h-4.2l-1.1,3H310.6z M313.5,15.4h3.4l-1-2.8c-0.3-0.8-0.6-1.5-0.7-2.1
		c-0.1,0.6-0.3,1.3-0.5,1.9L313.5,15.4z"/>
	<path d="M323.5,18.4l0.2,1.1c-0.3,0.1-0.7,0.1-0.9,0.1c-0.4,0-0.8-0.1-1-0.2s-0.4-0.3-0.5-0.6s-0.2-0.7-0.2-1.5v-4.2h-0.9v-1h0.9
		v-1.8l1.2-0.7v2.5h1.2v1h-1.2v4.2c0,0.4,0,0.6,0.1,0.7s0.1,0.2,0.2,0.2s0.2,0.1,0.4,0.1C323.1,18.4,323.3,18.4,323.5,18.4z"/>
	<path d="M327.4,18.4l0.2,1.1c-0.3,0.1-0.7,0.1-0.9,0.1c-0.4,0-0.8-0.1-1-0.2s-0.4-0.3-0.5-0.6s-0.2-0.7-0.2-1.5v-4.2h-0.9v-1h0.9
		v-1.8l1.2-0.7v2.5h1.2v1h-1.2v4.2c0,0.4,0,0.6,0.1,0.7s0.1,0.2,0.2,0.2s0.2,0.1,0.4,0.1C327,18.4,327.2,18.4,327.4,18.4z"/>
	<path d="M328.6,19.5v-7.3h1.1v1.1c0.3-0.5,0.5-0.9,0.8-1s0.5-0.2,0.8-0.2c0.4,0,0.8,0.1,1.3,0.4l-0.4,1.1c-0.3-0.2-0.6-0.3-0.9-0.3
		c-0.3,0-0.5,0.1-0.7,0.2s-0.4,0.4-0.5,0.7c-0.1,0.4-0.2,0.9-0.2,1.4v3.8H328.6z"/>
	<path d="M333.3,10.9V9.5h1.2v1.4H333.3z M333.3,19.5v-7.3h1.2v7.3H333.3z"/>
	<path d="M337.5,19.5h-1.1v-10h1.2V13c0.5-0.7,1.2-1,2-1c0.4,0,0.9,0.1,1.3,0.3s0.7,0.4,1,0.8s0.5,0.7,0.6,1.2s0.2,1,0.2,1.5
		c0,1.2-0.3,2.2-0.9,2.9s-1.4,1-2.2,1c-0.9,0-1.5-0.4-2-1.1V19.5z M337.5,15.8c0,0.9,0.1,1.5,0.4,1.9c0.4,0.6,0.9,1,1.6,1
		c0.5,0,1-0.2,1.4-0.7s0.6-1.2,0.6-2.1c0-0.9-0.2-1.6-0.6-2.1s-0.8-0.7-1.4-0.7c-0.5,0-1,0.2-1.4,0.7S337.5,14.9,337.5,15.8z"/>
	<path d="M349,19.5v-1.1c-0.6,0.8-1.3,1.2-2.3,1.2c-0.4,0-0.8-0.1-1.2-0.2s-0.6-0.4-0.8-0.6s-0.3-0.6-0.4-0.9
		c-0.1-0.2-0.1-0.6-0.1-1.1v-4.5h1.2v4c0,0.6,0,1.1,0.1,1.3c0.1,0.3,0.2,0.6,0.5,0.8s0.6,0.3,0.9,0.3s0.7-0.1,1-0.3s0.6-0.4,0.7-0.8
		s0.2-0.8,0.2-1.4v-3.9h1.2v7.3H349z"/>
	<path d="M354.7,18.4l0.2,1.1c-0.3,0.1-0.7,0.1-0.9,0.1c-0.4,0-0.8-0.1-1-0.2s-0.4-0.3-0.5-0.6s-0.2-0.7-0.2-1.5v-4.2h-0.9v-1h0.9
		v-1.8l1.2-0.7v2.5h1.2v1h-1.2v4.2c0,0.4,0,0.6,0.1,0.7s0.1,0.2,0.2,0.2s0.2,0.1,0.4,0.1C354.3,18.4,354.4,18.4,354.7,18.4z"/>
	<path d="M360.8,17.1l1.3,0.2c-0.2,0.7-0.6,1.3-1.1,1.7s-1.2,0.6-2.1,0.6c-1.1,0-1.9-0.3-2.5-1s-0.9-1.6-0.9-2.8
		c0-1.2,0.3-2.2,0.9-2.8s1.4-1,2.4-1c1,0,1.8,0.3,2.4,1s0.9,1.6,0.9,2.8c0,0.1,0,0.2,0,0.3h-5.4c0,0.8,0.3,1.4,0.7,1.8
		s0.9,0.6,1.5,0.6c0.5,0,0.8-0.1,1.2-0.4S360.7,17.7,360.8,17.1z M356.8,15.2h4.1c-0.1-0.6-0.2-1.1-0.5-1.4
		c-0.4-0.5-0.9-0.7-1.5-0.7c-0.6,0-1,0.2-1.4,0.6S356.8,14.5,356.8,15.2z"/>
	<path d="M367.2,14.5c0-1.2,0.1-2.1,0.4-2.9s0.6-1.3,1.1-1.7s1.1-0.6,1.8-0.6c0.5,0,1,0.1,1.4,0.3s0.7,0.5,1,0.9s0.5,0.9,0.6,1.5
		s0.2,1.4,0.2,2.4c0,1.2-0.1,2.1-0.4,2.8s-0.6,1.3-1.1,1.7s-1.1,0.6-1.8,0.6c-1,0-1.7-0.3-2.3-1C367.5,17.8,367.2,16.4,367.2,14.5z
		 M368.5,14.5c0,1.6,0.2,2.7,0.6,3.3s0.9,0.8,1.4,0.8s1-0.3,1.4-0.8s0.6-1.6,0.6-3.3c0-1.6-0.2-2.7-0.6-3.3s-0.9-0.8-1.4-0.8
		c-0.6,0-1,0.2-1.4,0.7C368.7,11.8,368.5,12.9,368.5,14.5z"/>
	<path d="M381.6,22.4c-0.7-0.9-1.3-1.9-1.7-3s-0.7-2.3-0.7-3.6c0-1.1,0.2-2.1,0.5-3.1c0.4-1.2,1-2.3,1.9-3.4h0.9
		c-0.6,0.9-0.9,1.6-1.1,2c-0.3,0.6-0.5,1.3-0.7,2c-0.2,0.9-0.3,1.7-0.3,2.6c0,2.2,0.7,4.4,2,6.6H381.6z"/>
	<path d="M383.9,22.3v-10h1.1v0.9c0.3-0.4,0.6-0.6,0.9-0.8s0.7-0.3,1.2-0.3c0.6,0,1.2,0.2,1.6,0.5s0.8,0.8,1.1,1.4s0.4,1.2,0.4,1.9
		c0,0.7-0.1,1.4-0.4,2s-0.7,1.1-1.2,1.4s-1,0.5-1.6,0.5c-0.4,0-0.8-0.1-1.1-0.3s-0.6-0.4-0.8-0.7v3.5H383.9z M385,15.9
		c0,0.9,0.2,1.6,0.6,2.1s0.8,0.7,1.4,0.7c0.5,0,1-0.2,1.4-0.7s0.6-1.2,0.6-2.1c0-0.9-0.2-1.6-0.6-2.1S387.5,13,387,13
		c-0.5,0-1,0.2-1.4,0.7S385,15,385,15.9z"/>
	<path d="M391.2,15.9c0-1.3,0.4-2.3,1.1-3c0.6-0.5,1.4-0.8,2.3-0.8c1,0,1.8,0.3,2.4,1s1,1.6,1,2.7c0,0.9-0.1,1.7-0.4,2.2
		s-0.7,1-1.2,1.2s-1.1,0.4-1.8,0.4c-1,0-1.8-0.3-2.5-1S391.2,17.1,391.2,15.9z M392.5,15.9c0,0.9,0.2,1.6,0.6,2.1s0.9,0.7,1.5,0.7
		c0.6,0,1.1-0.2,1.5-0.7s0.6-1.2,0.6-2.1c0-0.9-0.2-1.6-0.6-2s-0.9-0.7-1.5-0.7c-0.6,0-1.1,0.2-1.5,0.7S392.5,14.9,392.5,15.9z"/>
	<path d="M399,17.3l1.2-0.2c0.1,0.5,0.3,0.9,0.6,1.1s0.7,0.4,1.3,0.4c0.6,0,1-0.1,1.3-0.3s0.4-0.5,0.4-0.8c0-0.3-0.1-0.5-0.4-0.7
		c-0.2-0.1-0.6-0.2-1.3-0.4c-0.9-0.2-1.5-0.4-1.9-0.6s-0.6-0.4-0.8-0.7s-0.3-0.6-0.3-1c0-0.3,0.1-0.6,0.2-0.9s0.3-0.5,0.6-0.7
		c0.2-0.1,0.5-0.3,0.8-0.4s0.7-0.1,1.1-0.1c0.6,0,1.1,0.1,1.5,0.2s0.7,0.4,1,0.7s0.3,0.7,0.4,1.1l-1.2,0.2c-0.1-0.4-0.2-0.7-0.5-0.9
		s-0.6-0.3-1.1-0.3c-0.6,0-1,0.1-1.2,0.3s-0.4,0.4-0.4,0.7c0,0.2,0.1,0.3,0.2,0.4c0.1,0.1,0.3,0.2,0.5,0.3c0.1,0,0.5,0.2,1.1,0.3
		c0.9,0.2,1.5,0.4,1.8,0.6s0.6,0.4,0.8,0.6s0.3,0.6,0.3,1.1c0,0.4-0.1,0.8-0.4,1.2s-0.6,0.6-1,0.8s-1,0.3-1.5,0.3
		c-0.9,0-1.7-0.2-2.2-0.6S399.1,18.1,399,17.3z"/>
	<path d="M406.5,10.9V9.5h1.2v1.4H406.5z M406.5,19.5v-7.3h1.2v7.3H406.5z"/>
	<path d="M412.3,18.4l0.2,1.1c-0.3,0.1-0.7,0.1-0.9,0.1c-0.4,0-0.8-0.1-1-0.2s-0.4-0.3-0.5-0.6s-0.2-0.7-0.2-1.5v-4.2h-0.9v-1h0.9
		v-1.8l1.2-0.7v2.5h1.2v1H411v4.2c0,0.4,0,0.6,0.1,0.7s0.1,0.2,0.2,0.2s0.2,0.1,0.4,0.1C411.8,18.4,412,18.4,412.3,18.4z"/>
	<path d="M413.5,10.9V9.5h1.2v1.4H413.5z M413.5,19.5v-7.3h1.2v7.3H413.5z"/>
	<path d="M416.1,15.9c0-1.3,0.4-2.3,1.1-3c0.6-0.5,1.4-0.8,2.3-0.8c1,0,1.8,0.3,2.4,1s1,1.6,1,2.7c0,0.9-0.1,1.7-0.4,2.2
		s-0.7,1-1.2,1.2s-1.1,0.4-1.8,0.4c-1,0-1.8-0.3-2.5-1S416.1,17.1,416.1,15.9z M417.4,15.9c0,0.9,0.2,1.6,0.6,2.1s0.9,0.7,1.5,0.7
		c0.6,0,1.1-0.2,1.5-0.7s0.6-1.2,0.6-2.1c0-0.9-0.2-1.6-0.6-2s-0.9-0.7-1.5-0.7c-0.6,0-1.1,0.2-1.5,0.7S417.4,14.9,417.4,15.9z"/>
	<path d="M424.4,19.5v-7.3h1.1v1c0.5-0.8,1.3-1.2,2.3-1.2c0.4,0,0.8,0.1,1.2,0.2s0.6,0.4,0.8,0.6s0.3,0.6,0.4,0.9
		c0,0.2,0.1,0.6,0.1,1.2v4.5H429v-4.4c0-0.5,0-0.9-0.1-1.1s-0.3-0.4-0.5-0.6s-0.5-0.2-0.9-0.2c-0.5,0-1,0.2-1.4,0.5s-0.6,1-0.6,1.9
		v4H424.4z"/>
	<path d="M432.9,22.4h-0.9c1.4-2.2,2-4.4,2-6.6c0-0.9-0.1-1.7-0.3-2.5c-0.2-0.7-0.4-1.3-0.6-2c-0.2-0.4-0.5-1.1-1.1-2.1h0.9
		c0.9,1.1,1.5,2.3,1.9,3.4c0.4,1,0.5,2,0.5,3.1c0,1.2-0.2,2.4-0.7,3.6S433.6,21.6,432.9,22.4z"/>
</g>
<g>
	<path d="M310.6,43.3l3.8-10h1.4l4.1,10h-1.5l-1.2-3h-4.2l-1.1,3H310.6z M313.5,39.2h3.4l-1-2.8c-0.3-0.8-0.6-1.5-0.7-2.1
		c-0.1,0.6-0.3,1.3-0.5,1.9L313.5,39.2z"/>
	<path d="M323.5,42.2l0.2,1.1c-0.3,0.1-0.7,0.1-0.9,0.1c-0.4,0-0.8-0.1-1-0.2s-0.4-0.3-0.5-0.6s-0.2-0.7-0.2-1.5V37h-0.9v-1h0.9
		v-1.8l1.2-0.7v2.5h1.2v1h-1.2v4.2c0,0.4,0,0.6,0.1,0.7s0.1,0.2,0.2,0.2s0.2,0.1,0.4,0.1C323.1,42.3,323.3,42.3,323.5,42.2z"/>
	<path d="M327.4,42.2l0.2,1.1c-0.3,0.1-0.7,0.1-0.9,0.1c-0.4,0-0.8-0.1-1-0.2s-0.4-0.3-0.5-0.6s-0.2-0.7-0.2-1.5V37h-0.9v-1h0.9
		v-1.8l1.2-0.7v2.5h1.2v1h-1.2v4.2c0,0.4,0,0.6,0.1,0.7s0.1,0.2,0.2,0.2s0.2,0.1,0.4,0.1C327,42.3,327.2,42.3,327.4,42.2z"/>
	<path d="M328.6,43.3v-7.3h1.1v1.1c0.3-0.5,0.5-0.9,0.8-1s0.5-0.2,0.8-0.2c0.4,0,0.8,0.1,1.3,0.4l-0.4,1.1c-0.3-0.2-0.6-0.3-0.9-0.3
		c-0.3,0-0.5,0.1-0.7,0.2s-0.4,0.4-0.5,0.7c-0.1,0.4-0.2,0.9-0.2,1.4v3.8H328.6z"/>
	<path d="M333.3,34.7v-1.4h1.2v1.4H333.3z M333.3,43.3v-7.3h1.2v7.3H333.3z"/>
	<path d="M337.5,43.3h-1.1v-10h1.2v3.6c0.5-0.7,1.2-1,2-1c0.4,0,0.9,0.1,1.3,0.3s0.7,0.4,1,0.8s0.5,0.7,0.6,1.2s0.2,1,0.2,1.5
		c0,1.2-0.3,2.2-0.9,2.9s-1.4,1-2.2,1c-0.9,0-1.5-0.4-2-1.1V43.3z M337.5,39.6c0,0.9,0.1,1.5,0.4,1.9c0.4,0.6,0.9,1,1.6,1
		c0.5,0,1-0.2,1.4-0.7s0.6-1.2,0.6-2.1c0-0.9-0.2-1.6-0.6-2.1s-0.8-0.7-1.4-0.7c-0.5,0-1,0.2-1.4,0.7S337.5,38.8,337.5,39.6z"/>
	<path d="M349,43.3v-1.1c-0.6,0.8-1.3,1.2-2.3,1.2c-0.4,0-0.8-0.1-1.2-0.2s-0.6-0.4-0.8-0.6s-0.3-0.6-0.4-0.9
		c-0.1-0.2-0.1-0.6-0.1-1.1v-4.5h1.2v4c0,0.6,0,1.1,0.1,1.3c0.1,0.3,0.2,0.6,0.5,0.8s0.6,0.3,0.9,0.3s0.7-0.1,1-0.3s0.6-0.4,0.7-0.8
		s0.2-0.8,0.2-1.4v-3.9h1.2v7.3H349z"/>
	<path d="M354.7,42.2l0.2,1.1c-0.3,0.1-0.7,0.1-0.9,0.1c-0.4,0-0.8-0.1-1-0.2s-0.4-0.3-0.5-0.6s-0.2-0.7-0.2-1.5V37h-0.9v-1h0.9
		v-1.8l1.2-0.7v2.5h1.2v1h-1.2v4.2c0,0.4,0,0.6,0.1,0.7s0.1,0.2,0.2,0.2s0.2,0.1,0.4,0.1C354.3,42.3,354.4,42.3,354.7,42.2z"/>
	<path d="M360.8,41l1.3,0.2c-0.2,0.7-0.6,1.3-1.1,1.7s-1.2,0.6-2.1,0.6c-1.1,0-1.9-0.3-2.5-1s-0.9-1.6-0.9-2.8
		c0-1.2,0.3-2.2,0.9-2.8s1.4-1,2.4-1c1,0,1.8,0.3,2.4,1s0.9,1.6,0.9,2.8c0,0.1,0,0.2,0,0.3h-5.4c0,0.8,0.3,1.4,0.7,1.8
		s0.9,0.6,1.5,0.6c0.5,0,0.8-0.1,1.2-0.4S360.7,41.5,360.8,41z M356.8,39h4.1c-0.1-0.6-0.2-1.1-0.5-1.4c-0.4-0.5-0.9-0.7-1.5-0.7
		c-0.6,0-1,0.2-1.4,0.6S356.8,38.4,356.8,39z"/>
	<path d="M371.8,43.3h-1.2v-7.8c-0.3,0.3-0.7,0.6-1.2,0.8s-0.9,0.5-1.3,0.6v-1.2c0.7-0.3,1.3-0.7,1.8-1.2s0.9-0.9,1.1-1.3h0.8V43.3z
		"/>
	<path d="M381.6,46.3c-0.7-0.9-1.3-1.9-1.7-3s-0.7-2.3-0.7-3.6c0-1.1,0.2-2.1,0.5-3.1c0.4-1.2,1-2.3,1.9-3.4h0.9
		c-0.6,0.9-0.9,1.6-1.1,2c-0.3,0.6-0.5,1.3-0.7,2c-0.2,0.9-0.3,1.7-0.3,2.6c0,2.2,0.7,4.4,2,6.6H381.6z"/>
	<path d="M388.6,40.7l1.2,0.2c-0.1,0.8-0.5,1.5-1,2s-1.2,0.7-2,0.7c-1,0-1.8-0.3-2.4-1s-0.9-1.6-0.9-2.8c0-0.8,0.1-1.5,0.4-2.1
		s0.7-1,1.2-1.3s1.1-0.4,1.7-0.4c0.8,0,1.4,0.2,1.9,0.6s0.8,1,1,1.7l-1.2,0.2c-0.1-0.5-0.3-0.9-0.6-1.1s-0.6-0.4-1-0.4
		c-0.6,0-1.1,0.2-1.5,0.7s-0.6,1.1-0.6,2.1c0,1,0.2,1.7,0.6,2.1s0.9,0.7,1.5,0.7c0.5,0,0.9-0.1,1.2-0.4S388.5,41.3,388.6,40.7z"/>
	<path d="M390.4,39.7c0-1.3,0.4-2.3,1.1-3c0.6-0.5,1.4-0.8,2.3-0.8c1,0,1.8,0.3,2.4,1s1,1.6,1,2.7c0,0.9-0.1,1.7-0.4,2.2
		s-0.7,1-1.2,1.2s-1.1,0.4-1.8,0.4c-1,0-1.8-0.3-2.5-1S390.4,40.9,390.4,39.7z M391.7,39.7c0,0.9,0.2,1.6,0.6,2.1s0.9,0.7,1.5,0.7
		c0.6,0,1.1-0.2,1.5-0.7s0.6-1.2,0.6-2.1c0-0.9-0.2-1.6-0.6-2s-0.9-0.7-1.5-0.7c-0.6,0-1.1,0.2-1.5,0.7S391.7,38.8,391.7,39.7z"/>
	<path d="M398.6,43.3v-10h1.2v10H398.6z"/>
	<path d="M401.3,39.7c0-1.3,0.4-2.3,1.1-3c0.6-0.5,1.4-0.8,2.3-0.8c1,0,1.8,0.3,2.4,1s1,1.6,1,2.7c0,0.9-0.1,1.7-0.4,2.2
		s-0.7,1-1.2,1.2s-1.1,0.4-1.8,0.4c-1,0-1.8-0.3-2.5-1S401.3,40.9,401.3,39.7z M402.6,39.7c0,0.9,0.2,1.6,0.6,2.1s0.9,0.7,1.5,0.7
		c0.6,0,1.1-0.2,1.5-0.7s0.6-1.2,0.6-2.1c0-0.9-0.2-1.6-0.6-2s-0.9-0.7-1.5-0.7c-0.6,0-1.1,0.2-1.5,0.7S402.6,38.8,402.6,39.7z"/>
	<path d="M409.6,43.3v-7.3h1.1v1.1c0.3-0.5,0.5-0.9,0.8-1s0.5-0.2,0.8-0.2c0.4,0,0.8,0.1,1.3,0.4l-0.4,1.1c-0.3-0.2-0.6-0.3-0.9-0.3
		c-0.3,0-0.5,0.1-0.7,0.2s-0.4,0.4-0.5,0.7c-0.1,0.4-0.2,0.9-0.2,1.4v3.8H409.6z"/>
	<path d="M415,46.3h-0.9c1.4-2.2,2-4.4,2-6.6c0-0.9-0.1-1.7-0.3-2.5c-0.2-0.7-0.4-1.3-0.6-2c-0.2-0.4-0.5-1.1-1.1-2.1h0.9
		c0.9,1.1,1.5,2.3,1.9,3.4c0.4,1,0.5,2,0.5,3.1c0,1.2-0.2,2.4-0.7,3.6S415.7,45.4,415,46.3z"/>
</g>
<g>
	<path d="M226.6,174.3V160h1.9v14.3H226.6z"/>
	<path d="M231.6,174.3v-10.4h1.6v1.5c0.8-1.1,1.9-1.7,3.3-1.7c0.6,0,1.2,0.1,1.7,0.3s0.9,0.5,1.2,0.9c0.3,0.4,0.4,0.8,0.5,1.3
		c0.1,0.3,0.1,0.9,0.1,1.7v6.4h-1.8V168c0-0.7-0.1-1.3-0.2-1.6c-0.1-0.4-0.4-0.6-0.7-0.8c-0.3-0.2-0.8-0.3-1.2-0.3
		c-0.7,0-1.4,0.2-1.9,0.7c-0.5,0.5-0.8,1.4-0.8,2.7v5.7H231.6z"/>
	<path d="M242.7,178.3v-14.3h1.6v1.3c0.4-0.5,0.8-0.9,1.3-1.2s1.1-0.4,1.7-0.4c0.9,0,1.7,0.2,2.3,0.7c0.7,0.5,1.2,1.1,1.5,1.9
		s0.5,1.7,0.5,2.7c0,1.1-0.2,2-0.6,2.9s-0.9,1.5-1.7,2c-0.7,0.5-1.5,0.7-2.3,0.7c-0.6,0-1.1-0.1-1.6-0.4c-0.5-0.2-0.8-0.6-1.1-0.9v5
		H242.7z M244.3,169.2c0,1.3,0.3,2.3,0.8,3c0.5,0.6,1.2,1,2,1c0.8,0,1.5-0.3,2-1c0.6-0.7,0.8-1.7,0.8-3.1c0-1.3-0.3-2.3-0.8-3
		c-0.5-0.7-1.2-1-1.9-1c-0.7,0-1.4,0.3-2,1C244.6,166.8,244.3,167.8,244.3,169.2z"/>
	<path d="M260.6,174.3v-1.5c-0.8,1.2-1.9,1.8-3.3,1.8c-0.6,0-1.2-0.1-1.7-0.4s-0.9-0.5-1.2-0.9c-0.3-0.4-0.4-0.8-0.5-1.3
		c-0.1-0.3-0.1-0.9-0.1-1.6v-6.4h1.8v5.8c0,0.9,0,1.5,0.1,1.9c0.1,0.5,0.3,0.8,0.7,1.1s0.8,0.4,1.3,0.4s1-0.1,1.5-0.4
		c0.5-0.3,0.8-0.6,1-1.1c0.2-0.5,0.3-1.1,0.3-2v-5.6h1.8v10.4H260.6z"/>
	<path d="M268.8,172.7l0.3,1.6c-0.5,0.1-0.9,0.2-1.3,0.2c-0.6,0-1.1-0.1-1.5-0.3c-0.4-0.2-0.6-0.5-0.7-0.8c-0.1-0.3-0.2-1-0.2-2.1
		v-6H264v-1.4h1.3v-2.6l1.7-1.1v3.6h1.8v1.4H267v6.1c0,0.5,0,0.8,0.1,1c0.1,0.1,0.2,0.3,0.3,0.3c0.1,0.1,0.3,0.1,0.6,0.1
		C268.2,172.8,268.5,172.8,268.8,172.7z"/>
	<path d="M275.7,169.7l1.8-0.2c0.1,0.7,0.3,1.3,0.6,1.8s0.8,0.8,1.4,1.1s1.4,0.4,2.2,0.4c0.7,0,1.4-0.1,1.9-0.3s1-0.5,1.2-0.9
		c0.3-0.4,0.4-0.8,0.4-1.2c0-0.4-0.1-0.8-0.4-1.2c-0.3-0.3-0.7-0.6-1.3-0.8c-0.4-0.2-1.2-0.4-2.5-0.7c-1.3-0.3-2.2-0.6-2.8-0.9
		c-0.7-0.4-1.2-0.8-1.5-1.3c-0.3-0.5-0.5-1.1-0.5-1.8c0-0.7,0.2-1.4,0.6-2c0.4-0.6,1-1.1,1.8-1.4c0.8-0.3,1.7-0.5,2.6-0.5
		c1.1,0,2,0.2,2.8,0.5s1.4,0.8,1.9,1.5s0.7,1.4,0.7,2.3l-1.8,0.1c-0.1-0.9-0.4-1.6-1-2.1c-0.6-0.5-1.4-0.7-2.5-0.7
		c-1.1,0-2,0.2-2.5,0.6s-0.8,0.9-0.8,1.5c0,0.5,0.2,0.9,0.6,1.3c0.4,0.3,1.3,0.7,2.9,1c1.5,0.3,2.6,0.7,3.2,0.9
		c0.8,0.4,1.4,0.9,1.8,1.5c0.4,0.6,0.6,1.3,0.6,2c0,0.8-0.2,1.5-0.7,2.2s-1.1,1.2-1.9,1.6c-0.8,0.4-1.7,0.6-2.8,0.6
		c-1.3,0-2.4-0.2-3.3-0.6c-0.9-0.4-1.6-0.9-2.1-1.7C276,171.5,275.7,170.7,275.7,169.7z"/>
	<path d="M289.4,174.3V160h1.8v14.3H289.4z"/>
	<path d="M293.2,169.1c0-1.9,0.5-3.3,1.6-4.3c0.9-0.8,2-1.2,3.3-1.2c1.4,0,2.6,0.5,3.5,1.4c0.9,0.9,1.4,2.2,1.4,3.9
		c0,1.3-0.2,2.4-0.6,3.1c-0.4,0.8-1,1.4-1.7,1.8c-0.8,0.4-1.6,0.6-2.5,0.6c-1.5,0-2.6-0.5-3.5-1.4
		C293.7,172.2,293.2,170.9,293.2,169.1z M295,169.1c0,1.3,0.3,2.3,0.9,3c0.6,0.7,1.3,1,2.2,1c0.9,0,1.6-0.3,2.2-1s0.9-1.7,0.9-3
		c0-1.3-0.3-2.3-0.9-2.9c-0.6-0.7-1.3-1-2.2-1c-0.9,0-1.6,0.3-2.2,1C295.3,166.8,295,167.8,295,169.1z"/>
	<path d="M308.8,172.7l0.3,1.6c-0.5,0.1-0.9,0.2-1.3,0.2c-0.6,0-1.1-0.1-1.5-0.3c-0.4-0.2-0.6-0.5-0.7-0.8c-0.1-0.3-0.2-1-0.2-2.1
		v-6H304v-1.4h1.3v-2.6l1.7-1.1v3.6h1.8v1.4h-1.8v6.1c0,0.5,0,0.8,0.1,1c0.1,0.1,0.2,0.3,0.3,0.3c0.1,0.1,0.3,0.1,0.6,0.1
		C308.3,172.8,308.5,172.8,308.8,172.7z"/>
	<path d="M309.8,171.2l1.7-0.3c0.1,0.7,0.4,1.2,0.8,1.6s1.1,0.6,1.9,0.6c0.8,0,1.4-0.2,1.8-0.5c0.4-0.3,0.6-0.7,0.6-1.2
		c0-0.4-0.2-0.7-0.5-0.9c-0.2-0.2-0.8-0.4-1.8-0.6c-1.3-0.3-2.2-0.6-2.7-0.8c-0.5-0.2-0.9-0.6-1.1-1s-0.4-0.9-0.4-1.4
		c0-0.5,0.1-0.9,0.3-1.3c0.2-0.4,0.5-0.7,0.9-1c0.3-0.2,0.6-0.4,1.1-0.5c0.5-0.1,1-0.2,1.5-0.2c0.8,0,1.5,0.1,2.1,0.4s1.1,0.6,1.4,1
		s0.5,0.9,0.6,1.6l-1.7,0.2c-0.1-0.5-0.3-1-0.7-1.3c-0.4-0.3-0.9-0.4-1.6-0.4c-0.8,0-1.4,0.1-1.7,0.4c-0.3,0.3-0.5,0.6-0.5,0.9
		c0,0.2,0.1,0.4,0.2,0.6c0.1,0.2,0.4,0.3,0.7,0.5c0.2,0.1,0.7,0.2,1.6,0.4c1.2,0.3,2.1,0.6,2.6,0.8c0.5,0.2,0.9,0.5,1.2,0.9
		c0.3,0.4,0.4,0.9,0.4,1.5c0,0.6-0.2,1.1-0.5,1.7s-0.8,0.9-1.5,1.2s-1.4,0.4-2.2,0.4c-1.3,0-2.4-0.3-3.1-0.8
		C310.5,173.1,310,172.3,309.8,171.2z"/>
</g>
</svg>
