<?xml version="1.0" encoding="utf-8"?>
<!-- Generator: Adobe Illustrator 23.0.3, SVG Export Plug-In . SVG Version: 6.00 Build 0)  -->
<svg version="1.1" id="Layer_1" xmlns="http://www.w3.org/2000/svg" xmlns:xlink="http://www.w3.org/1999/xlink" x="0px" y="0px"
	 viewBox="0 0 605.2 405.6" style="enable-background:new 0 0 605.2 405.6;" xml:space="preserve">
<style type="text/css">
	.st0{fill:#FFFFFF;stroke:#808285;stroke-width:2;stroke-miterlimit:10;}
	.st1{fill:#FFFFFF;stroke:#231F20;stroke-width:3;stroke-miterlimit:10;}
	.st2{fill:none;}
	.st3{fill:none;stroke:#231F20;stroke-width:3;stroke-miterlimit:10;}
	.st4{fill:#231F20;}
	.st5{fill:none;stroke:#231F20;stroke-width:8;stroke-linejoin:round;}
	.st6{fill:none;stroke:#231F20;stroke-width:8;stroke-linejoin:round;stroke-dasharray:8.49,59.46;}
	.st7{enable-background:new    ;}
</style>
<title>volume-rendering-raymarching</title>
<rect x="106.2" y="4.9" class="st0" width="100" height="100"/>
<rect x="205.9" y="4.9" class="st0" width="100" height="100"/>
<rect x="106.2" y="104.5" class="st0" width="100" height="100"/>
<rect x="205.9" y="104.5" class="st0" width="100" height="100"/>
<rect x="305.7" y="4.9" class="st0" width="100" height="100"/>
<rect x="405.4" y="4.9" class="st0" width="100" height="100"/>
<rect x="305.7" y="104.5" class="st0" width="100" height="100"/>
<rect x="405.4" y="104.5" class="st0" width="100" height="100"/>
<rect x="106.2" y="205" class="st0" width="100" height="100"/>
<rect x="205.9" y="205" class="st0" width="100" height="100"/>
<rect x="106.2" y="304.6" class="st0" width="100" height="100"/>
<rect x="205.9" y="304.6" class="st0" width="100" height="100"/>
<rect x="305.7" y="205" class="st0" width="100" height="100"/>
<rect x="405.4" y="205" class="st0" width="100" height="100"/>
<rect x="305.7" y="304.6" class="st0" width="100" height="100"/>
<rect x="405.4" y="304.6" class="st0" width="100" height="100"/>
<polyline class="st1" points="15.9,70.2 1.8,17.3 51,1.4 "/>
<ellipse class="st1" cx="17.9" cy="26.2" rx="13" ry="13.5"/>
<line class="st2" x1="505.8" y1="339.8" x2="605.2" y2="403.5"/>
<line class="st3" x1="505.8" y1="339.8" x2="590" y2="393.7"/>
<path class="st4" d="M605.2,403.5c-8.9-1.9-20.7-3.1-29.3-1.8l12-9.2l3.3-14.8C593.7,386,599.7,396.2,605.2,403.5z"/>
<line class="st2" x1="105.6" y1="83.5" x2="505.8" y2="339.8"/>
<line class="st5" x1="105.6" y1="83.5" x2="109" y2="85.7"/>
<line class="st6" x1="159.1" y1="117.7" x2="477.4" y2="321.6"/>
<line class="st5" x1="502.4" y1="337.6" x2="505.8" y2="339.8"/>
<line class="st3" x1="34.6" y1="38" x2="105.6" y2="83.5"/>
<path class="st4" d="M146,89.7c-1.7,2.5,1.2,4.9,3.5,6.4c2,1.3,4,2.4,6.1,3.6s4.2,2.3,6.1,3.6c7.3,4.8,8.5,8.8,6.6,11.7l-0.5,0.8
	l-4-2.6l0.4-0.6c1.2-2-0.4-4.3-4.4-7c-1.7-1.2-3.5-2.1-5.4-3.2s-3.8-2-5.7-3.3c-4.6-3.1-6.5-5.7-6.2-7.8l-0.1-0.1
	c-1.9,1-4.9,0.5-9.5-2.6c-2-1.3-3.6-2.6-5.3-3.9c-1.7-1.3-3.3-2.5-5-3.6c-3.9-2.6-6.7-3.3-8.1-1.3l-0.4,0.7l-4-2.6l0.5-0.7
	c2-3,6.3-3.3,12.9,1.1c2,1.3,3.9,2.8,5.8,4.3c1.9,1.5,3.9,3,5.9,4.3c2.5,1.7,5.6,3.2,7.3,0.7L146,89.7z"/>
<g class="st7">
	<path class="st4" d="M130.8,78.2l0-0.4c1.2-0.7,4.3-2.9,9.2-6.4c5-3.6,8.4-6.1,10.3-7.6l0.7,0.4c-0.3,1.4-0.8,5.3-1.6,11.7
		c-0.8,6.4-1.2,10.4-1.2,12.1l-0.3,0.2c-2.2-1.4-4.9-3-8.3-5C135.7,80.9,132.7,79.2,130.8,78.2z M145.3,85.1
		c1-5.7,1.9-11.7,2.6-17.9l-0.2-0.1c-3.3,2.4-5.8,4.3-7.7,5.8c-1.9,1.5-4.1,3.2-6.6,5.3L145.3,85.1z"/>
</g>
<g class="st7">
	<path class="st4" d="M149.4,88.4c1.1-1.2,2-2.3,2.5-3.1l0.2,0l0.5,0.3l0,0.2l-1.3,2.2c0.4,1.2,1.1,2,2,2.6c0.4,0.3,0.9,0.4,1.4,0.5
		c0.5,0.1,0.9,0.1,1.3,0c0.4-0.1,0.8-0.3,1.2-0.6c0.4-0.3,0.7-0.7,1-1.1c0.2-0.3,0.3-0.6,0.3-0.9c0-0.3,0-0.7-0.2-1
		c-0.2-0.3-0.6-0.8-1.3-1.4c-0.7-0.6-1.2-1.1-1.5-1.3c-0.3-0.3-0.5-0.6-0.7-1.1c-0.2-0.4-0.3-0.9-0.2-1.3c0-0.5,0.2-0.9,0.4-1.4
		c0.3-0.6,0.8-1.1,1.4-1.4c0.6-0.3,1.3-0.5,2.1-0.6c0.8-0.1,1.6-0.1,2.4-0.1c0.8,0.1,1.5,0.3,2.2,0.7c1.1,0.6,1.8,1.3,2.3,2.2l0,0.2
		c-0.5,0.4-0.8,0.8-1.1,1.2l-1,1.4l-0.2,0l-0.4-0.2l-0.1-0.2c0.3-0.5,0.6-1.1,0.9-1.6c-0.2-1.1-0.9-1.9-1.9-2.5
		c-0.8-0.5-1.7-0.6-2.5-0.4c-0.8,0.2-1.4,0.6-1.8,1.3c-0.3,0.6-0.4,1.1-0.3,1.6c0.2,0.5,0.7,1.1,1.5,1.8c0.8,0.6,1.3,1.1,1.6,1.4
		c0.3,0.3,0.6,0.6,0.7,1c0.2,0.4,0.3,0.8,0.2,1.2s-0.2,0.9-0.4,1.3c-0.3,0.5-0.7,0.9-1.1,1.3c-0.5,0.4-1,0.6-1.6,0.8
		c-0.6,0.2-1.3,0.3-2.2,0.4c-0.9,0.1-1.7,0-2.3-0.1c-0.6-0.1-1.2-0.4-1.7-0.7c-0.9-0.5-1.7-1.3-2.4-2.4L149.4,88.4z"/>
</g>
<g class="st7">
	<path class="st4" d="M88.9,97.6l-0.1,0.3l-0.5,0.4c-1.5,0.1-2.9-0.2-4.3-1c-1-0.6-1.7-1.3-2.2-2.1c-0.5-0.8-0.7-1.6-0.6-2.5
		c0.1-0.9,0.4-1.8,0.9-2.8c0.5-0.8,1-1.5,1.6-2c0.6-0.6,1.3-1,1.9-1.3c0.7-0.3,1.4-0.5,2.2-0.5c0.8-0.1,1.5-0.1,2.2,0.1
		c0.7,0.1,1.4,0.4,2.1,0.8c1.1,0.7,2.1,1.5,2.8,2.4l0,0.1c-0.4,0.4-0.9,1-1.6,1.9l-0.1,0l-0.3-0.2l0-0.1c0.4-0.7,0.6-1.1,0.7-1.2
		c-0.3-0.9-1.1-1.7-2.2-2.4c-0.5-0.3-1-0.5-1.5-0.6c-0.5-0.1-1-0.2-1.5-0.1c-0.5,0.1-1,0.2-1.5,0.5c-0.5,0.3-1.1,0.7-1.6,1.2
		c-0.5,0.5-1,1.1-1.4,1.9c-0.8,1.4-1.1,2.6-0.8,3.7c0.3,1.1,1,2,2.1,2.6C86.1,97.4,87.4,97.7,88.9,97.6z M94.5,87.5l-0.4-0.2
		l-0.4-2.6l-3.2,0.5L90,84.9l0-0.1l3.8-1.1l0.8,0.5l-0.1,3.2L94.5,87.5z"/>
	<path class="st4" d="M89.3,99.4c0.4-0.7,0.9-1.3,1.5-1.9c0.6-0.6,1.2-0.9,1.9-1.1c0.6-0.1,1.2-0.1,1.7,0.2c0.3,0.2,0.6,0.5,0.7,0.8
		c0.2,0.3,0.2,0.7,0.2,1.1c-0.1,0.4-0.2,0.8-0.5,1.3c-0.4,0.8-1,1.4-1.6,2c-0.6,0.6-1.3,0.9-1.9,1c-0.6,0.1-1.2,0.1-1.6-0.2
		c-0.5-0.3-0.8-0.7-0.9-1.3C88.7,100.8,88.9,100.2,89.3,99.4z M89.8,100.4c-0.5,0.9-0.5,1.5,0.1,1.9c0.2,0.1,0.5,0.2,0.8,0.1
		c0.3-0.1,0.7-0.3,1.1-0.6c0.4-0.3,0.9-0.8,1.3-1.4c0.5-0.6,0.8-1.1,1.1-1.6c0.3-0.4,0.4-0.8,0.3-1.1c0-0.3-0.2-0.5-0.5-0.7
		c-0.3-0.2-0.7-0.2-1.1,0c-0.4,0.1-1,0.6-1.7,1.4C90.7,99.1,90.2,99.8,89.8,100.4z"/>
	<path class="st4" d="M92.4,104.8l0-0.2c0.4-0.1,0.9-0.4,1.5-0.8c0.6-0.4,1.3-1,2-1.8c0.7,0.2,1.3,0.3,1.7,0.4l0,0.3
		c-0.5,0.4-1.3,0.8-2.2,1.3s-1.7,0.8-2.3,1L92.4,104.8z"/>
	<path class="st4" d="M107,108.2l0.1,0.1l0,0.1l0,0.1c-1.6,0.5-2.6,0.5-3.1,0.3c-0.3-0.2-0.4-0.4-0.3-0.7c0.1-0.3,0.4-1,0.9-1.9
		l0-0.1c-1,0.3-1.9,0.5-2.8,0.6c-0.9,0-1.6-0.1-2.2-0.5c-0.9-0.5-1-1.3-0.4-2.5c0.3-0.5,0.8-1.1,1.5-1.7s1.5-1.1,2.3-1.4
		c0.8-0.4,1.6-0.5,2.3-0.5c0.7,0,1.4,0.2,1.9,0.5c0.3,0.2,0.5,0.4,0.7,0.6c0.1,0.2,0.2,0.4,0.2,0.7c0,0.3-0.1,0.5-0.2,0.9
		c-0.1,0.3-0.4,0.8-0.8,1.5c0,0.1-0.1,0.2-0.3,0.5l0.1,0.1c0.6-0.3,1.3-0.7,1.9-1.1c0.6-0.4,1.1-0.8,1.4-1.2l0.2,0.1
		c0,0.3,0,0.6-0.1,0.9c-1.1,0.7-2.4,1.3-3.8,1.9c-0.2,0.4-0.5,0.9-0.7,1.4c-0.3,0.6-0.4,0.9-0.3,1.1c0,0.2,0.1,0.3,0.2,0.3
		c0.1,0.1,0.3,0.1,0.5,0.1C106.2,108.4,106.5,108.3,107,108.2z M104.8,105.6c0.1-0.2,0.2-0.4,0.3-0.4c0.5-0.8,0.9-1.6,1.1-2.2
		c0.3-0.6,0.4-1.1,0.4-1.5s-0.2-0.6-0.5-0.8c-0.2-0.1-0.4-0.2-0.7-0.2c-0.3,0-0.6,0.1-1,0.2c-0.4,0.1-0.8,0.4-1.4,0.7
		c-0.5,0.3-1,0.7-1.5,1.2c-0.5,0.5-0.8,0.9-1.1,1.4c-0.3,0.4-0.4,0.8-0.4,1.1c0,0.3,0.2,0.6,0.6,0.8c0.5,0.3,1.1,0.3,1.8,0.3
		C103.2,106.1,104,105.9,104.8,105.6z"/>
	<path class="st4" d="M107.3,109.9c0.4-0.7,0.9-1.3,1.5-1.9c0.6-0.6,1.2-0.9,1.9-1.1c0.6-0.1,1.2-0.1,1.7,0.2
		c0.3,0.2,0.6,0.5,0.7,0.8c0.2,0.3,0.2,0.7,0.2,1.1c-0.1,0.4-0.2,0.8-0.5,1.3c-0.4,0.8-1,1.4-1.6,2c-0.6,0.6-1.3,0.9-1.9,1
		s-1.2,0.1-1.6-0.2c-0.5-0.3-0.8-0.7-0.9-1.3C106.7,111.3,106.9,110.6,107.3,109.9z M107.9,110.9c-0.5,0.9-0.5,1.5,0.1,1.9
		c0.2,0.1,0.5,0.2,0.8,0.1c0.3-0.1,0.7-0.3,1.1-0.6s0.9-0.8,1.3-1.4c0.5-0.6,0.8-1.1,1.1-1.6c0.3-0.4,0.4-0.8,0.3-1.1
		c0-0.3-0.2-0.5-0.5-0.7c-0.3-0.2-0.7-0.2-1.1,0c-0.4,0.1-1,0.6-1.7,1.4C108.7,109.6,108.2,110.3,107.9,110.9z"/>
</g>
<g class="st7">
	<path class="st4" d="M142.9,133l-0.1,0.3l-0.5,0.4c-1.5,0.1-2.9-0.2-4.3-1c-1-0.6-1.7-1.3-2.2-2.1c-0.5-0.8-0.7-1.6-0.6-2.5
		c0.1-0.9,0.4-1.8,0.9-2.8c0.5-0.8,1-1.5,1.6-2c0.6-0.6,1.3-1,1.9-1.2c0.7-0.3,1.4-0.5,2.2-0.5c0.8-0.1,1.5-0.1,2.2,0.1
		c0.7,0.1,1.4,0.4,2.1,0.8c1.1,0.7,2.1,1.5,2.8,2.4l0,0.1c-0.4,0.4-0.9,1-1.6,1.9l-0.1,0l-0.3-0.2l0-0.1c0.4-0.7,0.6-1.1,0.7-1.2
		c-0.3-0.9-1.1-1.7-2.2-2.4c-0.5-0.3-1-0.5-1.5-0.6c-0.5-0.1-1-0.2-1.5-0.1c-0.5,0.1-1,0.2-1.5,0.5c-0.5,0.3-1.1,0.7-1.6,1.2
		c-0.5,0.5-1,1.1-1.4,1.9c-0.8,1.4-1.1,2.6-0.8,3.7s1,2,2.1,2.6C140.1,132.8,141.4,133,142.9,133z M148.5,122.8l-0.4-0.2l-0.4-2.6
		l-3.2,0.5l-0.4-0.3l0-0.1l3.8-1.1l0.8,0.5l-0.1,3.2L148.5,122.8z"/>
	<path class="st4" d="M142.7,137.3l0-0.1l0.2-0.2l0.1,0c0.5,0.2,0.8,0.4,0.9,0.4c0.1,0,0.2,0,0.2,0c0.1,0,0.1,0,0.2-0.1
		c0.1-0.1,0.4-0.4,1-1l1.6-1.8l1.3-1.6c-0.3-0.1-1-0.2-2.1-0.3l-0.1-0.1l0.5-0.5c0.2,0.1,0.6,0.2,1.2,0.3c0.6,0.2,1.2,0.3,1.8,0.3
		l0.1,0.3c-0.4,0.5-1.2,1.4-2.4,2.7s-1.8,2.1-1.9,2.3c-0.1,0.1-0.1,0.2,0,0.3c0.1,0.1,0.3,0.2,0.6,0.5c0.2,0.1,0.3,0.2,0.4,0.3
		l0,0.1l-0.2,0.2l-0.1,0c-0.5-0.3-1-0.7-1.7-1C143.5,137.7,143,137.4,142.7,137.3z"/>
	<path class="st4" d="M146.4,140.1l0-0.2c0.4-0.1,0.9-0.4,1.5-0.8c0.6-0.4,1.3-1,2-1.8c0.7,0.2,1.3,0.3,1.7,0.4l0,0.3
		c-0.5,0.4-1.3,0.8-2.2,1.3s-1.7,0.8-2.3,1L146.4,140.1z"/>
	<path class="st4" d="M161,143.6l0.1,0.1l0,0.1l0,0.1c-1.6,0.5-2.6,0.5-3.1,0.3c-0.3-0.2-0.4-0.4-0.3-0.7c0.1-0.3,0.4-1,0.9-1.9
		l0-0.1c-1,0.3-1.9,0.5-2.8,0.6c-0.9,0-1.6-0.1-2.2-0.5c-0.9-0.5-1-1.3-0.4-2.5c0.3-0.5,0.8-1.1,1.5-1.7c0.7-0.6,1.5-1.1,2.3-1.4
		c0.8-0.4,1.6-0.5,2.3-0.5c0.7,0,1.4,0.2,1.9,0.5c0.3,0.2,0.5,0.4,0.7,0.6c0.1,0.2,0.2,0.4,0.2,0.7c0,0.3-0.1,0.5-0.2,0.9
		s-0.4,0.8-0.8,1.5c0,0.1-0.1,0.2-0.3,0.5l0.1,0.1c0.6-0.3,1.3-0.7,1.9-1.1c0.6-0.4,1.1-0.8,1.4-1.2l0.2,0.1c0,0.3,0,0.6-0.1,0.9
		c-1.1,0.7-2.4,1.3-3.8,1.9c-0.2,0.4-0.5,0.9-0.7,1.4c-0.3,0.6-0.4,0.9-0.3,1.1c0,0.2,0.1,0.3,0.2,0.3c0.1,0.1,0.3,0.1,0.5,0.1
		C160.2,143.7,160.5,143.7,161,143.6z M158.8,140.9c0.1-0.2,0.2-0.4,0.3-0.4c0.5-0.8,0.9-1.6,1.1-2.2c0.3-0.6,0.4-1.1,0.4-1.5
		s-0.2-0.6-0.5-0.8c-0.2-0.1-0.4-0.2-0.7-0.2c-0.3,0-0.6,0.1-1,0.2c-0.4,0.1-0.8,0.4-1.4,0.7c-0.5,0.3-1,0.7-1.5,1.2
		c-0.5,0.5-0.8,0.9-1.1,1.4c-0.3,0.4-0.4,0.8-0.4,1.1c0,0.3,0.2,0.6,0.6,0.8c0.5,0.3,1.1,0.3,1.8,0.3
		C157.2,141.5,158,141.2,158.8,140.9z"/>
	<path class="st4" d="M160.7,147.7l0-0.1l0.2-0.2l0.1,0c0.5,0.2,0.8,0.4,0.9,0.4c0.1,0,0.2,0,0.2,0c0.1,0,0.1,0,0.2-0.1
		c0.1-0.1,0.4-0.4,1-1l1.6-1.8l1.3-1.6c-0.3-0.1-1-0.2-2.1-0.3l-0.1-0.1l0.5-0.5c0.2,0.1,0.6,0.2,1.2,0.3c0.6,0.2,1.2,0.3,1.8,0.3
		l0.1,0.3c-0.4,0.5-1.2,1.4-2.4,2.7s-1.8,2.1-1.9,2.3c-0.1,0.1-0.1,0.2,0,0.3c0.1,0.1,0.3,0.2,0.6,0.5c0.2,0.1,0.3,0.2,0.4,0.3
		l0,0.1l-0.2,0.2l-0.1,0c-0.5-0.3-1-0.7-1.7-1C161.5,148.1,161,147.9,160.7,147.7z"/>
</g>
<g class="st7">
	<path class="st4" d="M218.8,141.5l-0.1,0.3l-0.5,0.4c-1.5,0.1-2.9-0.2-4.3-1c-1-0.6-1.7-1.3-2.2-2.1c-0.5-0.8-0.7-1.6-0.6-2.5
		c0.1-0.9,0.4-1.8,0.9-2.8c0.5-0.8,1-1.5,1.6-2c0.6-0.6,1.3-1,1.9-1.2c0.7-0.3,1.4-0.5,2.2-0.5c0.8-0.1,1.5-0.1,2.2,0.1
		s1.4,0.4,2.1,0.8c1.1,0.7,2.1,1.5,2.8,2.4l0,0.1c-0.4,0.4-0.9,1-1.6,1.9l-0.1,0l-0.3-0.2l0-0.1c0.4-0.7,0.6-1.1,0.7-1.2
		c-0.3-0.9-1.1-1.7-2.2-2.4c-0.5-0.3-1-0.5-1.5-0.6c-0.5-0.1-1-0.2-1.5-0.1c-0.5,0.1-1,0.2-1.5,0.5s-1.1,0.7-1.6,1.2
		c-0.5,0.5-1,1.1-1.4,1.9c-0.8,1.4-1.1,2.6-0.8,3.7c0.3,1.1,1,2,2.1,2.6C216,141.3,217.3,141.6,218.8,141.5z M224.4,131.4l-0.4-0.2
		l-0.4-2.6l-3.2,0.5l-0.4-0.3l0-0.1l3.8-1.1l0.8,0.5l-0.1,3.2L224.4,131.4z"/>
	<path class="st4" d="M218,145.5l0-0.1l0.1-0.2c2-0.5,3.4-1,4.2-1.4s1.3-0.8,1.6-1.3c0.2-0.3,0.2-0.6,0.1-0.8
		c-0.1-0.3-0.3-0.5-0.6-0.7c-0.5-0.3-1.1-0.3-1.8,0.2l-0.1,0l-0.1-0.2l0-0.1l1.2-0.7c0.5,0,1.1,0.1,1.5,0.3c0.5,0.3,0.8,0.6,0.9,1.1
		c0.2,0.4,0.1,0.9-0.2,1.4c-0.2,0.3-0.4,0.5-0.7,0.8c-0.3,0.2-0.6,0.4-1.1,0.6c-0.4,0.2-1.1,0.4-2.1,0.6c-0.6,0.1-1,0.3-1.3,0.4
		l-0.3,0.1l1.8,1c0.5,0.3,0.9,0.5,1.2,0.6l0,0.2c-0.2,0.2-0.4,0.4-0.5,0.6l-0.1,0c-0.7-0.4-1.3-0.8-1.8-1.1l-1.2-0.7
		C218.4,145.7,218.1,145.5,218,145.5z"/>
	<path class="st4" d="M222.3,148.7l0-0.2c0.4-0.1,0.9-0.4,1.5-0.8s1.3-1,2-1.8c0.7,0.2,1.3,0.3,1.7,0.4l0,0.3
		c-0.5,0.4-1.3,0.8-2.2,1.3s-1.7,0.8-2.3,1L222.3,148.7z"/>
	<path class="st4" d="M236.9,152.1l0.1,0.1l0,0.1l0,0.1c-1.6,0.5-2.6,0.5-3.1,0.3c-0.3-0.2-0.4-0.4-0.3-0.7c0.1-0.3,0.4-1,0.9-1.9
		l0-0.1c-1,0.3-1.9,0.5-2.8,0.6c-0.9,0-1.6-0.1-2.2-0.5c-0.9-0.5-1-1.3-0.4-2.5c0.3-0.5,0.8-1.1,1.5-1.7s1.5-1.1,2.3-1.4
		c0.8-0.4,1.6-0.5,2.3-0.5s1.4,0.2,1.9,0.5c0.3,0.2,0.5,0.4,0.7,0.6c0.1,0.2,0.2,0.4,0.2,0.7c0,0.3-0.1,0.5-0.2,0.9
		c-0.1,0.3-0.4,0.8-0.8,1.5c0,0.1-0.1,0.2-0.3,0.5l0.1,0.1c0.6-0.3,1.3-0.7,1.9-1.1c0.6-0.4,1.1-0.8,1.4-1.2l0.2,0.1
		c0,0.3,0,0.6-0.1,0.9c-1.1,0.7-2.4,1.3-3.8,1.9c-0.2,0.4-0.5,0.9-0.7,1.4c-0.3,0.6-0.4,0.9-0.3,1.1c0,0.2,0.1,0.3,0.2,0.3
		c0.1,0.1,0.3,0.1,0.5,0.1C236.1,152.3,236.4,152.2,236.9,152.1z M234.7,149.5c0.1-0.2,0.2-0.4,0.3-0.4c0.5-0.8,0.9-1.6,1.1-2.2
		c0.3-0.6,0.4-1.1,0.4-1.5s-0.2-0.6-0.5-0.8c-0.2-0.1-0.4-0.2-0.7-0.2c-0.3,0-0.6,0.1-1,0.2c-0.4,0.1-0.8,0.4-1.4,0.7
		c-0.5,0.3-1,0.7-1.5,1.2c-0.5,0.5-0.8,0.9-1.1,1.4c-0.3,0.4-0.4,0.8-0.4,1.1c0,0.3,0.2,0.6,0.6,0.8c0.5,0.3,1.1,0.3,1.8,0.3
		C233.1,150,233.9,149.8,234.7,149.5z"/>
	<path class="st4" d="M236,155.9l0-0.1l0.1-0.2c2-0.5,3.4-1,4.2-1.4s1.3-0.8,1.6-1.3c0.2-0.3,0.2-0.6,0.1-0.8
		c-0.1-0.3-0.3-0.5-0.6-0.7c-0.5-0.3-1.1-0.3-1.8,0.2l-0.1,0l-0.1-0.2l0-0.1l1.2-0.7c0.5,0,1.1,0.1,1.5,0.3c0.5,0.3,0.8,0.6,0.9,1.1
		c0.2,0.4,0.1,0.9-0.2,1.4c-0.2,0.3-0.4,0.5-0.7,0.8c-0.3,0.2-0.6,0.4-1.1,0.6c-0.4,0.2-1.1,0.4-2.1,0.6c-0.6,0.1-1,0.3-1.3,0.4
		l-0.3,0.1l1.8,1c0.5,0.3,0.9,0.5,1.2,0.6l0,0.2c-0.2,0.2-0.4,0.4-0.5,0.6l-0.1,0c-0.7-0.4-1.3-0.8-1.8-1.1l-1.2-0.7
		C236.4,156.1,236.1,156,236,155.9z"/>
</g>
</svg>
