<svg id="Layer_1" data-name="Layer 1" xmlns="http://www.w3.org/2000/svg" viewBox="0 0 711.7 450.67"><defs><style>.cls-1{fill:#fff;}.cls-1,.cls-3{stroke:#231f20;}.cls-1,.cls-10,.cls-11,.cls-12,.cls-13,.cls-3,.cls-6,.cls-7,.cls-9{stroke-miterlimit:10;stroke-width:3px;}.cls-10,.cls-11,.cls-12,.cls-2,.cls-3,.cls-6,.cls-7,.cls-9{fill:none;}.cls-4{fill:#231f20;}.cls-5{fill:#00aeef;}.cls-10,.cls-11,.cls-12,.cls-6,.cls-7,.cls-9{stroke:#939598;}.cls-7{stroke-dasharray:12.44 12.44;}.cls-8{fill:#939598;}.cls-9{stroke-dasharray:11.04 11.04;}.cls-10{stroke-dasharray:13.03 13.03;}.cls-11{stroke-dasharray:12.77 12.77;}.cls-12{stroke-dasharray:11.84 11.84;}.cls-13{fill:#ffde17;stroke:#ffde17;}</style></defs><title>volume-rendering-cloud</title><path class="cls-1" d="M312.25,179.94C251,191.87,205.74,234.37,205.74,285c0,36,23,68,58.33,87.68" transform="translate(-7.46 -6.35)"/><path class="cls-1" d="M543.51,135c-25.21-16.7-58.9-26.91-95.9-26.91-63.75,0-117.64,30.28-135.36,71.9" transform="translate(-7.46 -6.35)"/><path class="cls-1" d="M417.27,445.18A163.93,163.93,0,0,0,475,455.52c29.15,0,56.23-7.41,78.74-20.12" transform="translate(-7.46 -6.35)"/><path class="cls-1" d="M660.86,282.7A85.93,85.93,0,0,0,675,235.93c0-55.85-55.8-101.13-124.63-101.13-2.28,0-4.56,0-6.82.15" transform="translate(-7.46 -6.35)"/><path class="cls-1" d="M553.76,435.4A165.2,165.2,0,0,0,580,437.48c67,0,121.41-39.69,121.41-88.65,0-26.29-15.67-49.89-40.55-66.13" transform="translate(-7.46 -6.35)"/><path class="cls-1" d="M264.07,372.66a37.47,37.47,0,0,0-1.15,9.14c0,36.46,54,66,120.57,66a214.85,214.85,0,0,0,33.78-2.63" transform="translate(-7.46 -6.35)"/><polyline class="cls-1" points="42.81 350.33 2.09 304.75 45.13 263.73"/><circle class="cls-1" cx="23.09" cy="305.39" r="15"/><path class="cls-2" d="M551.9,64" transform="translate(-7.46 -6.35)"/><path class="cls-2" d="M518.47,213.82" transform="translate(-7.46 -6.35)"/><line class="cls-3" x1="68.77" y1="304.45" x2="711.62" y2="269.7"/><path class="cls-4" d="M58.15,311.78c8.68,2.7,19.52,7.52,26.38,12.87l-5.93-14L83,296.16C76.75,302.21,66.49,308.17,58.15,311.78Z" transform="translate(-7.46 -6.35)"/><circle class="cls-5" cx="389.62" cy="286.6" r="10"/><line class="cls-6" x1="402.28" y1="263.82" x2="405.44" y2="258.72"/><line class="cls-7" x1="411.99" y1="248.14" x2="539.66" y2="41.9"/><line class="cls-6" x1="542.93" y1="36.61" x2="546.09" y2="31.51"/><path class="cls-8" d="M400.22,285.57c7.17-5.58,17.32-11.73,25.63-14.3L411,268.15l-9.41-11.9C403,264.83,402,276.66,400.22,285.57Z" transform="translate(-7.46 -6.35)"/><circle class="cls-5" cx="492.88" cy="281.17" r="10"/><line class="cls-6" x1="500.79" y1="307.46" x2="503.4" y2="312.86"/><line class="cls-9" x1="508.22" y1="322.79" x2="544.38" y2="397.32"/><polyline class="cls-6" points="546.79 402.29 549.4 407.69 544.09 404.9"/><line class="cls-10" x1="532.56" y1="398.84" x2="423" y2="341.25"/><polyline class="cls-6" points="417.24 338.22 411.93 335.43 417.84 336.44"/><line class="cls-11" x1="430.43" y1="338.58" x2="600.33" y2="367.52"/><polyline class="cls-6" points="606.62 368.6 612.53 369.6 611.52 363.69"/><line class="cls-12" x1="609.51" y1="352.02" x2="558.31" y2="54.35"/><line class="cls-6" x1="557.3" y1="48.52" x2="556.28" y2="42.6"/><path class="cls-8" d="M500.35,297.52c.87,9.05.63,20.91-1.65,29.3L509.29,316l15.08-1.58C516.37,311,506.91,303.81,500.35,297.52Z" transform="translate(-7.46 -6.35)"/><polygon class="cls-13" points="575.4 43.83 556.28 42.6 544.44 57.66 539.7 39.1 521.72 32.48 537.9 22.24 538.64 3.1 553.38 15.32 571.82 10.11 564.75 27.91 575.4 43.83"/></svg>