<?xml version="1.0" encoding="utf-8"?>
<!-- Generator: Adobe Illustrator 23.0.3, SVG Export Plug-In . SVG Version: 6.00 Build 0)  -->
<svg version="1.1" id="Layer_1" xmlns="http://www.w3.org/2000/svg" xmlns:xlink="http://www.w3.org/1999/xlink" x="0px" y="0px"
	 viewBox="0 0 815.7 297.4" style="enable-background:new 0 0 815.7 297.4;" xml:space="preserve">
<style type="text/css">
	.st0{fill:#FFFFFF;}
	.st1{fill:none;stroke:#6D6E71;stroke-width:2;stroke-miterlimit:10;}
	.st2{fill:none;stroke:#6D6E71;stroke-width:2;stroke-miterlimit:10;stroke-dasharray:11.9,11.9;}
	.st3{fill:none;stroke:#6D6E71;stroke-width:2;stroke-miterlimit:10;stroke-dasharray:9.6,9.6;}
	.st4{fill:#00AEEF;stroke:#231F20;stroke-width:2;stroke-miterlimit:10;}
	.st5{fill:#231F20;stroke:#231F20;stroke-width:2;stroke-miterlimit:10;}
	.st6{fill:none;stroke:#231F20;stroke-width:2;stroke-miterlimit:10;}
	.st7{fill:none;stroke:#939598;stroke-miterlimit:10;}
	.st8{fill:#FFFFFF;stroke:#231F20;stroke-width:3;stroke-miterlimit:10;}
	.st9{fill:#231F20;}
	.st10{fill:none;stroke:#231F20;stroke-width:3;stroke-miterlimit:10;}
</style>
<title>webgl-volume-raycast-pipeline</title>
<rect x="304.9" y="6.1" class="st0" width="166.7" height="60"/>
<polyline class="st1" points="471.6,60.1 471.6,66.1 465.6,66.1 "/>
<line class="st2" x1="453.7" y1="66.1" x2="316.9" y2="66.1"/>
<polyline class="st1" points="310.9,66.1 304.9,66.1 304.9,60.1 "/>
<line class="st3" x1="304.9" y1="50.5" x2="304.9" y2="16.9"/>
<polyline class="st1" points="304.9,12.1 304.9,6.1 310.9,6.1 "/>
<line class="st2" x1="322.8" y1="6.1" x2="459.7" y2="6.1"/>
<polyline class="st1" points="465.6,6.1 471.6,6.1 471.6,12.1 "/>
<line class="st3" x1="471.6" y1="21.7" x2="471.6" y2="55.3"/>
<rect x="1" y="6.1" class="st4" width="180" height="60"/>
<ellipse class="st5" cx="91.8" cy="128.8" rx="11.2" ry="11.3"/>
<ellipse class="st5" cx="130.3" cy="144.1" rx="11.2" ry="11.3"/>
<ellipse class="st5" cx="80.2" cy="87.3" rx="11.2" ry="11.3"/>
<ellipse class="st5" cx="133.6" cy="96.4" rx="11.2" ry="11.3"/>
<ellipse class="st5" cx="99.7" cy="179.2" rx="11.2" ry="11.3"/>
<ellipse class="st5" cx="35.1" cy="105.5" rx="11.2" ry="11.3"/>
<ellipse class="st5" cx="51.6" cy="153.9" rx="11.2" ry="11.3"/>
<rect x="592.6" y="6.1" class="st4" width="187.9" height="60"/>
<ellipse class="st5" cx="399.6" cy="224.5" rx="11.2" ry="11.3"/>
<ellipse class="st5" cx="479" cy="230.9" rx="11.2" ry="11.3"/>
<ellipse class="st5" cx="360.4" cy="86.6" rx="11.2" ry="11.3"/>
<polygon class="st6" points="479,230.3 360.4,86.6 397.8,222.7 "/>
<ellipse class="st5" cx="442.7" cy="94.8" rx="11.2" ry="11.3"/>
<polygon class="st6" points="361.5,87.2 480.1,230.9 442.7,94.8 "/>
<ellipse class="st5" cx="444.3" cy="285.1" rx="11.2" ry="11.3"/>
<polygon class="st6" points="401.4,223.9 443.9,285.1 482.6,231.5 "/>
<polygon class="st6" points="443.3,284 400.8,222.7 362,276.3 "/>
<polygon class="st6" points="296.1,123.1 397.8,222.7 360.4,88.5 "/>
<polygon class="st6" points="397.8,223.6 296.1,123.1 362.6,277.2 "/>
<ellipse class="st5" cx="297.5" cy="123.9" rx="11.2" ry="11.3"/>
<ellipse class="st5" cx="360.7" cy="275.4" rx="11.2" ry="11.3"/>
<rect x="379.6" y="131.3" class="st7" width="12.5" height="12.5"/>
<rect x="395" y="131.3" class="st7" width="12.5" height="12.5"/>
<rect x="410.4" y="131.3" class="st7" width="12.5" height="12.5"/>
<rect x="425.8" y="131.3" class="st7" width="12.5" height="12.5"/>
<rect x="441.2" y="131.3" class="st7" width="12.5" height="12.5"/>
<rect x="302.6" y="131.3" class="st7" width="12.5" height="12.5"/>
<rect x="318" y="131.3" class="st7" width="12.5" height="12.5"/>
<rect x="333.4" y="131.3" class="st7" width="12.5" height="12.5"/>
<rect x="348.8" y="131.3" class="st7" width="12.5" height="12.5"/>
<rect x="364.2" y="131.3" class="st7" width="12.5" height="12.5"/>
<rect x="379.6" y="115.3" class="st7" width="12.5" height="12.5"/>
<rect x="395" y="115.3" class="st7" width="12.5" height="12.5"/>
<rect x="410.4" y="115.3" class="st7" width="12.5" height="12.5"/>
<rect x="425.8" y="115.3" class="st7" width="12.5" height="12.5"/>
<rect x="441.2" y="115.3" class="st7" width="12.5" height="12.5"/>
<rect x="302.6" y="115.3" class="st7" width="12.5" height="12.5"/>
<rect x="318" y="115.3" class="st7" width="12.5" height="12.5"/>
<rect x="333.4" y="115.3" class="st7" width="12.5" height="12.5"/>
<rect x="348.8" y="115.3" class="st7" width="12.5" height="12.5"/>
<rect x="364.2" y="115.3" class="st7" width="12.5" height="12.5"/>
<rect x="379.6" y="99.4" class="st7" width="12.5" height="12.5"/>
<rect x="395" y="99.4" class="st7" width="12.5" height="12.5"/>
<rect x="410.4" y="99.4" class="st7" width="12.5" height="12.5"/>
<rect x="425.8" y="99.4" class="st7" width="12.5" height="12.5"/>
<rect x="318" y="99.4" class="st7" width="12.5" height="12.5"/>
<rect x="333.4" y="99.4" class="st7" width="12.5" height="12.5"/>
<rect x="348.8" y="99.4" class="st7" width="12.5" height="12.5"/>
<rect x="364.2" y="99.4" class="st7" width="12.5" height="12.5"/>
<rect x="379.6" y="83.4" class="st7" width="12.5" height="12.5"/>
<rect x="395" y="83.4" class="st7" width="12.5" height="12.5"/>
<rect x="348.8" y="83.4" class="st7" width="12.5" height="12.5"/>
<rect x="364.2" y="83.4" class="st7" width="12.5" height="12.5"/>
<rect x="379.6" y="211.1" class="st7" width="12.5" height="12.5"/>
<rect x="395" y="211.1" class="st7" width="12.5" height="12.5"/>
<rect x="410.4" y="211.1" class="st7" width="12.5" height="12.5"/>
<rect x="425.8" y="211.1" class="st7" width="12.5" height="12.5"/>
<rect x="441.2" y="211.1" class="st7" width="12.5" height="12.5"/>
<rect x="456.6" y="211.1" class="st7" width="12.5" height="12.5"/>
<rect x="333.4" y="211.1" class="st7" width="12.5" height="12.5"/>
<rect x="348.8" y="211.1" class="st7" width="12.5" height="12.5"/>
<rect x="364.2" y="211.1" class="st7" width="12.5" height="12.5"/>
<rect x="379.6" y="195.1" class="st7" width="12.5" height="12.5"/>
<rect x="395" y="195.1" class="st7" width="12.5" height="12.5"/>
<rect x="410.4" y="195.1" class="st7" width="12.5" height="12.5"/>
<rect x="425.8" y="195.1" class="st7" width="12.5" height="12.5"/>
<rect x="441.2" y="195.1" class="st7" width="12.5" height="12.5"/>
<rect x="456.6" y="195.1" class="st7" width="12.5" height="12.5"/>
<rect x="333.4" y="195.1" class="st7" width="12.5" height="12.5"/>
<rect x="348.8" y="195.1" class="st7" width="12.5" height="12.5"/>
<rect x="364.2" y="195.1" class="st7" width="12.5" height="12.5"/>
<rect x="379.6" y="179.2" class="st7" width="12.5" height="12.5"/>
<rect x="395" y="179.2" class="st7" width="12.5" height="12.5"/>
<rect x="410.4" y="179.2" class="st7" width="12.5" height="12.5"/>
<rect x="425.8" y="179.2" class="st7" width="12.5" height="12.5"/>
<rect x="441.2" y="179.2" class="st7" width="12.5" height="12.5"/>
<rect x="456.6" y="179.2" class="st7" width="12.5" height="12.5"/>
<rect x="318" y="179.2" class="st7" width="12.5" height="12.5"/>
<rect x="333.4" y="179.2" class="st7" width="12.5" height="12.5"/>
<rect x="348.8" y="179.2" class="st7" width="12.5" height="12.5"/>
<rect x="364.2" y="179.2" class="st7" width="12.5" height="12.5"/>
<rect x="379.6" y="163.2" class="st7" width="12.5" height="12.5"/>
<rect x="395" y="163.2" class="st7" width="12.5" height="12.5"/>
<rect x="410.4" y="163.2" class="st7" width="12.5" height="12.5"/>
<rect x="425.8" y="163.2" class="st7" width="12.5" height="12.5"/>
<rect x="441.2" y="163.2" class="st7" width="12.5" height="12.5"/>
<rect x="456.6" y="163.2" class="st7" width="12.5" height="12.5"/>
<rect x="318" y="163.2" class="st7" width="12.5" height="12.5"/>
<rect x="333.4" y="163.2" class="st7" width="12.5" height="12.5"/>
<rect x="348.8" y="163.2" class="st7" width="12.5" height="12.5"/>
<rect x="364.2" y="163.2" class="st7" width="12.5" height="12.5"/>
<rect x="379.6" y="147.3" class="st7" width="12.5" height="12.5"/>
<rect x="395" y="147.3" class="st7" width="12.5" height="12.5"/>
<rect x="410.4" y="147.3" class="st7" width="12.5" height="12.5"/>
<rect x="425.8" y="147.3" class="st7" width="12.5" height="12.5"/>
<rect x="441.2" y="147.3" class="st7" width="12.5" height="12.5"/>
<rect x="302.6" y="147.3" class="st7" width="12.5" height="12.5"/>
<rect x="318" y="147.3" class="st7" width="12.5" height="12.5"/>
<rect x="333.4" y="147.3" class="st7" width="12.5" height="12.5"/>
<rect x="348.8" y="147.3" class="st7" width="12.5" height="12.5"/>
<rect x="364.2" y="147.3" class="st7" width="12.5" height="12.5"/>
<rect x="395" y="274.9" class="st7" width="12.5" height="12.5"/>
<rect x="410.4" y="274.9" class="st7" width="12.5" height="12.5"/>
<rect x="425.8" y="274.9" class="st7" width="12.5" height="12.5"/>
<rect x="441.2" y="274.9" class="st7" width="12.5" height="12.5"/>
<rect x="379.6" y="258.9" class="st7" width="12.5" height="12.5"/>
<rect x="395" y="258.9" class="st7" width="12.5" height="12.5"/>
<rect x="410.4" y="258.9" class="st7" width="12.5" height="12.5"/>
<rect x="425.8" y="258.9" class="st7" width="12.5" height="12.5"/>
<rect x="441.2" y="258.9" class="st7" width="12.5" height="12.5"/>
<rect x="364.2" y="258.9" class="st7" width="12.5" height="12.5"/>
<rect x="379.6" y="243" class="st7" width="12.5" height="12.5"/>
<rect x="395" y="243" class="st7" width="12.5" height="12.5"/>
<rect x="410.4" y="243" class="st7" width="12.5" height="12.5"/>
<rect x="425.8" y="243" class="st7" width="12.5" height="12.5"/>
<rect x="441.2" y="243" class="st7" width="12.5" height="12.5"/>
<rect x="456.6" y="243" class="st7" width="12.5" height="12.5"/>
<rect x="348.8" y="243" class="st7" width="12.5" height="12.5"/>
<rect x="364.2" y="243" class="st7" width="12.5" height="12.5"/>
<rect x="379.6" y="227" class="st7" width="12.5" height="12.5"/>
<rect x="395" y="227" class="st7" width="12.5" height="12.5"/>
<rect x="410.4" y="227" class="st7" width="12.5" height="12.5"/>
<rect x="425.8" y="227" class="st7" width="12.5" height="12.5"/>
<rect x="441.2" y="227" class="st7" width="12.5" height="12.5"/>
<rect x="456.6" y="227" class="st7" width="12.5" height="12.5"/>
<rect x="472" y="227" class="st7" width="12.5" height="12.5"/>
<rect x="348.8" y="227" class="st7" width="12.5" height="12.5"/>
<rect x="364.2" y="227" class="st7" width="12.5" height="12.5"/>
<polyline class="st8" points="776.9,134.9 813.6,175.6 777.1,212.1 "/>
<ellipse transform="matrix(0.8898 -0.4563 0.4563 0.8898 7.7623 382.1803)" class="st8" cx="795.3" cy="175" rx="13" ry="13.5"/>
<ellipse class="st5" cx="670.7" cy="224.5" rx="11.2" ry="11.3"/>
<ellipse class="st5" cx="750.2" cy="230.9" rx="11.2" ry="11.3"/>
<ellipse class="st5" cx="631.5" cy="86.6" rx="11.2" ry="11.3"/>
<polygon class="st6" points="750.2,230.3 631.5,86.6 668.9,222.7 "/>
<ellipse class="st5" cx="713.8" cy="94.8" rx="11.2" ry="11.3"/>
<polygon class="st6" points="632.6,87.2 751.2,230.9 713.8,94.8 "/>
<ellipse class="st5" cx="715.5" cy="285.1" rx="11.2" ry="11.3"/>
<polygon class="st6" points="672.5,223.9 715,285.1 753.7,231.5 "/>
<polygon class="st6" points="714.4,284 671.9,222.7 633.2,276.3 "/>
<polygon class="st6" points="567.2,123.1 668.9,222.7 631.6,88.5 "/>
<polygon class="st6" points="668.9,223.6 567.2,123.1 633.8,277.2 "/>
<ellipse class="st5" cx="568.7" cy="123.9" rx="11.2" ry="11.3"/>
<ellipse class="st5" cx="631.8" cy="275.4" rx="11.2" ry="11.3"/>
<rect x="650.7" y="131.3" class="st7" width="12.5" height="12.5"/>
<line class="st6" x1="782.2" y1="175" x2="668.5" y2="141"/>
<path class="st9" d="M657,137.5c6-0.4,13.8-1.8,19.1-4.2l-6,8.1l0.6,10.1C667.5,146.7,661.8,141.2,657,137.5z"/>
<line class="st10" x1="464.8" y1="14.3" x2="584.6" y2="14.3"/>
<path class="st9" d="M602.7,14.3c-8.5,3.2-19.1,8.6-25.6,14.3l5.2-14.3L577.1,0C583.6,5.7,594.2,11.1,602.7,14.3z"/>
<line class="st10" x1="172.5" y1="14.3" x2="292.3" y2="14.3"/>
<path class="st9" d="M310.4,14.3c-8.5,3.2-19.1,8.6-25.6,14.3l5.2-14.3L284.8,0C291.3,5.7,301.9,11.1,310.4,14.3z"/>
<g>
	<path d="M27.3,42l-6.1-15.7h2.3l4.1,11.4c0.3,0.9,0.6,1.8,0.8,2.6c0.2-0.9,0.5-1.7,0.8-2.6l4.3-11.4h2.1L29.5,42H27.3z"/>
	<path d="M43.9,38.3l2,0.2c-0.3,1.2-0.9,2.1-1.8,2.7c-0.9,0.6-1.9,1-3.3,1c-1.7,0-3-0.5-4-1.5c-1-1-1.5-2.5-1.5-4.3
		c0-1.9,0.5-3.4,1.5-4.5c1-1.1,2.3-1.6,3.8-1.6c1.5,0,2.8,0.5,3.7,1.6c1,1,1.5,2.5,1.5,4.4c0,0.1,0,0.3,0,0.5h-8.5
		c0.1,1.3,0.4,2.2,1.1,2.9c0.6,0.7,1.4,1,2.4,1c0.7,0,1.3-0.2,1.8-0.6C43.2,39.7,43.6,39.1,43.9,38.3z M37.5,35.2h6.4
		c-0.1-1-0.3-1.7-0.7-2.2c-0.6-0.7-1.4-1.1-2.4-1.1c-0.9,0-1.6,0.3-2.2,0.9C37.9,33.4,37.6,34.2,37.5,35.2z"/>
	<path d="M48.3,42V30.6H50v1.7c0.4-0.8,0.9-1.3,1.2-1.6s0.8-0.4,1.2-0.4c0.7,0,1.3,0.2,2,0.6l-0.7,1.8c-0.5-0.3-0.9-0.4-1.4-0.4
		c-0.4,0-0.8,0.1-1.1,0.4c-0.3,0.3-0.6,0.6-0.7,1.1c-0.2,0.7-0.3,1.4-0.3,2.3v6H48.3z"/>
	<path d="M59.8,40.3l0.3,1.7c-0.5,0.1-1,0.2-1.5,0.2c-0.7,0-1.2-0.1-1.6-0.3s-0.7-0.5-0.8-0.9C56,40.6,56,39.8,56,38.6v-6.6h-1.4
		v-1.5H56v-2.8l1.9-1.2v4h1.9v1.5h-1.9v6.7c0,0.6,0,0.9,0.1,1.1c0.1,0.2,0.2,0.3,0.3,0.4c0.2,0.1,0.4,0.1,0.7,0.1
		C59.2,40.3,59.5,40.3,59.8,40.3z"/>
	<path d="M69.5,38.3l2,0.2c-0.3,1.2-0.9,2.1-1.8,2.7c-0.9,0.6-1.9,1-3.3,1c-1.7,0-3-0.5-4-1.5c-1-1-1.5-2.5-1.5-4.3
		c0-1.9,0.5-3.4,1.5-4.5c1-1.1,2.3-1.6,3.8-1.6c1.5,0,2.8,0.5,3.7,1.6c1,1,1.5,2.5,1.5,4.4c0,0.1,0,0.3,0,0.5h-8.5
		c0.1,1.3,0.4,2.2,1.1,2.9c0.6,0.7,1.4,1,2.4,1c0.7,0,1.3-0.2,1.8-0.6C68.8,39.7,69.2,39.1,69.5,38.3z M63.2,35.2h6.4
		c-0.1-1-0.3-1.7-0.7-2.2c-0.6-0.7-1.4-1.1-2.4-1.1c-0.9,0-1.6,0.3-2.2,0.9C63.6,33.4,63.2,34.2,63.2,35.2z"/>
	<path d="M72.7,42l4.2-5.9L73,30.6h2.4l1.8,2.7c0.3,0.5,0.6,0.9,0.8,1.3c0.3-0.5,0.6-0.9,0.9-1.3l1.9-2.7H83L79.1,36l4.2,6H81
		l-2.3-3.5l-0.6-1L75,42H72.7z"/>
	<path d="M90.6,36.9l2-0.2c0.1,0.8,0.3,1.4,0.6,1.9c0.3,0.5,0.9,0.9,1.6,1.2c0.7,0.3,1.5,0.5,2.4,0.5c0.8,0,1.5-0.1,2.1-0.4
		c0.6-0.2,1.1-0.6,1.4-1c0.3-0.4,0.4-0.9,0.4-1.3c0-0.5-0.1-0.9-0.4-1.3c-0.3-0.4-0.8-0.7-1.4-0.9c-0.4-0.2-1.4-0.4-2.8-0.8
		c-1.4-0.3-2.5-0.7-3-1c-0.8-0.4-1.3-0.9-1.7-1.5c-0.4-0.6-0.6-1.2-0.6-2c0-0.8,0.2-1.5,0.7-2.2c0.5-0.7,1.1-1.2,2-1.6
		c0.9-0.4,1.8-0.5,2.9-0.5c1.2,0,2.2,0.2,3.1,0.6s1.6,0.9,2.1,1.7c0.5,0.7,0.7,1.6,0.8,2.5l-2,0.2c-0.1-1-0.5-1.7-1.1-2.3
		c-0.6-0.5-1.5-0.8-2.7-0.8c-1.3,0-2.2,0.2-2.8,0.7c-0.6,0.5-0.9,1-0.9,1.7c0,0.6,0.2,1,0.6,1.4c0.4,0.4,1.4,0.7,3.1,1.1
		c1.7,0.4,2.9,0.7,3.5,1c0.9,0.4,1.6,1,2,1.6c0.4,0.6,0.7,1.4,0.7,2.2c0,0.8-0.2,1.6-0.7,2.4c-0.5,0.7-1.2,1.3-2.1,1.7
		c-0.9,0.4-1.9,0.6-3,0.6c-1.4,0-2.6-0.2-3.6-0.6c-1-0.4-1.7-1-2.3-1.9C90.9,38.9,90.6,38,90.6,36.9z"/>
	<path d="M105.7,42V26.2h1.9v5.7c0.9-1,2-1.6,3.4-1.6c0.8,0,1.6,0.2,2.2,0.5s1.1,0.8,1.3,1.4c0.3,0.6,0.4,1.4,0.4,2.6V42h-1.9v-7.2
		c0-1-0.2-1.7-0.6-2.1s-1-0.7-1.8-0.7c-0.6,0-1.1,0.1-1.6,0.4c-0.5,0.3-0.9,0.7-1.1,1.2c-0.2,0.5-0.3,1.2-0.3,2.1V42H105.7z"/>
	<path d="M125.4,40.6c-0.7,0.6-1.4,1-2.1,1.3c-0.7,0.3-1.4,0.4-2.1,0.4c-1.3,0-2.2-0.3-2.9-0.9c-0.7-0.6-1-1.4-1-2.3
		c0-0.6,0.1-1.1,0.4-1.5c0.3-0.5,0.6-0.8,1-1.1c0.4-0.3,0.9-0.5,1.4-0.6c0.4-0.1,1-0.2,1.7-0.3c1.6-0.2,2.7-0.4,3.4-0.7
		c0-0.3,0-0.4,0-0.5c0-0.8-0.2-1.3-0.5-1.7c-0.5-0.4-1.2-0.7-2.2-0.7c-0.9,0-1.6,0.2-2,0.5c-0.4,0.3-0.8,0.9-1,1.7l-1.9-0.3
		c0.2-0.8,0.5-1.5,0.8-2c0.4-0.5,1-0.9,1.7-1.1c0.7-0.3,1.6-0.4,2.6-0.4c1,0,1.8,0.1,2.4,0.3c0.6,0.2,1.1,0.5,1.3,0.9
		c0.3,0.3,0.5,0.8,0.6,1.3c0.1,0.3,0.1,0.9,0.1,1.8v2.6c0,1.8,0,2.9,0.1,3.4c0.1,0.5,0.2,0.9,0.5,1.4h-2
		C125.6,41.6,125.5,41.1,125.4,40.6z M125.3,36.3c-0.7,0.3-1.8,0.5-3.2,0.7c-0.8,0.1-1.4,0.2-1.7,0.4c-0.3,0.1-0.6,0.4-0.8,0.6
		c-0.2,0.3-0.3,0.6-0.3,0.9c0,0.5,0.2,0.9,0.6,1.3c0.4,0.3,1,0.5,1.7,0.5c0.7,0,1.4-0.2,2-0.5c0.6-0.3,1-0.8,1.3-1.3
		c0.2-0.4,0.3-1.1,0.3-1.9V36.3z"/>
	<path d="M137.6,42v-1.4c-0.7,1.1-1.8,1.7-3.2,1.7c-0.9,0-1.7-0.3-2.5-0.8s-1.4-1.2-1.8-2.1c-0.4-0.9-0.6-1.9-0.6-3.1
		c0-1.1,0.2-2.2,0.6-3.1c0.4-0.9,0.9-1.6,1.7-2.1c0.8-0.5,1.6-0.7,2.5-0.7c0.7,0,1.3,0.1,1.8,0.4s1,0.7,1.3,1.1v-5.7h1.9V42H137.6z
		 M131.5,36.3c0,1.5,0.3,2.6,0.9,3.3c0.6,0.7,1.3,1.1,2.2,1.1c0.8,0,1.6-0.3,2.2-1c0.6-0.7,0.9-1.7,0.9-3.2c0-1.6-0.3-2.7-0.9-3.4
		s-1.3-1.1-2.2-1.1c-0.9,0-1.6,0.4-2.2,1.1C131.8,33.7,131.5,34.8,131.5,36.3z"/>
	<path d="M150.3,38.3l2,0.2c-0.3,1.2-0.9,2.1-1.8,2.7c-0.9,0.6-1.9,1-3.3,1c-1.7,0-3-0.5-4-1.5c-1-1-1.5-2.5-1.5-4.3
		c0-1.9,0.5-3.4,1.5-4.5c1-1.1,2.3-1.6,3.8-1.6c1.5,0,2.8,0.5,3.7,1.6c1,1,1.5,2.5,1.5,4.4c0,0.1,0,0.3,0,0.5h-8.5
		c0.1,1.3,0.4,2.2,1.1,2.9c0.6,0.7,1.4,1,2.4,1c0.7,0,1.3-0.2,1.8-0.6C149.6,39.7,150,39.1,150.3,38.3z M143.9,35.2h6.4
		c-0.1-1-0.3-1.7-0.7-2.2c-0.6-0.7-1.4-1.1-2.4-1.1c-0.9,0-1.6,0.3-2.2,0.9C144.3,33.4,144,34.2,143.9,35.2z"/>
	<path d="M154.7,42V30.6h1.7v1.7c0.4-0.8,0.9-1.3,1.2-1.6s0.8-0.4,1.2-0.4c0.7,0,1.3,0.2,2,0.6l-0.7,1.8c-0.5-0.3-0.9-0.4-1.4-0.4
		c-0.4,0-0.8,0.1-1.1,0.4c-0.3,0.3-0.6,0.6-0.7,1.1c-0.2,0.7-0.3,1.4-0.3,2.3v6H154.7z"/>
</g>
<g>
	<path d="M316.6,29.8l-5.3-13.6h1.9l3.5,9.9c0.3,0.8,0.5,1.5,0.7,2.2c0.2-0.7,0.5-1.5,0.7-2.2l3.7-9.9h1.8l-5.3,13.6H316.6z"/>
	<path d="M330.8,26.6l1.7,0.2c-0.3,1-0.8,1.8-1.5,2.3c-0.7,0.6-1.7,0.8-2.8,0.8c-1.4,0-2.6-0.4-3.4-1.3c-0.8-0.9-1.3-2.1-1.3-3.7
		c0-1.7,0.4-2.9,1.3-3.9c0.9-0.9,2-1.4,3.3-1.4c1.3,0,2.4,0.4,3.2,1.3c0.8,0.9,1.3,2.2,1.3,3.8c0,0.1,0,0.2,0,0.4h-7.3
		c0.1,1.1,0.4,1.9,0.9,2.5c0.6,0.6,1.2,0.9,2.1,0.9c0.6,0,1.1-0.2,1.6-0.5C330.2,27.8,330.6,27.3,330.8,26.6z M325.4,23.9h5.5
		c-0.1-0.8-0.3-1.5-0.6-1.9c-0.5-0.6-1.2-1-2.1-1c-0.8,0-1.4,0.3-1.9,0.8C325.7,22.4,325.4,23.1,325.4,23.9z"/>
	<path d="M334.6,29.8v-9.9h1.5v1.5c0.4-0.7,0.7-1.2,1.1-1.4c0.3-0.2,0.7-0.3,1.1-0.3c0.6,0,1.1,0.2,1.7,0.5l-0.6,1.5
		c-0.4-0.2-0.8-0.4-1.2-0.4c-0.4,0-0.7,0.1-1,0.3c-0.3,0.2-0.5,0.5-0.6,0.9c-0.2,0.6-0.3,1.2-0.3,1.9v5.2H334.6z"/>
	<path d="M344.6,28.3l0.2,1.5c-0.5,0.1-0.9,0.1-1.3,0.1c-0.6,0-1.1-0.1-1.4-0.3s-0.6-0.4-0.7-0.8c-0.1-0.3-0.2-1-0.2-2v-5.7h-1.2
		v-1.3h1.2v-2.4l1.7-1v3.4h1.7v1.3H343V27c0,0.5,0,0.8,0.1,0.9c0.1,0.1,0.2,0.2,0.3,0.3c0.1,0.1,0.3,0.1,0.6,0.1
		C344.1,28.4,344.3,28.3,344.6,28.3z"/>
	<path d="M353,26.6l1.7,0.2c-0.3,1-0.8,1.8-1.5,2.3c-0.7,0.6-1.7,0.8-2.8,0.8c-1.4,0-2.6-0.4-3.4-1.3c-0.8-0.9-1.3-2.1-1.3-3.7
		c0-1.7,0.4-2.9,1.3-3.9c0.9-0.9,2-1.4,3.3-1.4c1.3,0,2.4,0.4,3.2,1.3c0.8,0.9,1.3,2.2,1.3,3.8c0,0.1,0,0.2,0,0.4h-7.3
		c0.1,1.1,0.4,1.9,0.9,2.5c0.6,0.6,1.2,0.9,2.1,0.9c0.6,0,1.1-0.2,1.6-0.5C352.4,27.8,352.8,27.3,353,26.6z M347.5,23.9h5.5
		c-0.1-0.8-0.3-1.5-0.6-1.9c-0.5-0.6-1.2-1-2.1-1c-0.8,0-1.4,0.3-1.9,0.8C347.9,22.4,347.6,23.1,347.5,23.9z"/>
	<path d="M355.7,29.8l3.6-5.1l-3.3-4.7h2.1l1.5,2.3c0.3,0.4,0.5,0.8,0.7,1.1c0.3-0.4,0.5-0.8,0.8-1.1l1.7-2.3h2l-3.4,4.6l3.7,5.2
		h-2.1l-2-3.1l-0.5-0.8l-2.6,3.9H355.7z"/>
	<path d="M371.8,29.8V16.2h5.1c0.9,0,1.6,0,2.1,0.1c0.7,0.1,1.2,0.3,1.7,0.6c0.5,0.3,0.8,0.8,1.1,1.3c0.3,0.6,0.4,1.2,0.4,1.9
		c0,1.2-0.4,2.1-1.1,2.9c-0.7,0.8-2.1,1.2-4,1.2h-3.5v5.5H371.8z M373.6,22.6h3.5c1.2,0,2-0.2,2.5-0.6c0.5-0.4,0.7-1,0.7-1.8
		c0-0.6-0.1-1.1-0.4-1.5c-0.3-0.4-0.7-0.7-1.1-0.8c-0.3-0.1-0.9-0.1-1.7-0.1h-3.5V22.6z"/>
	<path d="M384.3,29.8v-9.9h1.5v1.5c0.4-0.7,0.7-1.2,1.1-1.4c0.3-0.2,0.7-0.3,1.1-0.3c0.6,0,1.1,0.2,1.7,0.5l-0.6,1.5
		c-0.4-0.2-0.8-0.4-1.2-0.4c-0.4,0-0.7,0.1-1,0.3c-0.3,0.2-0.5,0.5-0.6,0.9c-0.2,0.6-0.3,1.2-0.3,1.9v5.2H384.3z"/>
	<path d="M390,24.9c0-1.8,0.5-3.2,1.5-4.1c0.8-0.7,1.9-1.1,3.1-1.1c1.4,0,2.5,0.4,3.3,1.3c0.9,0.9,1.3,2.1,1.3,3.7
		c0,1.3-0.2,2.3-0.6,3c-0.4,0.7-0.9,1.3-1.7,1.7c-0.7,0.4-1.5,0.6-2.4,0.6c-1.4,0-2.5-0.4-3.3-1.3C390.4,27.8,390,26.5,390,24.9z
		 M391.7,24.9c0,1.3,0.3,2.2,0.8,2.8c0.6,0.6,1.2,0.9,2.1,0.9c0.8,0,1.5-0.3,2.1-0.9c0.6-0.6,0.8-1.6,0.8-2.9c0-1.2-0.3-2.1-0.8-2.8
		c-0.6-0.6-1.2-0.9-2.1-0.9c-0.8,0-1.5,0.3-2.1,0.9C392,22.7,391.7,23.6,391.7,24.9z"/>
	<path d="M407.6,26.2l1.6,0.2c-0.2,1.1-0.6,2-1.4,2.7c-0.7,0.6-1.6,1-2.7,1c-1.3,0-2.4-0.4-3.3-1.3c-0.8-0.9-1.2-2.1-1.2-3.8
		c0-1.1,0.2-2,0.5-2.8s0.9-1.4,1.6-1.8c0.7-0.4,1.5-0.6,2.4-0.6c1.1,0,1.9,0.3,2.6,0.8c0.7,0.5,1.1,1.3,1.3,2.3l-1.6,0.3
		c-0.2-0.7-0.4-1.2-0.8-1.5c-0.4-0.3-0.9-0.5-1.4-0.5c-0.8,0-1.5,0.3-2.1,0.9c-0.5,0.6-0.8,1.6-0.8,2.9c0,1.3,0.3,2.3,0.8,2.9
		c0.5,0.6,1.2,0.9,2,0.9c0.7,0,1.2-0.2,1.6-0.6C407.2,27.6,407.5,27,407.6,26.2z"/>
	<path d="M417.4,26.6l1.7,0.2c-0.3,1-0.8,1.8-1.5,2.3c-0.7,0.6-1.7,0.8-2.8,0.8c-1.4,0-2.6-0.4-3.4-1.3c-0.8-0.9-1.3-2.1-1.3-3.7
		c0-1.7,0.4-2.9,1.3-3.9c0.9-0.9,2-1.4,3.3-1.4c1.3,0,2.4,0.4,3.2,1.3c0.8,0.9,1.3,2.2,1.3,3.8c0,0.1,0,0.2,0,0.4h-7.3
		c0.1,1.1,0.4,1.9,0.9,2.5s1.2,0.9,2.1,0.9c0.6,0,1.1-0.2,1.6-0.5C416.8,27.8,417.2,27.3,417.4,26.6z M411.9,23.9h5.5
		c-0.1-0.8-0.3-1.5-0.6-1.9c-0.5-0.6-1.2-1-2.1-1c-0.8,0-1.4,0.3-1.9,0.8C412.3,22.4,412,23.1,411.9,23.9z"/>
	<path d="M420.6,26.8l1.7-0.3c0.1,0.7,0.4,1.2,0.8,1.5c0.4,0.4,1,0.5,1.8,0.5c0.8,0,1.3-0.2,1.7-0.5c0.4-0.3,0.6-0.7,0.6-1.1
		c0-0.4-0.2-0.7-0.5-0.9c-0.2-0.1-0.8-0.3-1.7-0.6c-1.2-0.3-2.1-0.6-2.5-0.8c-0.5-0.2-0.8-0.5-1.1-0.9c-0.2-0.4-0.4-0.8-0.4-1.3
		c0-0.4,0.1-0.8,0.3-1.2c0.2-0.4,0.5-0.7,0.8-0.9c0.3-0.2,0.6-0.4,1.1-0.5c0.4-0.1,0.9-0.2,1.4-0.2c0.8,0,1.5,0.1,2,0.3
		c0.6,0.2,1,0.5,1.3,0.9c0.3,0.4,0.5,0.9,0.6,1.5l-1.6,0.2c-0.1-0.5-0.3-0.9-0.6-1.2c-0.4-0.3-0.9-0.4-1.5-0.4
		c-0.8,0-1.3,0.1-1.6,0.4c-0.3,0.3-0.5,0.6-0.5,0.9c0,0.2,0.1,0.4,0.2,0.6c0.1,0.2,0.3,0.3,0.6,0.4c0.2,0.1,0.7,0.2,1.5,0.4
		c1.2,0.3,2,0.6,2.5,0.8c0.5,0.2,0.8,0.5,1.1,0.9c0.3,0.4,0.4,0.9,0.4,1.4c0,0.6-0.2,1.1-0.5,1.6c-0.3,0.5-0.8,0.9-1.4,1.1
		c-0.6,0.3-1.3,0.4-2.1,0.4c-1.3,0-2.3-0.3-2.9-0.8C421.2,28.7,420.8,27.9,420.6,26.8z"/>
	<path d="M430.1,26.8l1.7-0.3c0.1,0.7,0.4,1.2,0.8,1.5c0.4,0.4,1,0.5,1.8,0.5c0.8,0,1.3-0.2,1.7-0.5c0.4-0.3,0.6-0.7,0.6-1.1
		c0-0.4-0.2-0.7-0.5-0.9c-0.2-0.1-0.8-0.3-1.7-0.6c-1.2-0.3-2.1-0.6-2.5-0.8c-0.5-0.2-0.8-0.5-1.1-0.9c-0.2-0.4-0.4-0.8-0.4-1.3
		c0-0.4,0.1-0.8,0.3-1.2c0.2-0.4,0.5-0.7,0.8-0.9c0.3-0.2,0.6-0.4,1.1-0.5c0.4-0.1,0.9-0.2,1.4-0.2c0.8,0,1.5,0.1,2,0.3
		c0.6,0.2,1,0.5,1.3,0.9c0.3,0.4,0.5,0.9,0.6,1.5l-1.6,0.2c-0.1-0.5-0.3-0.9-0.6-1.2c-0.4-0.3-0.9-0.4-1.5-0.4
		c-0.8,0-1.3,0.1-1.6,0.4c-0.3,0.3-0.5,0.6-0.5,0.9c0,0.2,0.1,0.4,0.2,0.6c0.1,0.2,0.3,0.3,0.6,0.4c0.2,0.1,0.7,0.2,1.5,0.4
		c1.2,0.3,2,0.6,2.5,0.8c0.5,0.2,0.8,0.5,1.1,0.9c0.3,0.4,0.4,0.9,0.4,1.4c0,0.6-0.2,1.1-0.5,1.6c-0.3,0.5-0.8,0.9-1.4,1.1
		c-0.6,0.3-1.3,0.4-2.1,0.4c-1.3,0-2.3-0.3-2.9-0.8C430.7,28.7,430.3,27.9,430.1,26.8z"/>
	<path d="M440.3,18.1v-1.9h1.7v1.9H440.3z M440.3,29.8v-9.9h1.7v9.9H440.3z"/>
	<path d="M444.5,29.8v-9.9h1.5v1.4c0.7-1.1,1.8-1.6,3.1-1.6c0.6,0,1.1,0.1,1.6,0.3c0.5,0.2,0.9,0.5,1.1,0.8c0.2,0.3,0.4,0.8,0.5,1.2
		c0.1,0.3,0.1,0.9,0.1,1.6v6.1h-1.7v-6c0-0.7-0.1-1.2-0.2-1.5c-0.1-0.3-0.4-0.6-0.7-0.8c-0.3-0.2-0.7-0.3-1.2-0.3
		c-0.7,0-1.3,0.2-1.8,0.7c-0.5,0.5-0.8,1.3-0.8,2.6v5.4H444.5z"/>
	<path d="M454.7,30.6l1.6,0.2c0.1,0.5,0.3,0.9,0.6,1.1c0.4,0.3,1,0.5,1.7,0.5c0.8,0,1.4-0.2,1.8-0.5c0.4-0.3,0.7-0.7,0.9-1.3
		c0.1-0.3,0.1-1.1,0.1-2.1c-0.7,0.9-1.6,1.3-2.7,1.3c-1.4,0-2.4-0.5-3.1-1.5c-0.7-1-1.1-2.1-1.1-3.5c0-0.9,0.2-1.8,0.5-2.6
		c0.3-0.8,0.8-1.4,1.5-1.8c0.6-0.4,1.4-0.6,2.3-0.6c1.2,0,2.1,0.5,2.9,1.4v-1.2h1.5v8.5c0,1.5-0.2,2.6-0.5,3.3
		c-0.3,0.6-0.8,1.1-1.5,1.5c-0.7,0.4-1.5,0.6-2.5,0.6c-1.2,0-2.1-0.3-2.8-0.8C455.1,32.5,454.7,31.7,454.7,30.6z M456.1,24.7
		c0,1.3,0.3,2.2,0.8,2.8c0.5,0.6,1.2,0.9,1.9,0.9c0.8,0,1.4-0.3,1.9-0.9c0.5-0.6,0.8-1.5,0.8-2.8c0-1.2-0.3-2.1-0.8-2.7
		s-1.2-0.9-1.9-0.9c-0.7,0-1.4,0.3-1.9,0.9C456.4,22.6,456.1,23.5,456.1,24.7z"/>
	<path d="M332.4,51c-0.6,0.6-1.2,1.1-1.8,1.4c-0.6,0.3-1.4,0.5-2.1,0.5c-1.4,0-2.5-0.5-3.3-1.4c-0.7-0.8-1-1.6-1-2.6
		c0-0.8,0.3-1.6,0.8-2.3c0.5-0.7,1.4-1.3,2.4-1.8c-0.6-0.7-1-1.3-1.2-1.7c-0.2-0.4-0.3-0.9-0.3-1.3c0-0.8,0.3-1.5,1-2.1
		c0.6-0.6,1.4-0.9,2.4-0.9c0.9,0,1.7,0.3,2.3,0.9c0.6,0.6,0.9,1.3,0.9,2.1c0,1.3-0.9,2.4-2.6,3.3l2.4,3.1c0.3-0.5,0.5-1.2,0.6-1.9
		l1.7,0.4c-0.3,1.2-0.7,2.2-1.2,2.9c0.6,0.8,1.3,1.5,2.1,2.1l-1.1,1.3C333.8,52.5,333.1,51.8,332.4,51z M331.3,49.7l-3.1-3.8
		c-0.9,0.5-1.5,1-1.8,1.5c-0.3,0.5-0.5,0.9-0.5,1.4c0,0.6,0.2,1.1,0.7,1.7c0.4,0.6,1.1,0.9,1.9,0.9c0.5,0,1-0.2,1.6-0.5
		C330.6,50.6,331,50.2,331.3,49.7z M329,43.9c0.7-0.4,1.2-0.8,1.4-1.1c0.2-0.3,0.3-0.7,0.3-1.1c0-0.5-0.1-0.8-0.4-1.1
		c-0.3-0.3-0.7-0.4-1.1-0.4c-0.5,0-0.8,0.1-1.1,0.4c-0.3,0.3-0.4,0.6-0.4,1.1c0,0.2,0.1,0.4,0.2,0.7c0.1,0.2,0.3,0.5,0.5,0.7
		L329,43.9z"/>
	<path d="M342.8,52.6V39h6c1.2,0,2.1,0.1,2.8,0.4c0.6,0.2,1.1,0.7,1.5,1.3c0.4,0.6,0.6,1.3,0.6,2.1c0,1-0.3,1.8-0.9,2.4
		c-0.6,0.7-1.6,1.1-2.9,1.3c0.5,0.2,0.8,0.5,1.1,0.7c0.5,0.5,1,1.1,1.5,1.8l2.4,3.7h-2.3l-1.8-2.8c-0.5-0.8-1-1.4-1.3-1.9
		c-0.3-0.4-0.6-0.7-0.9-0.9c-0.3-0.2-0.5-0.3-0.8-0.4c-0.2,0-0.5-0.1-1-0.1h-2.1v6H342.8z M344.6,45h3.9c0.8,0,1.5-0.1,1.9-0.3
		c0.5-0.2,0.8-0.4,1.1-0.8c0.2-0.4,0.4-0.8,0.4-1.2c0-0.6-0.2-1.2-0.7-1.6c-0.5-0.4-1.2-0.6-2.2-0.6h-4.3V45z"/>
	<path d="M362.7,51.4c-0.6,0.5-1.2,0.9-1.8,1.1c-0.6,0.2-1.2,0.3-1.8,0.3c-1.1,0-1.9-0.3-2.5-0.8c-0.6-0.5-0.9-1.2-0.9-2
		c0-0.5,0.1-0.9,0.3-1.3c0.2-0.4,0.5-0.7,0.9-1c0.4-0.2,0.8-0.4,1.2-0.5c0.3-0.1,0.8-0.2,1.5-0.3c1.3-0.2,2.3-0.4,3-0.6
		c0-0.2,0-0.4,0-0.4c0-0.7-0.2-1.2-0.5-1.4c-0.4-0.4-1.1-0.6-1.9-0.6c-0.8,0-1.4,0.1-1.7,0.4c-0.4,0.3-0.7,0.8-0.8,1.5l-1.6-0.2
		c0.1-0.7,0.4-1.3,0.7-1.7c0.3-0.4,0.8-0.8,1.5-1c0.6-0.2,1.4-0.3,2.2-0.3c0.8,0,1.5,0.1,2.1,0.3c0.5,0.2,0.9,0.4,1.2,0.7
		c0.2,0.3,0.4,0.7,0.5,1.1c0.1,0.3,0.1,0.8,0.1,1.5v2.2c0,1.6,0,2.5,0.1,2.9c0.1,0.4,0.2,0.8,0.4,1.2h-1.7
		C362.9,52.2,362.8,51.8,362.7,51.4z M362.6,47.6c-0.6,0.2-1.5,0.5-2.7,0.6c-0.7,0.1-1.2,0.2-1.5,0.3c-0.3,0.1-0.5,0.3-0.7,0.5
		c-0.2,0.2-0.2,0.5-0.2,0.8c0,0.4,0.2,0.8,0.5,1.1c0.3,0.3,0.8,0.4,1.5,0.4c0.6,0,1.2-0.1,1.7-0.4c0.5-0.3,0.9-0.7,1.1-1.2
		c0.2-0.4,0.3-0.9,0.3-1.7V47.6z"/>
	<path d="M366.2,49.6l1.7-0.3c0.1,0.7,0.4,1.2,0.8,1.5c0.4,0.4,1,0.5,1.8,0.5c0.8,0,1.3-0.2,1.7-0.5c0.4-0.3,0.6-0.7,0.6-1.1
		c0-0.4-0.2-0.7-0.5-0.9c-0.2-0.1-0.8-0.3-1.7-0.6c-1.2-0.3-2.1-0.6-2.5-0.8c-0.5-0.2-0.8-0.5-1.1-0.9c-0.2-0.4-0.4-0.8-0.4-1.3
		c0-0.4,0.1-0.8,0.3-1.2c0.2-0.4,0.5-0.7,0.8-0.9c0.3-0.2,0.6-0.4,1.1-0.5c0.4-0.1,0.9-0.2,1.4-0.2c0.8,0,1.5,0.1,2,0.3
		c0.6,0.2,1,0.5,1.3,0.9c0.3,0.4,0.5,0.9,0.6,1.5l-1.6,0.2c-0.1-0.5-0.3-0.9-0.6-1.2c-0.4-0.3-0.9-0.4-1.5-0.4
		c-0.8,0-1.3,0.1-1.6,0.4c-0.3,0.3-0.5,0.6-0.5,0.9c0,0.2,0.1,0.4,0.2,0.6c0.1,0.2,0.3,0.3,0.6,0.4c0.2,0.1,0.7,0.2,1.5,0.4
		c1.2,0.3,2,0.6,2.5,0.8c0.5,0.2,0.8,0.5,1.1,0.9c0.3,0.4,0.4,0.9,0.4,1.4c0,0.6-0.2,1.1-0.5,1.6c-0.3,0.5-0.8,0.9-1.4,1.1
		c-0.6,0.3-1.3,0.4-2.1,0.4c-1.3,0-2.3-0.3-2.9-0.8C366.8,51.5,366.4,50.7,366.2,49.6z"/>
	<path d="M380,51.1l0.2,1.5c-0.5,0.1-0.9,0.1-1.3,0.1c-0.6,0-1.1-0.1-1.4-0.3s-0.6-0.4-0.7-0.8c-0.1-0.3-0.2-1-0.2-2V44h-1.2v-1.3
		h1.2v-2.4l1.7-1v3.4h1.7V44h-1.7v5.8c0,0.5,0,0.8,0.1,0.9c0.1,0.1,0.2,0.2,0.3,0.3c0.1,0.1,0.3,0.1,0.6,0.1
		C379.5,51.2,379.7,51.1,380,51.1z"/>
	<path d="M388.4,49.4l1.7,0.2c-0.3,1-0.8,1.8-1.5,2.3c-0.7,0.6-1.7,0.8-2.8,0.8c-1.4,0-2.6-0.4-3.4-1.3c-0.8-0.9-1.3-2.1-1.3-3.7
		c0-1.7,0.4-2.9,1.3-3.9c0.9-0.9,2-1.4,3.3-1.4c1.3,0,2.4,0.4,3.2,1.3c0.8,0.9,1.3,2.2,1.3,3.8c0,0.1,0,0.2,0,0.4h-7.3
		c0.1,1.1,0.4,1.9,0.9,2.5c0.6,0.6,1.2,0.9,2.1,0.9c0.6,0,1.1-0.2,1.6-0.5C387.8,50.6,388.1,50.1,388.4,49.4z M382.9,46.7h5.5
		c-0.1-0.8-0.3-1.5-0.6-1.9c-0.5-0.6-1.2-1-2.1-1c-0.8,0-1.4,0.3-1.9,0.8C383.2,45.2,383,45.9,382.9,46.7z"/>
	<path d="M392.2,52.6v-9.9h1.5v1.5c0.4-0.7,0.7-1.2,1.1-1.4c0.3-0.2,0.7-0.3,1.1-0.3c0.6,0,1.1,0.2,1.7,0.5l-0.6,1.5
		c-0.4-0.2-0.8-0.4-1.2-0.4c-0.4,0-0.7,0.1-1,0.3c-0.3,0.2-0.5,0.5-0.6,0.9c-0.2,0.6-0.3,1.2-0.3,1.9v5.2H392.2z"/>
	<path d="M398.5,40.9V39h1.7v1.9H398.5z M398.5,52.6v-9.9h1.7v9.9H398.5z"/>
	<path d="M401.9,52.6v-1.4l6.3-7.2c-0.7,0-1.3,0.1-1.9,0.1h-4v-1.4h8.1v1.1l-5.3,6.3l-1,1.1c0.7-0.1,1.5-0.1,2.1-0.1h4.6v1.4H401.9z
		"/>
	<path d="M418.7,51.4c-0.6,0.5-1.2,0.9-1.8,1.1s-1.2,0.3-1.8,0.3c-1.1,0-1.9-0.3-2.5-0.8c-0.6-0.5-0.9-1.2-0.9-2
		c0-0.5,0.1-0.9,0.3-1.3c0.2-0.4,0.5-0.7,0.9-1c0.4-0.2,0.8-0.4,1.2-0.5c0.3-0.1,0.8-0.2,1.5-0.3c1.3-0.2,2.3-0.4,3-0.6
		c0-0.2,0-0.4,0-0.4c0-0.7-0.2-1.2-0.5-1.4c-0.4-0.4-1.1-0.6-1.9-0.6c-0.8,0-1.4,0.1-1.7,0.4c-0.4,0.3-0.7,0.8-0.8,1.5l-1.6-0.2
		c0.1-0.7,0.4-1.3,0.7-1.7c0.3-0.4,0.8-0.8,1.5-1c0.6-0.2,1.4-0.3,2.2-0.3c0.8,0,1.5,0.1,2,0.3c0.5,0.2,0.9,0.4,1.2,0.7
		c0.2,0.3,0.4,0.7,0.5,1.1c0.1,0.3,0.1,0.8,0.1,1.5v2.2c0,1.6,0,2.5,0.1,2.9c0.1,0.4,0.2,0.8,0.4,1.2H419
		C418.8,52.2,418.7,51.8,418.7,51.4z M418.5,47.6c-0.6,0.2-1.5,0.5-2.7,0.6c-0.7,0.1-1.2,0.2-1.5,0.3c-0.3,0.1-0.5,0.3-0.7,0.5
		c-0.2,0.2-0.2,0.5-0.2,0.8c0,0.4,0.2,0.8,0.5,1.1c0.3,0.3,0.8,0.4,1.5,0.4c0.6,0,1.2-0.1,1.7-0.4c0.5-0.3,0.9-0.7,1.1-1.2
		c0.2-0.4,0.3-0.9,0.3-1.7V47.6z"/>
	<path d="M426.5,51.1l0.2,1.5c-0.5,0.1-0.9,0.1-1.3,0.1c-0.6,0-1.1-0.1-1.4-0.3s-0.6-0.4-0.7-0.8c-0.1-0.3-0.2-1-0.2-2V44h-1.2v-1.3
		h1.2v-2.4l1.7-1v3.4h1.7V44h-1.7v5.8c0,0.5,0,0.8,0.1,0.9c0.1,0.1,0.2,0.2,0.3,0.3c0.1,0.1,0.3,0.1,0.6,0.1
		C425.9,51.2,426.2,51.1,426.5,51.1z"/>
	<path d="M428.1,40.9V39h1.7v1.9H428.1z M428.1,52.6v-9.9h1.7v9.9H428.1z"/>
	<path d="M431.7,47.7c0-1.8,0.5-3.2,1.5-4.1c0.8-0.7,1.9-1.1,3.1-1.1c1.4,0,2.5,0.4,3.3,1.3c0.9,0.9,1.3,2.1,1.3,3.7
		c0,1.3-0.2,2.3-0.6,3c-0.4,0.7-0.9,1.3-1.7,1.7s-1.5,0.6-2.4,0.6c-1.4,0-2.5-0.4-3.3-1.3C432.1,50.6,431.7,49.3,431.7,47.7z
		 M433.4,47.7c0,1.3,0.3,2.2,0.8,2.8c0.6,0.6,1.2,0.9,2.1,0.9c0.8,0,1.5-0.3,2.1-0.9c0.5-0.6,0.8-1.6,0.8-2.9c0-1.2-0.3-2.1-0.8-2.8
		c-0.6-0.6-1.2-0.9-2.1-0.9c-0.8,0-1.5,0.3-2.1,0.9C433.7,45.5,433.4,46.4,433.4,47.7z"/>
	<path d="M442.9,52.6v-9.9h1.5v1.4c0.7-1.1,1.8-1.6,3.1-1.6c0.6,0,1.1,0.1,1.6,0.3c0.5,0.2,0.9,0.5,1.1,0.8c0.2,0.3,0.4,0.8,0.5,1.2
		c0.1,0.3,0.1,0.9,0.1,1.6v6.1h-1.7v-6c0-0.7-0.1-1.2-0.2-1.5c-0.1-0.3-0.4-0.6-0.7-0.8c-0.3-0.2-0.7-0.3-1.2-0.3
		c-0.7,0-1.3,0.2-1.8,0.7c-0.5,0.5-0.8,1.3-0.8,2.6v5.4H442.9z"/>
</g>
<g>
	<path d="M602.5,42V26.2h10.6v1.9h-8.5V33h7.4v1.9h-7.4V42H602.5z"/>
	<path d="M615.6,42V30.6h1.7v1.7c0.4-0.8,0.9-1.3,1.2-1.6c0.4-0.3,0.8-0.4,1.2-0.4c0.7,0,1.3,0.2,2,0.6l-0.7,1.8
		c-0.5-0.3-0.9-0.4-1.4-0.4c-0.4,0-0.8,0.1-1.1,0.4c-0.3,0.3-0.6,0.6-0.7,1.1c-0.2,0.7-0.3,1.4-0.3,2.3v6H615.6z"/>
	<path d="M630.4,40.6c-0.7,0.6-1.4,1-2.1,1.3c-0.7,0.3-1.4,0.4-2.1,0.4c-1.3,0-2.2-0.3-2.9-0.9s-1-1.4-1-2.3c0-0.6,0.1-1.1,0.4-1.5
		c0.3-0.5,0.6-0.8,1-1.1c0.4-0.3,0.9-0.5,1.4-0.6c0.4-0.1,1-0.2,1.7-0.3c1.6-0.2,2.7-0.4,3.4-0.7c0-0.3,0-0.4,0-0.5
		c0-0.8-0.2-1.3-0.5-1.7c-0.5-0.4-1.2-0.7-2.2-0.7c-0.9,0-1.6,0.2-2,0.5c-0.4,0.3-0.8,0.9-1,1.7l-1.9-0.3c0.2-0.8,0.5-1.5,0.8-2
		c0.4-0.5,1-0.9,1.7-1.1s1.6-0.4,2.6-0.4c1,0,1.8,0.1,2.4,0.3c0.6,0.2,1.1,0.5,1.3,0.9c0.3,0.3,0.5,0.8,0.6,1.3
		c0.1,0.3,0.1,0.9,0.1,1.8v2.6c0,1.8,0,2.9,0.1,3.4c0.1,0.5,0.2,0.9,0.5,1.4h-2C630.6,41.6,630.5,41.1,630.4,40.6z M630.2,36.3
		c-0.7,0.3-1.8,0.5-3.2,0.7c-0.8,0.1-1.4,0.2-1.7,0.4c-0.3,0.1-0.6,0.4-0.8,0.6c-0.2,0.3-0.3,0.6-0.3,0.9c0,0.5,0.2,0.9,0.6,1.3
		c0.4,0.3,1,0.5,1.7,0.5c0.7,0,1.4-0.2,2-0.5c0.6-0.3,1-0.8,1.3-1.3c0.2-0.4,0.3-1.1,0.3-1.9V36.3z"/>
	<path d="M634.8,42.9l1.9,0.3c0.1,0.6,0.3,1,0.7,1.3c0.5,0.4,1.1,0.5,2,0.5c0.9,0,1.6-0.2,2.1-0.5c0.5-0.4,0.8-0.9,1-1.5
		c0.1-0.4,0.1-1.2,0.1-2.5c-0.8,1-1.9,1.5-3.2,1.5c-1.6,0-2.8-0.6-3.6-1.7c-0.9-1.1-1.3-2.5-1.3-4.1c0-1.1,0.2-2.1,0.6-3
		c0.4-0.9,1-1.6,1.7-2.1c0.7-0.5,1.6-0.8,2.6-0.8c1.3,0,2.5,0.5,3.3,1.6v-1.4h1.8v9.9c0,1.8-0.2,3-0.5,3.8c-0.4,0.7-0.9,1.3-1.7,1.8
		c-0.8,0.4-1.7,0.6-2.9,0.6c-1.4,0-2.5-0.3-3.3-0.9S634.8,44.2,634.8,42.9z M636.4,36.1c0,1.5,0.3,2.6,0.9,3.3s1.3,1,2.2,1
		c0.9,0,1.6-0.3,2.2-1c0.6-0.7,0.9-1.8,0.9-3.2c0-1.4-0.3-2.4-0.9-3.2c-0.6-0.7-1.4-1.1-2.2-1.1c-0.9,0-1.6,0.3-2.2,1
		S636.4,34.7,636.4,36.1z"/>
	<path d="M647.4,42V30.6h1.7v1.6c0.4-0.6,0.8-1,1.4-1.3c0.6-0.3,1.3-0.5,2-0.5c0.8,0,1.5,0.2,2.1,0.5c0.5,0.4,0.9,0.8,1.1,1.5
		c0.9-1.3,2.1-2,3.5-2c1.1,0,2,0.3,2.6,0.9c0.6,0.6,0.9,1.6,0.9,2.9V42H661v-7.2c0-0.8-0.1-1.3-0.2-1.7c-0.1-0.3-0.4-0.6-0.7-0.8
		c-0.3-0.2-0.7-0.3-1.2-0.3c-0.8,0-1.5,0.3-2,0.8c-0.5,0.5-0.8,1.4-0.8,2.6V42h-1.9v-7.4c0-0.9-0.2-1.5-0.5-1.9s-0.8-0.6-1.5-0.6
		c-0.5,0-1,0.1-1.5,0.4c-0.5,0.3-0.8,0.7-1,1.3c-0.2,0.6-0.3,1.3-0.3,2.4V42H647.4z"/>
	<path d="M673.6,38.3l2,0.2c-0.3,1.2-0.9,2.1-1.8,2.7s-1.9,1-3.3,1c-1.7,0-3-0.5-4-1.5c-1-1-1.5-2.5-1.5-4.3c0-1.9,0.5-3.4,1.5-4.5
		c1-1.1,2.3-1.6,3.8-1.6c1.5,0,2.8,0.5,3.7,1.6c1,1,1.5,2.5,1.5,4.4c0,0.1,0,0.3,0,0.5h-8.5c0.1,1.3,0.4,2.2,1.1,2.9s1.4,1,2.4,1
		c0.7,0,1.3-0.2,1.8-0.6C672.9,39.7,673.3,39.1,673.6,38.3z M667.2,35.2h6.4c-0.1-1-0.3-1.7-0.7-2.2c-0.6-0.7-1.4-1.1-2.4-1.1
		c-0.9,0-1.6,0.3-2.2,0.9C667.6,33.4,667.3,34.2,667.2,35.2z"/>
	<path d="M678,42V30.6h1.7v1.6c0.8-1.3,2-1.9,3.6-1.9c0.7,0,1.3,0.1,1.9,0.4c0.6,0.2,1,0.6,1.3,1c0.3,0.4,0.5,0.9,0.6,1.4
		c0.1,0.4,0.1,1,0.1,1.9v7h-1.9V35c0-0.8-0.1-1.4-0.2-1.8c-0.2-0.4-0.4-0.7-0.8-0.9c-0.4-0.2-0.8-0.3-1.3-0.3
		c-0.8,0-1.5,0.3-2.1,0.8c-0.6,0.5-0.9,1.5-0.9,3V42H678z"/>
	<path d="M694.4,40.3l0.3,1.7c-0.5,0.1-1,0.2-1.5,0.2c-0.7,0-1.2-0.1-1.6-0.3s-0.7-0.5-0.8-0.9c-0.2-0.4-0.2-1.1-0.2-2.3v-6.6h-1.4
		v-1.5h1.4v-2.8l1.9-1.2v4h1.9v1.5h-1.9v6.7c0,0.6,0,0.9,0.1,1.1c0.1,0.2,0.2,0.3,0.3,0.4c0.2,0.1,0.4,0.1,0.7,0.1
		C693.8,40.3,694.1,40.3,694.4,40.3z"/>
	<path d="M702,36.9l2-0.2c0.1,0.8,0.3,1.4,0.6,1.9c0.3,0.5,0.9,0.9,1.6,1.2s1.5,0.5,2.4,0.5c0.8,0,1.5-0.1,2.1-0.4s1.1-0.6,1.4-1
		c0.3-0.4,0.4-0.9,0.4-1.3c0-0.5-0.1-0.9-0.4-1.3c-0.3-0.4-0.8-0.7-1.4-0.9c-0.4-0.2-1.4-0.4-2.8-0.8c-1.4-0.3-2.5-0.7-3-1
		c-0.8-0.4-1.3-0.9-1.7-1.5c-0.4-0.6-0.6-1.2-0.6-2c0-0.8,0.2-1.5,0.7-2.2c0.5-0.7,1.1-1.2,2-1.6c0.9-0.4,1.8-0.5,2.9-0.5
		c1.2,0,2.2,0.2,3.1,0.6c0.9,0.4,1.6,0.9,2.1,1.7s0.7,1.6,0.8,2.5l-2,0.2c-0.1-1-0.5-1.7-1.1-2.3c-0.6-0.5-1.5-0.8-2.7-0.8
		c-1.3,0-2.2,0.2-2.8,0.7c-0.6,0.5-0.9,1-0.9,1.7c0,0.6,0.2,1,0.6,1.4c0.4,0.4,1.4,0.7,3.1,1.1c1.7,0.4,2.9,0.7,3.5,1
		c0.9,0.4,1.6,1,2,1.6c0.4,0.6,0.7,1.4,0.7,2.2c0,0.8-0.2,1.6-0.7,2.4s-1.2,1.3-2.1,1.7c-0.9,0.4-1.9,0.6-3,0.6
		c-1.4,0-2.6-0.2-3.6-0.6c-1-0.4-1.7-1-2.3-1.9C702.3,38.9,702,38,702,36.9z"/>
	<path d="M717.1,42V26.2h1.9v5.7c0.9-1,2-1.6,3.4-1.6c0.8,0,1.6,0.2,2.2,0.5s1.1,0.8,1.3,1.4c0.3,0.6,0.4,1.4,0.4,2.6V42h-1.9v-7.2
		c0-1-0.2-1.7-0.6-2.1c-0.4-0.4-1-0.7-1.8-0.7c-0.6,0-1.1,0.1-1.6,0.4c-0.5,0.3-0.9,0.7-1.1,1.2c-0.2,0.5-0.3,1.2-0.3,2.1V42H717.1z
		"/>
	<path d="M736.8,40.6c-0.7,0.6-1.4,1-2.1,1.3c-0.7,0.3-1.4,0.4-2.1,0.4c-1.3,0-2.2-0.3-2.9-0.9s-1-1.4-1-2.3c0-0.6,0.1-1.1,0.4-1.5
		c0.3-0.5,0.6-0.8,1-1.1c0.4-0.3,0.9-0.5,1.4-0.6c0.4-0.1,1-0.2,1.7-0.3c1.6-0.2,2.7-0.4,3.4-0.7c0-0.3,0-0.4,0-0.5
		c0-0.8-0.2-1.3-0.5-1.7c-0.5-0.4-1.2-0.7-2.2-0.7c-0.9,0-1.6,0.2-2,0.5c-0.4,0.3-0.8,0.9-1,1.7l-1.9-0.3c0.2-0.8,0.5-1.5,0.8-2
		c0.4-0.5,1-0.9,1.7-1.1s1.6-0.4,2.6-0.4c1,0,1.8,0.1,2.4,0.3c0.6,0.2,1.1,0.5,1.3,0.9c0.3,0.3,0.5,0.8,0.6,1.3
		c0.1,0.3,0.1,0.9,0.1,1.8v2.6c0,1.8,0,2.9,0.1,3.4c0.1,0.5,0.2,0.9,0.5,1.4h-2C737,41.6,736.9,41.1,736.8,40.6z M736.6,36.3
		c-0.7,0.3-1.8,0.5-3.2,0.7c-0.8,0.1-1.4,0.2-1.7,0.4c-0.3,0.1-0.6,0.4-0.8,0.6c-0.2,0.3-0.3,0.6-0.3,0.9c0,0.5,0.2,0.9,0.6,1.3
		c0.4,0.3,1,0.5,1.7,0.5c0.7,0,1.4-0.2,2-0.5c0.6-0.3,1-0.8,1.3-1.3c0.2-0.4,0.3-1.1,0.3-1.9V36.3z"/>
	<path d="M749,42v-1.4c-0.7,1.1-1.8,1.7-3.2,1.7c-0.9,0-1.7-0.3-2.5-0.8c-0.8-0.5-1.4-1.2-1.8-2.1c-0.4-0.9-0.6-1.9-0.6-3.1
		c0-1.1,0.2-2.2,0.6-3.1c0.4-0.9,0.9-1.6,1.7-2.1s1.6-0.7,2.5-0.7c0.7,0,1.3,0.1,1.8,0.4s1,0.7,1.3,1.1v-5.7h1.9V42H749z
		 M742.9,36.3c0,1.5,0.3,2.6,0.9,3.3c0.6,0.7,1.3,1.1,2.2,1.1c0.8,0,1.6-0.3,2.2-1c0.6-0.7,0.9-1.7,0.9-3.2c0-1.6-0.3-2.7-0.9-3.4
		s-1.3-1.1-2.2-1.1c-0.9,0-1.6,0.4-2.2,1.1C743.2,33.7,742.9,34.8,742.9,36.3z"/>
	<path d="M761.6,38.3l2,0.2c-0.3,1.2-0.9,2.1-1.8,2.7s-1.9,1-3.3,1c-1.7,0-3-0.5-4-1.5c-1-1-1.5-2.5-1.5-4.3c0-1.9,0.5-3.4,1.5-4.5
		c1-1.1,2.3-1.6,3.8-1.6c1.5,0,2.8,0.5,3.7,1.6c1,1,1.5,2.5,1.5,4.4c0,0.1,0,0.3,0,0.5h-8.5c0.1,1.3,0.4,2.2,1.1,2.9s1.4,1,2.4,1
		c0.7,0,1.3-0.2,1.8-0.6C760.9,39.7,761.3,39.1,761.6,38.3z M755.3,35.2h6.4c-0.1-1-0.3-1.7-0.7-2.2c-0.6-0.7-1.4-1.1-2.4-1.1
		c-0.9,0-1.6,0.3-2.2,0.9C755.7,33.4,755.4,34.2,755.3,35.2z"/>
	<path d="M766,42V30.6h1.7v1.7c0.4-0.8,0.9-1.3,1.2-1.6c0.4-0.3,0.8-0.4,1.2-0.4c0.7,0,1.3,0.2,2,0.6l-0.7,1.8
		c-0.5-0.3-0.9-0.4-1.4-0.4c-0.4,0-0.8,0.1-1.1,0.4c-0.3,0.3-0.6,0.6-0.7,1.1c-0.2,0.7-0.3,1.4-0.3,2.3v6H766z"/>
</g>
</svg>
